<svg width="684" height="683" viewBox="0 0 684 683" fill="none" xmlns="http://www.w3.org/2000/svg">
<g clip-path="url(#clip0_4_23)">
<path d="M310.767 1.46667C267.433 5.59998 229.033 16.6667 189.967 36.1334C155.3 53.3333 129.967 71.6 101.3 99.7333C73.9667 126.8 54.2334 154.133 36.6334 189.467C-5.09996 273.2 -10.7 368.133 20.6334 456.667C32.3667 489.467 55.7 530.8 77.0334 556.667C109.167 595.333 146.1 624.667 189.967 646.533C241.967 672.4 297.3 684.533 353.833 682.267C404.633 680.133 448.767 668.933 493.7 646.533C547.833 619.733 592.767 580 626.5 529.333C638.1 511.867 655.433 477.733 662.5 458.133C685.833 394.4 689.167 321.067 671.833 255.067C665.3 230.267 659.567 215.067 647.167 190C629.833 154.933 611.567 129.467 583.433 100.8C512.633 29.0667 410.5 -8.13336 310.767 1.46667ZM224.1 164C228.367 165.6 293.033 229.467 295.967 234.933C300.5 243.6 299.567 245.2 275.3 269.867C263.033 282.4 251.833 294.667 250.633 296.933C245.567 306.933 246.633 318.8 253.433 329.067C275.7 362.133 334.367 418.8 361.433 433.333C367.567 436.667 379.7 436.933 386.9 434C389.967 432.667 400.367 423.467 413.833 410C436.1 387.867 439.567 385.467 446.9 387.333C451.433 388.4 516.9 453.2 519.967 459.733C523.967 468.267 519.433 475.467 498.233 494C475.567 513.867 450.367 522.267 424.5 518.667C389.7 513.867 332.5 485.6 291.167 452.533C275.7 440.133 237.833 402.133 225.567 386.667C197.833 351.867 173.833 307.467 165.033 275.333C159.433 254.667 161.833 233.067 172.1 212C177.7 200.667 179.967 197.6 195.567 181.733C205.033 172 214.1 163.867 215.7 163.6C217.167 163.333 218.9 162.933 219.433 162.8C219.967 162.8 221.967 163.333 224.1 164Z" fill="#800D0D"/>
</g>
<defs>
<clipPath id="clip0_4_23">
<rect width="682.667" height="682.667" fill="white" transform="translate(0.500061)"/>
</clipPath>
</defs>
</svg>
