<svg width="683" height="683" viewBox="0 0 683 683" fill="none" xmlns="http://www.w3.org/2000/svg">
<path d="M312.667 11.6C202.267 21.2 104.933 84.5333 51.0666 182C7.46664 260.8 -1.73336 357.6 26.1333 445.6C42.2666 496.267 69.3333 540.267 108.667 579.467C147.6 618.133 193.467 645.067 246.667 660.533C262 664.933 286.4 670.533 290.4 670.667C291.6 670.667 292 646 292 552V433.333H254.667H217.333V386.667V340H254.533H291.733L292.4 292.933C293.067 241.867 294 233.467 301.867 212.667C315.6 176.4 345.467 152.267 388.267 143.067C403.067 139.867 444.8 139.867 472 143.2C482.667 144.4 492.667 145.867 494.4 146.267L497.333 146.933V187.333V227.733L461.067 228.267C428.4 228.8 423.733 229.2 416 231.733C401.467 236.533 392.267 246.533 387.467 262.533C385.733 268.4 385.333 276.533 385.333 304.933V340H434C482.267 340 482.667 340 482.667 342.8C482.667 344.267 479.733 364.667 476 388C472.4 411.333 469.333 431.2 469.333 431.867C469.333 432.933 458.8 433.333 436.667 433.333H404V552C404 649.867 404.267 670.667 405.733 670.667C406.8 670.667 415.067 668.667 424.267 666.133C476.933 651.6 526.4 623.333 566.533 584.667C623.067 530.267 656.533 464.267 667.6 385.333C670.933 360.667 670.667 318.667 666.8 293.6C655.867 221.467 624.4 159.067 573.333 107.867C518.667 53.0667 453.867 21.6 377.333 12.8C361.2 10.9333 327.6 10.2667 312.667 11.6Z" fill="black"/>
</svg>
