<svg width="684" height="683" viewBox="0 0 684 683" fill="none" xmlns="http://www.w3.org/2000/svg">
<g clip-path="url(#clip0_4_8)">
<path d="M307.402 1.5332C270.347 5.02563 227.369 17.4769 191.984 34.6354C122.734 68.4968 68.6697 122.554 34.6519 191.947C-48.1146 360.95 22.5027 565.637 191.984 648.393C361.466 730.996 565.876 660.692 648.339 491.081C654.11 479.389 660.944 463.597 663.526 456.157C707.414 330.277 675.827 192.25 581.822 98.8658C509.99 27.4987 409.607 -8.03302 307.402 1.5332ZM434.513 153.834C480.832 162.944 515.001 194.376 527.91 239.93C530.492 248.889 530.643 257.088 530.643 341.514C530.643 425.94 530.492 434.139 527.91 443.098C516.064 484.856 485.843 515.225 444.08 527.676C435.88 530.105 425.857 530.409 348.557 530.865C257.134 531.472 249.086 531.017 230.254 524.487C198.818 513.554 169.964 485.159 159.333 454.639C152.196 434.291 151.74 428.217 151.74 341.514C151.74 253.292 152.196 247.826 159.941 227.023C173.912 189.821 207.323 161.881 247.415 153.986C262.45 150.949 419.174 150.949 434.513 153.834Z" fill="black"/>
<path d="M250.908 196.502C223.724 203.791 203.678 224.29 196.54 251.47C194.718 258.607 194.262 274.247 194.262 341.058C194.262 394.052 194.87 424.573 195.933 429.888C201.704 457.675 225.395 481.363 253.49 487.285C259.412 488.5 286.141 488.955 346.887 488.5L431.931 488.044L441.954 483.793C461.241 475.593 478.25 457.979 485.084 438.695C487.969 430.799 488.121 425.484 488.577 346.829C488.881 288.824 488.577 260.581 487.362 254.203C482.047 226.416 460.33 203.791 431.931 196.502C419.174 193.313 263.057 193.313 250.908 196.502ZM454.255 227.478C458.508 231.275 459.267 232.945 459.267 239.019C459.267 245.092 458.508 246.763 454.255 250.559C444.992 258.758 431.931 255.266 428.135 243.422C422.971 227.934 441.954 216.394 454.255 227.478ZM360.858 246.763C395.484 253.899 422.667 278.195 433.754 311.904C437.095 322.23 437.854 326.785 437.854 341.514C437.854 356.395 437.095 360.798 433.754 371.276C424.034 400.734 400.799 423.966 371.337 433.684C354.328 439.302 330.789 439.606 314.236 434.443C244.378 412.729 221.598 327.089 271.713 274.702C295.253 250.255 328.055 239.93 360.858 246.763Z" fill="black"/>
<path d="M326.689 284.572C283.711 296.72 268.524 348.954 298.745 381.297C315.906 399.671 339.597 404.985 363.744 396.026C376.197 391.319 391.383 376.287 396.243 363.532C401.254 350.777 401.254 332.252 396.243 319.497C391.231 306.742 376.197 291.709 363.592 287.002C351.898 282.598 337.167 281.687 326.689 284.572Z" fill="black"/>
</g>
<defs>
<clipPath id="clip0_4_8">
<rect width="682.667" height="682.667" fill="white" transform="translate(0.5)"/>
</clipPath>
</defs>
</svg>
