<svg width="683" height="683" viewBox="0 0 683 683" fill="none" xmlns="http://www.w3.org/2000/svg">
<g clip-path="url(#clip0_4_26)">
<path d="M309 1.46661C202.333 12.5333 108.867 70.5333 52.0667 160.933C-28.4667 289.067 -13.2667 459.2 88.6 570C145.267 631.6 215.4 668.267 299.667 680.267C315.533 682.533 367.933 682.4 384.333 680.133C467.267 668.667 537.4 632.133 593.933 570.8C640.467 520.4 670.2 456 680.6 383.333C682.867 367.6 682.867 315.067 680.6 299.333C672.733 243.867 655.133 196.8 625.933 152.8C613.667 134.133 601.267 118.933 583.933 101.467C530.733 47.6 464.867 14.4 389 3.19995C372.6 0.799927 325.267 -0.266724 309 1.46661ZM377 129.2C392.867 133.6 415.133 144.933 428.333 155.6C443.533 167.867 456.2 183.733 465 202C474.733 221.733 477.8 233.867 478.6 255.333C479.267 270.267 478.867 274.4 476.467 284.133C466.333 324.8 434.6 379.733 377.8 455.333C357.4 482.533 342.867 500.667 341.667 500.667C341 500.667 333.667 492 325.4 481.333C263 400.933 225.933 341.067 209.933 295.067C205.133 280.8 205 280.4 205 260C205 234.933 207.4 224.133 218.333 202C237.133 163.467 272.467 136.133 315 127.2C328.467 124.4 363.4 125.6 377 129.2ZM268.867 452L277.533 463.867L272.6 464.8C237.8 470.667 206.6 482.533 200.467 492.267C193.933 502.667 231.933 519.2 277.8 525.867C347.533 536.133 433.933 527.733 470.6 507.2C477.933 503.067 484.333 497.333 484.333 494.667C484.333 492.933 477.133 486.533 471.4 483.067C462.467 477.867 441.667 470.933 424.067 467.333C415.267 465.6 407.8 463.867 407.4 463.467C407 463.2 410.733 457.467 415.533 450.933L424.333 438.933L437.8 442.133C475.4 451.067 501 465.333 508.333 481.6C512.067 489.867 511.8 501.067 507.8 509.2C492.867 538.533 428.2 557.333 341.933 557.333C309.267 557.333 291.533 556 266.733 551.867C217.267 543.6 185.533 528.667 175.533 509.067C171.533 501.067 171.267 489.867 175 481.6C180.333 469.867 198.733 456.667 220.333 449.333C231.133 445.6 258.067 438.8 259.267 439.467C259.667 439.733 264.067 445.333 268.867 452Z" fill="#800D0D"/>
<path d="M321 179.467C306.067 183.067 294.067 190.133 281.533 202.533C264.067 220.133 256.333 238.4 256.333 262.667C256.333 286.933 264.067 305.067 281.667 322.667C299.133 340.267 317.533 348 341.667 348C365.933 348 384.067 340.267 401.667 322.667C419.267 305.067 427 286.933 427 262.667C427 238.4 419.267 220.267 401.667 202.667C389 190 377.133 183.067 361.667 179.467C350.867 176.933 331.667 176.933 321 179.467Z" fill="#800D0D"/>
</g>
<defs>
<clipPath id="clip0_4_26">
<rect width="682.667" height="682.667" fill="white" transform="translate(0.333374)"/>
</clipPath>
</defs>
</svg>
