<svg width="683" height="683" viewBox="0 0 683 683" fill="none" xmlns="http://www.w3.org/2000/svg">
<path d="M316.833 8.79999C314.7 9.06671 307.1 10 300.167 10.8C242.167 17.3334 184.3 41.6 134.833 79.8667C120.167 91.2 91.2334 120.133 79.9 134.8C42.9667 182.533 20.5667 234.933 11.2333 295.6C8.16668 315.6 8.16668 367.067 11.2333 387.067C26.1667 484 76.9667 564.933 156.167 618C200.167 647.467 245.367 664.4 300.833 672.267C318.833 674.8 367.9 674.4 387.5 671.6C437.233 664.267 484.967 646 525.5 618.933C607.767 563.867 658.3 482.267 672.433 382C674.7 366.133 674.567 316.267 672.3 300C660.567 215.333 619.767 140.133 556.833 87.0667C509.233 46.8 449.9 20.1334 388.167 11.3334C373.767 9.20001 325.9 7.46667 316.833 8.79999ZM357.5 189.867C431.633 198.133 494.3 215.333 546.167 241.733C556.033 246.8 564.167 252 567.767 255.467C580.167 268 580.033 288.267 567.233 300.267C561.767 305.467 554.7 308 545.767 308C538.7 308 536.033 307.067 519.633 298.667C452.3 264.667 364.7 247.467 270.167 249.733C226.967 250.8 192.7 255.067 159.5 263.467C129.5 271.067 113.1 265.6 107.367 246C102.167 227.6 112.167 211.467 132.567 205.6C161.9 196.933 200.967 190.533 242.833 187.467C260.7 186.267 338.967 187.867 357.5 189.867ZM331.1 302.133C391.5 308.267 445.5 324 495.1 349.6C516.967 360.933 522.167 364.933 526.3 373.867C530.033 382 530.3 389.467 526.967 396.667C522.3 406.8 515.633 410.667 502.7 410.667C495.9 410.667 493.233 409.867 482.433 404.133C434.167 378.8 376.167 361.867 316.833 356C295.5 353.733 250.7 354.133 229.5 356.533C210.967 358.8 190.833 362.4 173.633 366.8C159.633 370.4 147.1 370.133 141.367 366.267C124.967 355.2 126.433 328.933 143.9 320.133C154.567 314.8 198.967 305.467 229.9 302.133C253.233 299.467 306.3 299.6 331.1 302.133ZM347.5 412C391.1 418.667 423.767 428.533 459.5 446C485.9 458.8 490.833 463.6 490.833 476.933C490.833 489.333 482.167 496.8 468.967 495.733C463.9 495.333 457.633 492.8 444.433 486.133C405.5 466.4 366.433 455.2 322.3 450.8C303.767 448.933 261.5 448.933 241.5 450.667C224.433 452.267 190.833 457.467 177.5 460.533C154.033 466.133 141.9 461.067 139.233 444.667C138.3 438.667 142.7 429.6 148.567 425.6C153.633 422.133 174.433 417.733 206.167 413.333C239.367 408.8 249.767 408.133 290.167 408.667C321.5 408.933 332.433 409.6 347.5 412Z" fill="#800D0D"/>
</svg>
