<svg width="684" height="683" viewBox="0 0 684 683" fill="none" xmlns="http://www.w3.org/2000/svg">
<g clip-path="url(#clip0_4_13)">
<path d="M10.6667 3.59998C12 5.73334 70.4 90.6666 140.4 192.667C210.4 294.667 267.733 378.667 267.733 379.333C267.733 380.133 210.267 447.6 139.867 529.467C69.6 611.2 11.2 679.2 10.1333 680.4C8.40001 682.533 10.2667 682.667 37.6 682.667H66.9333L180.133 551.067C242.4 478.8 294 419.333 294.667 419.2C295.467 418.933 336.8 478.133 386.533 550.667L477.067 682.667H576.267C670.267 682.667 675.333 682.533 674.133 680.267C673.467 679.067 612.8 590.667 539.467 484C466.133 377.333 406 289.733 406 289.333C406 288.8 461.733 223.733 529.867 144.667L653.6 0.666626L624.933 0.266663C601.333 0 595.867 0.266663 594.133 1.86664C592.933 2.93329 544.267 59.3333 486 127.067C427.733 194.933 379.6 250.133 379.067 249.867C378.533 249.467 339.6 193.2 292.533 124.667L206.933 0H107.6H8.40001L10.6667 3.59998ZM386 340.8C500 504 593.6 638 593.733 638.8C594.133 639.6 578 639.867 549.2 639.733L504.133 639.333L296.4 342.267C182.133 178.8 88.6667 44.8 88.6667 44.5333C88.6667 44.2667 108.933 44 133.733 44L178.667 44.1333L386 340.8Z" fill="black"/>
</g>
<defs>
<clipPath id="clip0_4_13">
<rect width="682.667" height="682.667" fill="white" transform="translate(0.666687)"/>
</clipPath>
</defs>
</svg>
