<svg width="683" height="683" viewBox="0 0 683 683" fill="none" xmlns="http://www.w3.org/2000/svg">
<path d="M309.467 1.33335C193.733 12.5334 90.2667 82.6667 37.8667 185.6C19.3333 222 8.39999 257.067 2.39999 299.333C-0.266674 318 0.133326 366.533 3.19999 387.333C8.39999 424.4 19.3333 459.467 36.1333 493.2C69.3333 560.133 122.4 613.2 189.467 646.533C298.133 700.667 426.667 693.2 528 626.933C567.6 601.067 605.2 562.667 630.8 521.867C640.667 506.4 655.333 476.267 662 458.133C668.8 439.733 676.667 408 679.467 387.333C682.533 366.4 682.933 317.867 680.267 299.333C672.4 244 654.8 196.8 625.6 152.8C613.333 134.133 600.933 118.933 583.6 101.467C530.4 47.7334 464.267 14.4 388.667 3.20002C372.4 0.800017 326.533 -0.266649 309.467 1.33335ZM368 129.867C394.533 133.467 414.533 139.733 438.8 152.267C540.4 204.4 581.867 330.267 531.067 432.667C510.267 474.533 478.667 506.667 437.2 527.867C381.467 556.267 315.867 558.533 257.733 533.867L246.8 529.2L193.067 541.867C163.467 548.933 138.533 554.667 137.467 554.667C134.267 554.667 130.667 550.533 130.667 546.8C130.667 544.933 135.6 519.333 141.6 490.133C152.4 437.6 152.4 436.8 150.4 431.467C149.2 428.4 146 420.267 143.333 413.333C126.533 370.267 125.6 319.067 140.667 272.667C145.733 257.333 158.8 231.467 168.4 217.733C178.667 203.067 203.867 177.867 218.267 167.6C261.6 136.933 316.533 123.067 368 129.867Z" fill="#29A71A"/>
<path d="M331.333 174.267C306.4 176.267 286.667 181.867 265.333 192.8C193.333 229.733 158.933 313.467 184 391.067C186.133 397.733 190.933 409.067 194.533 416.267L200.933 429.067L194.4 460.8C190.8 478.267 188.133 493.2 188.267 494.133C188.533 495.067 198.933 493.2 220.667 488L252.667 480.4L265.333 486.667C321.467 514.533 384 510.667 435.2 476C495.333 435.6 521.6 356.933 498.4 287.333C481.867 237.733 441.867 198 392.667 182.267C378.4 177.733 371.067 176.267 356 174.667C343.467 173.333 341.733 173.333 331.333 174.267ZM278 239.2C283.067 241.333 284.267 243.467 296.133 270.267C300.4 280.267 304 290.267 304 292.8C304 296 302.133 299.6 296.667 306.8C287.733 318.533 287.2 322.8 293.467 332.8C298.533 340.933 322.667 364.8 336 374.933C356.8 390.8 366 394.533 373.733 390.533C375.333 389.6 380.4 385.467 384.933 381.2C391.6 374.8 393.867 373.333 397.6 373.333C400 373.333 412.267 376.4 424.667 380C444 385.6 447.867 387.067 451.067 390.667C453.6 393.6 454.667 396.133 454.667 399.867C454.667 410.8 435.067 433.067 420.4 438.8C410.133 442.8 386.667 443.2 372.667 439.467C338.933 430.533 298.267 402 268.533 366.267C244.933 338.133 235.467 316.267 235.333 290.667C235.333 277.467 235.6 276.133 239.733 267.6C242.667 261.733 247.467 255.333 253.467 249.2C265.467 237.067 269.2 235.6 278 239.2Z" fill="#29A71A"/>
</svg>
