<svg width="684" height="683" viewBox="0 0 684 683" fill="none" xmlns="http://www.w3.org/2000/svg">
<path d="M310.134 1.3333C194.4 12.5333 90.9334 82.6667 38.5334 185.6C20 222 9.0667 257.067 3.0667 299.333C0.400036 318 0.800036 366.533 3.8667 387.333C9.0667 424.4 20 459.467 36.8 493.2C70 560.133 123.067 613.2 190.134 646.533C298.8 700.667 427.334 693.2 528.667 626.933C568.267 601.067 605.867 562.667 631.467 521.867C641.334 506.4 656 476.267 662.667 458.133C669.467 439.733 677.334 408 680.134 387.333C683.2 366.4 683.6 317.867 680.934 299.333C673.067 244 655.467 196.8 626.267 152.8C614 134.133 601.6 118.933 584.267 101.467C531.067 47.7333 464.934 14.3999 389.334 3.19997C373.067 0.799966 327.2 -0.2667 310.134 1.3333ZM368.667 129.867C395.2 133.467 415.2 139.733 439.467 152.267C541.067 204.4 582.534 330.267 531.734 432.667C510.934 474.533 479.334 506.667 437.867 527.867C382.134 556.267 316.534 558.533 258.4 533.867L247.467 529.2L193.734 541.867C164.134 548.933 139.2 554.667 138.134 554.667C134.934 554.667 131.334 550.533 131.334 546.8C131.334 544.933 136.267 519.333 142.267 490.133C153.067 437.6 153.067 436.8 151.067 431.467C149.867 428.4 146.667 420.267 144 413.333C127.2 370.267 126.267 319.067 141.334 272.667C146.4 257.333 159.467 231.467 169.067 217.733C179.334 203.067 204.534 177.867 218.934 167.6C262.267 136.933 317.2 123.067 368.667 129.867Z" fill="#800D0D"/>
<path d="M332 174.267C307.067 176.267 287.334 181.867 266 192.8C194 229.733 159.6 313.467 184.667 391.067C186.8 397.733 191.6 409.067 195.2 416.267L201.6 429.067L195.067 460.8C191.467 478.267 188.8 493.2 188.934 494.133C189.2 495.067 199.6 493.2 221.334 488L253.334 480.4L266 486.667C322.134 514.533 384.667 510.667 435.867 476C496 435.6 522.267 356.933 499.067 287.333C482.534 237.733 442.534 198 393.334 182.267C379.067 177.733 371.734 176.267 356.667 174.667C344.134 173.333 342.4 173.333 332 174.267ZM278.667 239.2C283.734 241.333 284.934 243.467 296.8 270.267C301.067 280.267 304.667 290.267 304.667 292.8C304.667 296 302.8 299.6 297.334 306.8C288.4 318.533 287.867 322.8 294.134 332.8C299.2 340.933 323.334 364.8 336.667 374.933C357.467 390.8 366.667 394.533 374.4 390.533C376 389.6 381.067 385.467 385.6 381.2C392.267 374.8 394.534 373.333 398.267 373.333C400.667 373.333 412.934 376.4 425.334 380C444.667 385.6 448.534 387.067 451.734 390.667C454.267 393.6 455.334 396.133 455.334 399.867C455.334 410.8 435.734 433.067 421.067 438.8C410.8 442.8 387.334 443.2 373.334 439.467C339.6 430.533 298.934 402 269.2 366.267C245.6 338.133 236.134 316.267 236 290.667C236 277.467 236.267 276.133 240.4 267.6C243.334 261.733 248.134 255.333 254.134 249.2C266.134 237.067 269.867 235.6 278.667 239.2Z" fill="#800D0D"/>
</svg>
