<svg width="684" height="683" viewBox="0 0 684 683" fill="none" xmlns="http://www.w3.org/2000/svg">
<g clip-path="url(#clip0_4_19)">
<path d="M310.3 1.33337C194.567 12.5333 91.1 82.6666 38.7 185.6C20.1667 222 9.23337 257.067 3.23337 299.333C0.5667 318 0.9667 366.533 4.03337 387.333C9.23337 424.4 20.1667 459.467 36.9667 493.2C70.1667 560.133 123.233 613.2 190.3 646.533C298.967 700.667 427.5 693.2 528.833 626.933C568.433 601.067 606.033 562.667 631.633 521.867C641.5 506.4 656.167 476.267 662.833 458.133C669.633 439.733 677.5 408 680.3 387.333C683.367 366.4 683.767 317.867 681.1 299.333C673.233 244 655.633 196.8 626.433 152.8C614.167 134.133 601.767 118.933 584.433 101.467C531.233 47.7333 465.1 14.4 389.5 3.20001C373.233 0.799988 327.367 -0.266663 310.3 1.33337ZM471.633 215.467C496.567 222.8 514.967 242.4 520.167 267.333C522.967 280.933 522.967 401.733 520.167 415.333C514.967 440.267 496.433 459.867 471.633 467.2C465.233 469.067 450.167 469.333 342.167 469.333C234.167 469.333 219.1 469.067 212.7 467.2C187.767 459.867 169.367 440.267 164.167 415.333C161.367 401.733 161.367 280.933 164.167 267.333C169.367 242.933 185.767 224.667 210.167 216.4L218.833 213.467L341.633 213.333C450.167 213.333 465.233 213.6 471.633 215.467Z" fill="#800D0D"/>
<path d="M294.167 341.2C294.167 371.333 294.433 396 294.833 396C296.167 396 388.833 342 388.833 341.333C388.7 340.667 298.033 287.733 295.5 286.933C294.567 286.667 294.167 305.867 294.167 341.2Z" fill="#800D0D"/>
</g>
<defs>
<clipPath id="clip0_4_19">
<rect width="682.667" height="682.667" fill="white" transform="translate(0.833374)"/>
</clipPath>
</defs>
</svg>
