<svg xmlns="http://www.w3.org/2000/svg" xmlns:xlink="http://www.w3.org/1999/xlink" width="500" zoomAndPan="magnify" viewBox="0 0 375 374.999991" height="500" preserveAspectRatio="xMidYMid meet" version="1.0"><defs><g/><clipPath id="19df6e555f"><path d="M 83.628906 153.167969 L 291.371094 153.167969 L 291.371094 187.445312 L 83.628906 187.445312 Z M 83.628906 153.167969 " clip-rule="nonzero"/></clipPath><clipPath id="56a48ea860"><path d="M 111 48.832031 L 264 48.832031 L 264 146 L 111 146 Z M 111 48.832031 " clip-rule="nonzero"/></clipPath><clipPath id="8298098b10"><path d="M 161.066406 60.375 L 213.859375 60.375 L 213.859375 130.769531 L 161.066406 130.769531 Z M 161.066406 60.375 " clip-rule="nonzero"/></clipPath></defs><rect x="-37.5" width="450" fill="#ffffff" y="-37.499999" height="449.999989" fill-opacity="1"/><g fill="#000000" fill-opacity="1"><g transform="translate(109.075315, 221.939357)"><g><path d="M 1.28125 -21.3125 L 15.6875 -21.3125 L 15.6875 -19.078125 L 9.65625 -19.078125 L 9.65625 0 L 7.296875 0 L 7.296875 -19.078125 L 1.28125 -19.078125 Z M 1.28125 -21.3125 "/></g></g></g><g fill="#000000" fill-opacity="1"><g transform="translate(131.791147, 221.939357)"><g><path d="M 4.765625 -19.078125 L 4.765625 -10.4375 L 6.65625 -10.4375 C 7.65625 -10.4375 8.382812 -10.453125 8.84375 -10.484375 C 9.300781 -10.515625 9.800781 -10.609375 10.34375 -10.765625 C 10.894531 -10.929688 11.363281 -11.191406 11.75 -11.546875 C 12.570312 -12.316406 12.984375 -13.382812 12.984375 -14.75 C 12.984375 -16.113281 12.570312 -17.179688 11.75 -17.953125 C 11.1875 -18.460938 10.554688 -18.773438 9.859375 -18.890625 C 9.171875 -19.015625 8.101562 -19.078125 6.65625 -19.078125 Z M 2.40625 -21.3125 L 6.65625 -21.3125 C 7.757812 -21.3125 8.601562 -21.289062 9.1875 -21.25 C 9.78125 -21.207031 10.484375 -21.050781 11.296875 -20.78125 C 12.109375 -20.519531 12.8125 -20.109375 13.40625 -19.546875 C 14.707031 -18.316406 15.359375 -16.71875 15.359375 -14.75 C 15.359375 -13.40625 15.035156 -12.21875 14.390625 -11.1875 C 13.753906 -10.164062 12.925781 -9.410156 11.90625 -8.921875 L 15.6875 0 L 13.125 0 L 9.65625 -8.28125 C 9.1875 -8.21875 8.1875 -8.1875 6.65625 -8.1875 L 4.765625 -8.1875 L 4.765625 0.03125 L 2.40625 0.03125 Z M 2.40625 -21.3125 "/></g></g></g><g fill="#000000" fill-opacity="1"><g transform="translate(154.826899, 221.939357)"><g><path d="M 0.484375 0 L 7.75 -21.3125 L 9.65625 -21.3125 L 16.921875 0 L 14.4375 0 L 12.734375 -5.28125 L 4.671875 -5.28125 L 2.96875 0 Z M 12.03125 -7.515625 L 8.703125 -17.984375 L 5.375 -7.515625 Z M 12.03125 -7.515625 "/></g></g></g><g fill="#000000" fill-opacity="1"><g transform="translate(177.990629, 221.939357)"><g><path d="M 7.484375 -9.859375 L 4.765625 -9.859375 L 4.765625 -2.234375 L 7.484375 -2.234375 C 8.398438 -2.234375 9.078125 -2.242188 9.515625 -2.265625 C 9.953125 -2.285156 10.421875 -2.378906 10.921875 -2.546875 C 11.429688 -2.722656 11.851562 -2.992188 12.1875 -3.359375 C 12.832031 -4.046875 13.15625 -4.941406 13.15625 -6.046875 C 13.15625 -7.160156 12.832031 -8.054688 12.1875 -8.734375 C 11.71875 -9.242188 11.148438 -9.554688 10.484375 -9.671875 C 9.828125 -9.796875 8.828125 -9.859375 7.484375 -9.859375 Z M 7.171875 -19.078125 L 4.765625 -19.078125 L 4.765625 -12.09375 L 7.171875 -12.09375 C 8.085938 -12.09375 8.757812 -12.109375 9.1875 -12.140625 C 9.613281 -12.171875 10.070312 -12.269531 10.5625 -12.4375 C 11.050781 -12.613281 11.445312 -12.882812 11.75 -13.25 C 12.257812 -13.882812 12.515625 -14.660156 12.515625 -15.578125 C 12.515625 -16.492188 12.257812 -17.273438 11.75 -17.921875 C 11.320312 -18.429688 10.78125 -18.75 10.125 -18.875 C 9.476562 -19.007812 8.492188 -19.078125 7.171875 -19.078125 Z M 7.171875 -21.3125 C 8.148438 -21.3125 8.878906 -21.296875 9.359375 -21.265625 C 9.835938 -21.234375 10.40625 -21.117188 11.0625 -20.921875 C 11.726562 -20.734375 12.316406 -20.445312 12.828125 -20.0625 C 14.191406 -19 14.875 -17.503906 14.875 -15.578125 C 14.875 -13.578125 14.097656 -12.097656 12.546875 -11.140625 C 14.523438 -10.109375 15.515625 -8.410156 15.515625 -6.046875 C 15.515625 -4.296875 14.953125 -2.859375 13.828125 -1.734375 C 13.296875 -1.191406 12.644531 -0.785156 11.875 -0.515625 C 11.101562 -0.253906 10.441406 -0.101562 9.890625 -0.0625 C 9.335938 -0.0195312 8.535156 0 7.484375 0 L 2.40625 0 L 2.40625 -21.3125 Z M 7.171875 -21.3125 "/></g></g></g><g fill="#000000" fill-opacity="1"><g transform="translate(201.026383, 221.939357)"><g><path d="M 0.484375 0 L 7.75 -21.3125 L 9.65625 -21.3125 L 16.921875 0 L 14.4375 0 L 12.734375 -5.28125 L 4.671875 -5.28125 L 2.96875 0 Z M 12.03125 -7.515625 L 8.703125 -17.984375 L 5.375 -7.515625 Z M 12.03125 -7.515625 "/></g></g></g><g fill="#000000" fill-opacity="1"><g transform="translate(224.19011, 221.939357)"><g><path d="M 9.28125 -21.5 C 11.539062 -21.5 13.40625 -20.785156 14.875 -19.359375 L 13.4375 -17.59375 C 12.375 -18.707031 10.988281 -19.265625 9.28125 -19.265625 C 7.65625 -19.265625 6.425781 -18.726562 5.59375 -17.65625 C 5.0625 -16.976562 4.738281 -16.179688 4.625 -15.265625 C 4.507812 -14.347656 4.453125 -12.8125 4.453125 -10.65625 C 4.453125 -8.519531 4.507812 -6.992188 4.625 -6.078125 C 4.738281 -5.160156 5.050781 -4.363281 5.5625 -3.6875 C 6.394531 -2.59375 7.632812 -2.046875 9.28125 -2.046875 C 11.132812 -2.046875 12.609375 -2.675781 13.703125 -3.9375 L 15.328125 -2.34375 C 14.640625 -1.59375 13.765625 -0.984375 12.703125 -0.515625 C 11.640625 -0.046875 10.5 0.1875 9.28125 0.1875 C 6.820312 0.1875 4.941406 -0.664062 3.640625 -2.375 C 2.921875 -3.3125 2.476562 -4.332031 2.3125 -5.4375 C 2.15625 -6.550781 2.078125 -8.289062 2.078125 -10.65625 C 2.078125 -12.28125 2.097656 -13.457031 2.140625 -14.1875 C 2.179688 -14.925781 2.316406 -15.75 2.546875 -16.65625 C 2.785156 -17.5625 3.164062 -18.332031 3.6875 -18.96875 C 4.976562 -20.65625 6.84375 -21.5 9.28125 -21.5 Z M 9.28125 -21.5 "/></g></g></g><g fill="#000000" fill-opacity="1"><g transform="translate(247.033912, 221.939357)"><g><path d="M 2.40625 -21.3125 L 4.765625 -21.3125 L 4.765625 -12.09375 L 14.109375 -12.09375 L 14.109375 -21.3125 L 16.484375 -21.3125 L 16.484375 0 L 14.109375 0 L 14.109375 -9.859375 L 4.765625 -9.859375 L 4.765625 0 L 2.40625 0 Z M 2.40625 -21.3125 "/></g></g></g><g fill="#000000" fill-opacity="1"><g transform="translate(85.544066, 257.189354)"><g><path d="M 7.90625 -21.5 C 10.144531 -21.5 12.0625 -20.90625 13.65625 -19.71875 L 12.453125 -17.796875 C 11.234375 -18.773438 9.71875 -19.265625 7.90625 -19.265625 C 6.582031 -19.265625 5.585938 -18.945312 4.921875 -18.3125 C 4.265625 -17.6875 3.9375 -16.945312 3.9375 -16.09375 C 3.9375 -15.09375 4.363281 -14.25 5.21875 -13.5625 C 5.726562 -13.132812 6.75 -12.6875 8.28125 -12.21875 C 10.289062 -11.625 11.734375 -10.953125 12.609375 -10.203125 C 14.015625 -8.992188 14.71875 -7.515625 14.71875 -5.765625 C 14.71875 -4.160156 14.117188 -2.765625 12.921875 -1.578125 C 11.734375 -0.398438 10.0625 0.1875 7.90625 0.1875 C 5.488281 0.1875 3.363281 -0.535156 1.53125 -1.984375 L 2.875 -3.8125 C 4.3125 -2.632812 5.988281 -2.046875 7.90625 -2.046875 C 9.394531 -2.046875 10.507812 -2.414062 11.25 -3.15625 C 11.988281 -3.90625 12.359375 -4.773438 12.359375 -5.765625 C 12.359375 -6.890625 11.882812 -7.835938 10.9375 -8.609375 C 10.382812 -9.078125 9.171875 -9.597656 7.296875 -10.171875 C 5.648438 -10.660156 4.398438 -11.257812 3.546875 -11.96875 C 2.972656 -12.4375 2.5 -13.03125 2.125 -13.75 C 1.75 -14.476562 1.5625 -15.238281 1.5625 -16.03125 C 1.5625 -17.59375 2.128906 -18.894531 3.265625 -19.9375 C 4.410156 -20.976562 5.957031 -21.5 7.90625 -21.5 Z M 7.90625 -21.5 "/></g></g></g><g fill="#000000" fill-opacity="1"><g transform="translate(107.620055, 257.189354)"><g><path d="M 4.453125 -10.65625 C 4.453125 -9.3125 4.460938 -8.332031 4.484375 -7.71875 C 4.503906 -7.113281 4.578125 -6.46875 4.703125 -5.78125 C 4.828125 -5.101562 5.019531 -4.539062 5.28125 -4.09375 C 6.09375 -2.726562 7.445312 -2.046875 9.34375 -2.046875 C 11.238281 -2.046875 12.59375 -2.726562 13.40625 -4.09375 C 13.789062 -4.71875 14.023438 -5.484375 14.109375 -6.390625 C 14.191406 -7.296875 14.234375 -8.71875 14.234375 -10.65625 C 14.234375 -12 14.222656 -12.972656 14.203125 -13.578125 C 14.179688 -14.191406 14.109375 -14.835938 13.984375 -15.515625 C 13.859375 -16.203125 13.664062 -16.769531 13.40625 -17.21875 C 12.59375 -18.582031 11.238281 -19.265625 9.34375 -19.265625 C 7.445312 -19.265625 6.09375 -18.582031 5.28125 -17.21875 C 4.894531 -16.59375 4.660156 -15.828125 4.578125 -14.921875 C 4.492188 -14.015625 4.453125 -12.59375 4.453125 -10.65625 Z M 2.078125 -10.65625 C 2.078125 -12.207031 2.09375 -13.328125 2.125 -14.015625 C 2.15625 -14.703125 2.253906 -15.441406 2.421875 -16.234375 C 2.597656 -17.035156 2.867188 -17.738281 3.234375 -18.34375 C 3.828125 -19.320312 4.660156 -20.09375 5.734375 -20.65625 C 6.816406 -21.21875 8.019531 -21.5 9.34375 -21.5 C 10.664062 -21.5 11.863281 -21.21875 12.9375 -20.65625 C 14.019531 -20.09375 14.859375 -19.320312 15.453125 -18.34375 C 15.984375 -17.488281 16.304688 -16.546875 16.421875 -15.515625 C 16.546875 -14.492188 16.609375 -12.875 16.609375 -10.65625 C 16.609375 -9.09375 16.59375 -7.96875 16.5625 -7.28125 C 16.53125 -6.601562 16.425781 -5.863281 16.25 -5.0625 C 16.082031 -4.269531 15.816406 -3.570312 15.453125 -2.96875 C 14.859375 -1.988281 14.019531 -1.21875 12.9375 -0.65625 C 11.863281 -0.09375 10.664062 0.1875 9.34375 0.1875 C 8.019531 0.1875 6.816406 -0.09375 5.734375 -0.65625 C 4.660156 -1.21875 3.828125 -1.988281 3.234375 -2.96875 C 2.703125 -3.820312 2.375 -4.757812 2.25 -5.78125 C 2.132812 -6.8125 2.078125 -8.4375 2.078125 -10.65625 Z M 2.078125 -10.65625 "/></g></g></g><g fill="#000000" fill-opacity="1"><g transform="translate(132.06346, 257.189354)"><g><path d="M 2.40625 -21.3125 L 13.921875 -21.3125 L 13.921875 -19.078125 L 4.765625 -19.078125 L 4.765625 -12.09375 L 12.3125 -12.09375 L 12.3125 -9.859375 L 4.765625 -9.859375 L 4.765625 0 L 2.40625 0 Z M 2.40625 -21.3125 "/></g></g></g><g fill="#000000" fill-opacity="1"><g transform="translate(153.659564, 257.189354)"><g><path d="M 1.28125 -21.3125 L 15.6875 -21.3125 L 15.6875 -19.078125 L 9.65625 -19.078125 L 9.65625 0 L 7.296875 0 L 7.296875 -19.078125 L 1.28125 -19.078125 Z M 1.28125 -21.3125 "/></g></g></g><g fill="#000000" fill-opacity="1"><g transform="translate(176.375392, 257.189354)"><g><path d="M 12.21875 -16.03125 L 16.03125 -4.359375 L 19.421875 -21.3125 L 21.765625 -21.3125 L 17.25 0 L 15.359375 0 L 11.359375 -12.3125 L 7.359375 0 L 5.46875 0 L 0.953125 -21.3125 L 3.359375 -21.3125 L 6.8125 -4.359375 L 10.5625 -16.03125 Z M 12.21875 -16.03125 "/></g></g></g><g fill="#000000" fill-opacity="1"><g transform="translate(204.849813, 257.189354)"><g><path d="M 0.484375 0 L 7.75 -21.3125 L 9.65625 -21.3125 L 16.921875 0 L 14.4375 0 L 12.734375 -5.28125 L 4.671875 -5.28125 L 2.96875 0 Z M 12.03125 -7.515625 L 8.703125 -17.984375 L 5.375 -7.515625 Z M 12.03125 -7.515625 "/></g></g></g><g fill="#000000" fill-opacity="1"><g transform="translate(228.013546, 257.189354)"><g><path d="M 4.765625 -19.078125 L 4.765625 -10.4375 L 6.65625 -10.4375 C 7.65625 -10.4375 8.382812 -10.453125 8.84375 -10.484375 C 9.300781 -10.515625 9.800781 -10.609375 10.34375 -10.765625 C 10.894531 -10.929688 11.363281 -11.191406 11.75 -11.546875 C 12.570312 -12.316406 12.984375 -13.382812 12.984375 -14.75 C 12.984375 -16.113281 12.570312 -17.179688 11.75 -17.953125 C 11.1875 -18.460938 10.554688 -18.773438 9.859375 -18.890625 C 9.171875 -19.015625 8.101562 -19.078125 6.65625 -19.078125 Z M 2.40625 -21.3125 L 6.65625 -21.3125 C 7.757812 -21.3125 8.601562 -21.289062 9.1875 -21.25 C 9.78125 -21.207031 10.484375 -21.050781 11.296875 -20.78125 C 12.109375 -20.519531 12.8125 -20.109375 13.40625 -19.546875 C 14.707031 -18.316406 15.359375 -16.71875 15.359375 -14.75 C 15.359375 -13.40625 15.035156 -12.21875 14.390625 -11.1875 C 13.753906 -10.164062 12.925781 -9.410156 11.90625 -8.921875 L 15.6875 0 L 13.125 0 L 9.65625 -8.28125 C 9.1875 -8.21875 8.1875 -8.1875 6.65625 -8.1875 L 4.765625 -8.1875 L 4.765625 0.03125 L 2.40625 0.03125 Z M 2.40625 -21.3125 "/></g></g></g><g fill="#000000" fill-opacity="1"><g transform="translate(251.049288, 257.189354)"><g><path d="M 2.40625 -21.3125 L 14.234375 -21.3125 L 14.234375 -19.078125 L 4.765625 -19.078125 L 4.765625 -12.09375 L 12.3125 -12.09375 L 12.3125 -9.859375 L 4.765625 -9.859375 L 4.765625 -2.234375 L 14.234375 -2.234375 L 14.234375 0 L 2.40625 0 Z M 2.40625 -21.3125 "/></g></g></g><g fill="#000000" fill-opacity="1"><g transform="translate(273.125283, 257.189354)"><g><path d="M 7.90625 -21.5 C 10.144531 -21.5 12.0625 -20.90625 13.65625 -19.71875 L 12.453125 -17.796875 C 11.234375 -18.773438 9.71875 -19.265625 7.90625 -19.265625 C 6.582031 -19.265625 5.585938 -18.945312 4.921875 -18.3125 C 4.265625 -17.6875 3.9375 -16.945312 3.9375 -16.09375 C 3.9375 -15.09375 4.363281 -14.25 5.21875 -13.5625 C 5.726562 -13.132812 6.75 -12.6875 8.28125 -12.21875 C 10.289062 -11.625 11.734375 -10.953125 12.609375 -10.203125 C 14.015625 -8.992188 14.71875 -7.515625 14.71875 -5.765625 C 14.71875 -4.160156 14.117188 -2.765625 12.921875 -1.578125 C 11.734375 -0.398438 10.0625 0.1875 7.90625 0.1875 C 5.488281 0.1875 3.363281 -0.535156 1.53125 -1.984375 L 2.875 -3.8125 C 4.3125 -2.632812 5.988281 -2.046875 7.90625 -2.046875 C 9.394531 -2.046875 10.507812 -2.414062 11.25 -3.15625 C 11.988281 -3.90625 12.359375 -4.773438 12.359375 -5.765625 C 12.359375 -6.890625 11.882812 -7.835938 10.9375 -8.609375 C 10.382812 -9.078125 9.171875 -9.597656 7.296875 -10.171875 C 5.648438 -10.660156 4.398438 -11.257812 3.546875 -11.96875 C 2.972656 -12.4375 2.5 -13.03125 2.125 -13.75 C 1.75 -14.476562 1.5625 -15.238281 1.5625 -16.03125 C 1.5625 -17.59375 2.128906 -18.894531 3.265625 -19.9375 C 4.410156 -20.976562 5.957031 -21.5 7.90625 -21.5 Z M 7.90625 -21.5 "/></g></g></g><g fill="#000000" fill-opacity="1"><g transform="translate(75.707115, 285.302062)"><g><path d="M 3.265625 -8.90625 C 4.191406 -8.90625 4.988281 -8.65625 5.65625 -8.15625 L 5.15625 -7.359375 C 4.65625 -7.773438 4.023438 -7.984375 3.265625 -7.984375 C 2.722656 -7.984375 2.3125 -7.847656 2.03125 -7.578125 C 1.757812 -7.316406 1.625 -7.015625 1.625 -6.671875 C 1.625 -6.253906 1.800781 -5.90625 2.15625 -5.625 C 2.375 -5.445312 2.800781 -5.257812 3.4375 -5.0625 C 4.257812 -4.8125 4.851562 -4.535156 5.21875 -4.234375 C 5.800781 -3.722656 6.09375 -3.109375 6.09375 -2.390625 C 6.09375 -1.722656 5.84375 -1.144531 5.34375 -0.65625 C 4.851562 -0.164062 4.160156 0.078125 3.265625 0.078125 C 2.273438 0.078125 1.398438 -0.222656 0.640625 -0.828125 L 1.1875 -1.578125 C 1.78125 -1.085938 2.472656 -0.84375 3.265625 -0.84375 C 3.890625 -0.84375 4.351562 -1 4.65625 -1.3125 C 4.957031 -1.625 5.109375 -1.984375 5.109375 -2.390625 C 5.109375 -2.859375 4.914062 -3.25 4.53125 -3.5625 C 4.300781 -3.757812 3.796875 -3.976562 3.015625 -4.21875 C 2.335938 -4.414062 1.820312 -4.660156 1.46875 -4.953125 C 1.226562 -5.148438 1.03125 -5.394531 0.875 -5.6875 C 0.726562 -5.988281 0.65625 -6.304688 0.65625 -6.640625 C 0.65625 -7.285156 0.890625 -7.820312 1.359375 -8.25 C 1.828125 -8.6875 2.460938 -8.90625 3.265625 -8.90625 Z M 3.265625 -8.90625 "/></g></g></g><g fill="#000000" fill-opacity="1"><g transform="translate(86.170662, 285.302062)"><g><path d="M 1.84375 -4.40625 C 1.84375 -3.851562 1.847656 -3.453125 1.859375 -3.203125 C 1.867188 -2.953125 1.898438 -2.679688 1.953125 -2.390625 C 2.003906 -2.109375 2.082031 -1.878906 2.1875 -1.703125 C 2.519531 -1.128906 3.078125 -0.84375 3.859375 -0.84375 C 4.648438 -0.84375 5.210938 -1.128906 5.546875 -1.703125 C 5.710938 -1.953125 5.8125 -2.265625 5.84375 -2.640625 C 5.875 -3.015625 5.890625 -3.601562 5.890625 -4.40625 C 5.890625 -4.96875 5.882812 -5.375 5.875 -5.625 C 5.875 -5.875 5.84375 -6.140625 5.78125 -6.421875 C 5.726562 -6.703125 5.648438 -6.9375 5.546875 -7.125 C 5.210938 -7.695312 4.648438 -7.984375 3.859375 -7.984375 C 3.078125 -7.984375 2.519531 -7.695312 2.1875 -7.125 C 2.03125 -6.875 1.929688 -6.5625 1.890625 -6.1875 C 1.859375 -5.8125 1.84375 -5.21875 1.84375 -4.40625 Z M 0.859375 -4.40625 C 0.859375 -5.050781 0.863281 -5.515625 0.875 -5.796875 C 0.894531 -6.085938 0.9375 -6.394531 1 -6.71875 C 1.070312 -7.050781 1.1875 -7.34375 1.34375 -7.59375 C 1.582031 -8 1.925781 -8.316406 2.375 -8.546875 C 2.820312 -8.785156 3.316406 -8.90625 3.859375 -8.90625 C 4.410156 -8.90625 4.910156 -8.785156 5.359375 -8.546875 C 5.804688 -8.316406 6.15625 -8 6.40625 -7.59375 C 6.625 -7.238281 6.753906 -6.847656 6.796875 -6.421875 C 6.847656 -6.003906 6.875 -5.332031 6.875 -4.40625 C 6.875 -3.757812 6.867188 -3.296875 6.859375 -3.015625 C 6.847656 -2.734375 6.804688 -2.425781 6.734375 -2.09375 C 6.660156 -1.769531 6.550781 -1.484375 6.40625 -1.234375 C 6.15625 -0.828125 5.804688 -0.503906 5.359375 -0.265625 C 4.910156 -0.0351562 4.410156 0.078125 3.859375 0.078125 C 3.316406 0.078125 2.820312 -0.0351562 2.375 -0.265625 C 1.925781 -0.503906 1.582031 -0.828125 1.34375 -1.234375 C 1.113281 -1.585938 0.972656 -1.972656 0.921875 -2.390625 C 0.878906 -2.816406 0.859375 -3.488281 0.859375 -4.40625 Z M 0.859375 -4.40625 "/></g></g></g><g fill="#000000" fill-opacity="1"><g transform="translate(97.614133, 285.302062)"><g><path d="M 1 -8.828125 L 1.96875 -8.828125 L 1.96875 -0.921875 L 5.625 -0.921875 L 5.625 0 L 1 0 Z M 1 -8.828125 "/></g></g></g><g fill="#000000" fill-opacity="1"><g transform="translate(107.680409, 285.302062)"><g><path d="M 0.921875 -8.828125 L 1.90625 -8.828125 L 1.90625 -3.703125 C 1.90625 -3.242188 1.910156 -2.90625 1.921875 -2.6875 C 1.929688 -2.476562 1.96875 -2.242188 2.03125 -1.984375 C 2.101562 -1.734375 2.210938 -1.53125 2.359375 -1.375 C 2.671875 -1.019531 3.101562 -0.84375 3.65625 -0.84375 C 4.21875 -0.84375 4.660156 -1.019531 4.984375 -1.375 C 5.117188 -1.53125 5.222656 -1.734375 5.296875 -1.984375 C 5.367188 -2.242188 5.410156 -2.476562 5.421875 -2.6875 C 5.429688 -2.90625 5.4375 -3.242188 5.4375 -3.703125 L 5.4375 -8.828125 L 6.40625 -8.828125 L 6.40625 -3.703125 C 6.40625 -3.304688 6.398438 -3.007812 6.390625 -2.8125 C 6.390625 -2.625 6.367188 -2.390625 6.328125 -2.109375 C 6.285156 -1.828125 6.210938 -1.578125 6.109375 -1.359375 C 6.015625 -1.148438 5.882812 -0.953125 5.71875 -0.765625 C 5.226562 -0.203125 4.546875 0.078125 3.671875 0.078125 C 2.796875 0.078125 2.109375 -0.203125 1.609375 -0.765625 C 1.441406 -0.953125 1.3125 -1.148438 1.21875 -1.359375 C 1.125 -1.578125 1.054688 -1.828125 1.015625 -2.109375 C 0.972656 -2.390625 0.945312 -2.625 0.9375 -2.8125 C 0.925781 -3.007812 0.921875 -3.304688 0.921875 -3.703125 Z M 0.921875 -8.828125 "/></g></g></g><g fill="#000000" fill-opacity="1"><g transform="translate(118.72661, 285.302062)"><g><path d="M 3 1.703125 C 3.1875 1.773438 3.367188 1.8125 3.546875 1.8125 C 3.742188 1.8125 3.90625 1.78125 4.03125 1.71875 C 4.207031 1.613281 4.296875 1.484375 4.296875 1.328125 C 4.296875 1.171875 4.222656 1.054688 4.078125 0.984375 C 4.003906 0.941406 3.894531 0.921875 3.75 0.921875 L 3.265625 0.921875 L 3.53125 0.0625 C 2.832031 0 2.257812 -0.21875 1.8125 -0.59375 C 1.507812 -0.851562 1.285156 -1.171875 1.140625 -1.546875 C 0.992188 -1.921875 0.910156 -2.242188 0.890625 -2.515625 C 0.867188 -2.785156 0.859375 -3.179688 0.859375 -3.703125 L 0.859375 -5.125 C 0.859375 -5.507812 0.863281 -5.800781 0.875 -6 C 0.894531 -6.207031 0.929688 -6.460938 0.984375 -6.765625 C 1.035156 -7.066406 1.128906 -7.332031 1.265625 -7.5625 C 1.398438 -7.800781 1.578125 -8.019531 1.796875 -8.21875 C 2.328125 -8.675781 3.007812 -8.90625 3.84375 -8.90625 C 4.757812 -8.90625 5.539062 -8.648438 6.1875 -8.140625 L 5.609375 -7.390625 C 5.117188 -7.785156 4.53125 -7.984375 3.84375 -7.984375 C 3.269531 -7.984375 2.816406 -7.835938 2.484375 -7.546875 C 2.285156 -7.367188 2.132812 -7.144531 2.03125 -6.875 C 1.925781 -6.613281 1.867188 -6.367188 1.859375 -6.140625 C 1.847656 -5.921875 1.84375 -5.582031 1.84375 -5.125 L 1.84375 -3.703125 C 1.84375 -3.234375 1.847656 -2.890625 1.859375 -2.671875 C 1.867188 -2.453125 1.921875 -2.207031 2.015625 -1.9375 C 2.117188 -1.675781 2.273438 -1.457031 2.484375 -1.28125 C 2.816406 -0.988281 3.269531 -0.84375 3.84375 -0.84375 C 4.601562 -0.84375 5.222656 -1.066406 5.703125 -1.515625 L 6.3125 -0.78125 C 5.695312 -0.269531 4.960938 0.0078125 4.109375 0.0625 L 3.984375 0.484375 C 4.316406 0.484375 4.566406 0.539062 4.734375 0.65625 C 4.929688 0.8125 5.03125 1.03125 5.03125 1.3125 C 5.03125 1.632812 4.894531 1.914062 4.625 2.15625 C 4.351562 2.382812 3.992188 2.5 3.546875 2.5 C 3.273438 2.5 3.023438 2.453125 2.796875 2.359375 Z M 3 1.703125 "/></g></g></g><g fill="#000000" fill-opacity="1"><g transform="translate(129.547696, 285.302062)"><g><path d="M 4.765625 -9.78125 C 4.492188 -9.78125 4.171875 -9.875 3.796875 -10.0625 C 3.503906 -10.207031 3.300781 -10.28125 3.1875 -10.28125 C 3.0625 -10.28125 2.957031 -10.238281 2.875 -10.15625 C 2.789062 -10.082031 2.75 -9.984375 2.75 -9.859375 L 2.015625 -9.859375 C 2.015625 -10.171875 2.125 -10.429688 2.34375 -10.640625 C 2.570312 -10.859375 2.851562 -10.96875 3.1875 -10.96875 C 3.457031 -10.96875 3.773438 -10.867188 4.140625 -10.671875 C 4.441406 -10.535156 4.648438 -10.46875 4.765625 -10.46875 C 4.890625 -10.46875 4.988281 -10.503906 5.0625 -10.578125 C 5.144531 -10.660156 5.1875 -10.765625 5.1875 -10.890625 L 5.9375 -10.890625 C 5.9375 -10.578125 5.820312 -10.3125 5.59375 -10.09375 C 5.375 -9.882812 5.097656 -9.78125 4.765625 -9.78125 Z M 1.84375 -4.40625 C 1.84375 -3.851562 1.847656 -3.453125 1.859375 -3.203125 C 1.867188 -2.953125 1.898438 -2.679688 1.953125 -2.390625 C 2.003906 -2.109375 2.082031 -1.878906 2.1875 -1.703125 C 2.519531 -1.128906 3.078125 -0.84375 3.859375 -0.84375 C 4.648438 -0.84375 5.210938 -1.128906 5.546875 -1.703125 C 5.710938 -1.953125 5.8125 -2.265625 5.84375 -2.640625 C 5.875 -3.015625 5.890625 -3.601562 5.890625 -4.40625 C 5.890625 -4.96875 5.882812 -5.375 5.875 -5.625 C 5.875 -5.875 5.84375 -6.140625 5.78125 -6.421875 C 5.726562 -6.703125 5.648438 -6.9375 5.546875 -7.125 C 5.210938 -7.695312 4.648438 -7.984375 3.859375 -7.984375 C 3.078125 -7.984375 2.519531 -7.695312 2.1875 -7.125 C 2.03125 -6.875 1.929688 -6.5625 1.890625 -6.1875 C 1.859375 -5.8125 1.84375 -5.21875 1.84375 -4.40625 Z M 0.859375 -4.40625 C 0.859375 -5.050781 0.863281 -5.515625 0.875 -5.796875 C 0.894531 -6.085938 0.9375 -6.394531 1 -6.71875 C 1.070312 -7.050781 1.1875 -7.34375 1.34375 -7.59375 C 1.582031 -8 1.925781 -8.316406 2.375 -8.546875 C 2.820312 -8.785156 3.316406 -8.90625 3.859375 -8.90625 C 4.410156 -8.90625 4.910156 -8.785156 5.359375 -8.546875 C 5.804688 -8.316406 6.15625 -8 6.40625 -7.59375 C 6.625 -7.238281 6.753906 -6.847656 6.796875 -6.421875 C 6.847656 -6.003906 6.875 -5.332031 6.875 -4.40625 C 6.875 -3.757812 6.867188 -3.296875 6.859375 -3.015625 C 6.847656 -2.734375 6.804688 -2.425781 6.734375 -2.09375 C 6.660156 -1.769531 6.550781 -1.484375 6.40625 -1.234375 C 6.15625 -0.828125 5.804688 -0.503906 5.359375 -0.265625 C 4.910156 -0.0351562 4.410156 0.078125 3.859375 0.078125 C 3.316406 0.078125 2.820312 -0.0351562 2.375 -0.265625 C 1.925781 -0.503906 1.582031 -0.828125 1.34375 -1.234375 C 1.113281 -1.585938 0.972656 -1.972656 0.921875 -2.390625 C 0.878906 -2.816406 0.859375 -3.488281 0.859375 -4.40625 Z M 0.859375 -4.40625 "/></g></g></g><g fill="#000000" fill-opacity="1"><g transform="translate(140.991169, 285.302062)"><g><path d="M 1 -8.828125 L 5.890625 -8.828125 L 5.890625 -7.890625 L 1.96875 -7.890625 L 1.96875 -5.015625 L 5.09375 -5.015625 L 5.09375 -4.078125 L 1.96875 -4.078125 L 1.96875 -0.921875 L 5.890625 -0.921875 L 5.890625 0 L 1 0 Z M 1 -8.828125 "/></g></g></g><g fill="#000000" fill-opacity="1"><g transform="translate(151.454719, 285.302062)"><g><path d="M 3.265625 -8.90625 C 4.191406 -8.90625 4.988281 -8.65625 5.65625 -8.15625 L 5.15625 -7.359375 C 4.65625 -7.773438 4.023438 -7.984375 3.265625 -7.984375 C 2.722656 -7.984375 2.3125 -7.847656 2.03125 -7.578125 C 1.757812 -7.316406 1.625 -7.015625 1.625 -6.671875 C 1.625 -6.253906 1.800781 -5.90625 2.15625 -5.625 C 2.375 -5.445312 2.800781 -5.257812 3.4375 -5.0625 C 4.257812 -4.8125 4.851562 -4.535156 5.21875 -4.234375 C 5.800781 -3.722656 6.09375 -3.109375 6.09375 -2.390625 C 6.09375 -1.722656 5.84375 -1.144531 5.34375 -0.65625 C 4.851562 -0.164062 4.160156 0.078125 3.265625 0.078125 C 2.273438 0.078125 1.398438 -0.222656 0.640625 -0.828125 L 1.1875 -1.578125 C 1.78125 -1.085938 2.472656 -0.84375 3.265625 -0.84375 C 3.890625 -0.84375 4.351562 -1 4.65625 -1.3125 C 4.957031 -1.625 5.109375 -1.984375 5.109375 -2.390625 C 5.109375 -2.859375 4.914062 -3.25 4.53125 -3.5625 C 4.300781 -3.757812 3.796875 -3.976562 3.015625 -4.21875 C 2.335938 -4.414062 1.820312 -4.660156 1.46875 -4.953125 C 1.226562 -5.148438 1.03125 -5.394531 0.875 -5.6875 C 0.726562 -5.988281 0.65625 -6.304688 0.65625 -6.640625 C 0.65625 -7.285156 0.890625 -7.820312 1.359375 -8.25 C 1.828125 -8.6875 2.460938 -8.90625 3.265625 -8.90625 Z M 3.265625 -8.90625 "/></g></g></g><g fill="#000000" fill-opacity="1"><g transform="translate(161.918269, 285.302062)"><g/></g></g><g fill="#000000" fill-opacity="1"><g transform="translate(168.938829, 285.302062)"><g><path d="M 1 -8.828125 L 2.4375 -8.828125 C 2.820312 -8.828125 3.117188 -8.816406 3.328125 -8.796875 C 3.535156 -8.785156 3.796875 -8.753906 4.109375 -8.703125 C 4.421875 -8.660156 4.703125 -8.570312 4.953125 -8.4375 C 5.203125 -8.300781 5.4375 -8.125 5.65625 -7.90625 C 5.875 -7.6875 6.046875 -7.457031 6.171875 -7.21875 C 6.304688 -6.976562 6.398438 -6.6875 6.453125 -6.34375 C 6.503906 -6.007812 6.535156 -5.722656 6.546875 -5.484375 C 6.554688 -5.242188 6.5625 -4.882812 6.5625 -4.40625 C 6.5625 -3.9375 6.554688 -3.582031 6.546875 -3.34375 C 6.535156 -3.101562 6.503906 -2.8125 6.453125 -2.46875 C 6.398438 -2.132812 6.304688 -1.847656 6.171875 -1.609375 C 6.046875 -1.367188 5.875 -1.132812 5.65625 -0.90625 C 5.4375 -0.6875 5.203125 -0.507812 4.953125 -0.375 C 4.703125 -0.25 4.421875 -0.160156 4.109375 -0.109375 C 3.796875 -0.0664062 3.535156 -0.0351562 3.328125 -0.015625 C 3.117188 -0.00390625 2.820312 0 2.4375 0 L 1 0 Z M 1.96875 -7.890625 L 1.96875 -0.921875 L 2.4375 -0.921875 C 2.882812 -0.921875 3.21875 -0.925781 3.4375 -0.9375 C 3.664062 -0.957031 3.925781 -1.015625 4.21875 -1.109375 C 4.507812 -1.210938 4.75 -1.359375 4.9375 -1.546875 C 5.144531 -1.753906 5.296875 -2.003906 5.390625 -2.296875 C 5.484375 -2.597656 5.535156 -2.878906 5.546875 -3.140625 C 5.566406 -3.398438 5.578125 -3.820312 5.578125 -4.40625 C 5.578125 -4.988281 5.566406 -5.410156 5.546875 -5.671875 C 5.535156 -5.929688 5.484375 -6.210938 5.390625 -6.515625 C 5.296875 -6.816406 5.144531 -7.070312 4.9375 -7.28125 C 4.75 -7.46875 4.507812 -7.609375 4.21875 -7.703125 C 3.925781 -7.804688 3.664062 -7.863281 3.4375 -7.875 C 3.21875 -7.882812 2.882812 -7.890625 2.4375 -7.890625 Z M 1.96875 -7.890625 "/></g></g></g><g fill="#000000" fill-opacity="1"><g transform="translate(180.064489, 285.302062)"><g><path d="M 1 -8.828125 L 5.890625 -8.828125 L 5.890625 -7.890625 L 1.96875 -7.890625 L 1.96875 -5.015625 L 5.09375 -5.015625 L 5.09375 -4.078125 L 1.96875 -4.078125 L 1.96875 -0.921875 L 5.890625 -0.921875 L 5.890625 0 L 1 0 Z M 1 -8.828125 "/></g></g></g><g fill="#000000" fill-opacity="1"><g transform="translate(190.528038, 285.302062)"><g/></g></g><g fill="#000000" fill-opacity="1"><g transform="translate(197.548599, 285.302062)"><g><path d="M 0.53125 -8.828125 L 6.5 -8.828125 L 6.5 -7.890625 L 4 -7.890625 L 4 0 L 3.015625 0 L 3.015625 -7.890625 L 0.53125 -7.890625 Z M 0.53125 -8.828125 "/></g></g></g><g fill="#000000" fill-opacity="1"><g transform="translate(208.276988, 285.302062)"><g><path d="M 1 -8.828125 L 5.890625 -8.828125 L 5.890625 -7.890625 L 1.96875 -7.890625 L 1.96875 -5.015625 L 5.09375 -5.015625 L 5.09375 -4.078125 L 1.96875 -4.078125 L 1.96875 -0.921875 L 5.890625 -0.921875 L 5.890625 0 L 1 0 Z M 1 -8.828125 "/></g></g></g><g fill="#000000" fill-opacity="1"><g transform="translate(218.740538, 285.302062)"><g><path d="M 3.84375 -8.90625 C 4.78125 -8.90625 5.550781 -8.609375 6.15625 -8.015625 L 5.5625 -7.28125 C 5.125 -7.75 4.550781 -7.984375 3.84375 -7.984375 C 3.164062 -7.984375 2.65625 -7.757812 2.3125 -7.3125 C 2.09375 -7.03125 1.957031 -6.695312 1.90625 -6.3125 C 1.863281 -5.9375 1.84375 -5.300781 1.84375 -4.40625 C 1.84375 -3.53125 1.863281 -2.898438 1.90625 -2.515625 C 1.957031 -2.140625 2.09375 -1.8125 2.3125 -1.53125 C 2.65625 -1.070312 3.164062 -0.84375 3.84375 -0.84375 C 4.613281 -0.84375 5.222656 -1.101562 5.671875 -1.625 L 6.34375 -0.96875 C 6.0625 -0.65625 5.695312 -0.398438 5.25 -0.203125 C 4.8125 -0.015625 4.34375 0.078125 3.84375 0.078125 C 2.820312 0.078125 2.046875 -0.273438 1.515625 -0.984375 C 1.210938 -1.367188 1.023438 -1.789062 0.953125 -2.25 C 0.890625 -2.707031 0.859375 -3.425781 0.859375 -4.40625 C 0.859375 -5.082031 0.867188 -5.570312 0.890625 -5.875 C 0.910156 -6.175781 0.96875 -6.515625 1.0625 -6.890625 C 1.15625 -7.265625 1.3125 -7.585938 1.53125 -7.859375 C 2.0625 -8.554688 2.832031 -8.90625 3.84375 -8.90625 Z M 3.84375 -8.90625 "/></g></g></g><g fill="#000000" fill-opacity="1"><g transform="translate(229.521902, 285.302062)"><g><path d="M 1 -8.828125 L 1.859375 -8.828125 L 5.84375 -1.953125 L 5.84375 -8.828125 L 6.828125 -8.828125 L 6.828125 0 L 5.96875 0 L 1.96875 -6.875 L 1.96875 0 L 1 0 Z M 1 -8.828125 "/></g></g></g><g fill="#000000" fill-opacity="1"><g transform="translate(241.044831, 285.302062)"><g><path d="M 1.84375 -4.40625 C 1.84375 -3.851562 1.847656 -3.453125 1.859375 -3.203125 C 1.867188 -2.953125 1.898438 -2.679688 1.953125 -2.390625 C 2.003906 -2.109375 2.082031 -1.878906 2.1875 -1.703125 C 2.519531 -1.128906 3.078125 -0.84375 3.859375 -0.84375 C 4.648438 -0.84375 5.210938 -1.128906 5.546875 -1.703125 C 5.710938 -1.953125 5.8125 -2.265625 5.84375 -2.640625 C 5.875 -3.015625 5.890625 -3.601562 5.890625 -4.40625 C 5.890625 -4.96875 5.882812 -5.375 5.875 -5.625 C 5.875 -5.875 5.84375 -6.140625 5.78125 -6.421875 C 5.726562 -6.703125 5.648438 -6.9375 5.546875 -7.125 C 5.210938 -7.695312 4.648438 -7.984375 3.859375 -7.984375 C 3.078125 -7.984375 2.519531 -7.695312 2.1875 -7.125 C 2.03125 -6.875 1.929688 -6.5625 1.890625 -6.1875 C 1.859375 -5.8125 1.84375 -5.21875 1.84375 -4.40625 Z M 0.859375 -4.40625 C 0.859375 -5.050781 0.863281 -5.515625 0.875 -5.796875 C 0.894531 -6.085938 0.9375 -6.394531 1 -6.71875 C 1.070312 -7.050781 1.1875 -7.34375 1.34375 -7.59375 C 1.582031 -8 1.925781 -8.316406 2.375 -8.546875 C 2.820312 -8.785156 3.316406 -8.90625 3.859375 -8.90625 C 4.410156 -8.90625 4.910156 -8.785156 5.359375 -8.546875 C 5.804688 -8.316406 6.15625 -8 6.40625 -7.59375 C 6.625 -7.238281 6.753906 -6.847656 6.796875 -6.421875 C 6.847656 -6.003906 6.875 -5.332031 6.875 -4.40625 C 6.875 -3.757812 6.867188 -3.296875 6.859375 -3.015625 C 6.847656 -2.734375 6.804688 -2.425781 6.734375 -2.09375 C 6.660156 -1.769531 6.550781 -1.484375 6.40625 -1.234375 C 6.15625 -0.828125 5.804688 -0.503906 5.359375 -0.265625 C 4.910156 -0.0351562 4.410156 0.078125 3.859375 0.078125 C 3.316406 0.078125 2.820312 -0.0351562 2.375 -0.265625 C 1.925781 -0.503906 1.582031 -0.828125 1.34375 -1.234375 C 1.113281 -1.585938 0.972656 -1.972656 0.921875 -2.390625 C 0.878906 -2.816406 0.859375 -3.488281 0.859375 -4.40625 Z M 0.859375 -4.40625 "/></g></g></g><g fill="#000000" fill-opacity="1"><g transform="translate(252.488304, 285.302062)"><g><path d="M 1 -8.828125 L 1.96875 -8.828125 L 1.96875 -0.921875 L 5.625 -0.921875 L 5.625 0 L 1 0 Z M 1 -8.828125 "/></g></g></g><g fill="#000000" fill-opacity="1"><g transform="translate(262.554584, 285.302062)"><g><path d="M 1.84375 -4.40625 C 1.84375 -3.851562 1.847656 -3.453125 1.859375 -3.203125 C 1.867188 -2.953125 1.898438 -2.679688 1.953125 -2.390625 C 2.003906 -2.109375 2.082031 -1.878906 2.1875 -1.703125 C 2.519531 -1.128906 3.078125 -0.84375 3.859375 -0.84375 C 4.648438 -0.84375 5.210938 -1.128906 5.546875 -1.703125 C 5.710938 -1.953125 5.8125 -2.265625 5.84375 -2.640625 C 5.875 -3.015625 5.890625 -3.601562 5.890625 -4.40625 C 5.890625 -4.96875 5.882812 -5.375 5.875 -5.625 C 5.875 -5.875 5.84375 -6.140625 5.78125 -6.421875 C 5.726562 -6.703125 5.648438 -6.9375 5.546875 -7.125 C 5.210938 -7.695312 4.648438 -7.984375 3.859375 -7.984375 C 3.078125 -7.984375 2.519531 -7.695312 2.1875 -7.125 C 2.03125 -6.875 1.929688 -6.5625 1.890625 -6.1875 C 1.859375 -5.8125 1.84375 -5.21875 1.84375 -4.40625 Z M 0.859375 -4.40625 C 0.859375 -5.050781 0.863281 -5.515625 0.875 -5.796875 C 0.894531 -6.085938 0.9375 -6.394531 1 -6.71875 C 1.070312 -7.050781 1.1875 -7.34375 1.34375 -7.59375 C 1.582031 -8 1.925781 -8.316406 2.375 -8.546875 C 2.820312 -8.785156 3.316406 -8.90625 3.859375 -8.90625 C 4.410156 -8.90625 4.910156 -8.785156 5.359375 -8.546875 C 5.804688 -8.316406 6.15625 -8 6.40625 -7.59375 C 6.625 -7.238281 6.753906 -6.847656 6.796875 -6.421875 C 6.847656 -6.003906 6.875 -5.332031 6.875 -4.40625 C 6.875 -3.757812 6.867188 -3.296875 6.859375 -3.015625 C 6.847656 -2.734375 6.804688 -2.425781 6.734375 -2.09375 C 6.660156 -1.769531 6.550781 -1.484375 6.40625 -1.234375 C 6.15625 -0.828125 5.804688 -0.503906 5.359375 -0.265625 C 4.910156 -0.0351562 4.410156 0.078125 3.859375 0.078125 C 3.316406 0.078125 2.820312 -0.0351562 2.375 -0.265625 C 1.925781 -0.503906 1.582031 -0.828125 1.34375 -1.234375 C 1.113281 -1.585938 0.972656 -1.972656 0.921875 -2.390625 C 0.878906 -2.816406 0.859375 -3.488281 0.859375 -4.40625 Z M 0.859375 -4.40625 "/></g></g></g><g fill="#000000" fill-opacity="1"><g transform="translate(273.998057, 285.302062)"><g><path d="M 3.84375 -8.90625 C 4.78125 -8.90625 5.550781 -8.609375 6.15625 -8.015625 L 5.5625 -7.28125 C 5.125 -7.75 4.550781 -7.984375 3.84375 -7.984375 C 3.164062 -7.984375 2.65625 -7.757812 2.3125 -7.3125 C 2.09375 -7.03125 1.957031 -6.695312 1.90625 -6.3125 C 1.863281 -5.9375 1.84375 -5.300781 1.84375 -4.40625 C 1.84375 -3.53125 1.863281 -2.898438 1.90625 -2.515625 C 1.957031 -2.140625 2.09375 -1.8125 2.3125 -1.53125 C 2.65625 -1.070312 3.164062 -0.84375 3.84375 -0.84375 C 4.519531 -0.84375 5.03125 -1.070312 5.375 -1.53125 C 5.5625 -1.757812 5.679688 -2.035156 5.734375 -2.359375 C 5.796875 -2.691406 5.832031 -3.171875 5.84375 -3.796875 L 4.015625 -3.796875 L 4.015625 -4.734375 L 6.828125 -4.734375 C 6.828125 -3.585938 6.789062 -2.769531 6.71875 -2.28125 C 6.65625 -1.800781 6.472656 -1.367188 6.171875 -0.984375 C 5.628906 -0.273438 4.847656 0.078125 3.828125 0.078125 C 2.816406 0.078125 2.046875 -0.273438 1.515625 -0.984375 C 1.210938 -1.367188 1.023438 -1.789062 0.953125 -2.25 C 0.890625 -2.707031 0.859375 -3.425781 0.859375 -4.40625 C 0.859375 -5.082031 0.867188 -5.570312 0.890625 -5.875 C 0.910156 -6.175781 0.96875 -6.515625 1.0625 -6.890625 C 1.15625 -7.265625 1.3125 -7.585938 1.53125 -7.859375 C 2.0625 -8.554688 2.832031 -8.90625 3.84375 -8.90625 Z M 3.84375 -8.90625 "/></g></g></g><g fill="#000000" fill-opacity="1"><g transform="translate(285.388567, 285.302062)"><g><path d="M 1.96875 -8.828125 L 1.96875 0 L 1 0 L 1 -8.828125 Z M 1.96875 -8.828125 "/></g></g></g><g fill="#000000" fill-opacity="1"><g transform="translate(292.064821, 285.302062)"><g><path d="M 0.203125 0 L 3.203125 -8.828125 L 4 -8.828125 L 7.015625 0 L 5.96875 0 L 5.28125 -2.1875 L 1.9375 -2.1875 L 1.234375 0 Z M 4.984375 -3.109375 L 3.609375 -7.453125 L 2.21875 -3.109375 Z M 4.984375 -3.109375 "/></g></g></g><g clip-path="url(#19df6e555f)"><path fill="#2c3e50" d="M 217.46875 178.71875 L 157.527344 178.71875 C 157.117188 178.71875 156.851562 178.285156 157.039062 177.921875 L 161.65625 169.039062 C 161.75 168.855469 161.9375 168.742188 162.140625 168.742188 L 212.855469 168.742188 C 213.0625 168.742188 213.25 168.855469 213.34375 169.039062 L 217.957031 177.921875 C 218.148438 178.285156 217.882812 178.71875 217.46875 178.71875 Z M 290.046875 179.726562 L 265.222656 154.90625 C 264.375 154.058594 263.226562 153.582031 262.027344 153.582031 L 112.972656 153.582031 C 111.773438 153.582031 110.625 154.058594 109.773438 154.90625 L 84.953125 179.726562 C 84.105469 180.578125 83.628906 181.726562 83.628906 182.925781 C 83.628906 185.421875 85.652344 187.445312 88.148438 187.445312 L 286.851562 187.445312 C 289.347656 187.445312 291.371094 185.421875 291.371094 182.925781 C 291.371094 181.726562 290.894531 180.578125 290.046875 179.726562 " fill-opacity="1" fill-rule="nonzero"/></g><g clip-path="url(#56a48ea860)"><path fill="#2c3e50" d="M 256.46875 48.878906 L 118.527344 48.878906 C 114.539062 48.878906 111.273438 52.144531 111.273438 56.136719 L 111.273438 138.03125 C 111.273438 142.023438 114.539062 145.289062 118.527344 145.289062 L 256.46875 145.289062 C 260.460938 145.289062 263.726562 142.023438 263.726562 138.03125 L 263.726562 56.136719 C 263.726562 52.144531 260.460938 48.878906 256.46875 48.878906 Z M 255.328125 57.28125 L 255.328125 136.890625 L 119.671875 136.890625 L 119.671875 57.28125 L 255.328125 57.28125 " fill-opacity="1" fill-rule="nonzero"/></g><g fill="#2c3e50" fill-opacity="1"><g transform="translate(124.984366, 113.794736)"><g><path d="M 5.78125 -16.421875 C 8.582031 -15.015625 9.984375 -12.425781 9.984375 -8.65625 L 9.984375 -0.71875 C 9.984375 1.363281 10.410156 2.796875 11.265625 3.578125 C 12.128906 4.359375 13.765625 4.75 16.171875 4.75 L 16.171875 8 C 14.734375 8 13.398438 7.925781 12.171875 7.78125 C 10.953125 7.644531 9.882812 7.296875 8.96875 6.734375 C 7 5.492188 6.015625 3.03125 6.015625 -0.65625 L 6.015625 -9.328125 C 6.015625 -11.171875 5.453125 -12.632812 4.328125 -13.71875 C 3.410156 -14.59375 2.390625 -15.03125 1.265625 -15.03125 L 1.265625 -17.796875 C 2.390625 -17.796875 3.289062 -18.140625 3.96875 -18.828125 C 5.332031 -20.109375 6.015625 -21.671875 6.015625 -23.515625 L 6.015625 -32.171875 C 6.015625 -37.347656 8.054688 -40.175781 12.140625 -40.65625 C 13.390625 -40.769531 14.734375 -40.828125 16.171875 -40.828125 L 16.171875 -37.59375 C 13.765625 -37.59375 12.128906 -37.203125 11.265625 -36.421875 C 10.410156 -35.640625 9.984375 -34.203125 9.984375 -32.109375 L 9.984375 -24.171875 C 9.984375 -21.929688 9.5625 -20.207031 8.71875 -19 C 7.875 -17.800781 6.894531 -16.941406 5.78125 -16.421875 Z M 5.78125 -16.421875 "/></g></g></g><g fill="#2c3e50" fill-opacity="1"><g transform="translate(142.665697, 113.794736)"><g/></g></g><g fill="#2c3e50" fill-opacity="1"><g transform="translate(155.474291, 113.794736)"><g/></g></g><g fill="#2c3e50" fill-opacity="1"><g transform="translate(168.282884, 113.794736)"><g/></g></g><g fill="#2c3e50" fill-opacity="1"><g transform="translate(181.091478, 113.794736)"><g/></g></g><g fill="#2c3e50" fill-opacity="1"><g transform="translate(193.900072, 113.794736)"><g/></g></g><g fill="#2c3e50" fill-opacity="1"><g transform="translate(206.708666, 113.794736)"><g/></g></g><g fill="#2c3e50" fill-opacity="1"><g transform="translate(219.51726, 113.794736)"><g/></g></g><g fill="#2c3e50" fill-opacity="1"><g transform="translate(232.329319, 113.794736)"><g><path d="M 7.703125 -8.65625 C 7.703125 -12.425781 9.101562 -15.015625 11.90625 -16.421875 C 10.78125 -16.941406 9.796875 -17.800781 8.953125 -19 C 8.117188 -20.207031 7.703125 -21.929688 7.703125 -24.171875 L 7.703125 -32.109375 C 7.703125 -34.203125 7.269531 -35.640625 6.40625 -36.421875 C 5.539062 -37.203125 3.90625 -37.59375 1.5 -37.59375 L 1.5 -40.828125 C 2.945312 -40.828125 4.28125 -40.757812 5.5 -40.625 C 6.726562 -40.488281 7.800781 -40.140625 8.71875 -39.578125 C 10.6875 -38.328125 11.671875 -35.859375 11.671875 -32.171875 L 11.671875 -23.515625 C 11.671875 -21.671875 12.226562 -20.207031 13.34375 -19.125 C 14.269531 -18.238281 15.296875 -17.796875 16.421875 -17.796875 L 16.421875 -15.03125 C 15.296875 -15.03125 14.394531 -14.691406 13.71875 -14.015625 C 12.351562 -12.734375 11.671875 -11.171875 11.671875 -9.328125 L 11.671875 -0.65625 C 11.671875 4.507812 9.625 7.332031 5.53125 7.8125 C 4.289062 7.9375 2.945312 8 1.5 8 L 1.5 4.75 C 3.90625 4.75 5.539062 4.359375 6.40625 3.578125 C 7.269531 2.796875 7.703125 1.363281 7.703125 -0.71875 Z M 7.703125 -8.65625 "/></g></g></g><g clip-path="url(#8298098b10)"><path fill="#2c3e50" d="M 182.378906 95.6875 L 182.378906 100.640625 L 178.773438 99.0625 C 178.386719 98.890625 177.996094 98.710938 177.609375 98.53125 C 176.289062 97.914062 174.964844 97.25 173.648438 96.542969 C 171.9375 95.632812 170.390625 94.570312 169.003906 93.363281 C 167.621094 92.15625 166.5 90.742188 165.644531 89.121094 C 164.792969 87.5 164.363281 85.628906 164.363281 83.507812 C 164.363281 81.089844 164.921875 78.894531 166.042969 76.917969 C 167.164062 74.945312 168.695312 73.265625 170.640625 71.878906 C 172.585938 70.496094 174.898438 69.433594 177.582031 68.695312 C 180.261719 67.960938 183.164062 67.59375 186.289062 67.59375 C 189.589844 67.59375 192.523438 67.976562 195.085938 68.742188 C 197.652344 69.507812 199.84375 70.421875 201.671875 71.484375 C 203.5 72.542969 205.003906 73.617188 206.183594 74.710938 C 207.363281 75.800781 208.246094 76.699219 208.835938 77.40625 L 205.121094 88.546875 C 204.886719 81.945312 203.019531 76.949219 199.519531 73.558594 C 196.023438 70.171875 191.449219 68.476562 185.804688 68.476562 C 183.453125 68.476562 181.25 68.773438 179.191406 69.359375 C 177.132812 69.953125 175.355469 70.820312 173.859375 71.96875 C 172.359375 73.117188 171.167969 74.503906 170.285156 76.125 C 169.402344 77.746094 168.964844 79.617188 168.964844 81.738281 C 168.964844 84.980469 169.917969 87.558594 171.828125 89.472656 C 173.449219 91.097656 175.378906 92.457031 177.613281 93.550781 C 178.011719 93.746094 178.421875 93.933594 178.84375 94.113281 Z M 207.6875 109.273438 C 206.390625 107.59375 204.789062 106.164062 202.878906 104.984375 C 200.96875 103.804688 198.921875 102.777344 196.75 101.890625 C 195.132812 101.234375 193.617188 100.613281 192.199219 100.019531 L 192.199219 104.9375 C 193.242188 105.398438 194.335938 105.886719 195.484375 106.398438 C 197.191406 107.164062 198.765625 108.0625 200.210938 109.09375 C 201.65625 110.128906 202.847656 111.335938 203.792969 112.71875 C 204.734375 114.105469 205.207031 115.710938 205.207031 117.539062 C 205.207031 119.128906 204.808594 120.675781 204.015625 122.179688 C 203.222656 123.683594 202.101562 125.007812 200.660156 126.15625 C 199.21875 127.304688 197.484375 128.21875 195.453125 128.898438 C 193.421875 129.574219 191.144531 129.914062 188.613281 129.914062 C 185.964844 129.914062 183.332031 129.503906 180.714844 128.675781 C 178.09375 127.851562 175.773438 126.613281 173.742188 124.960938 C 171.710938 123.3125 170.109375 121.21875 168.929688 118.683594 C 167.753906 116.152344 167.3125 113.203125 167.605469 109.84375 L 161.066406 115.949219 C 162.007812 118.425781 163.453125 120.589844 165.398438 122.449219 C 167.34375 124.304688 169.566406 125.851562 172.066406 127.089844 C 174.566406 128.328125 177.230469 129.253906 180.054688 129.875 C 182.878906 130.496094 185.617188 130.800781 188.265625 130.800781 C 191.441406 130.800781 194.355469 130.375 197.003906 129.519531 C 199.652344 128.667969 201.90625 127.53125 203.757812 126.117188 C 205.613281 124.703125 207.054688 123.066406 208.085938 121.210938 C 209.113281 119.355469 209.628906 117.394531 209.628906 115.332031 C 209.625 112.972656 208.980469 110.953125 207.6875 109.273438 Z M 191.210938 119.617188 C 190.269531 118.292969 189.796875 116.539062 189.796875 114.359375 L 189.796875 69.777344 C 188.535156 69.558594 187.203125 69.449219 185.804688 69.449219 C 185.601562 69.449219 185.402344 69.453125 185.203125 69.457031 L 185.203125 114.359375 C 185.203125 116.539062 184.714844 118.289062 183.742188 119.617188 C 182.773438 120.945312 181.222656 121.871094 179.101562 122.402344 L 179.101562 122.492188 L 195.8125 122.492188 L 195.8125 122.402344 C 193.6875 121.871094 192.15625 120.945312 191.210938 119.617188 Z M 211.988281 60.429688 C 211.695312 60.664062 211.296875 60.828125 210.792969 60.914062 C 210.292969 61.003906 209.894531 61.046875 209.601562 61.046875 L 165.398438 61.046875 C 165.101562 61.046875 164.6875 61.003906 164.160156 60.914062 C 163.628906 60.828125 163.214844 60.664062 162.921875 60.429688 L 161.066406 77.933594 L 161.59375 77.933594 C 161.832031 74.574219 162.402344 71.90625 163.320312 69.933594 C 164.230469 67.960938 165.308594 66.457031 166.546875 65.425781 C 167.785156 64.394531 169.109375 63.714844 170.523438 63.390625 C 171.9375 63.066406 173.292969 62.90625 174.589844 62.90625 L 185.199219 62.90625 L 185.199219 65.515625 C 185.558594 65.503906 185.921875 65.496094 186.285156 65.496094 C 187.5 65.496094 188.671875 65.550781 189.796875 65.652344 L 189.796875 62.90625 L 200.316406 62.90625 C 201.613281 62.90625 202.96875 63.066406 204.382812 63.390625 C 205.796875 63.714844 207.125 64.394531 208.363281 65.425781 C 209.601562 66.457031 210.675781 67.957031 211.589844 69.933594 C 212.503906 71.90625 213.105469 74.574219 213.402344 77.933594 L 213.933594 77.933594 Z M 211.988281 60.429688 " fill-opacity="1" fill-rule="nonzero"/></g></svg>