<svg xmlns="http://www.w3.org/2000/svg" xmlns:xlink="http://www.w3.org/1999/xlink" width="500" zoomAndPan="magnify" viewBox="0 0 375 374.999991" height="500" preserveAspectRatio="xMidYMid meet" version="1.0"><defs><g/><clipPath id="e3bcd16ecf"><path d="M 52.886719 173 L 322.136719 173 L 322.136719 217.433594 L 52.886719 217.433594 Z M 52.886719 173 " clip-rule="nonzero"/></clipPath><clipPath id="8374cb84db"><path d="M 88 37.5 L 287 37.5 L 287 163 L 88 163 Z M 88 37.5 " clip-rule="nonzero"/></clipPath></defs><g clip-path="url(#e3bcd16ecf)"><path fill="#000000" d="M 226.355469 206.109375 L 148.664062 206.109375 C 148.132812 206.109375 147.789062 205.542969 148.035156 205.070312 L 154.015625 193.539062 C 154.136719 193.300781 154.378906 193.15625 154.644531 193.15625 L 220.375 193.15625 C 220.640625 193.15625 220.886719 193.300781 221.007812 193.539062 L 226.988281 205.070312 C 227.234375 205.542969 226.890625 206.109375 226.355469 206.109375 Z M 320.417969 207.414062 L 288.246094 175.195312 C 287.148438 174.09375 285.660156 173.476562 284.105469 173.476562 L 90.917969 173.476562 C 89.363281 173.476562 87.875 174.09375 86.773438 175.195312 L 54.601562 207.414062 C 53.503906 208.519531 52.886719 210.007812 52.886719 211.566406 C 52.886719 214.804688 55.507812 217.433594 58.746094 217.433594 L 316.277344 217.433594 C 319.511719 217.433594 322.136719 214.804688 322.136719 211.566406 C 322.136719 210.007812 321.519531 208.519531 320.417969 207.414062 " fill-opacity="1" fill-rule="nonzero"/></g><g clip-path="url(#8374cb84db)"><path fill="#000000" d="M 276.902344 37.566406 L 98.121094 37.566406 C 92.949219 37.566406 88.714844 41.804688 88.714844 46.984375 L 88.714844 153.289062 C 88.714844 158.472656 92.949219 162.710938 98.121094 162.710938 L 276.902344 162.710938 C 282.074219 162.710938 286.308594 158.472656 286.308594 153.289062 L 286.308594 46.984375 C 286.308594 41.804688 282.074219 37.566406 276.902344 37.566406 Z M 275.421875 48.46875 L 275.421875 151.808594 L 99.601562 151.808594 L 99.601562 48.46875 L 275.421875 48.46875 " fill-opacity="1" fill-rule="nonzero"/></g><g fill="#000000" fill-opacity="1"><g transform="translate(106.482584, 121.533123)"><g><path d="M 7.484375 -21.28125 C 11.117188 -19.457031 12.9375 -16.101562 12.9375 -11.21875 L 12.9375 -0.9375 C 12.9375 1.769531 13.492188 3.628906 14.609375 4.640625 C 15.722656 5.648438 17.84375 6.15625 20.96875 6.15625 L 20.96875 10.359375 C 19.09375 10.359375 17.363281 10.265625 15.78125 10.078125 C 14.195312 9.898438 12.804688 9.453125 11.609375 8.734375 C 9.066406 7.117188 7.796875 3.921875 7.796875 -0.859375 L 7.796875 -12.078125 C 7.796875 -14.472656 7.066406 -16.367188 5.609375 -17.765625 C 4.410156 -18.910156 3.085938 -19.484375 1.640625 -19.484375 L 1.640625 -23.0625 C 3.085938 -23.0625 4.253906 -23.503906 5.140625 -24.390625 C 6.910156 -26.054688 7.796875 -28.082031 7.796875 -30.46875 L 7.796875 -41.703125 C 7.796875 -48.398438 10.445312 -52.0625 15.75 -52.6875 C 17.351562 -52.84375 19.09375 -52.921875 20.96875 -52.921875 L 20.96875 -48.71875 C 17.84375 -48.71875 15.722656 -48.207031 14.609375 -47.1875 C 13.492188 -46.175781 12.9375 -44.320312 12.9375 -41.625 L 12.9375 -31.328125 C 12.9375 -28.421875 12.390625 -26.1875 11.296875 -24.625 C 10.210938 -23.070312 8.941406 -21.957031 7.484375 -21.28125 Z M 7.484375 -21.28125 "/></g></g></g><g fill="#000000" fill-opacity="1"><g transform="translate(129.400344, 121.533123)"><g/></g></g><g fill="#000000" fill-opacity="1"><g transform="translate(162.599679, 121.533123)"><g/></g></g><g fill="#000000" fill-opacity="1"><g transform="translate(179.199346, 121.533123)"><g/></g></g><g fill="#000000" fill-opacity="1"><g transform="translate(195.799014, 121.533123)"><g/></g></g><g fill="#000000" fill-opacity="1"><g transform="translate(212.398682, 121.533123)"><g/></g></g><g fill="#000000" fill-opacity="1"><g transform="translate(245.598916, 121.533123)"><g><path d="M 9.96875 -11.21875 C 9.96875 -16.101562 11.789062 -19.457031 15.4375 -21.28125 C 13.976562 -21.957031 12.703125 -23.070312 11.609375 -24.625 C 10.515625 -26.1875 9.96875 -28.421875 9.96875 -31.328125 L 9.96875 -41.625 C 9.96875 -44.320312 9.410156 -46.175781 8.296875 -47.1875 C 7.179688 -48.207031 5.066406 -48.71875 1.953125 -48.71875 L 1.953125 -52.921875 C 3.816406 -52.921875 5.539062 -52.828125 7.125 -52.640625 C 8.71875 -52.460938 10.109375 -52.007812 11.296875 -51.28125 C 13.847656 -49.664062 15.125 -46.472656 15.125 -41.703125 L 15.125 -30.46875 C 15.125 -28.082031 15.847656 -26.1875 17.296875 -24.78125 C 18.492188 -23.632812 19.820312 -23.0625 21.28125 -23.0625 L 21.28125 -19.484375 C 19.820312 -19.484375 18.648438 -19.039062 17.765625 -18.15625 C 16.003906 -16.5 15.125 -14.472656 15.125 -12.078125 L 15.125 -0.859375 C 15.125 5.847656 12.472656 9.507812 7.171875 10.125 C 5.554688 10.28125 3.816406 10.359375 1.953125 10.359375 L 1.953125 6.15625 C 5.066406 6.15625 7.179688 5.648438 8.296875 4.640625 C 9.410156 3.628906 9.96875 1.769531 9.96875 -0.9375 Z M 9.96875 -11.21875 "/></g></g></g><g fill="#000000" fill-opacity="1"><g transform="translate(141.006118, 125.730872)"><g><path d="M 14.46875 -0.5 C 16.539062 -0.5 18.164062 -1.035156 19.34375 -2.109375 C 20.53125 -3.179688 21.125 -4.640625 21.125 -6.484375 L 21.125 -48.046875 L 20.5625 -48.046875 C 17.820312 -48.046875 15.492188 -47.753906 13.578125 -47.171875 C 11.660156 -46.585938 10.070312 -45.835938 8.8125 -44.921875 C 7.550781 -44.003906 6.546875 -43.035156 5.796875 -42.015625 C 5.046875 -41.003906 4.492188 -40.03125 4.140625 -39.09375 C 3.785156 -38.15625 3.550781 -37.40625 3.4375 -36.84375 L 3.265625 -35.828125 L 2.8125 -36.046875 L 4.734375 -48.5625 L 49.125 -48.5625 L 51.03125 -36.046875 L 50.578125 -35.828125 L 50.40625 -36.84375 C 50.300781 -37.40625 50.066406 -38.15625 49.703125 -39.09375 C 49.347656 -40.03125 48.796875 -41.003906 48.046875 -42.015625 C 47.296875 -43.035156 46.289062 -44.003906 45.03125 -44.921875 C 43.769531 -45.835938 42.179688 -46.585938 40.265625 -47.171875 C 38.359375 -47.753906 36.035156 -48.046875 33.296875 -48.046875 L 32.78125 -48.046875 L 32.78125 -6.484375 C 32.78125 -4.640625 33.367188 -3.179688 34.546875 -2.109375 C 35.734375 -1.035156 37.359375 -0.5 39.421875 -0.5 L 39.421875 0 L 14.46875 0 Z M 14.46875 -0.5 "/></g></g></g><g fill="#000000" fill-opacity="1"><g transform="translate(194.847028, 125.730872)"><g><path d="M 11.4375 -1.359375 C 9.519531 -2.109375 8.015625 -2.578125 6.921875 -2.765625 C 5.835938 -2.953125 5.039062 -2.941406 4.53125 -2.734375 C 4.03125 -2.523438 3.710938 -2.1875 3.578125 -1.71875 C 3.441406 -1.25 3.375 -0.695312 3.375 -0.0625 L 3.375 0 L 2.875 0 L 2.875 -16.109375 L 3.375 -16.109375 L 3.375 -14.8125 C 3.375 -13.007812 3.820312 -11.234375 4.71875 -9.484375 C 5.625 -7.742188 6.847656 -6.175781 8.390625 -4.78125 C 9.929688 -3.394531 11.664062 -2.285156 13.59375 -1.453125 C 15.53125 -0.628906 17.535156 -0.21875 19.609375 -0.21875 C 22.347656 -0.21875 24.53125 -0.570312 26.15625 -1.28125 C 27.789062 -2 28.992188 -2.957031 29.765625 -4.15625 C 30.535156 -5.363281 30.941406 -6.664062 30.984375 -8.0625 C 31.015625 -9.332031 30.632812 -10.503906 29.84375 -11.578125 C 29.0625 -12.648438 28.003906 -13.660156 26.671875 -14.609375 C 25.335938 -15.566406 23.875 -16.488281 22.28125 -17.375 C 20.6875 -18.257812 19.109375 -19.140625 17.546875 -20.015625 C 15.984375 -20.898438 14.582031 -21.796875 13.34375 -22.703125 C 10.53125 -24.804688 8.351562 -26.71875 6.8125 -28.4375 C 5.269531 -30.164062 4.359375 -31.894531 4.078125 -33.625 C 3.796875 -35.351562 4.125 -37.285156 5.0625 -39.421875 C 5.925781 -41.378906 7.175781 -43.070312 8.8125 -44.5 C 10.445312 -45.925781 12.316406 -47.023438 14.421875 -47.796875 C 16.523438 -48.566406 18.703125 -48.953125 20.953125 -48.953125 C 21.960938 -48.953125 22.957031 -48.863281 23.9375 -48.6875 C 24.914062 -48.519531 25.835938 -48.234375 26.703125 -47.828125 C 27.191406 -47.597656 27.789062 -47.332031 28.5 -47.03125 C 29.21875 -46.726562 29.929688 -46.492188 30.640625 -46.328125 C 31.359375 -46.160156 31.96875 -46.125 32.46875 -46.21875 C 32.976562 -46.3125 33.253906 -46.617188 33.296875 -47.140625 L 33.296875 -47.375 L 33.796875 -47.375 L 33.796875 -34.015625 L 33.296875 -34.015625 C 33.296875 -34.015625 33.265625 -34.34375 33.203125 -35 C 33.148438 -35.664062 33.035156 -36.503906 32.859375 -37.515625 C 32.691406 -38.523438 32.410156 -39.613281 32.015625 -40.78125 C 31.628906 -41.945312 31.101562 -43.054688 30.4375 -44.109375 C 29.78125 -45.160156 28.945312 -46.003906 27.9375 -46.640625 C 26.957031 -47.203125 25.875 -47.640625 24.6875 -47.953125 C 23.507812 -48.273438 22.265625 -48.4375 20.953125 -48.4375 C 18.773438 -48.4375 17.046875 -48.109375 15.765625 -47.453125 C 14.492188 -46.796875 13.59375 -45.90625 13.0625 -44.78125 C 12.539062 -43.65625 12.28125 -42.378906 12.28125 -40.953125 C 12.28125 -39.035156 12.9375 -37.332031 14.25 -35.84375 C 15.5625 -34.363281 17.570312 -32.800781 20.28125 -31.15625 C 22.601562 -29.726562 24.796875 -28.46875 26.859375 -27.375 C 28.929688 -26.28125 30.753906 -25.148438 32.328125 -23.984375 C 33.910156 -22.828125 35.160156 -21.441406 36.078125 -19.828125 C 36.992188 -18.210938 37.453125 -16.164062 37.453125 -13.6875 C 37.453125 -12.070312 37.078125 -10.351562 36.328125 -8.53125 C 35.578125 -6.707031 34.640625 -5.234375 33.515625 -4.109375 C 32.316406 -2.910156 30.832031 -1.960938 29.0625 -1.265625 C 27.300781 -0.566406 25.394531 -0.117188 23.34375 0.078125 C 21.300781 0.285156 19.253906 0.265625 17.203125 0.015625 C 15.160156 -0.222656 13.238281 -0.679688 11.4375 -1.359375 Z M 11.4375 -1.359375 "/></g></g></g><g fill="#000000" fill-opacity="1"><g transform="translate(87.54797, 255.453499)"><g><path d="M 8.984375 -20.0625 L 1.4375 -20.0625 L 1.4375 -22.40625 L 19.078125 -22.40625 L 19.078125 -20.0625 L 11.515625 -20.0625 L 11.515625 0 L 8.984375 0 Z M 8.984375 -20.0625 "/></g></g></g><g fill="#000000" fill-opacity="1"><g transform="translate(113.814937, 255.453499)"><g><path d="M 3.171875 -22.40625 L 12.796875 -22.40625 C 14.179688 -22.40625 15.410156 -22.207031 16.484375 -21.8125 C 17.566406 -21.414062 18.460938 -20.863281 19.171875 -20.15625 C 19.722656 -19.601562 20.144531 -18.953125 20.4375 -18.203125 C 20.738281 -17.460938 20.890625 -16.644531 20.890625 -15.75 L 20.890625 -15.6875 C 20.890625 -14.738281 20.738281 -13.894531 20.4375 -13.15625 C 20.144531 -12.425781 19.726562 -11.789062 19.1875 -11.25 C 18.644531 -10.707031 18 -10.257812 17.25 -9.90625 C 16.5 -9.550781 15.6875 -9.300781 14.8125 -9.15625 L 21.703125 0 L 18.59375 0 L 12.09375 -8.703125 L 5.703125 -8.703125 L 5.703125 0 L 3.171875 0 Z M 12.578125 -10.96875 C 13.410156 -10.96875 14.175781 -11.070312 14.875 -11.28125 C 15.582031 -11.5 16.191406 -11.804688 16.703125 -12.203125 C 17.210938 -12.597656 17.613281 -13.078125 17.90625 -13.640625 C 18.195312 -14.210938 18.34375 -14.859375 18.34375 -15.578125 L 18.34375 -15.640625 C 18.34375 -17.035156 17.835938 -18.117188 16.828125 -18.890625 C 15.828125 -19.671875 14.421875 -20.0625 12.609375 -20.0625 L 5.703125 -20.0625 L 5.703125 -10.96875 Z M 12.578125 -10.96875 "/></g></g></g><g fill="#000000" fill-opacity="1"><g transform="translate(142.705256, 255.453499)"><g><path d="M 11.453125 -22.5625 L 13.828125 -22.5625 L 24.03125 0 L 21.3125 0 L 18.6875 -5.921875 L 6.5 -5.921875 L 3.84375 0 L 1.25 0 Z M 17.703125 -8.1875 L 12.609375 -19.609375 L 7.484375 -8.1875 Z M 17.703125 -8.1875 "/></g></g></g><g fill="#000000" fill-opacity="1"><g transform="translate(173.739039, 255.453499)"><g><path d="M 3.171875 -22.40625 L 12.703125 -22.40625 C 13.984375 -22.40625 15.117188 -22.226562 16.109375 -21.875 C 17.097656 -21.519531 17.914062 -21.035156 18.5625 -20.421875 C 19.519531 -19.410156 20 -18.210938 20 -16.828125 L 20 -16.765625 C 20 -16.046875 19.894531 -15.398438 19.6875 -14.828125 C 19.488281 -14.265625 19.21875 -13.773438 18.875 -13.359375 C 18.539062 -12.941406 18.164062 -12.585938 17.75 -12.296875 C 17.332031 -12.015625 16.898438 -11.773438 16.453125 -11.578125 C 17.109375 -11.390625 17.726562 -11.140625 18.3125 -10.828125 C 18.90625 -10.523438 19.414062 -10.160156 19.84375 -9.734375 C 20.269531 -9.304688 20.609375 -8.796875 20.859375 -8.203125 C 21.117188 -7.617188 21.25 -6.941406 21.25 -6.171875 L 21.25 -6.109375 C 21.25 -5.148438 21.054688 -4.289062 20.671875 -3.53125 C 20.285156 -2.78125 19.734375 -2.140625 19.015625 -1.609375 C 18.304688 -1.085938 17.445312 -0.6875 16.4375 -0.40625 C 15.4375 -0.132812 14.332031 0 13.125 0 L 3.171875 0 Z M 17.4375 -16.484375 C 17.4375 -17.585938 17.007812 -18.46875 16.15625 -19.125 C 15.300781 -19.789062 14.078125 -20.125 12.484375 -20.125 L 5.65625 -20.125 L 5.65625 -12.421875 L 12.28125 -12.421875 C 13.820312 -12.421875 15.066406 -12.753906 16.015625 -13.421875 C 16.960938 -14.097656 17.4375 -15.097656 17.4375 -16.421875 Z M 18.6875 -6.34375 C 18.6875 -7.550781 18.1875 -8.488281 17.1875 -9.15625 C 16.1875 -9.832031 14.703125 -10.171875 12.734375 -10.171875 L 5.65625 -10.171875 L 5.65625 -2.265625 L 13.1875 -2.265625 C 14.894531 -2.265625 16.238281 -2.617188 17.21875 -3.328125 C 18.195312 -4.035156 18.6875 -5.015625 18.6875 -6.265625 Z M 18.6875 -6.34375 "/></g></g></g><g fill="#000000" fill-opacity="1"><g transform="translate(202.597363, 255.453499)"><g><path d="M 11.453125 -22.5625 L 13.828125 -22.5625 L 24.03125 0 L 21.3125 0 L 18.6875 -5.921875 L 6.5 -5.921875 L 3.84375 0 L 1.25 0 Z M 17.703125 -8.1875 L 12.609375 -19.609375 L 7.484375 -8.1875 Z M 17.703125 -8.1875 "/></g></g></g><g fill="#000000" fill-opacity="1"><g transform="translate(233.631151, 255.453499)"><g><path d="M 13.40625 0.390625 C 11.78125 0.390625 10.285156 0.09375 8.921875 -0.5 C 7.554688 -1.101562 6.375 -1.921875 5.375 -2.953125 C 4.375 -3.992188 3.585938 -5.21875 3.015625 -6.625 C 2.453125 -8.03125 2.171875 -9.535156 2.171875 -11.140625 L 2.171875 -11.203125 C 2.171875 -12.773438 2.453125 -14.265625 3.015625 -15.671875 C 3.585938 -17.085938 4.375 -18.320312 5.375 -19.375 C 6.375 -20.425781 7.566406 -21.253906 8.953125 -21.859375 C 10.347656 -22.472656 11.863281 -22.78125 13.5 -22.78125 C 14.53125 -22.78125 15.453125 -22.691406 16.265625 -22.515625 C 17.085938 -22.347656 17.847656 -22.109375 18.546875 -21.796875 C 19.253906 -21.492188 19.90625 -21.125 20.5 -20.6875 C 21.101562 -20.25 21.679688 -19.765625 22.234375 -19.234375 L 20.515625 -17.375 C 19.554688 -18.269531 18.523438 -19.003906 17.421875 -19.578125 C 16.328125 -20.160156 15.007812 -20.453125 13.46875 -20.453125 C 12.226562 -20.453125 11.082031 -20.21875 10.03125 -19.75 C 8.976562 -19.28125 8.0625 -18.628906 7.28125 -17.796875 C 6.5 -16.960938 5.890625 -15.984375 5.453125 -14.859375 C 5.015625 -13.742188 4.796875 -12.546875 4.796875 -11.265625 L 4.796875 -11.203125 C 4.796875 -9.898438 5.015625 -8.6875 5.453125 -7.5625 C 5.890625 -6.445312 6.5 -5.472656 7.28125 -4.640625 C 8.0625 -3.804688 8.976562 -3.148438 10.03125 -2.671875 C 11.082031 -2.191406 12.226562 -1.953125 13.46875 -1.953125 C 15.007812 -1.953125 16.332031 -2.234375 17.4375 -2.796875 C 18.550781 -3.359375 19.640625 -4.15625 20.703125 -5.1875 L 22.375 -3.546875 C 21.789062 -2.953125 21.179688 -2.414062 20.546875 -1.9375 C 19.921875 -1.457031 19.242188 -1.046875 18.515625 -0.703125 C 17.796875 -0.359375 17.019531 -0.09375 16.1875 0.09375 C 15.351562 0.289062 14.425781 0.390625 13.40625 0.390625 Z M 13.40625 0.390625 "/></g></g></g><g fill="#000000" fill-opacity="1"><g transform="translate(263.129326, 255.453499)"><g><path d="M 3.171875 -22.40625 L 5.703125 -22.40625 L 5.703125 -12.453125 L 18.625 -12.453125 L 18.625 -22.40625 L 21.15625 -22.40625 L 21.15625 0 L 18.625 0 L 18.625 -10.078125 L 5.703125 -10.078125 L 5.703125 0 L 3.171875 0 Z M 3.171875 -22.40625 "/></g></g></g><g fill="#000000" fill-opacity="1"><g transform="translate(57.008909, 290.703497)"><g><path d="M 10.84375 0.3125 C 9.050781 0.3125 7.414062 0.0195312 5.9375 -0.5625 C 4.457031 -1.144531 3.046875 -2.046875 1.703125 -3.265625 L 3.265625 -5.125 C 4.441406 -4.050781 5.625 -3.253906 6.8125 -2.734375 C 8.007812 -2.210938 9.382812 -1.953125 10.9375 -1.953125 C 12.457031 -1.953125 13.671875 -2.304688 14.578125 -3.015625 C 15.484375 -3.734375 15.9375 -4.648438 15.9375 -5.765625 L 15.9375 -5.828125 C 15.9375 -6.335938 15.847656 -6.800781 15.671875 -7.21875 C 15.503906 -7.632812 15.207031 -8.007812 14.78125 -8.34375 C 14.351562 -8.6875 13.757812 -9 13 -9.28125 C 12.25 -9.5625 11.285156 -9.828125 10.109375 -10.078125 C 8.828125 -10.359375 7.710938 -10.675781 6.765625 -11.03125 C 5.816406 -11.394531 5.03125 -11.832031 4.40625 -12.34375 C 3.789062 -12.863281 3.332031 -13.460938 3.03125 -14.140625 C 2.738281 -14.828125 2.59375 -15.628906 2.59375 -16.546875 L 2.59375 -16.609375 C 2.59375 -17.484375 2.773438 -18.289062 3.140625 -19.03125 C 3.503906 -19.78125 4.015625 -20.425781 4.671875 -20.96875 C 5.328125 -21.519531 6.101562 -21.945312 7 -22.25 C 7.90625 -22.5625 8.890625 -22.71875 9.953125 -22.71875 C 11.597656 -22.71875 13.03125 -22.488281 14.25 -22.03125 C 15.476562 -21.570312 16.671875 -20.882812 17.828125 -19.96875 L 16.359375 -18.015625 C 15.304688 -18.867188 14.25 -19.488281 13.1875 -19.875 C 12.132812 -20.257812 11.035156 -20.453125 9.890625 -20.453125 C 8.421875 -20.453125 7.257812 -20.101562 6.40625 -19.40625 C 5.550781 -18.71875 5.125 -17.859375 5.125 -16.828125 L 5.125 -16.765625 C 5.125 -16.234375 5.207031 -15.757812 5.375 -15.34375 C 5.539062 -14.925781 5.847656 -14.539062 6.296875 -14.1875 C 6.742188 -13.832031 7.363281 -13.507812 8.15625 -13.21875 C 8.945312 -12.9375 9.960938 -12.671875 11.203125 -12.421875 C 13.691406 -11.859375 15.53125 -11.085938 16.71875 -10.109375 C 17.90625 -9.128906 18.5 -7.785156 18.5 -6.078125 L 18.5 -6.015625 C 18.5 -5.054688 18.304688 -4.1875 17.921875 -3.40625 C 17.535156 -2.625 17.003906 -1.957031 16.328125 -1.40625 C 15.660156 -0.851562 14.859375 -0.425781 13.921875 -0.125 C 12.984375 0.164062 11.957031 0.3125 10.84375 0.3125 Z M 10.84375 0.3125 "/></g></g></g><g fill="#000000" fill-opacity="1"><g transform="translate(83.243878, 290.703497)"><g><path d="M 13.5625 0.390625 C 11.863281 0.390625 10.3125 0.0820312 8.90625 -0.53125 C 7.507812 -1.15625 6.3125 -1.992188 5.3125 -3.046875 C 4.3125 -4.109375 3.535156 -5.335938 2.984375 -6.734375 C 2.441406 -8.128906 2.171875 -9.597656 2.171875 -11.140625 L 2.171875 -11.203125 C 2.171875 -12.734375 2.445312 -14.203125 3 -15.609375 C 3.5625 -17.023438 4.34375 -18.257812 5.34375 -19.3125 C 6.34375 -20.363281 7.546875 -21.203125 8.953125 -21.828125 C 10.367188 -22.460938 11.925781 -22.78125 13.625 -22.78125 C 15.332031 -22.78125 16.882812 -22.46875 18.28125 -21.84375 C 19.6875 -21.226562 20.890625 -20.394531 21.890625 -19.34375 C 22.890625 -18.289062 23.660156 -17.0625 24.203125 -15.65625 C 24.753906 -14.257812 25.03125 -12.796875 25.03125 -11.265625 L 25.03125 -11.203125 C 25.03125 -9.660156 24.75 -8.1875 24.1875 -6.78125 C 23.632812 -5.375 22.859375 -4.140625 21.859375 -3.078125 C 20.859375 -2.023438 19.648438 -1.179688 18.234375 -0.546875 C 16.828125 0.078125 15.269531 0.390625 13.5625 0.390625 Z M 13.625 -1.953125 C 14.90625 -1.953125 16.082031 -2.191406 17.15625 -2.671875 C 18.238281 -3.148438 19.164062 -3.804688 19.9375 -4.640625 C 20.707031 -5.472656 21.3125 -6.441406 21.75 -7.546875 C 22.1875 -8.660156 22.40625 -9.859375 22.40625 -11.140625 L 22.40625 -11.203125 C 22.40625 -12.484375 22.1875 -13.679688 21.75 -14.796875 C 21.3125 -15.921875 20.695312 -16.894531 19.90625 -17.71875 C 19.113281 -18.550781 18.175781 -19.210938 17.09375 -19.703125 C 16.019531 -20.203125 14.84375 -20.453125 13.5625 -20.453125 C 12.28125 -20.453125 11.101562 -20.210938 10.03125 -19.734375 C 8.957031 -19.253906 8.035156 -18.597656 7.265625 -17.765625 C 6.492188 -16.929688 5.890625 -15.957031 5.453125 -14.84375 C 5.015625 -13.738281 4.796875 -12.546875 4.796875 -11.265625 L 4.796875 -11.203125 C 4.796875 -9.921875 5.015625 -8.71875 5.453125 -7.59375 C 5.890625 -6.476562 6.503906 -5.503906 7.296875 -4.671875 C 8.085938 -3.835938 9.019531 -3.175781 10.09375 -2.6875 C 11.175781 -2.195312 12.351562 -1.953125 13.625 -1.953125 Z M 13.625 -1.953125 "/></g></g></g><g fill="#000000" fill-opacity="1"><g transform="translate(116.197193, 290.703497)"><g><path d="M 3.171875 -22.40625 L 19.265625 -22.40625 L 19.265625 -20.0625 L 5.703125 -20.0625 L 5.703125 -12.0625 L 17.828125 -12.0625 L 17.828125 -9.765625 L 5.703125 -9.765625 L 5.703125 0 L 3.171875 0 Z M 3.171875 -22.40625 "/></g></g></g><g fill="#000000" fill-opacity="1"><g transform="translate(142.944031, 290.703497)"><g><path d="M 8.984375 -20.0625 L 1.4375 -20.0625 L 1.4375 -22.40625 L 19.078125 -22.40625 L 19.078125 -20.0625 L 11.515625 -20.0625 L 11.515625 0 L 8.984375 0 Z M 8.984375 -20.0625 "/></g></g></g><g fill="#000000" fill-opacity="1"><g transform="translate(169.211001, 290.703497)"><g><path d="M 1.4375 -22.40625 L 4.1875 -22.40625 L 10.59375 -3.75 L 16.734375 -22.46875 L 18.8125 -22.46875 L 24.953125 -3.75 L 31.359375 -22.40625 L 34.015625 -22.40625 L 26.015625 0.15625 L 23.875 0.15625 L 17.734375 -18.015625 L 11.546875 0.15625 L 9.4375 0.15625 Z M 1.4375 -22.40625 "/></g></g></g><g fill="#000000" fill-opacity="1"><g transform="translate(210.386303, 290.703497)"><g><path d="M 11.453125 -22.5625 L 13.828125 -22.5625 L 24.03125 0 L 21.3125 0 L 18.6875 -5.921875 L 6.5 -5.921875 L 3.84375 0 L 1.25 0 Z M 17.703125 -8.1875 L 12.609375 -19.609375 L 7.484375 -8.1875 Z M 17.703125 -8.1875 "/></g></g></g><g fill="#000000" fill-opacity="1"><g transform="translate(241.420091, 290.703497)"><g><path d="M 3.171875 -22.40625 L 12.796875 -22.40625 C 14.179688 -22.40625 15.410156 -22.207031 16.484375 -21.8125 C 17.566406 -21.414062 18.460938 -20.863281 19.171875 -20.15625 C 19.722656 -19.601562 20.144531 -18.953125 20.4375 -18.203125 C 20.738281 -17.460938 20.890625 -16.644531 20.890625 -15.75 L 20.890625 -15.6875 C 20.890625 -14.738281 20.738281 -13.894531 20.4375 -13.15625 C 20.144531 -12.425781 19.726562 -11.789062 19.1875 -11.25 C 18.644531 -10.707031 18 -10.257812 17.25 -9.90625 C 16.5 -9.550781 15.6875 -9.300781 14.8125 -9.15625 L 21.703125 0 L 18.59375 0 L 12.09375 -8.703125 L 5.703125 -8.703125 L 5.703125 0 L 3.171875 0 Z M 12.578125 -10.96875 C 13.410156 -10.96875 14.175781 -11.070312 14.875 -11.28125 C 15.582031 -11.5 16.191406 -11.804688 16.703125 -12.203125 C 17.210938 -12.597656 17.613281 -13.078125 17.90625 -13.640625 C 18.195312 -14.210938 18.34375 -14.859375 18.34375 -15.578125 L 18.34375 -15.640625 C 18.34375 -17.035156 17.835938 -18.117188 16.828125 -18.890625 C 15.828125 -19.671875 14.421875 -20.0625 12.609375 -20.0625 L 5.703125 -20.0625 L 5.703125 -10.96875 Z M 12.578125 -10.96875 "/></g></g></g><g fill="#000000" fill-opacity="1"><g transform="translate(270.310401, 290.703497)"><g><path d="M 3.171875 -22.40625 L 19.359375 -22.40625 L 19.359375 -20.09375 L 5.703125 -20.09375 L 5.703125 -12.453125 L 17.921875 -12.453125 L 17.921875 -10.140625 L 5.703125 -10.140625 L 5.703125 -2.296875 L 19.515625 -2.296875 L 19.515625 0 L 3.171875 0 Z M 3.171875 -22.40625 "/></g></g></g><g fill="#000000" fill-opacity="1"><g transform="translate(297.505132, 290.703497)"><g><path d="M 10.84375 0.3125 C 9.050781 0.3125 7.414062 0.0195312 5.9375 -0.5625 C 4.457031 -1.144531 3.046875 -2.046875 1.703125 -3.265625 L 3.265625 -5.125 C 4.441406 -4.050781 5.625 -3.253906 6.8125 -2.734375 C 8.007812 -2.210938 9.382812 -1.953125 10.9375 -1.953125 C 12.457031 -1.953125 13.671875 -2.304688 14.578125 -3.015625 C 15.484375 -3.734375 15.9375 -4.648438 15.9375 -5.765625 L 15.9375 -5.828125 C 15.9375 -6.335938 15.847656 -6.800781 15.671875 -7.21875 C 15.503906 -7.632812 15.207031 -8.007812 14.78125 -8.34375 C 14.351562 -8.6875 13.757812 -9 13 -9.28125 C 12.25 -9.5625 11.285156 -9.828125 10.109375 -10.078125 C 8.828125 -10.359375 7.710938 -10.675781 6.765625 -11.03125 C 5.816406 -11.394531 5.03125 -11.832031 4.40625 -12.34375 C 3.789062 -12.863281 3.332031 -13.460938 3.03125 -14.140625 C 2.738281 -14.828125 2.59375 -15.628906 2.59375 -16.546875 L 2.59375 -16.609375 C 2.59375 -17.484375 2.773438 -18.289062 3.140625 -19.03125 C 3.503906 -19.78125 4.015625 -20.425781 4.671875 -20.96875 C 5.328125 -21.519531 6.101562 -21.945312 7 -22.25 C 7.90625 -22.5625 8.890625 -22.71875 9.953125 -22.71875 C 11.597656 -22.71875 13.03125 -22.488281 14.25 -22.03125 C 15.476562 -21.570312 16.671875 -20.882812 17.828125 -19.96875 L 16.359375 -18.015625 C 15.304688 -18.867188 14.25 -19.488281 13.1875 -19.875 C 12.132812 -20.257812 11.035156 -20.453125 9.890625 -20.453125 C 8.421875 -20.453125 7.257812 -20.101562 6.40625 -19.40625 C 5.550781 -18.71875 5.125 -17.859375 5.125 -16.828125 L 5.125 -16.765625 C 5.125 -16.234375 5.207031 -15.757812 5.375 -15.34375 C 5.539062 -14.925781 5.847656 -14.539062 6.296875 -14.1875 C 6.742188 -13.832031 7.363281 -13.507812 8.15625 -13.21875 C 8.945312 -12.9375 9.960938 -12.671875 11.203125 -12.421875 C 13.691406 -11.859375 15.53125 -11.085938 16.71875 -10.109375 C 17.90625 -9.128906 18.5 -7.785156 18.5 -6.078125 L 18.5 -6.015625 C 18.5 -5.054688 18.304688 -4.1875 17.921875 -3.40625 C 17.535156 -2.625 17.003906 -1.957031 16.328125 -1.40625 C 15.660156 -0.851562 14.859375 -0.425781 13.921875 -0.125 C 12.984375 0.164062 11.957031 0.3125 10.84375 0.3125 Z M 10.84375 0.3125 "/></g></g></g><g fill="#000000" fill-opacity="1"><g transform="translate(93.366342, 318.066308)"><g><path d="M 3.71875 -8.3125 L 0.59375 -8.3125 L 0.59375 -9.28125 L 7.890625 -9.28125 L 7.890625 -8.3125 L 4.765625 -8.3125 L 4.765625 0 L 3.71875 0 Z M 3.71875 -8.3125 "/></g></g></g><g fill="#000000" fill-opacity="1"><g transform="translate(105.564619, 318.066308)"><g><path d="M 1.3125 -9.28125 L 8.015625 -9.28125 L 8.015625 -8.328125 L 2.359375 -8.328125 L 2.359375 -5.15625 L 7.421875 -5.15625 L 7.421875 -4.203125 L 2.359375 -4.203125 L 2.359375 -0.953125 L 8.078125 -0.953125 L 8.078125 0 L 1.3125 0 Z M 1.3125 -9.28125 "/></g></g></g><g fill="#000000" fill-opacity="1"><g transform="translate(118.146925, 318.066308)"><g><path d="M 5.546875 0.15625 C 4.878906 0.15625 4.257812 0.0351562 3.6875 -0.203125 C 3.125 -0.453125 2.632812 -0.789062 2.21875 -1.21875 C 1.8125 -1.65625 1.488281 -2.164062 1.25 -2.75 C 1.019531 -3.332031 0.90625 -3.953125 0.90625 -4.609375 L 0.90625 -4.640625 C 0.90625 -5.296875 1.019531 -5.910156 1.25 -6.484375 C 1.488281 -7.066406 1.8125 -7.578125 2.21875 -8.015625 C 2.632812 -8.453125 3.128906 -8.796875 3.703125 -9.046875 C 4.285156 -9.304688 4.914062 -9.4375 5.59375 -9.4375 C 6.019531 -9.4375 6.398438 -9.398438 6.734375 -9.328125 C 7.078125 -9.253906 7.394531 -9.15625 7.6875 -9.03125 C 7.976562 -8.90625 8.242188 -8.75 8.484375 -8.5625 C 8.734375 -8.382812 8.972656 -8.1875 9.203125 -7.96875 L 8.5 -7.1875 C 8.09375 -7.5625 7.660156 -7.867188 7.203125 -8.109375 C 6.753906 -8.347656 6.210938 -8.46875 5.578125 -8.46875 C 5.066406 -8.46875 4.59375 -8.367188 4.15625 -8.171875 C 3.71875 -7.984375 3.335938 -7.710938 3.015625 -7.359375 C 2.691406 -7.015625 2.4375 -6.609375 2.25 -6.140625 C 2.070312 -5.679688 1.984375 -5.1875 1.984375 -4.65625 L 1.984375 -4.640625 C 1.984375 -4.097656 2.070312 -3.59375 2.25 -3.125 C 2.4375 -2.664062 2.691406 -2.265625 3.015625 -1.921875 C 3.335938 -1.578125 3.71875 -1.304688 4.15625 -1.109375 C 4.59375 -0.910156 5.066406 -0.8125 5.578125 -0.8125 C 6.210938 -0.8125 6.757812 -0.925781 7.21875 -1.15625 C 7.675781 -1.394531 8.128906 -1.722656 8.578125 -2.140625 L 9.265625 -1.46875 C 9.023438 -1.21875 8.773438 -0.992188 8.515625 -0.796875 C 8.253906 -0.597656 7.972656 -0.425781 7.671875 -0.28125 C 7.367188 -0.144531 7.046875 -0.0390625 6.703125 0.03125 C 6.359375 0.113281 5.972656 0.15625 5.546875 0.15625 Z M 5.546875 0.15625 "/></g></g></g><g fill="#000000" fill-opacity="1"><g transform="translate(131.682672, 318.066308)"><g><path d="M 1.3125 -9.28125 L 2.296875 -9.28125 L 8.140625 -1.84375 L 8.140625 -9.28125 L 9.15625 -9.28125 L 9.15625 0 L 8.328125 0 L 2.328125 -7.609375 L 2.328125 0 L 1.3125 0 Z M 1.3125 -9.28125 "/></g></g></g><g fill="#000000" fill-opacity="1"><g transform="translate(145.854047, 318.066308)"><g><path d="M 5.625 0.15625 C 4.914062 0.15625 4.269531 0.03125 3.6875 -0.21875 C 3.113281 -0.476562 2.617188 -0.828125 2.203125 -1.265625 C 1.785156 -1.703125 1.460938 -2.207031 1.234375 -2.78125 C 1.015625 -3.363281 0.90625 -3.972656 0.90625 -4.609375 L 0.90625 -4.640625 C 0.90625 -5.273438 1.019531 -5.882812 1.25 -6.46875 C 1.476562 -7.050781 1.796875 -7.5625 2.203125 -8 C 2.617188 -8.4375 3.117188 -8.785156 3.703125 -9.046875 C 4.285156 -9.304688 4.929688 -9.4375 5.640625 -9.4375 C 6.347656 -9.4375 6.988281 -9.304688 7.5625 -9.046875 C 8.144531 -8.796875 8.644531 -8.453125 9.0625 -8.015625 C 9.476562 -7.578125 9.796875 -7.066406 10.015625 -6.484375 C 10.242188 -5.910156 10.359375 -5.300781 10.359375 -4.65625 L 10.359375 -4.640625 C 10.359375 -4.003906 10.242188 -3.394531 10.015625 -2.8125 C 9.785156 -2.226562 9.460938 -1.71875 9.046875 -1.28125 C 8.628906 -0.84375 8.128906 -0.492188 7.546875 -0.234375 C 6.960938 0.0234375 6.320312 0.15625 5.625 0.15625 Z M 5.640625 -0.8125 C 6.171875 -0.8125 6.660156 -0.910156 7.109375 -1.109375 C 7.554688 -1.304688 7.9375 -1.578125 8.25 -1.921875 C 8.570312 -2.265625 8.820312 -2.664062 9 -3.125 C 9.1875 -3.582031 9.28125 -4.078125 9.28125 -4.609375 L 9.28125 -4.640625 C 9.28125 -5.171875 9.1875 -5.664062 9 -6.125 C 8.820312 -6.59375 8.566406 -7 8.234375 -7.34375 C 7.910156 -7.6875 7.523438 -7.957031 7.078125 -8.15625 C 6.628906 -8.363281 6.144531 -8.46875 5.625 -8.46875 C 5.09375 -8.46875 4.601562 -8.367188 4.15625 -8.171875 C 3.707031 -7.972656 3.320312 -7.703125 3 -7.359375 C 2.6875 -7.015625 2.4375 -6.609375 2.25 -6.140625 C 2.070312 -5.679688 1.984375 -5.1875 1.984375 -4.65625 L 1.984375 -4.640625 C 1.984375 -4.109375 2.070312 -3.609375 2.25 -3.140625 C 2.4375 -2.679688 2.691406 -2.28125 3.015625 -1.9375 C 3.347656 -1.59375 3.734375 -1.316406 4.171875 -1.109375 C 4.617188 -0.910156 5.109375 -0.8125 5.640625 -0.8125 Z M 5.640625 -0.8125 "/></g></g></g><g fill="#000000" fill-opacity="1"><g transform="translate(160.819955, 318.066308)"><g><path d="M 1.3125 -9.28125 L 2.359375 -9.28125 L 2.359375 -0.96875 L 7.578125 -0.96875 L 7.578125 0 L 1.3125 0 Z M 1.3125 -9.28125 "/></g></g></g><g fill="#000000" fill-opacity="1"><g transform="translate(172.673939, 318.066308)"><g><path d="M 5.625 0.15625 C 4.914062 0.15625 4.269531 0.03125 3.6875 -0.21875 C 3.113281 -0.476562 2.617188 -0.828125 2.203125 -1.265625 C 1.785156 -1.703125 1.460938 -2.207031 1.234375 -2.78125 C 1.015625 -3.363281 0.90625 -3.972656 0.90625 -4.609375 L 0.90625 -4.640625 C 0.90625 -5.273438 1.019531 -5.882812 1.25 -6.46875 C 1.476562 -7.050781 1.796875 -7.5625 2.203125 -8 C 2.617188 -8.4375 3.117188 -8.785156 3.703125 -9.046875 C 4.285156 -9.304688 4.929688 -9.4375 5.640625 -9.4375 C 6.347656 -9.4375 6.988281 -9.304688 7.5625 -9.046875 C 8.144531 -8.796875 8.644531 -8.453125 9.0625 -8.015625 C 9.476562 -7.578125 9.796875 -7.066406 10.015625 -6.484375 C 10.242188 -5.910156 10.359375 -5.300781 10.359375 -4.65625 L 10.359375 -4.640625 C 10.359375 -4.003906 10.242188 -3.394531 10.015625 -2.8125 C 9.785156 -2.226562 9.460938 -1.71875 9.046875 -1.28125 C 8.628906 -0.84375 8.128906 -0.492188 7.546875 -0.234375 C 6.960938 0.0234375 6.320312 0.15625 5.625 0.15625 Z M 5.640625 -0.8125 C 6.171875 -0.8125 6.660156 -0.910156 7.109375 -1.109375 C 7.554688 -1.304688 7.9375 -1.578125 8.25 -1.921875 C 8.570312 -2.265625 8.820312 -2.664062 9 -3.125 C 9.1875 -3.582031 9.28125 -4.078125 9.28125 -4.609375 L 9.28125 -4.640625 C 9.28125 -5.171875 9.1875 -5.664062 9 -6.125 C 8.820312 -6.59375 8.566406 -7 8.234375 -7.34375 C 7.910156 -7.6875 7.523438 -7.957031 7.078125 -8.15625 C 6.628906 -8.363281 6.144531 -8.46875 5.625 -8.46875 C 5.09375 -8.46875 4.601562 -8.367188 4.15625 -8.171875 C 3.707031 -7.972656 3.320312 -7.703125 3 -7.359375 C 2.6875 -7.015625 2.4375 -6.609375 2.25 -6.140625 C 2.070312 -5.679688 1.984375 -5.1875 1.984375 -4.65625 L 1.984375 -4.640625 C 1.984375 -4.109375 2.070312 -3.609375 2.25 -3.140625 C 2.4375 -2.679688 2.691406 -2.28125 3.015625 -1.9375 C 3.347656 -1.59375 3.734375 -1.316406 4.171875 -1.109375 C 4.617188 -0.910156 5.109375 -0.8125 5.640625 -0.8125 Z M 5.640625 -0.8125 "/></g></g></g><g fill="#000000" fill-opacity="1"><g transform="translate(187.639846, 318.066308)"><g><path d="M 5.625 0.15625 C 4.882812 0.15625 4.222656 0.0351562 3.640625 -0.203125 C 3.066406 -0.453125 2.570312 -0.789062 2.15625 -1.21875 C 1.75 -1.65625 1.4375 -2.164062 1.21875 -2.75 C 1.007812 -3.332031 0.90625 -3.953125 0.90625 -4.609375 L 0.90625 -4.640625 C 0.90625 -5.273438 1.015625 -5.878906 1.234375 -6.453125 C 1.460938 -7.035156 1.78125 -7.546875 2.1875 -7.984375 C 2.59375 -8.429688 3.078125 -8.785156 3.640625 -9.046875 C 4.210938 -9.304688 4.847656 -9.4375 5.546875 -9.4375 C 5.941406 -9.4375 6.300781 -9.410156 6.625 -9.359375 C 6.945312 -9.304688 7.242188 -9.222656 7.515625 -9.109375 C 7.796875 -9.003906 8.054688 -8.875 8.296875 -8.71875 C 8.546875 -8.570312 8.785156 -8.398438 9.015625 -8.203125 L 8.328125 -7.40625 C 8.148438 -7.5625 7.960938 -7.703125 7.765625 -7.828125 C 7.578125 -7.960938 7.367188 -8.078125 7.140625 -8.171875 C 6.921875 -8.265625 6.675781 -8.335938 6.40625 -8.390625 C 6.132812 -8.441406 5.835938 -8.46875 5.515625 -8.46875 C 5.003906 -8.46875 4.53125 -8.363281 4.09375 -8.15625 C 3.65625 -7.957031 3.28125 -7.6875 2.96875 -7.34375 C 2.664062 -7 2.425781 -6.59375 2.25 -6.125 C 2.070312 -5.664062 1.984375 -5.175781 1.984375 -4.65625 L 1.984375 -4.640625 C 1.984375 -4.078125 2.066406 -3.5625 2.234375 -3.09375 C 2.410156 -2.625 2.65625 -2.21875 2.96875 -1.875 C 3.289062 -1.53125 3.675781 -1.257812 4.125 -1.0625 C 4.582031 -0.875 5.09375 -0.78125 5.65625 -0.78125 C 6.1875 -0.78125 6.6875 -0.867188 7.15625 -1.046875 C 7.625 -1.234375 8.015625 -1.453125 8.328125 -1.703125 L 8.328125 -4.015625 L 5.515625 -4.015625 L 5.515625 -4.953125 L 9.34375 -4.953125 L 9.34375 -1.265625 C 8.90625 -0.867188 8.367188 -0.53125 7.734375 -0.25 C 7.109375 0.0195312 6.40625 0.15625 5.625 0.15625 Z M 5.625 0.15625 "/></g></g></g><g fill="#000000" fill-opacity="1"><g transform="translate(201.731767, 318.066308)"><g><path d="M 1.40625 -9.28125 L 2.453125 -9.28125 L 2.453125 0 L 1.40625 0 Z M 1.40625 -9.28125 "/></g></g></g><g fill="#000000" fill-opacity="1"><g transform="translate(209.295259, 318.066308)"><g><path d="M 4.75 -9.34375 L 5.71875 -9.34375 L 9.953125 0 L 8.828125 0 L 7.734375 -2.453125 L 2.6875 -2.453125 L 1.59375 0 L 0.515625 0 Z M 7.328125 -3.390625 L 5.21875 -8.125 L 3.09375 -3.390625 Z M 7.328125 -3.390625 "/></g></g></g><g fill="#000000" fill-opacity="1"><g transform="translate(223.466637, 318.066308)"><g/></g></g><g fill="#000000" fill-opacity="1"><g transform="translate(231.149318, 318.066308)"><g><path d="M 1.3125 -9.28125 L 4.78125 -9.28125 C 5.300781 -9.28125 5.773438 -9.207031 6.203125 -9.0625 C 6.628906 -8.925781 6.992188 -8.734375 7.296875 -8.484375 C 7.609375 -8.234375 7.84375 -7.925781 8 -7.5625 C 8.164062 -7.195312 8.25 -6.785156 8.25 -6.328125 L 8.25 -6.3125 C 8.25 -5.800781 8.148438 -5.359375 7.953125 -4.984375 C 7.765625 -4.609375 7.503906 -4.289062 7.171875 -4.03125 C 6.835938 -3.78125 6.453125 -3.585938 6.015625 -3.453125 C 5.578125 -3.328125 5.109375 -3.265625 4.609375 -3.265625 L 2.359375 -3.265625 L 2.359375 0 L 1.3125 0 Z M 4.65625 -4.234375 C 5.03125 -4.234375 5.375 -4.28125 5.6875 -4.375 C 6 -4.46875 6.269531 -4.601562 6.5 -4.78125 C 6.726562 -4.96875 6.898438 -5.179688 7.015625 -5.421875 C 7.128906 -5.671875 7.1875 -5.953125 7.1875 -6.265625 L 7.1875 -6.296875 C 7.1875 -6.953125 6.957031 -7.453125 6.5 -7.796875 C 6.050781 -8.140625 5.453125 -8.3125 4.703125 -8.3125 L 2.359375 -8.3125 L 2.359375 -4.234375 Z M 4.65625 -4.234375 "/></g></g></g><g fill="#000000" fill-opacity="1"><g transform="translate(243.705145, 318.066308)"><g><path d="M 4.75 -9.34375 L 5.71875 -9.34375 L 9.953125 0 L 8.828125 0 L 7.734375 -2.453125 L 2.6875 -2.453125 L 1.59375 0 L 0.515625 0 Z M 7.328125 -3.390625 L 5.21875 -8.125 L 3.09375 -3.390625 Z M 7.328125 -3.390625 "/></g></g></g><g fill="#000000" fill-opacity="1"><g transform="translate(257.876523, 318.066308)"><g><path d="M 1.3125 -9.28125 L 5.296875 -9.28125 C 5.867188 -9.28125 6.378906 -9.195312 6.828125 -9.03125 C 7.273438 -8.863281 7.644531 -8.632812 7.9375 -8.34375 C 8.164062 -8.113281 8.34375 -7.84375 8.46875 -7.53125 C 8.59375 -7.226562 8.65625 -6.890625 8.65625 -6.515625 L 8.65625 -6.5 C 8.65625 -6.101562 8.59375 -5.753906 8.46875 -5.453125 C 8.34375 -5.148438 8.164062 -4.882812 7.9375 -4.65625 C 7.71875 -4.425781 7.453125 -4.238281 7.140625 -4.09375 C 6.828125 -3.945312 6.492188 -3.847656 6.140625 -3.796875 L 8.984375 0 L 7.703125 0 L 5.015625 -3.609375 L 2.359375 -3.609375 L 2.359375 0 L 1.3125 0 Z M 5.203125 -4.546875 C 5.546875 -4.546875 5.863281 -4.585938 6.15625 -4.671875 C 6.445312 -4.765625 6.695312 -4.890625 6.90625 -5.046875 C 7.125 -5.210938 7.289062 -5.410156 7.40625 -5.640625 C 7.53125 -5.878906 7.59375 -6.148438 7.59375 -6.453125 L 7.59375 -6.484375 C 7.59375 -7.054688 7.382812 -7.503906 6.96875 -7.828125 C 6.550781 -8.148438 5.96875 -8.3125 5.21875 -8.3125 L 2.359375 -8.3125 L 2.359375 -4.546875 Z M 5.203125 -4.546875 "/></g></g></g><g fill="#000000" fill-opacity="1"><g transform="translate(271.160664, 318.066308)"><g><path d="M 4.75 -9.34375 L 5.71875 -9.34375 L 9.953125 0 L 8.828125 0 L 7.734375 -2.453125 L 2.6875 -2.453125 L 1.59375 0 L 0.515625 0 Z M 7.328125 -3.390625 L 5.21875 -8.125 L 3.09375 -3.390625 Z M 7.328125 -3.390625 "/></g></g></g><g fill="#000000" fill-opacity="1"><g transform="translate(124.11634, 333.816307)"><g><path d="M 4.484375 0.125 C 3.742188 0.125 3.066406 0.00390625 2.453125 -0.234375 C 1.835938 -0.472656 1.253906 -0.84375 0.703125 -1.34375 L 1.34375 -2.125 C 1.832031 -1.675781 2.320312 -1.34375 2.8125 -1.125 C 3.3125 -0.914062 3.882812 -0.8125 4.53125 -0.8125 C 5.15625 -0.8125 5.65625 -0.957031 6.03125 -1.25 C 6.40625 -1.550781 6.59375 -1.929688 6.59375 -2.390625 L 6.59375 -2.40625 C 6.59375 -2.625 6.554688 -2.816406 6.484375 -2.984375 C 6.421875 -3.160156 6.300781 -3.316406 6.125 -3.453125 C 5.945312 -3.597656 5.703125 -3.726562 5.390625 -3.84375 C 5.078125 -3.957031 4.675781 -4.066406 4.1875 -4.171875 C 3.65625 -4.285156 3.191406 -4.414062 2.796875 -4.5625 C 2.410156 -4.71875 2.085938 -4.898438 1.828125 -5.109375 C 1.566406 -5.328125 1.375 -5.578125 1.25 -5.859375 C 1.132812 -6.140625 1.078125 -6.46875 1.078125 -6.84375 L 1.078125 -6.875 C 1.078125 -7.238281 1.148438 -7.570312 1.296875 -7.875 C 1.453125 -8.1875 1.664062 -8.453125 1.9375 -8.671875 C 2.207031 -8.898438 2.523438 -9.078125 2.890625 -9.203125 C 3.265625 -9.335938 3.675781 -9.40625 4.125 -9.40625 C 4.800781 -9.40625 5.394531 -9.3125 5.90625 -9.125 C 6.414062 -8.9375 6.90625 -8.648438 7.375 -8.265625 L 6.765625 -7.453125 C 6.335938 -7.804688 5.90625 -8.0625 5.46875 -8.21875 C 5.03125 -8.382812 4.570312 -8.46875 4.09375 -8.46875 C 3.488281 -8.46875 3.007812 -8.320312 2.65625 -8.03125 C 2.300781 -7.75 2.125 -7.394531 2.125 -6.96875 L 2.125 -6.9375 C 2.125 -6.71875 2.15625 -6.519531 2.21875 -6.34375 C 2.289062 -6.175781 2.421875 -6.019531 2.609375 -5.875 C 2.796875 -5.726562 3.050781 -5.59375 3.375 -5.46875 C 3.707031 -5.351562 4.128906 -5.242188 4.640625 -5.140625 C 5.671875 -4.910156 6.429688 -4.59375 6.921875 -4.1875 C 7.410156 -3.78125 7.65625 -3.222656 7.65625 -2.515625 L 7.65625 -2.484375 C 7.65625 -2.085938 7.578125 -1.726562 7.421875 -1.40625 C 7.265625 -1.082031 7.046875 -0.804688 6.765625 -0.578125 C 6.484375 -0.347656 6.148438 -0.171875 5.765625 -0.046875 C 5.378906 0.0664062 4.953125 0.125 4.484375 0.125 Z M 4.484375 0.125 "/></g></g></g><g fill="#000000" fill-opacity="1"><g transform="translate(136.301376, 333.816307)"><g><path d="M 5.625 0.15625 C 4.914062 0.15625 4.269531 0.03125 3.6875 -0.21875 C 3.113281 -0.476562 2.617188 -0.828125 2.203125 -1.265625 C 1.785156 -1.703125 1.460938 -2.207031 1.234375 -2.78125 C 1.015625 -3.363281 0.90625 -3.972656 0.90625 -4.609375 L 0.90625 -4.640625 C 0.90625 -5.273438 1.019531 -5.882812 1.25 -6.46875 C 1.476562 -7.050781 1.796875 -7.5625 2.203125 -8 C 2.617188 -8.4375 3.117188 -8.785156 3.703125 -9.046875 C 4.285156 -9.304688 4.929688 -9.4375 5.640625 -9.4375 C 6.347656 -9.4375 6.988281 -9.304688 7.5625 -9.046875 C 8.144531 -8.796875 8.644531 -8.453125 9.0625 -8.015625 C 9.476562 -7.578125 9.796875 -7.066406 10.015625 -6.484375 C 10.242188 -5.910156 10.359375 -5.300781 10.359375 -4.65625 L 10.359375 -4.640625 C 10.359375 -4.003906 10.242188 -3.394531 10.015625 -2.8125 C 9.785156 -2.226562 9.460938 -1.71875 9.046875 -1.28125 C 8.628906 -0.84375 8.128906 -0.492188 7.546875 -0.234375 C 6.960938 0.0234375 6.320312 0.15625 5.625 0.15625 Z M 5.640625 -0.8125 C 6.171875 -0.8125 6.660156 -0.910156 7.109375 -1.109375 C 7.554688 -1.304688 7.9375 -1.578125 8.25 -1.921875 C 8.570312 -2.265625 8.820312 -2.664062 9 -3.125 C 9.1875 -3.582031 9.28125 -4.078125 9.28125 -4.609375 L 9.28125 -4.640625 C 9.28125 -5.171875 9.1875 -5.664062 9 -6.125 C 8.820312 -6.59375 8.566406 -7 8.234375 -7.34375 C 7.910156 -7.6875 7.523438 -7.957031 7.078125 -8.15625 C 6.628906 -8.363281 6.144531 -8.46875 5.625 -8.46875 C 5.09375 -8.46875 4.601562 -8.367188 4.15625 -8.171875 C 3.707031 -7.972656 3.320312 -7.703125 3 -7.359375 C 2.6875 -7.015625 2.4375 -6.609375 2.25 -6.140625 C 2.070312 -5.679688 1.984375 -5.1875 1.984375 -4.65625 L 1.984375 -4.640625 C 1.984375 -4.109375 2.070312 -3.609375 2.25 -3.140625 C 2.4375 -2.679688 2.691406 -2.28125 3.015625 -1.9375 C 3.347656 -1.59375 3.734375 -1.316406 4.171875 -1.109375 C 4.617188 -0.910156 5.109375 -0.8125 5.640625 -0.8125 Z M 5.640625 -0.8125 "/></g></g></g><g fill="#000000" fill-opacity="1"><g transform="translate(151.26728, 333.816307)"><g><path d="M 1.3125 -9.28125 L 2.359375 -9.28125 L 2.359375 -0.96875 L 7.578125 -0.96875 L 7.578125 0 L 1.3125 0 Z M 1.3125 -9.28125 "/></g></g></g><g fill="#000000" fill-opacity="1"><g transform="translate(163.121261, 333.816307)"><g><path d="M 5.015625 0.140625 C 4.441406 0.140625 3.921875 0.0546875 3.453125 -0.109375 C 2.984375 -0.285156 2.578125 -0.539062 2.234375 -0.875 C 1.890625 -1.21875 1.625 -1.640625 1.4375 -2.140625 C 1.257812 -2.648438 1.171875 -3.226562 1.171875 -3.875 L 1.171875 -9.28125 L 2.21875 -9.28125 L 2.21875 -3.953125 C 2.21875 -2.941406 2.460938 -2.164062 2.953125 -1.625 C 3.453125 -1.09375 4.148438 -0.828125 5.046875 -0.828125 C 5.898438 -0.828125 6.578125 -1.082031 7.078125 -1.59375 C 7.585938 -2.101562 7.84375 -2.863281 7.84375 -3.875 L 7.84375 -9.28125 L 8.890625 -9.28125 L 8.890625 -3.96875 C 8.890625 -3.28125 8.796875 -2.679688 8.609375 -2.171875 C 8.421875 -1.660156 8.15625 -1.234375 7.8125 -0.890625 C 7.476562 -0.546875 7.070312 -0.285156 6.59375 -0.109375 C 6.125 0.0546875 5.597656 0.140625 5.015625 0.140625 Z M 5.015625 0.140625 "/></g></g></g><g fill="#000000" fill-opacity="1"><g transform="translate(176.882125, 333.816307)"><g><path d="M 5.546875 0.15625 C 4.878906 0.15625 4.257812 0.0351562 3.6875 -0.203125 C 3.125 -0.453125 2.632812 -0.789062 2.21875 -1.21875 C 1.8125 -1.65625 1.488281 -2.164062 1.25 -2.75 C 1.019531 -3.332031 0.90625 -3.953125 0.90625 -4.609375 L 0.90625 -4.640625 C 0.90625 -5.296875 1.019531 -5.910156 1.25 -6.484375 C 1.488281 -7.066406 1.8125 -7.578125 2.21875 -8.015625 C 2.632812 -8.453125 3.128906 -8.796875 3.703125 -9.046875 C 4.285156 -9.304688 4.914062 -9.4375 5.59375 -9.4375 C 6.019531 -9.4375 6.398438 -9.398438 6.734375 -9.328125 C 7.078125 -9.253906 7.394531 -9.15625 7.6875 -9.03125 C 7.976562 -8.90625 8.242188 -8.75 8.484375 -8.5625 C 8.734375 -8.382812 8.972656 -8.1875 9.203125 -7.96875 L 8.5 -7.1875 C 8.09375 -7.5625 7.660156 -7.867188 7.203125 -8.109375 C 6.753906 -8.347656 6.210938 -8.46875 5.578125 -8.46875 C 5.066406 -8.46875 4.59375 -8.367188 4.15625 -8.171875 C 3.71875 -7.984375 3.335938 -7.710938 3.015625 -7.359375 C 2.691406 -7.015625 2.4375 -6.609375 2.25 -6.140625 C 2.070312 -5.679688 1.984375 -5.1875 1.984375 -4.65625 L 1.984375 -4.640625 C 1.984375 -4.097656 2.070312 -3.59375 2.25 -3.125 C 2.4375 -2.664062 2.691406 -2.265625 3.015625 -1.921875 C 3.335938 -1.578125 3.71875 -1.304688 4.15625 -1.109375 C 4.59375 -0.910156 5.066406 -0.8125 5.578125 -0.8125 C 6.210938 -0.8125 6.757812 -0.925781 7.21875 -1.15625 C 7.675781 -1.394531 8.128906 -1.722656 8.578125 -2.140625 L 9.265625 -1.46875 C 9.023438 -1.21875 8.773438 -0.992188 8.515625 -0.796875 C 8.253906 -0.597656 7.972656 -0.425781 7.671875 -0.28125 C 7.367188 -0.144531 7.046875 -0.0390625 6.703125 0.03125 C 6.359375 0.113281 5.972656 0.15625 5.546875 0.15625 Z M 5.546875 0.15625 "/></g></g></g><g fill="#000000" fill-opacity="1"><g transform="translate(190.417875, 333.816307)"><g><path d="M 1.40625 -9.28125 L 2.453125 -9.28125 L 2.453125 0 L 1.40625 0 Z M 1.40625 -9.28125 "/></g></g></g><g fill="#000000" fill-opacity="1"><g transform="translate(197.981366, 333.816307)"><g><path d="M 5.625 0.15625 C 4.914062 0.15625 4.269531 0.03125 3.6875 -0.21875 C 3.113281 -0.476562 2.617188 -0.828125 2.203125 -1.265625 C 1.785156 -1.703125 1.460938 -2.207031 1.234375 -2.78125 C 1.015625 -3.363281 0.90625 -3.972656 0.90625 -4.609375 L 0.90625 -4.640625 C 0.90625 -5.273438 1.019531 -5.882812 1.25 -6.46875 C 1.476562 -7.050781 1.796875 -7.5625 2.203125 -8 C 2.617188 -8.4375 3.117188 -8.785156 3.703125 -9.046875 C 4.285156 -9.304688 4.929688 -9.4375 5.640625 -9.4375 C 6.347656 -9.4375 6.988281 -9.304688 7.5625 -9.046875 C 8.144531 -8.796875 8.644531 -8.453125 9.0625 -8.015625 C 9.476562 -7.578125 9.796875 -7.066406 10.015625 -6.484375 C 10.242188 -5.910156 10.359375 -5.300781 10.359375 -4.65625 L 10.359375 -4.640625 C 10.359375 -4.003906 10.242188 -3.394531 10.015625 -2.8125 C 9.785156 -2.226562 9.460938 -1.71875 9.046875 -1.28125 C 8.628906 -0.84375 8.128906 -0.492188 7.546875 -0.234375 C 6.960938 0.0234375 6.320312 0.15625 5.625 0.15625 Z M 5.640625 -0.8125 C 6.171875 -0.8125 6.660156 -0.910156 7.109375 -1.109375 C 7.554688 -1.304688 7.9375 -1.578125 8.25 -1.921875 C 8.570312 -2.265625 8.820312 -2.664062 9 -3.125 C 9.1875 -3.582031 9.28125 -4.078125 9.28125 -4.609375 L 9.28125 -4.640625 C 9.28125 -5.171875 9.1875 -5.664062 9 -6.125 C 8.820312 -6.59375 8.566406 -7 8.234375 -7.34375 C 7.910156 -7.6875 7.523438 -7.957031 7.078125 -8.15625 C 6.628906 -8.363281 6.144531 -8.46875 5.625 -8.46875 C 5.09375 -8.46875 4.601562 -8.367188 4.15625 -8.171875 C 3.707031 -7.972656 3.320312 -7.703125 3 -7.359375 C 2.6875 -7.015625 2.4375 -6.609375 2.25 -6.140625 C 2.070312 -5.679688 1.984375 -5.1875 1.984375 -4.65625 L 1.984375 -4.640625 C 1.984375 -4.109375 2.070312 -3.609375 2.25 -3.140625 C 2.4375 -2.679688 2.691406 -2.28125 3.015625 -1.9375 C 3.347656 -1.59375 3.734375 -1.316406 4.171875 -1.109375 C 4.617188 -0.910156 5.109375 -0.8125 5.640625 -0.8125 Z M 5.640625 -0.8125 "/></g></g></g><g fill="#000000" fill-opacity="1"><g transform="translate(212.947273, 333.816307)"><g><path d="M 1.3125 -9.28125 L 2.296875 -9.28125 L 8.140625 -1.84375 L 8.140625 -9.28125 L 9.15625 -9.28125 L 9.15625 0 L 8.328125 0 L 2.328125 -7.609375 L 2.328125 0 L 1.3125 0 Z M 1.3125 -9.28125 "/></g></g></g><g fill="#000000" fill-opacity="1"><g transform="translate(227.118652, 333.816307)"><g><path d="M 4.75 -9.34375 L 5.71875 -9.34375 L 9.953125 0 L 8.828125 0 L 7.734375 -2.453125 L 2.6875 -2.453125 L 1.59375 0 L 0.515625 0 Z M 7.328125 -3.390625 L 5.21875 -8.125 L 3.09375 -3.390625 Z M 7.328125 -3.390625 "/></g></g></g><g fill="#000000" fill-opacity="1"><g transform="translate(241.29003, 333.816307)"><g><path d="M 1.3125 -9.28125 L 5.296875 -9.28125 C 5.867188 -9.28125 6.378906 -9.195312 6.828125 -9.03125 C 7.273438 -8.863281 7.644531 -8.632812 7.9375 -8.34375 C 8.164062 -8.113281 8.34375 -7.84375 8.46875 -7.53125 C 8.59375 -7.226562 8.65625 -6.890625 8.65625 -6.515625 L 8.65625 -6.5 C 8.65625 -6.101562 8.59375 -5.753906 8.46875 -5.453125 C 8.34375 -5.148438 8.164062 -4.882812 7.9375 -4.65625 C 7.71875 -4.425781 7.453125 -4.238281 7.140625 -4.09375 C 6.828125 -3.945312 6.492188 -3.847656 6.140625 -3.796875 L 8.984375 0 L 7.703125 0 L 5.015625 -3.609375 L 2.359375 -3.609375 L 2.359375 0 L 1.3125 0 Z M 5.203125 -4.546875 C 5.546875 -4.546875 5.863281 -4.585938 6.15625 -4.671875 C 6.445312 -4.765625 6.695312 -4.890625 6.90625 -5.046875 C 7.125 -5.210938 7.289062 -5.410156 7.40625 -5.640625 C 7.53125 -5.878906 7.59375 -6.148438 7.59375 -6.453125 L 7.59375 -6.484375 C 7.59375 -7.054688 7.382812 -7.503906 6.96875 -7.828125 C 6.550781 -8.148438 5.96875 -8.3125 5.21875 -8.3125 L 2.359375 -8.3125 L 2.359375 -4.546875 Z M 5.203125 -4.546875 "/></g></g></g></svg>