<svg xmlns="http://www.w3.org/2000/svg" xmlns:xlink="http://www.w3.org/1999/xlink" width="500" zoomAndPan="magnify" viewBox="0 0 375 374.999991" height="500" preserveAspectRatio="xMidYMid meet" version="1.0"><defs><g/><clipPath id="a330e52cd9"><path d="M 52.886719 173 L 322.136719 173 L 322.136719 217.433594 L 52.886719 217.433594 Z M 52.886719 173 " clip-rule="nonzero"/></clipPath><clipPath id="f85c608470"><path d="M 88 37.5 L 287 37.5 L 287 163 L 88 163 Z M 88 37.5 " clip-rule="nonzero"/></clipPath></defs><g clip-path="url(#a330e52cd9)"><path fill="#000000" d="M 226.355469 206.109375 L 148.664062 206.109375 C 148.132812 206.109375 147.789062 205.542969 148.035156 205.070312 L 154.015625 193.539062 C 154.136719 193.300781 154.378906 193.15625 154.644531 193.15625 L 220.375 193.15625 C 220.640625 193.15625 220.886719 193.300781 221.007812 193.539062 L 226.988281 205.070312 C 227.234375 205.542969 226.890625 206.109375 226.355469 206.109375 Z M 320.417969 207.414062 L 288.246094 175.195312 C 287.148438 174.09375 285.660156 173.476562 284.105469 173.476562 L 90.917969 173.476562 C 89.363281 173.476562 87.875 174.09375 86.773438 175.195312 L 54.601562 207.414062 C 53.503906 208.519531 52.886719 210.007812 52.886719 211.566406 C 52.886719 214.804688 55.507812 217.433594 58.746094 217.433594 L 316.277344 217.433594 C 319.511719 217.433594 322.136719 214.804688 322.136719 211.566406 C 322.136719 210.007812 321.519531 208.519531 320.417969 207.414062 " fill-opacity="1" fill-rule="nonzero"/></g><g clip-path="url(#f85c608470)"><path fill="#000000" d="M 276.902344 37.566406 L 98.121094 37.566406 C 92.949219 37.566406 88.714844 41.804688 88.714844 46.984375 L 88.714844 153.289062 C 88.714844 158.472656 92.949219 162.710938 98.121094 162.710938 L 276.902344 162.710938 C 282.074219 162.710938 286.308594 158.472656 286.308594 153.289062 L 286.308594 46.984375 C 286.308594 41.804688 282.074219 37.566406 276.902344 37.566406 Z M 275.421875 48.46875 L 275.421875 151.808594 L 99.601562 151.808594 L 99.601562 48.46875 L 275.421875 48.46875 " fill-opacity="1" fill-rule="nonzero"/></g><g fill="#000000" fill-opacity="1"><g transform="translate(113.973749, 266.328499)"><g><path d="M 4.859375 -23.234375 L 0.484375 -23.234375 L 0.484375 -25.921875 L 12.734375 -25.921875 L 12.734375 -23.234375 L 8.484375 -23.234375 L 8.484375 0 L 4.859375 0 Z M 4.859375 -23.234375 "/></g></g></g><g fill="#000000" fill-opacity="1"><g transform="translate(132.946506, 266.328499)"><g><path d="M 2.015625 -25.921875 L 7.234375 -25.921875 C 9.859375 -25.921875 11.78125 -25.378906 13 -24.296875 C 14.226562 -23.222656 14.84375 -21.472656 14.84375 -19.046875 C 14.84375 -15.710938 13.773438 -13.691406 11.640625 -12.984375 L 15.328125 0 L 11.84375 0 L 8.453125 -12.15625 L 5.625 -12.15625 L 5.625 0 L 2.015625 0 Z M 7.015625 -14.75 C 8.566406 -14.75 9.675781 -15.054688 10.34375 -15.671875 C 11.019531 -16.296875 11.359375 -17.421875 11.359375 -19.046875 C 11.359375 -20.109375 11.238281 -20.941406 11 -21.546875 C 10.769531 -22.160156 10.351562 -22.609375 9.75 -22.890625 C 9.15625 -23.179688 8.316406 -23.328125 7.234375 -23.328125 L 5.625 -23.328125 L 5.625 -14.75 Z M 7.015625 -14.75 "/></g></g></g><g fill="#000000" fill-opacity="1"><g transform="translate(155.310432, 266.328499)"><g><path d="M 6.109375 -25.921875 L 9.59375 -25.921875 L 15.140625 0 L 11.71875 0 L 10.53125 -6.53125 L 5.25 -6.53125 L 4 0 L 0.609375 0 Z M 10.046875 -9.125 L 7.875 -20.796875 L 5.734375 -9.125 Z M 10.046875 -9.125 "/></g></g></g><g fill="#000000" fill-opacity="1"><g transform="translate(176.810569, 266.328499)"><g><path d="M 2.015625 -25.921875 L 7.96875 -25.921875 C 10.3125 -25.921875 12.046875 -25.390625 13.171875 -24.328125 C 14.304688 -23.273438 14.875 -21.640625 14.875 -19.421875 C 14.875 -16.117188 13.640625 -14.296875 11.171875 -13.953125 C 12.703125 -13.585938 13.816406 -12.863281 14.515625 -11.78125 C 15.222656 -10.707031 15.578125 -9.242188 15.578125 -7.390625 C 15.578125 -5.066406 15.023438 -3.253906 13.921875 -1.953125 C 12.828125 -0.648438 11.160156 0 8.921875 0 L 2.015625 0 Z M 7.78125 -15.109375 C 9.269531 -15.109375 10.300781 -15.429688 10.875 -16.078125 C 11.457031 -16.734375 11.75 -17.847656 11.75 -19.421875 C 11.75 -20.578125 11.570312 -21.425781 11.21875 -21.96875 C 10.863281 -22.507812 10.332031 -22.851562 9.625 -23 C 8.925781 -23.15625 7.882812 -23.234375 6.5 -23.234375 L 5.625 -23.234375 L 5.625 -15.109375 Z M 8.0625 -2.59375 C 9.125 -2.59375 9.945312 -2.753906 10.53125 -3.078125 C 11.125 -3.410156 11.535156 -3.914062 11.765625 -4.59375 C 12.003906 -5.28125 12.125 -6.210938 12.125 -7.390625 C 12.125 -9.054688 11.78125 -10.300781 11.09375 -11.125 C 10.414062 -11.945312 9.3125 -12.359375 7.78125 -12.359375 L 5.625 -12.359375 L 5.625 -2.59375 Z M 8.0625 -2.59375 "/></g></g></g><g fill="#000000" fill-opacity="1"><g transform="translate(199.334451, 266.328499)"><g><path d="M 6.109375 -25.921875 L 9.59375 -25.921875 L 15.140625 0 L 11.71875 0 L 10.53125 -6.53125 L 5.25 -6.53125 L 4 0 L 0.609375 0 Z M 10.046875 -9.125 L 7.875 -20.796875 L 5.734375 -9.125 Z M 10.046875 -9.125 "/></g></g></g><g fill="#000000" fill-opacity="1"><g transform="translate(220.834585, 266.328499)"><g><path d="M 8.515625 0.28125 C 5.953125 0.28125 4.144531 -0.476562 3.09375 -2 C 2.050781 -3.519531 1.53125 -5.625 1.53125 -8.3125 L 1.53125 -17.46875 C 1.53125 -20.3125 2.039062 -22.46875 3.0625 -23.9375 C 4.09375 -25.40625 5.910156 -26.140625 8.515625 -26.140625 C 10.835938 -26.140625 12.503906 -25.507812 13.515625 -24.25 C 14.535156 -23 15.046875 -21.144531 15.046875 -18.6875 L 15.046875 -16.640625 L 11.609375 -16.640625 L 11.609375 -18.46875 C 11.609375 -19.65625 11.554688 -20.566406 11.453125 -21.203125 C 11.347656 -21.847656 11.078125 -22.363281 10.640625 -22.75 C 10.203125 -23.132812 9.503906 -23.328125 8.546875 -23.328125 C 7.566406 -23.328125 6.832031 -23.117188 6.34375 -22.703125 C 5.863281 -22.285156 5.550781 -21.707031 5.40625 -20.96875 C 5.257812 -20.238281 5.1875 -19.253906 5.1875 -18.015625 L 5.1875 -7.75 C 5.1875 -6.425781 5.289062 -5.390625 5.5 -4.640625 C 5.71875 -3.890625 6.066406 -3.351562 6.546875 -3.03125 C 7.023438 -2.71875 7.691406 -2.5625 8.546875 -2.5625 C 9.460938 -2.5625 10.144531 -2.765625 10.59375 -3.171875 C 11.039062 -3.578125 11.320312 -4.128906 11.4375 -4.828125 C 11.550781 -5.535156 11.609375 -6.5 11.609375 -7.71875 L 11.609375 -9.625 L 15.046875 -9.625 L 15.046875 -7.71875 C 15.046875 -5.132812 14.554688 -3.15625 13.578125 -1.78125 C 12.609375 -0.40625 10.921875 0.28125 8.515625 0.28125 Z M 8.515625 0.28125 "/></g></g></g><g fill="#000000" fill-opacity="1"><g transform="translate(243.070546, 266.328499)"><g><path d="M 2.015625 -25.921875 L 5.625 -25.921875 L 5.625 -14.71875 L 12.28125 -14.71875 L 12.28125 -25.921875 L 15.90625 -25.921875 L 15.90625 0 L 12.28125 0 L 12.28125 -12.125 L 5.625 -12.125 L 5.625 0 L 2.015625 0 Z M 2.015625 -25.921875 "/></g></g></g><g fill="#000000" fill-opacity="1"><g transform="translate(93.501094, 301.578496)"><g><path d="M 8.125 0.28125 C 5.945312 0.28125 4.285156 -0.390625 3.140625 -1.734375 C 2.003906 -3.078125 1.375 -4.921875 1.25 -7.265625 L 4.453125 -8.125 C 4.554688 -6.457031 4.878906 -5.113281 5.421875 -4.09375 C 5.960938 -3.070312 6.863281 -2.5625 8.125 -2.5625 C 9.0625 -2.5625 9.769531 -2.820312 10.25 -3.34375 C 10.726562 -3.863281 10.96875 -4.613281 10.96875 -5.59375 C 10.96875 -6.664062 10.742188 -7.550781 10.296875 -8.25 C 9.847656 -8.957031 9.132812 -9.738281 8.15625 -10.59375 L 3.8125 -14.4375 C 2.9375 -15.195312 2.300781 -16.019531 1.90625 -16.90625 C 1.507812 -17.789062 1.3125 -18.875 1.3125 -20.15625 C 1.3125 -22.0625 1.851562 -23.535156 2.9375 -24.578125 C 4.03125 -25.617188 5.515625 -26.140625 7.390625 -26.140625 C 9.441406 -26.140625 10.988281 -25.59375 12.03125 -24.5 C 13.070312 -23.414062 13.703125 -21.734375 13.921875 -19.453125 L 10.84375 -18.625 C 10.738281 -20.132812 10.445312 -21.300781 9.96875 -22.125 C 9.488281 -22.945312 8.628906 -23.359375 7.390625 -23.359375 C 6.472656 -23.359375 5.769531 -23.117188 5.28125 -22.640625 C 4.789062 -22.160156 4.546875 -21.453125 4.546875 -20.515625 C 4.546875 -19.742188 4.671875 -19.097656 4.921875 -18.578125 C 5.179688 -18.054688 5.617188 -17.523438 6.234375 -16.984375 L 10.625 -13.15625 C 11.75 -12.144531 12.648438 -11.050781 13.328125 -9.875 C 14.003906 -8.707031 14.34375 -7.378906 14.34375 -5.890625 C 14.34375 -3.992188 13.765625 -2.488281 12.609375 -1.375 C 11.453125 -0.269531 9.957031 0.28125 8.125 0.28125 Z M 8.125 0.28125 "/></g></g></g><g fill="#000000" fill-opacity="1"><g transform="translate(114.39338, 301.578496)"><g><path d="M 8.640625 0.28125 C 6.097656 0.28125 4.273438 -0.4375 3.171875 -1.875 C 2.078125 -3.3125 1.53125 -5.394531 1.53125 -8.125 L 1.53125 -17.953125 C 1.53125 -20.640625 2.082031 -22.675781 3.1875 -24.0625 C 4.300781 -25.445312 6.117188 -26.140625 8.640625 -26.140625 C 11.160156 -26.140625 12.96875 -25.441406 14.0625 -24.046875 C 15.164062 -22.648438 15.71875 -20.617188 15.71875 -17.953125 L 15.71875 -8.09375 C 15.71875 -5.40625 15.160156 -3.335938 14.046875 -1.890625 C 12.941406 -0.441406 11.140625 0.28125 8.640625 0.28125 Z M 8.640625 -2.5625 C 9.984375 -2.5625 10.890625 -2.953125 11.359375 -3.734375 C 11.828125 -4.523438 12.0625 -5.722656 12.0625 -7.328125 L 12.0625 -18.6875 C 12.0625 -20.269531 11.828125 -21.4375 11.359375 -22.1875 C 10.890625 -22.945312 9.984375 -23.328125 8.640625 -23.328125 C 7.273438 -23.328125 6.359375 -22.945312 5.890625 -22.1875 C 5.421875 -21.4375 5.1875 -20.269531 5.1875 -18.6875 L 5.1875 -7.328125 C 5.1875 -5.722656 5.421875 -4.523438 5.890625 -3.734375 C 6.359375 -2.953125 7.273438 -2.5625 8.640625 -2.5625 Z M 8.640625 -2.5625 "/></g></g></g><g fill="#000000" fill-opacity="1"><g transform="translate(137.397146, 301.578496)"><g><path d="M 2.015625 -25.921875 L 12.03125 -25.921875 L 12.03125 -23.328125 L 5.625 -23.328125 L 5.625 -14.6875 L 10.59375 -14.6875 L 10.59375 -12.125 L 5.625 -12.125 L 5.625 0 L 2.015625 0 Z M 2.015625 -25.921875 "/></g></g></g><g fill="#000000" fill-opacity="1"><g transform="translate(155.666078, 301.578496)"><g><path d="M 4.859375 -23.234375 L 0.484375 -23.234375 L 0.484375 -25.921875 L 12.734375 -25.921875 L 12.734375 -23.234375 L 8.484375 -23.234375 L 8.484375 0 L 4.859375 0 Z M 4.859375 -23.234375 "/></g></g></g><g fill="#000000" fill-opacity="1"><g transform="translate(174.638836, 301.578496)"><g><path d="M 1.15625 -25.921875 L 4.15625 -25.921875 L 6.9375 -7.296875 L 10.4375 -25.828125 L 12.984375 -25.828125 L 16.515625 -7.203125 L 19.234375 -25.921875 L 22.171875 -25.921875 L 18.015625 0 L 15.390625 0 L 11.78125 -19.203125 L 8.125 0 L 5.375 0 Z M 1.15625 -25.921875 "/></g></g></g><g fill="#000000" fill-opacity="1"><g transform="translate(203.721104, 301.578496)"><g><path d="M 6.109375 -25.921875 L 9.59375 -25.921875 L 15.140625 0 L 11.71875 0 L 10.53125 -6.53125 L 5.25 -6.53125 L 4 0 L 0.609375 0 Z M 10.046875 -9.125 L 7.875 -20.796875 L 5.734375 -9.125 Z M 10.046875 -9.125 "/></g></g></g><g fill="#000000" fill-opacity="1"><g transform="translate(225.221243, 301.578496)"><g><path d="M 2.015625 -25.921875 L 7.234375 -25.921875 C 9.859375 -25.921875 11.78125 -25.378906 13 -24.296875 C 14.226562 -23.222656 14.84375 -21.472656 14.84375 -19.046875 C 14.84375 -15.710938 13.773438 -13.691406 11.640625 -12.984375 L 15.328125 0 L 11.84375 0 L 8.453125 -12.15625 L 5.625 -12.15625 L 5.625 0 L 2.015625 0 Z M 7.015625 -14.75 C 8.566406 -14.75 9.675781 -15.054688 10.34375 -15.671875 C 11.019531 -16.296875 11.359375 -17.421875 11.359375 -19.046875 C 11.359375 -20.109375 11.238281 -20.941406 11 -21.546875 C 10.769531 -22.160156 10.351562 -22.609375 9.75 -22.890625 C 9.15625 -23.179688 8.316406 -23.328125 7.234375 -23.328125 L 5.625 -23.328125 L 5.625 -14.75 Z M 7.015625 -14.75 "/></g></g></g><g fill="#000000" fill-opacity="1"><g transform="translate(247.585172, 301.578496)"><g><path d="M 2.015625 -25.921875 L 12.0625 -25.921875 L 12.0625 -23.234375 L 5.625 -23.234375 L 5.625 -14.65625 L 10.84375 -14.65625 L 10.84375 -12.09375 L 5.625 -12.09375 L 5.625 -2.59375 L 12.125 -2.59375 L 12.125 0 L 2.015625 0 Z M 2.015625 -25.921875 "/></g></g></g><g fill="#000000" fill-opacity="1"><g transform="translate(266.365978, 301.578496)"><g><path d="M 8.125 0.28125 C 5.945312 0.28125 4.285156 -0.390625 3.140625 -1.734375 C 2.003906 -3.078125 1.375 -4.921875 1.25 -7.265625 L 4.453125 -8.125 C 4.554688 -6.457031 4.878906 -5.113281 5.421875 -4.09375 C 5.960938 -3.070312 6.863281 -2.5625 8.125 -2.5625 C 9.0625 -2.5625 9.769531 -2.820312 10.25 -3.34375 C 10.726562 -3.863281 10.96875 -4.613281 10.96875 -5.59375 C 10.96875 -6.664062 10.742188 -7.550781 10.296875 -8.25 C 9.847656 -8.957031 9.132812 -9.738281 8.15625 -10.59375 L 3.8125 -14.4375 C 2.9375 -15.195312 2.300781 -16.019531 1.90625 -16.90625 C 1.507812 -17.789062 1.3125 -18.875 1.3125 -20.15625 C 1.3125 -22.0625 1.851562 -23.535156 2.9375 -24.578125 C 4.03125 -25.617188 5.515625 -26.140625 7.390625 -26.140625 C 9.441406 -26.140625 10.988281 -25.59375 12.03125 -24.5 C 13.070312 -23.414062 13.703125 -21.734375 13.921875 -19.453125 L 10.84375 -18.625 C 10.738281 -20.132812 10.445312 -21.300781 9.96875 -22.125 C 9.488281 -22.945312 8.628906 -23.359375 7.390625 -23.359375 C 6.472656 -23.359375 5.769531 -23.117188 5.28125 -22.640625 C 4.789062 -22.160156 4.546875 -21.453125 4.546875 -20.515625 C 4.546875 -19.742188 4.671875 -19.097656 4.921875 -18.578125 C 5.179688 -18.054688 5.617188 -17.523438 6.234375 -16.984375 L 10.625 -13.15625 C 11.75 -12.144531 12.648438 -11.050781 13.328125 -9.875 C 14.003906 -8.707031 14.34375 -7.378906 14.34375 -5.890625 C 14.34375 -3.992188 13.765625 -2.488281 12.609375 -1.375 C 11.453125 -0.269531 9.957031 0.28125 8.125 0.28125 Z M 8.125 0.28125 "/></g></g></g><g fill="#000000" fill-opacity="1"><g transform="translate(90.694467, 326.691307)"><g><path d="M 2.015625 -9.625 L 0.203125 -9.625 L 0.203125 -10.734375 L 5.28125 -10.734375 L 5.28125 -9.625 L 3.515625 -9.625 L 3.515625 0 L 2.015625 0 Z M 2.015625 -9.625 "/></g></g></g><g fill="#000000" fill-opacity="1"><g transform="translate(99.873525, 326.691307)"><g><path d="M 0.828125 -10.734375 L 5 -10.734375 L 5 -9.625 L 2.328125 -9.625 L 2.328125 -6.0625 L 4.484375 -6.0625 L 4.484375 -5.015625 L 2.328125 -5.015625 L 2.328125 -1.078125 L 5.015625 -1.078125 L 5.015625 0 L 0.828125 0 Z M 0.828125 -10.734375 "/></g></g></g><g fill="#000000" fill-opacity="1"><g transform="translate(108.973127, 326.691307)"><g><path d="M 3.53125 0.125 C 2.46875 0.125 1.71875 -0.191406 1.28125 -0.828125 C 0.851562 -1.460938 0.640625 -2.332031 0.640625 -3.4375 L 0.640625 -7.234375 C 0.640625 -8.410156 0.847656 -9.300781 1.265625 -9.90625 C 1.691406 -10.519531 2.445312 -10.828125 3.53125 -10.828125 C 4.488281 -10.828125 5.175781 -10.566406 5.59375 -10.046875 C 6.019531 -9.523438 6.234375 -8.753906 6.234375 -7.734375 L 6.234375 -6.890625 L 4.8125 -6.890625 L 4.8125 -7.640625 C 4.8125 -8.140625 4.785156 -8.519531 4.734375 -8.78125 C 4.691406 -9.050781 4.582031 -9.265625 4.40625 -9.421875 C 4.226562 -9.578125 3.9375 -9.65625 3.53125 -9.65625 C 3.125 -9.65625 2.820312 -9.566406 2.625 -9.390625 C 2.425781 -9.222656 2.296875 -8.988281 2.234375 -8.6875 C 2.171875 -8.382812 2.140625 -7.972656 2.140625 -7.453125 L 2.140625 -3.203125 C 2.140625 -2.660156 2.179688 -2.234375 2.265625 -1.921875 C 2.359375 -1.609375 2.503906 -1.382812 2.703125 -1.25 C 2.898438 -1.125 3.175781 -1.0625 3.53125 -1.0625 C 3.914062 -1.0625 4.195312 -1.144531 4.375 -1.3125 C 4.5625 -1.476562 4.679688 -1.707031 4.734375 -2 C 4.785156 -2.289062 4.8125 -2.6875 4.8125 -3.1875 L 4.8125 -3.984375 L 6.234375 -3.984375 L 6.234375 -3.1875 C 6.234375 -2.125 6.03125 -1.304688 5.625 -0.734375 C 5.21875 -0.160156 4.519531 0.125 3.53125 0.125 Z M 3.53125 0.125 "/></g></g></g><g fill="#000000" fill-opacity="1"><g transform="translate(119.502883, 326.691307)"><g><path d="M 0.828125 -10.734375 L 2.328125 -10.734375 L 2.328125 -6.09375 L 5.09375 -6.09375 L 5.09375 -10.734375 L 6.578125 -10.734375 L 6.578125 0 L 5.09375 0 L 5.09375 -5.015625 L 2.328125 -5.015625 L 2.328125 0 L 0.828125 0 Z M 0.828125 -10.734375 "/></g></g></g><g fill="#000000" fill-opacity="1"><g transform="translate(130.641789, 326.691307)"><g><path d="M 0.828125 -10.734375 L 1.859375 -10.734375 L 4.90625 -3.609375 L 4.90625 -10.734375 L 6.140625 -10.734375 L 6.140625 0 L 5.1875 0 L 2.109375 -7.328125 L 2.109375 0 L 0.828125 0 Z M 0.828125 -10.734375 "/></g></g></g><g fill="#000000" fill-opacity="1"><g transform="translate(141.343702, 326.691307)"><g><path d="M 3.578125 0.125 C 2.523438 0.125 1.769531 -0.171875 1.3125 -0.765625 C 0.863281 -1.367188 0.640625 -2.234375 0.640625 -3.359375 L 0.640625 -7.4375 C 0.640625 -8.550781 0.867188 -9.394531 1.328125 -9.96875 C 1.785156 -10.539062 2.535156 -10.828125 3.578125 -10.828125 C 4.617188 -10.828125 5.363281 -10.535156 5.8125 -9.953125 C 6.269531 -9.378906 6.5 -8.539062 6.5 -7.4375 L 6.5 -3.359375 C 6.5 -2.242188 6.269531 -1.382812 5.8125 -0.78125 C 5.351562 -0.175781 4.609375 0.125 3.578125 0.125 Z M 3.578125 -1.0625 C 4.128906 -1.0625 4.503906 -1.222656 4.703125 -1.546875 C 4.898438 -1.878906 5 -2.375 5 -3.03125 L 5 -7.734375 C 5 -8.390625 4.898438 -8.875 4.703125 -9.1875 C 4.503906 -9.5 4.128906 -9.65625 3.578125 -9.65625 C 3.015625 -9.65625 2.632812 -9.5 2.4375 -9.1875 C 2.238281 -8.875 2.140625 -8.390625 2.140625 -7.734375 L 2.140625 -3.03125 C 2.140625 -2.375 2.238281 -1.878906 2.4375 -1.546875 C 2.632812 -1.222656 3.015625 -1.0625 3.578125 -1.0625 Z M 3.578125 -1.0625 "/></g></g></g><g fill="#000000" fill-opacity="1"><g transform="translate(152.191276, 326.691307)"><g><path d="M 0.828125 -10.734375 L 2.328125 -10.734375 L 2.328125 -1.078125 L 5.078125 -1.078125 L 5.078125 0 L 0.828125 0 Z M 0.828125 -10.734375 "/></g></g></g><g fill="#000000" fill-opacity="1"><g transform="translate(161.158459, 326.691307)"><g><path d="M 3.578125 0.125 C 2.523438 0.125 1.769531 -0.171875 1.3125 -0.765625 C 0.863281 -1.367188 0.640625 -2.234375 0.640625 -3.359375 L 0.640625 -7.4375 C 0.640625 -8.550781 0.867188 -9.394531 1.328125 -9.96875 C 1.785156 -10.539062 2.535156 -10.828125 3.578125 -10.828125 C 4.617188 -10.828125 5.363281 -10.535156 5.8125 -9.953125 C 6.269531 -9.378906 6.5 -8.539062 6.5 -7.4375 L 6.5 -3.359375 C 6.5 -2.242188 6.269531 -1.382812 5.8125 -0.78125 C 5.351562 -0.175781 4.609375 0.125 3.578125 0.125 Z M 3.578125 -1.0625 C 4.128906 -1.0625 4.503906 -1.222656 4.703125 -1.546875 C 4.898438 -1.878906 5 -2.375 5 -3.03125 L 5 -7.734375 C 5 -8.390625 4.898438 -8.875 4.703125 -9.1875 C 4.503906 -9.5 4.128906 -9.65625 3.578125 -9.65625 C 3.015625 -9.65625 2.632812 -9.5 2.4375 -9.1875 C 2.238281 -8.875 2.140625 -8.390625 2.140625 -7.734375 L 2.140625 -3.03125 C 2.140625 -2.375 2.238281 -1.878906 2.4375 -1.546875 C 2.632812 -1.222656 3.015625 -1.0625 3.578125 -1.0625 Z M 3.578125 -1.0625 "/></g></g></g><g fill="#000000" fill-opacity="1"><g transform="translate(172.006033, 326.691307)"><g><path d="M 3.390625 0.125 C 2.421875 0.125 1.71875 -0.175781 1.28125 -0.78125 C 0.851562 -1.394531 0.640625 -2.3125 0.640625 -3.53125 L 0.640625 -7.109375 C 0.640625 -7.941406 0.722656 -8.625 0.890625 -9.15625 C 1.066406 -9.695312 1.363281 -10.109375 1.78125 -10.390625 C 2.195312 -10.679688 2.773438 -10.828125 3.515625 -10.828125 C 4.503906 -10.828125 5.21875 -10.570312 5.65625 -10.0625 C 6.09375 -9.5625 6.3125 -8.773438 6.3125 -7.703125 L 6.3125 -7.296875 L 4.90625 -7.296875 L 4.90625 -7.625 C 4.90625 -8.144531 4.875 -8.539062 4.8125 -8.8125 C 4.75 -9.09375 4.617188 -9.300781 4.421875 -9.4375 C 4.222656 -9.582031 3.925781 -9.65625 3.53125 -9.65625 C 3.125 -9.65625 2.816406 -9.5625 2.609375 -9.375 C 2.410156 -9.1875 2.28125 -8.929688 2.21875 -8.609375 C 2.164062 -8.296875 2.140625 -7.875 2.140625 -7.34375 L 2.140625 -3.359375 C 2.140625 -2.546875 2.238281 -1.957031 2.4375 -1.59375 C 2.632812 -1.238281 3.015625 -1.0625 3.578125 -1.0625 C 4.128906 -1.0625 4.507812 -1.253906 4.71875 -1.640625 C 4.925781 -2.023438 5.03125 -2.648438 5.03125 -3.515625 L 5.03125 -4.25 L 3.671875 -4.25 L 3.671875 -5.3125 L 6.390625 -5.3125 L 6.390625 0 L 5.453125 0 L 5.296875 -1.234375 C 4.960938 -0.328125 4.328125 0.125 3.390625 0.125 Z M 3.390625 0.125 "/></g></g></g><g fill="#000000" fill-opacity="1"><g transform="translate(182.800643, 326.691307)"><g><path d="M 2.484375 -3.796875 L 0.15625 -10.734375 L 1.546875 -10.734375 L 3.1875 -5.546875 L 4.8125 -10.734375 L 6.21875 -10.734375 L 3.90625 -3.796875 L 3.90625 0 L 2.484375 0 Z M 2.484375 -3.796875 "/></g></g></g><g fill="#000000" fill-opacity="1"><g transform="translate(192.880164, 326.691307)"><g/></g></g><g fill="#000000" fill-opacity="1"><g transform="translate(199.622644, 326.691307)"><g><path d="M 3.359375 0.125 C 2.460938 0.125 1.773438 -0.148438 1.296875 -0.703125 C 0.828125 -1.265625 0.566406 -2.03125 0.515625 -3 L 1.84375 -3.359375 C 1.882812 -2.671875 2.015625 -2.113281 2.234375 -1.6875 C 2.460938 -1.269531 2.835938 -1.0625 3.359375 -1.0625 C 3.753906 -1.0625 4.050781 -1.164062 4.25 -1.375 C 4.445312 -1.59375 4.546875 -1.90625 4.546875 -2.3125 C 4.546875 -2.757812 4.453125 -3.128906 4.265625 -3.421875 C 4.078125 -3.710938 3.78125 -4.035156 3.375 -4.390625 L 1.578125 -5.96875 C 1.210938 -6.289062 0.945312 -6.632812 0.78125 -7 C 0.625 -7.363281 0.546875 -7.8125 0.546875 -8.34375 C 0.546875 -9.132812 0.769531 -9.742188 1.21875 -10.171875 C 1.664062 -10.609375 2.28125 -10.828125 3.0625 -10.828125 C 3.90625 -10.828125 4.539062 -10.597656 4.96875 -10.140625 C 5.40625 -9.691406 5.671875 -9 5.765625 -8.0625 L 4.484375 -7.71875 C 4.441406 -8.34375 4.320312 -8.820312 4.125 -9.15625 C 3.925781 -9.5 3.570312 -9.671875 3.0625 -9.671875 C 2.675781 -9.671875 2.378906 -9.570312 2.171875 -9.375 C 1.972656 -9.175781 1.875 -8.882812 1.875 -8.5 C 1.875 -8.175781 1.925781 -7.90625 2.03125 -7.6875 C 2.144531 -7.46875 2.328125 -7.25 2.578125 -7.03125 L 4.40625 -5.453125 C 4.863281 -5.035156 5.234375 -4.582031 5.515625 -4.09375 C 5.796875 -3.601562 5.9375 -3.050781 5.9375 -2.4375 C 5.9375 -1.65625 5.695312 -1.03125 5.21875 -0.5625 C 4.738281 -0.101562 4.117188 0.125 3.359375 0.125 Z M 3.359375 0.125 "/></g></g></g><g fill="#000000" fill-opacity="1"><g transform="translate(209.596227, 326.691307)"><g><path d="M 3.578125 0.125 C 2.523438 0.125 1.769531 -0.171875 1.3125 -0.765625 C 0.863281 -1.367188 0.640625 -2.234375 0.640625 -3.359375 L 0.640625 -7.4375 C 0.640625 -8.550781 0.867188 -9.394531 1.328125 -9.96875 C 1.785156 -10.539062 2.535156 -10.828125 3.578125 -10.828125 C 4.617188 -10.828125 5.363281 -10.535156 5.8125 -9.953125 C 6.269531 -9.378906 6.5 -8.539062 6.5 -7.4375 L 6.5 -3.359375 C 6.5 -2.242188 6.269531 -1.382812 5.8125 -0.78125 C 5.351562 -0.175781 4.609375 0.125 3.578125 0.125 Z M 3.578125 -1.0625 C 4.128906 -1.0625 4.503906 -1.222656 4.703125 -1.546875 C 4.898438 -1.878906 5 -2.375 5 -3.03125 L 5 -7.734375 C 5 -8.390625 4.898438 -8.875 4.703125 -9.1875 C 4.503906 -9.5 4.128906 -9.65625 3.578125 -9.65625 C 3.015625 -9.65625 2.632812 -9.5 2.4375 -9.1875 C 2.238281 -8.875 2.140625 -8.390625 2.140625 -7.734375 L 2.140625 -3.03125 C 2.140625 -2.375 2.238281 -1.878906 2.4375 -1.546875 C 2.632812 -1.222656 3.015625 -1.0625 3.578125 -1.0625 Z M 3.578125 -1.0625 "/></g></g></g><g fill="#000000" fill-opacity="1"><g transform="translate(220.443795, 326.691307)"><g><path d="M 0.828125 -10.734375 L 2.328125 -10.734375 L 2.328125 -1.078125 L 5.078125 -1.078125 L 5.078125 0 L 0.828125 0 Z M 0.828125 -10.734375 "/></g></g></g><g fill="#000000" fill-opacity="1"><g transform="translate(229.410973, 326.691307)"><g><path d="M 3.609375 0.125 C 2.859375 0.125 2.269531 -0.0234375 1.84375 -0.328125 C 1.425781 -0.628906 1.132812 -1.046875 0.96875 -1.578125 C 0.8125 -2.117188 0.734375 -2.800781 0.734375 -3.625 L 0.734375 -10.734375 L 2.171875 -10.734375 L 2.171875 -3.546875 C 2.171875 -2.734375 2.265625 -2.113281 2.453125 -1.6875 C 2.648438 -1.269531 3.035156 -1.0625 3.609375 -1.0625 C 4.179688 -1.0625 4.5625 -1.269531 4.75 -1.6875 C 4.9375 -2.113281 5.03125 -2.734375 5.03125 -3.546875 L 5.03125 -10.734375 L 6.453125 -10.734375 L 6.453125 -3.625 C 6.453125 -2.800781 6.367188 -2.117188 6.203125 -1.578125 C 6.046875 -1.046875 5.757812 -0.628906 5.34375 -0.328125 C 4.9375 -0.0234375 4.359375 0.125 3.609375 0.125 Z M 3.609375 0.125 "/></g></g></g><g fill="#000000" fill-opacity="1"><g transform="translate(240.311515, 326.691307)"><g><path d="M 2.015625 -9.625 L 0.203125 -9.625 L 0.203125 -10.734375 L 5.28125 -10.734375 L 5.28125 -9.625 L 3.515625 -9.625 L 3.515625 0 L 2.015625 0 Z M 2.015625 -9.625 "/></g></g></g><g fill="#000000" fill-opacity="1"><g transform="translate(249.490569, 326.691307)"><g><path d="M 0.921875 -10.734375 L 2.390625 -10.734375 L 2.390625 0 L 0.921875 0 Z M 0.921875 -10.734375 "/></g></g></g><g fill="#000000" fill-opacity="1"><g transform="translate(256.484648, 326.691307)"><g><path d="M 3.578125 0.125 C 2.523438 0.125 1.769531 -0.171875 1.3125 -0.765625 C 0.863281 -1.367188 0.640625 -2.234375 0.640625 -3.359375 L 0.640625 -7.4375 C 0.640625 -8.550781 0.867188 -9.394531 1.328125 -9.96875 C 1.785156 -10.539062 2.535156 -10.828125 3.578125 -10.828125 C 4.617188 -10.828125 5.363281 -10.535156 5.8125 -9.953125 C 6.269531 -9.378906 6.5 -8.539062 6.5 -7.4375 L 6.5 -3.359375 C 6.5 -2.242188 6.269531 -1.382812 5.8125 -0.78125 C 5.351562 -0.175781 4.609375 0.125 3.578125 0.125 Z M 3.578125 -1.0625 C 4.128906 -1.0625 4.503906 -1.222656 4.703125 -1.546875 C 4.898438 -1.878906 5 -2.375 5 -3.03125 L 5 -7.734375 C 5 -8.390625 4.898438 -8.875 4.703125 -9.1875 C 4.503906 -9.5 4.128906 -9.65625 3.578125 -9.65625 C 3.015625 -9.65625 2.632812 -9.5 2.4375 -9.1875 C 2.238281 -8.875 2.140625 -8.390625 2.140625 -7.734375 L 2.140625 -3.03125 C 2.140625 -2.375 2.238281 -1.878906 2.4375 -1.546875 C 2.632812 -1.222656 3.015625 -1.0625 3.578125 -1.0625 Z M 3.578125 -1.0625 "/></g></g></g><g fill="#000000" fill-opacity="1"><g transform="translate(267.332216, 326.691307)"><g><path d="M 0.828125 -10.734375 L 1.859375 -10.734375 L 4.90625 -3.609375 L 4.90625 -10.734375 L 6.140625 -10.734375 L 6.140625 0 L 5.1875 0 L 2.109375 -7.328125 L 2.109375 0 L 0.828125 0 Z M 0.828125 -10.734375 "/></g></g></g><g fill="#000000" fill-opacity="1"><g transform="translate(278.034123, 326.691307)"><g><path d="M 3.359375 0.125 C 2.460938 0.125 1.773438 -0.148438 1.296875 -0.703125 C 0.828125 -1.265625 0.566406 -2.03125 0.515625 -3 L 1.84375 -3.359375 C 1.882812 -2.671875 2.015625 -2.113281 2.234375 -1.6875 C 2.460938 -1.269531 2.835938 -1.0625 3.359375 -1.0625 C 3.753906 -1.0625 4.050781 -1.164062 4.25 -1.375 C 4.445312 -1.59375 4.546875 -1.90625 4.546875 -2.3125 C 4.546875 -2.757812 4.453125 -3.128906 4.265625 -3.421875 C 4.078125 -3.710938 3.78125 -4.035156 3.375 -4.390625 L 1.578125 -5.96875 C 1.210938 -6.289062 0.945312 -6.632812 0.78125 -7 C 0.625 -7.363281 0.546875 -7.8125 0.546875 -8.34375 C 0.546875 -9.132812 0.769531 -9.742188 1.21875 -10.171875 C 1.664062 -10.609375 2.28125 -10.828125 3.0625 -10.828125 C 3.90625 -10.828125 4.539062 -10.597656 4.96875 -10.140625 C 5.40625 -9.691406 5.671875 -9 5.765625 -8.0625 L 4.484375 -7.71875 C 4.441406 -8.34375 4.320312 -8.820312 4.125 -9.15625 C 3.925781 -9.5 3.570312 -9.671875 3.0625 -9.671875 C 2.675781 -9.671875 2.378906 -9.570312 2.171875 -9.375 C 1.972656 -9.175781 1.875 -8.882812 1.875 -8.5 C 1.875 -8.175781 1.925781 -7.90625 2.03125 -7.6875 C 2.144531 -7.46875 2.328125 -7.25 2.578125 -7.03125 L 4.40625 -5.453125 C 4.863281 -5.035156 5.234375 -4.582031 5.515625 -4.09375 C 5.796875 -3.601562 5.9375 -3.050781 5.9375 -2.4375 C 5.9375 -1.65625 5.695312 -1.03125 5.21875 -0.5625 C 4.738281 -0.101562 4.117188 0.125 3.359375 0.125 Z M 3.359375 0.125 "/></g></g></g><g fill="#000000" fill-opacity="1"><g transform="translate(106.482584, 121.533064)"><g><path d="M 7.484375 -21.28125 C 11.117188 -19.457031 12.9375 -16.101562 12.9375 -11.21875 L 12.9375 -0.9375 C 12.9375 1.769531 13.492188 3.628906 14.609375 4.640625 C 15.722656 5.648438 17.84375 6.15625 20.96875 6.15625 L 20.96875 10.359375 C 19.09375 10.359375 17.363281 10.265625 15.78125 10.078125 C 14.195312 9.898438 12.804688 9.453125 11.609375 8.734375 C 9.066406 7.117188 7.796875 3.921875 7.796875 -0.859375 L 7.796875 -12.078125 C 7.796875 -14.472656 7.066406 -16.367188 5.609375 -17.765625 C 4.410156 -18.910156 3.085938 -19.484375 1.640625 -19.484375 L 1.640625 -23.0625 C 3.085938 -23.0625 4.253906 -23.503906 5.140625 -24.390625 C 6.910156 -26.054688 7.796875 -28.082031 7.796875 -30.46875 L 7.796875 -41.703125 C 7.796875 -48.398438 10.445312 -52.0625 15.75 -52.6875 C 17.351562 -52.84375 19.09375 -52.921875 20.96875 -52.921875 L 20.96875 -48.71875 C 17.84375 -48.71875 15.722656 -48.207031 14.609375 -47.1875 C 13.492188 -46.175781 12.9375 -44.320312 12.9375 -41.625 L 12.9375 -31.328125 C 12.9375 -28.421875 12.390625 -26.1875 11.296875 -24.625 C 10.210938 -23.070312 8.941406 -21.957031 7.484375 -21.28125 Z M 7.484375 -21.28125 "/></g></g></g><g fill="#000000" fill-opacity="1"><g transform="translate(129.400344, 121.533064)"><g/></g></g><g fill="#000000" fill-opacity="1"><g transform="translate(162.599679, 121.533064)"><g/></g></g><g fill="#000000" fill-opacity="1"><g transform="translate(179.199346, 121.533064)"><g/></g></g><g fill="#000000" fill-opacity="1"><g transform="translate(195.799014, 121.533064)"><g/></g></g><g fill="#000000" fill-opacity="1"><g transform="translate(212.398682, 121.533064)"><g/></g></g><g fill="#000000" fill-opacity="1"><g transform="translate(245.598916, 121.533064)"><g><path d="M 9.96875 -11.21875 C 9.96875 -16.101562 11.789062 -19.457031 15.4375 -21.28125 C 13.976562 -21.957031 12.703125 -23.070312 11.609375 -24.625 C 10.515625 -26.1875 9.96875 -28.421875 9.96875 -31.328125 L 9.96875 -41.625 C 9.96875 -44.320312 9.410156 -46.175781 8.296875 -47.1875 C 7.179688 -48.207031 5.066406 -48.71875 1.953125 -48.71875 L 1.953125 -52.921875 C 3.816406 -52.921875 5.539062 -52.828125 7.125 -52.640625 C 8.71875 -52.460938 10.109375 -52.007812 11.296875 -51.28125 C 13.847656 -49.664062 15.125 -46.472656 15.125 -41.703125 L 15.125 -30.46875 C 15.125 -28.082031 15.847656 -26.1875 17.296875 -24.78125 C 18.492188 -23.632812 19.820312 -23.0625 21.28125 -23.0625 L 21.28125 -19.484375 C 19.820312 -19.484375 18.648438 -19.039062 17.765625 -18.15625 C 16.003906 -16.5 15.125 -14.472656 15.125 -12.078125 L 15.125 -0.859375 C 15.125 5.847656 12.472656 9.507812 7.171875 10.125 C 5.554688 10.28125 3.816406 10.359375 1.953125 10.359375 L 1.953125 6.15625 C 5.066406 6.15625 7.179688 5.648438 8.296875 4.640625 C 9.410156 3.628906 9.96875 1.769531 9.96875 -0.9375 Z M 9.96875 -11.21875 "/></g></g></g><g fill="#000000" fill-opacity="1"><g transform="translate(141.006118, 125.730812)"><g><path d="M 14.46875 -0.5 C 16.539062 -0.5 18.164062 -1.035156 19.34375 -2.109375 C 20.53125 -3.179688 21.125 -4.640625 21.125 -6.484375 L 21.125 -48.046875 L 20.5625 -48.046875 C 17.820312 -48.046875 15.492188 -47.753906 13.578125 -47.171875 C 11.660156 -46.585938 10.070312 -45.835938 8.8125 -44.921875 C 7.550781 -44.003906 6.546875 -43.035156 5.796875 -42.015625 C 5.046875 -41.003906 4.492188 -40.03125 4.140625 -39.09375 C 3.785156 -38.15625 3.550781 -37.40625 3.4375 -36.84375 L 3.265625 -35.828125 L 2.8125 -36.046875 L 4.734375 -48.5625 L 49.125 -48.5625 L 51.03125 -36.046875 L 50.578125 -35.828125 L 50.40625 -36.84375 C 50.300781 -37.40625 50.066406 -38.15625 49.703125 -39.09375 C 49.347656 -40.03125 48.796875 -41.003906 48.046875 -42.015625 C 47.296875 -43.035156 46.289062 -44.003906 45.03125 -44.921875 C 43.769531 -45.835938 42.179688 -46.585938 40.265625 -47.171875 C 38.359375 -47.753906 36.035156 -48.046875 33.296875 -48.046875 L 32.78125 -48.046875 L 32.78125 -6.484375 C 32.78125 -4.640625 33.367188 -3.179688 34.546875 -2.109375 C 35.734375 -1.035156 37.359375 -0.5 39.421875 -0.5 L 39.421875 0 L 14.46875 0 Z M 14.46875 -0.5 "/></g></g></g><g fill="#000000" fill-opacity="1"><g transform="translate(194.847028, 125.730812)"><g><path d="M 11.4375 -1.359375 C 9.519531 -2.109375 8.015625 -2.578125 6.921875 -2.765625 C 5.835938 -2.953125 5.039062 -2.941406 4.53125 -2.734375 C 4.03125 -2.523438 3.710938 -2.1875 3.578125 -1.71875 C 3.441406 -1.25 3.375 -0.695312 3.375 -0.0625 L 3.375 0 L 2.875 0 L 2.875 -16.109375 L 3.375 -16.109375 L 3.375 -14.8125 C 3.375 -13.007812 3.820312 -11.234375 4.71875 -9.484375 C 5.625 -7.742188 6.847656 -6.175781 8.390625 -4.78125 C 9.929688 -3.394531 11.664062 -2.285156 13.59375 -1.453125 C 15.53125 -0.628906 17.535156 -0.21875 19.609375 -0.21875 C 22.347656 -0.21875 24.53125 -0.570312 26.15625 -1.28125 C 27.789062 -2 28.992188 -2.957031 29.765625 -4.15625 C 30.535156 -5.363281 30.941406 -6.664062 30.984375 -8.0625 C 31.015625 -9.332031 30.632812 -10.503906 29.84375 -11.578125 C 29.0625 -12.648438 28.003906 -13.660156 26.671875 -14.609375 C 25.335938 -15.566406 23.875 -16.488281 22.28125 -17.375 C 20.6875 -18.257812 19.109375 -19.140625 17.546875 -20.015625 C 15.984375 -20.898438 14.582031 -21.796875 13.34375 -22.703125 C 10.53125 -24.804688 8.351562 -26.71875 6.8125 -28.4375 C 5.269531 -30.164062 4.359375 -31.894531 4.078125 -33.625 C 3.796875 -35.351562 4.125 -37.285156 5.0625 -39.421875 C 5.925781 -41.378906 7.175781 -43.070312 8.8125 -44.5 C 10.445312 -45.925781 12.316406 -47.023438 14.421875 -47.796875 C 16.523438 -48.566406 18.703125 -48.953125 20.953125 -48.953125 C 21.960938 -48.953125 22.957031 -48.863281 23.9375 -48.6875 C 24.914062 -48.519531 25.835938 -48.234375 26.703125 -47.828125 C 27.191406 -47.597656 27.789062 -47.332031 28.5 -47.03125 C 29.21875 -46.726562 29.929688 -46.492188 30.640625 -46.328125 C 31.359375 -46.160156 31.96875 -46.125 32.46875 -46.21875 C 32.976562 -46.3125 33.253906 -46.617188 33.296875 -47.140625 L 33.296875 -47.375 L 33.796875 -47.375 L 33.796875 -34.015625 L 33.296875 -34.015625 C 33.296875 -34.015625 33.265625 -34.34375 33.203125 -35 C 33.148438 -35.664062 33.035156 -36.503906 32.859375 -37.515625 C 32.691406 -38.523438 32.410156 -39.613281 32.015625 -40.78125 C 31.628906 -41.945312 31.101562 -43.054688 30.4375 -44.109375 C 29.78125 -45.160156 28.945312 -46.003906 27.9375 -46.640625 C 26.957031 -47.203125 25.875 -47.640625 24.6875 -47.953125 C 23.507812 -48.273438 22.265625 -48.4375 20.953125 -48.4375 C 18.773438 -48.4375 17.046875 -48.109375 15.765625 -47.453125 C 14.492188 -46.796875 13.59375 -45.90625 13.0625 -44.78125 C 12.539062 -43.65625 12.28125 -42.378906 12.28125 -40.953125 C 12.28125 -39.035156 12.9375 -37.332031 14.25 -35.84375 C 15.5625 -34.363281 17.570312 -32.800781 20.28125 -31.15625 C 22.601562 -29.726562 24.796875 -28.46875 26.859375 -27.375 C 28.929688 -26.28125 30.753906 -25.148438 32.328125 -23.984375 C 33.910156 -22.828125 35.160156 -21.441406 36.078125 -19.828125 C 36.992188 -18.210938 37.453125 -16.164062 37.453125 -13.6875 C 37.453125 -12.070312 37.078125 -10.351562 36.328125 -8.53125 C 35.578125 -6.707031 34.640625 -5.234375 33.515625 -4.109375 C 32.316406 -2.910156 30.832031 -1.960938 29.0625 -1.265625 C 27.300781 -0.566406 25.394531 -0.117188 23.34375 0.078125 C 21.300781 0.285156 19.253906 0.265625 17.203125 0.015625 C 15.160156 -0.222656 13.238281 -0.679688 11.4375 -1.359375 Z M 11.4375 -1.359375 "/></g></g></g></svg>