<svg xmlns="http://www.w3.org/2000/svg" xmlns:xlink="http://www.w3.org/1999/xlink" width="500" zoomAndPan="magnify" viewBox="0 0 375 374.999991" height="500" preserveAspectRatio="xMidYMid meet" version="1.0"><defs><g/><clipPath id="e1eb55670c"><path d="M 2.316406 250 L 372.679688 250 L 372.679688 311.011719 L 2.316406 311.011719 Z M 2.316406 250 " clip-rule="nonzero"/></clipPath><clipPath id="b2b2271185"><path d="M 51 63.890625 L 324 63.890625 L 324 236 L 51 236 Z M 51 63.890625 " clip-rule="nonzero"/></clipPath><clipPath id="ea84e92408"><path d="M 140.371094 84.46875 L 234.496094 84.46875 L 234.496094 209.96875 L 140.371094 209.96875 Z M 140.371094 84.46875 " clip-rule="nonzero"/></clipPath></defs><g clip-path="url(#e1eb55670c)"><path fill="#2c3e50" d="M 240.933594 295.457031 L 134.066406 295.457031 C 133.328125 295.457031 132.859375 294.683594 133.195312 294.03125 L 141.421875 278.195312 C 141.589844 277.871094 141.925781 277.667969 142.289062 277.667969 L 232.707031 277.667969 C 233.070312 277.667969 233.40625 277.871094 233.574219 278.195312 L 241.800781 294.03125 C 242.140625 294.683594 241.667969 295.457031 240.933594 295.457031 Z M 370.320312 297.253906 L 326.0625 253.003906 C 324.554688 251.488281 322.503906 250.640625 320.367188 250.640625 L 54.628906 250.640625 C 52.492188 250.640625 50.441406 251.488281 48.929688 253.003906 L 4.675781 297.253906 C 3.164062 298.769531 2.316406 300.816406 2.316406 302.957031 C 2.316406 307.40625 5.921875 311.015625 10.375 311.015625 L 364.621094 311.015625 C 369.074219 311.015625 372.679688 307.40625 372.679688 302.957031 C 372.679688 300.816406 371.832031 298.769531 370.320312 297.253906 " fill-opacity="1" fill-rule="nonzero"/></g><g clip-path="url(#b2b2271185)"><path fill="#2c3e50" d="M 310.460938 63.976562 L 64.535156 63.976562 C 57.421875 63.976562 51.601562 69.796875 51.601562 76.914062 L 51.601562 222.917969 C 51.601562 230.035156 57.421875 235.855469 64.535156 235.855469 L 310.460938 235.855469 C 317.574219 235.855469 323.398438 230.035156 323.398438 222.917969 L 323.398438 76.914062 C 323.398438 69.796875 317.574219 63.976562 310.460938 63.976562 Z M 308.421875 78.949219 L 308.421875 220.882812 L 66.574219 220.882812 L 66.574219 78.949219 L 308.421875 78.949219 " fill-opacity="1" fill-rule="nonzero"/></g><g fill="#2c3e50" fill-opacity="1"><g transform="translate(76.045725, 179.707181)"><g><path d="M 10.296875 -29.265625 C 15.296875 -26.765625 17.796875 -22.15625 17.796875 -15.4375 L 17.796875 -1.28125 C 17.796875 2.425781 18.5625 4.976562 20.09375 6.375 C 21.632812 7.769531 24.550781 8.46875 28.84375 8.46875 L 28.84375 14.265625 C 26.269531 14.265625 23.890625 14.132812 21.703125 13.875 C 19.523438 13.625 17.613281 13 15.96875 12 C 12.46875 9.789062 10.71875 5.398438 10.71875 -1.171875 L 10.71875 -16.609375 C 10.71875 -19.898438 9.71875 -22.507812 7.71875 -24.4375 C 6.070312 -26.007812 4.25 -26.796875 2.25 -26.796875 L 2.25 -31.734375 C 4.25 -31.734375 5.859375 -32.335938 7.078125 -33.546875 C 9.503906 -35.835938 10.71875 -38.628906 10.71875 -41.921875 L 10.71875 -57.359375 C 10.71875 -66.578125 14.363281 -71.613281 21.65625 -72.46875 C 23.875 -72.6875 26.269531 -72.796875 28.84375 -72.796875 L 28.84375 -67 C 24.550781 -67 21.632812 -66.300781 20.09375 -64.90625 C 18.5625 -63.519531 17.796875 -60.96875 17.796875 -57.25 L 17.796875 -43.09375 C 17.796875 -39.09375 17.046875 -36.019531 15.546875 -33.875 C 14.046875 -31.726562 12.296875 -30.191406 10.296875 -29.265625 Z M 10.296875 -29.265625 "/></g></g></g><g fill="#2c3e50" fill-opacity="1"><g transform="translate(107.568401, 179.707181)"><g/></g></g><g fill="#2c3e50" fill-opacity="1"><g transform="translate(130.40385, 179.707181)"><g/></g></g><g fill="#2c3e50" fill-opacity="1"><g transform="translate(153.2393, 179.707181)"><g/></g></g><g fill="#2c3e50" fill-opacity="1"><g transform="translate(176.074749, 179.707181)"><g/></g></g><g fill="#2c3e50" fill-opacity="1"><g transform="translate(198.910199, 179.707181)"><g/></g></g><g fill="#2c3e50" fill-opacity="1"><g transform="translate(221.745649, 179.707181)"><g/></g></g><g fill="#2c3e50" fill-opacity="1"><g transform="translate(244.581098, 179.707181)"><g/></g></g><g fill="#2c3e50" fill-opacity="1"><g transform="translate(267.422726, 179.707181)"><g><path d="M 13.71875 -15.4375 C 13.71875 -22.15625 16.21875 -26.765625 21.21875 -29.265625 C 19.21875 -30.191406 17.46875 -31.726562 15.96875 -33.875 C 14.46875 -36.019531 13.71875 -39.09375 13.71875 -43.09375 L 13.71875 -57.25 C 13.71875 -60.96875 12.945312 -63.519531 11.40625 -64.90625 C 9.875 -66.300781 6.96875 -67 2.6875 -67 L 2.6875 -72.796875 C 5.257812 -72.796875 7.632812 -72.671875 9.8125 -72.421875 C 11.988281 -72.171875 13.898438 -71.546875 15.546875 -70.546875 C 19.046875 -68.328125 20.796875 -63.929688 20.796875 -57.359375 L 20.796875 -41.921875 C 20.796875 -38.628906 21.796875 -36.019531 23.796875 -34.09375 C 25.441406 -32.519531 27.265625 -31.734375 29.265625 -31.734375 L 29.265625 -26.796875 C 27.265625 -26.796875 25.65625 -26.191406 24.4375 -24.984375 C 22.007812 -22.691406 20.796875 -19.898438 20.796875 -16.609375 L 20.796875 -1.171875 C 20.796875 8.046875 17.148438 13.082031 9.859375 13.9375 C 7.648438 14.15625 5.257812 14.265625 2.6875 14.265625 L 2.6875 8.46875 C 6.96875 8.46875 9.875 7.769531 11.40625 6.375 C 12.945312 4.976562 13.71875 2.425781 13.71875 -1.28125 Z M 13.71875 -15.4375 "/></g></g></g><g clip-path="url(#ea84e92408)"><path fill="#2c3e50" d="M 178.367188 147.425781 L 178.367188 156.253906 L 171.941406 153.445312 C 171.25 153.132812 170.558594 152.816406 169.863281 152.492188 C 167.511719 151.390625 165.152344 150.210938 162.800781 148.953125 C 159.753906 147.324219 156.996094 145.433594 154.527344 143.28125 C 152.058594 141.125 150.0625 138.605469 148.539062 135.714844 C 147.015625 132.824219 146.253906 129.492188 146.253906 125.707031 C 146.253906 121.398438 147.25 117.488281 149.246094 113.964844 C 151.242188 110.449219 153.976562 107.449219 157.445312 104.980469 C 160.914062 102.511719 165.035156 100.621094 169.816406 99.304688 C 174.597656 97.996094 179.773438 97.339844 185.34375 97.339844 C 191.226562 97.339844 196.457031 98.023438 201.027344 99.386719 C 205.597656 100.753906 209.511719 102.382812 212.769531 104.273438 C 216.027344 106.164062 218.703125 108.082031 220.808594 110.027344 C 222.910156 111.972656 224.484375 113.574219 225.535156 114.832031 L 218.914062 134.691406 C 218.496094 122.925781 215.167969 114.019531 208.929688 107.976562 C 202.695312 101.933594 194.542969 98.914062 184.480469 98.914062 C 180.285156 98.914062 176.355469 99.441406 172.6875 100.488281 C 169.015625 101.542969 165.847656 103.09375 163.179688 105.140625 C 160.503906 107.1875 158.382812 109.65625 156.808594 112.546875 C 155.238281 115.4375 154.453125 118.769531 154.453125 122.554688 C 154.453125 128.335938 156.152344 132.933594 159.5625 136.347656 C 162.453125 139.242188 165.886719 141.664062 169.871094 143.613281 C 170.585938 143.964844 171.316406 144.300781 172.066406 144.621094 Z M 223.488281 171.644531 C 221.179688 168.648438 218.324219 166.105469 214.917969 164 C 211.511719 161.898438 207.867188 160.0625 203.988281 158.484375 C 201.109375 157.316406 198.40625 156.207031 195.878906 155.152344 L 195.878906 163.914062 C 197.734375 164.738281 199.6875 165.605469 201.730469 166.523438 C 204.777344 167.886719 207.585938 169.492188 210.164062 171.328125 C 212.738281 173.167969 214.863281 175.324219 216.546875 177.792969 C 218.230469 180.257812 219.070312 183.125 219.070312 186.378906 C 219.070312 189.21875 218.359375 191.976562 216.945312 194.652344 C 215.527344 197.335938 213.535156 199.699219 210.964844 201.746094 C 208.390625 203.792969 205.300781 205.425781 201.679688 206.632812 C 198.0625 207.84375 193.996094 208.445312 189.484375 208.445312 C 184.765625 208.445312 180.070312 207.710938 175.402344 206.238281 C 170.734375 204.765625 166.589844 202.558594 162.96875 199.617188 C 159.351562 196.675781 156.492188 192.945312 154.394531 188.425781 C 152.292969 183.90625 151.507812 178.652344 152.035156 172.664062 L 140.371094 183.546875 C 142.050781 187.960938 144.625 191.824219 148.09375 195.132812 C 151.5625 198.441406 155.523438 201.203125 159.984375 203.410156 C 164.441406 205.617188 169.191406 207.269531 174.226562 208.375 C 179.257812 209.480469 184.140625 210.027344 188.863281 210.027344 C 194.53125 210.027344 199.722656 209.265625 204.445312 207.742188 C 209.167969 206.222656 213.179688 204.195312 216.488281 201.675781 C 219.792969 199.15625 222.359375 196.238281 224.199219 192.925781 C 226.035156 189.621094 226.953125 186.125 226.953125 182.445312 C 226.949219 178.242188 225.792969 174.644531 223.488281 171.644531 Z M 194.117188 190.089844 C 192.433594 187.726562 191.597656 184.601562 191.597656 180.710938 L 191.597656 101.234375 C 189.34375 100.84375 186.972656 100.648438 184.476562 100.648438 C 184.117188 100.648438 183.757812 100.652344 183.402344 100.660156 L 183.402344 180.710938 C 183.402344 184.601562 182.535156 187.722656 180.800781 190.089844 C 179.070312 192.453125 176.3125 194.109375 172.527344 195.054688 L 172.527344 195.214844 L 202.316406 195.214844 L 202.316406 195.054688 C 198.53125 194.109375 195.796875 192.453125 194.117188 190.089844 Z M 231.160156 84.566406 C 230.632812 84.988281 229.921875 85.273438 229.03125 85.433594 C 228.136719 85.589844 227.429688 85.667969 226.902344 85.667969 L 148.09375 85.667969 C 147.566406 85.667969 146.832031 85.589844 145.886719 85.433594 C 144.941406 85.273438 144.207031 84.988281 143.679688 84.566406 L 140.371094 115.773438 L 141.316406 115.773438 C 141.734375 109.785156 142.757812 105.03125 144.390625 101.511719 C 146.019531 97.992188 147.9375 95.3125 150.144531 93.472656 C 152.351562 91.632812 154.714844 90.425781 157.234375 89.84375 C 159.753906 89.269531 162.171875 88.980469 164.484375 88.980469 L 183.398438 88.980469 L 183.398438 93.632812 C 184.039062 93.613281 184.6875 93.601562 185.335938 93.601562 C 187.5 93.601562 189.585938 93.695312 191.59375 93.878906 L 191.59375 88.980469 L 210.351562 88.980469 C 212.660156 88.980469 215.078125 89.269531 217.601562 89.84375 C 220.121094 90.425781 222.488281 91.632812 224.695312 93.472656 C 226.902344 95.3125 228.816406 97.988281 230.449219 101.511719 C 232.078125 105.03125 233.152344 109.785156 233.679688 115.773438 L 234.625 115.773438 Z M 231.160156 84.566406 " fill-opacity="1" fill-rule="nonzero"/></g></svg>