<svg xmlns="http://www.w3.org/2000/svg" xmlns:xlink="http://www.w3.org/1999/xlink" width="500" zoomAndPan="magnify" viewBox="0 0 375 374.999991" height="500" preserveAspectRatio="xMidYMid meet" version="1.0"><defs><g/><clipPath id="401aecb19d"><path d="M 25 37.5 L 350 37.5 L 350 233.25 L 25 233.25 Z M 25 37.5 " clip-rule="nonzero"/></clipPath></defs><g clip-path="url(#401aecb19d)"><path fill="#000000" d="M 217.335938 217.105469 L 217.335938 222.152344 L 156.738281 222.152344 L 156.738281 217.105469 L 25.441406 217.105469 L 25.441406 219.125 C 25.441406 222.152344 26.449219 226.1875 29.480469 229.214844 C 32.511719 232.242188 35.539062 233.25 39.582031 233.25 L 335.503906 233.25 C 338.53125 233.25 342.570312 232.242188 345.601562 229.214844 C 348.632812 226.1875 349.640625 223.160156 349.640625 219.125 L 349.640625 217.105469 Z M 69.878906 226.1875 L 55.738281 226.1875 L 55.738281 224.167969 L 69.878906 224.167969 Z M 63.820312 212.0625 L 310.253906 212.0625 C 312.273438 212.0625 314.292969 211.050781 316.3125 209.035156 C 318.332031 207.015625 319.34375 204.996094 319.34375 202.980469 L 319.34375 46.582031 C 319.34375 44.5625 318.332031 42.546875 316.3125 40.527344 C 314.292969 38.507812 312.273438 37.5 310.253906 37.5 L 63.820312 37.5 C 61.800781 37.5 59.78125 38.507812 57.761719 40.527344 C 55.738281 41.535156 55.738281 43.554688 55.738281 46.582031 L 55.738281 203.988281 C 55.738281 206.007812 56.75 208.023438 58.769531 210.042969 C 59.78125 211.050781 61.800781 212.0625 63.820312 212.0625 Z M 187.035156 41.535156 C 189.054688 41.535156 190.066406 42.546875 190.066406 44.5625 C 190.066406 46.582031 189.054688 47.589844 187.035156 47.589844 C 185.015625 47.589844 184.007812 46.582031 184.007812 44.5625 C 184.007812 42.546875 185.015625 41.535156 187.035156 41.535156 Z M 68.871094 51.625 L 305.203125 51.625 L 305.203125 198.941406 L 68.871094 198.941406 Z M 68.871094 51.625 " fill-opacity="1" fill-rule="nonzero"/></g><g fill="#000000" fill-opacity="1"><g transform="translate(113.983166, 148.440378)"><g><path d="M 6.78125 -19.3125 C 10.082031 -17.65625 11.734375 -14.613281 11.734375 -10.1875 L 11.734375 -0.84375 C 11.734375 1.601562 12.238281 3.285156 13.25 4.203125 C 14.269531 5.128906 16.191406 5.59375 19.015625 5.59375 L 19.015625 9.40625 C 17.328125 9.40625 15.757812 9.320312 14.3125 9.15625 C 12.875 8.988281 11.613281 8.578125 10.53125 7.921875 C 8.226562 6.460938 7.078125 3.5625 7.078125 -0.78125 L 7.078125 -10.96875 C 7.078125 -13.132812 6.414062 -14.851562 5.09375 -16.125 C 4.007812 -17.164062 2.804688 -17.6875 1.484375 -17.6875 L 1.484375 -20.9375 C 2.804688 -20.9375 3.867188 -21.335938 4.671875 -22.140625 C 6.273438 -23.640625 7.078125 -25.476562 7.078125 -27.65625 L 7.078125 -37.828125 C 7.078125 -43.910156 9.476562 -47.238281 14.28125 -47.8125 C 15.75 -47.945312 17.328125 -48.015625 19.015625 -48.015625 L 19.015625 -44.203125 C 16.191406 -44.203125 14.269531 -43.738281 13.25 -42.8125 C 12.238281 -41.894531 11.734375 -40.210938 11.734375 -37.765625 L 11.734375 -28.421875 C 11.734375 -25.785156 11.238281 -23.757812 10.25 -22.34375 C 9.257812 -20.925781 8.101562 -19.914062 6.78125 -19.3125 Z M 6.78125 -19.3125 "/></g></g></g><g fill="#000000" fill-opacity="1"><g transform="translate(134.7792, 148.440378)"><g/></g></g><g fill="#000000" fill-opacity="1"><g transform="translate(149.842071, 148.440378)"><g/></g></g><g fill="#000000" fill-opacity="1"><g transform="translate(164.904942, 148.440378)"><g/></g></g><g fill="#000000" fill-opacity="1"><g transform="translate(179.967813, 148.440378)"><g/></g></g><g fill="#000000" fill-opacity="1"><g transform="translate(195.030684, 148.440378)"><g/></g></g><g fill="#000000" fill-opacity="1"><g transform="translate(210.093555, 148.440378)"><g/></g></g><g fill="#000000" fill-opacity="1"><g transform="translate(225.156425, 148.440378)"><g/></g></g><g fill="#000000" fill-opacity="1"><g transform="translate(240.220112, 148.440378)"><g><path d="M 9.046875 -10.1875 C 9.046875 -14.613281 10.695312 -17.65625 14 -19.3125 C 12.675781 -19.914062 11.519531 -20.925781 10.53125 -22.34375 C 9.539062 -23.757812 9.046875 -25.785156 9.046875 -28.421875 L 9.046875 -37.765625 C 9.046875 -40.210938 8.539062 -41.894531 7.53125 -42.8125 C 6.519531 -43.738281 4.597656 -44.203125 1.765625 -44.203125 L 1.765625 -48.015625 C 3.460938 -48.015625 5.03125 -47.929688 6.46875 -47.765625 C 7.90625 -47.597656 9.164062 -47.1875 10.25 -46.53125 C 12.5625 -45.070312 13.71875 -42.171875 13.71875 -37.828125 L 13.71875 -27.65625 C 13.71875 -25.476562 14.378906 -23.753906 15.703125 -22.484375 C 16.785156 -21.453125 17.988281 -20.9375 19.3125 -20.9375 L 19.3125 -17.6875 C 17.988281 -17.6875 16.925781 -17.285156 16.125 -16.484375 C 14.519531 -14.972656 13.71875 -13.132812 13.71875 -10.96875 L 13.71875 -0.78125 C 13.71875 5.300781 11.3125 8.625 6.5 9.1875 C 5.039062 9.332031 3.460938 9.40625 1.765625 9.40625 L 1.765625 5.59375 C 4.597656 5.59375 6.519531 5.128906 7.53125 4.203125 C 8.539062 3.285156 9.046875 1.601562 9.046875 -0.84375 Z M 9.046875 -10.1875 "/></g></g></g><g fill="#000000" fill-opacity="1"><g transform="translate(145.310517, 152.249521)"><g><path d="M 13.140625 -0.453125 C 15.015625 -0.453125 16.488281 -0.9375 17.5625 -1.90625 C 18.632812 -2.882812 19.171875 -4.207031 19.171875 -5.875 L 19.171875 -43.59375 L 18.65625 -43.59375 C 16.164062 -43.59375 14.050781 -43.328125 12.3125 -42.796875 C 10.570312 -42.273438 9.128906 -41.59375 7.984375 -40.75 C 6.847656 -39.914062 5.9375 -39.039062 5.25 -38.125 C 4.570312 -37.207031 4.070312 -36.320312 3.75 -35.46875 C 3.425781 -34.613281 3.21875 -33.929688 3.125 -33.421875 L 2.96875 -32.5 L 2.5625 -32.703125 L 4.296875 -44.0625 L 44.5625 -44.0625 L 46.3125 -32.703125 L 45.890625 -32.5 L 45.75 -33.421875 C 45.644531 -33.929688 45.429688 -34.613281 45.109375 -35.46875 C 44.785156 -36.320312 44.28125 -37.207031 43.59375 -38.125 C 42.914062 -39.039062 42.003906 -39.914062 40.859375 -40.75 C 39.722656 -41.59375 38.285156 -42.273438 36.546875 -42.796875 C 34.804688 -43.328125 32.691406 -43.59375 30.203125 -43.59375 L 29.75 -43.59375 L 29.75 -5.875 C 29.75 -4.207031 30.285156 -2.882812 31.359375 -1.90625 C 32.429688 -0.9375 33.90625 -0.453125 35.78125 -0.453125 L 35.78125 0 L 13.140625 0 Z M 13.140625 -0.453125 "/></g></g></g><g fill="#000000" fill-opacity="1"><g transform="translate(194.166839, 152.249521)"><g><path d="M 10.375 -1.234375 C 8.632812 -1.910156 7.269531 -2.332031 6.28125 -2.5 C 5.289062 -2.675781 4.566406 -2.671875 4.109375 -2.484375 C 3.648438 -2.296875 3.359375 -1.988281 3.234375 -1.5625 C 3.117188 -1.132812 3.0625 -0.628906 3.0625 -0.046875 L 3.0625 0 L 2.609375 0 L 2.609375 -14.625 L 3.0625 -14.625 L 3.0625 -13.4375 C 3.0625 -11.800781 3.46875 -10.191406 4.28125 -8.609375 C 5.101562 -7.023438 6.210938 -5.601562 7.609375 -4.34375 C 9.003906 -3.082031 10.578125 -2.078125 12.328125 -1.328125 C 14.085938 -0.578125 15.90625 -0.203125 17.78125 -0.203125 C 20.269531 -0.203125 22.253906 -0.523438 23.734375 -1.171875 C 25.222656 -1.816406 26.316406 -2.6875 27.015625 -3.78125 C 27.710938 -4.875 28.078125 -6.050781 28.109375 -7.3125 C 28.140625 -8.46875 27.796875 -9.53125 27.078125 -10.5 C 26.367188 -11.46875 25.410156 -12.382812 24.203125 -13.25 C 22.992188 -14.125 21.664062 -14.960938 20.21875 -15.765625 C 18.769531 -16.566406 17.335938 -17.367188 15.921875 -18.171875 C 14.503906 -18.972656 13.234375 -19.78125 12.109375 -20.59375 C 9.554688 -22.5 7.582031 -24.234375 6.1875 -25.796875 C 4.789062 -27.367188 3.960938 -28.9375 3.703125 -30.5 C 3.453125 -32.070312 3.75 -33.832031 4.59375 -35.78125 C 5.382812 -37.550781 6.519531 -39.082031 8 -40.375 C 9.476562 -41.664062 11.171875 -42.660156 13.078125 -43.359375 C 14.992188 -44.054688 16.972656 -44.40625 19.015625 -44.40625 C 19.929688 -44.40625 20.832031 -44.328125 21.71875 -44.171875 C 22.601562 -44.023438 23.4375 -43.765625 24.21875 -43.390625 C 24.664062 -43.179688 25.210938 -42.941406 25.859375 -42.671875 C 26.503906 -42.398438 27.148438 -42.1875 27.796875 -42.03125 C 28.453125 -41.882812 29.007812 -41.851562 29.46875 -41.9375 C 29.925781 -42.019531 30.171875 -42.300781 30.203125 -42.78125 L 30.203125 -42.984375 L 30.671875 -42.984375 L 30.671875 -30.875 L 30.203125 -30.875 C 30.203125 -30.875 30.175781 -31.171875 30.125 -31.765625 C 30.070312 -32.359375 29.96875 -33.113281 29.8125 -34.03125 C 29.664062 -34.957031 29.410156 -35.945312 29.046875 -37 C 28.691406 -38.0625 28.21875 -39.066406 27.625 -40.015625 C 27.03125 -40.972656 26.269531 -41.738281 25.34375 -42.3125 C 24.457031 -42.820312 23.476562 -43.222656 22.40625 -43.515625 C 21.332031 -43.804688 20.203125 -43.953125 19.015625 -43.953125 C 17.035156 -43.953125 15.46875 -43.65625 14.3125 -43.0625 C 13.15625 -42.46875 12.335938 -41.65625 11.859375 -40.625 C 11.378906 -39.601562 11.140625 -38.445312 11.140625 -37.15625 C 11.140625 -35.414062 11.734375 -33.875 12.921875 -32.53125 C 14.117188 -31.1875 15.945312 -29.765625 18.40625 -28.265625 C 20.507812 -26.972656 22.5 -25.832031 24.375 -24.84375 C 26.25 -23.851562 27.898438 -22.828125 29.328125 -21.765625 C 30.765625 -20.710938 31.898438 -19.453125 32.734375 -17.984375 C 33.566406 -16.523438 33.984375 -14.671875 33.984375 -12.421875 C 33.984375 -10.953125 33.640625 -9.390625 32.953125 -7.734375 C 32.273438 -6.085938 31.425781 -4.753906 30.40625 -3.734375 C 29.320312 -2.640625 27.976562 -1.773438 26.375 -1.140625 C 24.769531 -0.515625 23.039062 -0.109375 21.1875 0.078125 C 19.332031 0.265625 17.472656 0.242188 15.609375 0.015625 C 13.753906 -0.203125 12.007812 -0.617188 10.375 -1.234375 Z M 10.375 -1.234375 "/></g></g></g><g fill="#000000" fill-opacity="1"><g transform="translate(87.54797, 270.828513)"><g><path d="M 8.984375 -20.0625 L 1.4375 -20.0625 L 1.4375 -22.40625 L 19.078125 -22.40625 L 19.078125 -20.0625 L 11.515625 -20.0625 L 11.515625 0 L 8.984375 0 Z M 8.984375 -20.0625 "/></g></g></g><g fill="#000000" fill-opacity="1"><g transform="translate(113.814937, 270.828513)"><g><path d="M 3.171875 -22.40625 L 12.796875 -22.40625 C 14.179688 -22.40625 15.410156 -22.207031 16.484375 -21.8125 C 17.566406 -21.414062 18.460938 -20.863281 19.171875 -20.15625 C 19.722656 -19.601562 20.144531 -18.953125 20.4375 -18.203125 C 20.738281 -17.460938 20.890625 -16.644531 20.890625 -15.75 L 20.890625 -15.6875 C 20.890625 -14.738281 20.738281 -13.894531 20.4375 -13.15625 C 20.144531 -12.425781 19.726562 -11.789062 19.1875 -11.25 C 18.644531 -10.707031 18 -10.257812 17.25 -9.90625 C 16.5 -9.550781 15.6875 -9.300781 14.8125 -9.15625 L 21.703125 0 L 18.59375 0 L 12.09375 -8.703125 L 5.703125 -8.703125 L 5.703125 0 L 3.171875 0 Z M 12.578125 -10.96875 C 13.410156 -10.96875 14.175781 -11.070312 14.875 -11.28125 C 15.582031 -11.5 16.191406 -11.804688 16.703125 -12.203125 C 17.210938 -12.597656 17.613281 -13.078125 17.90625 -13.640625 C 18.195312 -14.210938 18.34375 -14.859375 18.34375 -15.578125 L 18.34375 -15.640625 C 18.34375 -17.035156 17.835938 -18.117188 16.828125 -18.890625 C 15.828125 -19.671875 14.421875 -20.0625 12.609375 -20.0625 L 5.703125 -20.0625 L 5.703125 -10.96875 Z M 12.578125 -10.96875 "/></g></g></g><g fill="#000000" fill-opacity="1"><g transform="translate(142.705256, 270.828513)"><g><path d="M 11.453125 -22.5625 L 13.828125 -22.5625 L 24.03125 0 L 21.3125 0 L 18.6875 -5.921875 L 6.5 -5.921875 L 3.84375 0 L 1.25 0 Z M 17.703125 -8.1875 L 12.609375 -19.609375 L 7.484375 -8.1875 Z M 17.703125 -8.1875 "/></g></g></g><g fill="#000000" fill-opacity="1"><g transform="translate(173.739039, 270.828513)"><g><path d="M 3.171875 -22.40625 L 12.703125 -22.40625 C 13.984375 -22.40625 15.117188 -22.226562 16.109375 -21.875 C 17.097656 -21.519531 17.914062 -21.035156 18.5625 -20.421875 C 19.519531 -19.410156 20 -18.210938 20 -16.828125 L 20 -16.765625 C 20 -16.046875 19.894531 -15.398438 19.6875 -14.828125 C 19.488281 -14.265625 19.21875 -13.773438 18.875 -13.359375 C 18.539062 -12.941406 18.164062 -12.585938 17.75 -12.296875 C 17.332031 -12.015625 16.898438 -11.773438 16.453125 -11.578125 C 17.109375 -11.390625 17.726562 -11.140625 18.3125 -10.828125 C 18.90625 -10.523438 19.414062 -10.160156 19.84375 -9.734375 C 20.269531 -9.304688 20.609375 -8.796875 20.859375 -8.203125 C 21.117188 -7.617188 21.25 -6.941406 21.25 -6.171875 L 21.25 -6.109375 C 21.25 -5.148438 21.054688 -4.289062 20.671875 -3.53125 C 20.285156 -2.78125 19.734375 -2.140625 19.015625 -1.609375 C 18.304688 -1.085938 17.445312 -0.6875 16.4375 -0.40625 C 15.4375 -0.132812 14.332031 0 13.125 0 L 3.171875 0 Z M 17.4375 -16.484375 C 17.4375 -17.585938 17.007812 -18.46875 16.15625 -19.125 C 15.300781 -19.789062 14.078125 -20.125 12.484375 -20.125 L 5.65625 -20.125 L 5.65625 -12.421875 L 12.28125 -12.421875 C 13.820312 -12.421875 15.066406 -12.753906 16.015625 -13.421875 C 16.960938 -14.097656 17.4375 -15.097656 17.4375 -16.421875 Z M 18.6875 -6.34375 C 18.6875 -7.550781 18.1875 -8.488281 17.1875 -9.15625 C 16.1875 -9.832031 14.703125 -10.171875 12.734375 -10.171875 L 5.65625 -10.171875 L 5.65625 -2.265625 L 13.1875 -2.265625 C 14.894531 -2.265625 16.238281 -2.617188 17.21875 -3.328125 C 18.195312 -4.035156 18.6875 -5.015625 18.6875 -6.265625 Z M 18.6875 -6.34375 "/></g></g></g><g fill="#000000" fill-opacity="1"><g transform="translate(202.597363, 270.828513)"><g><path d="M 11.453125 -22.5625 L 13.828125 -22.5625 L 24.03125 0 L 21.3125 0 L 18.6875 -5.921875 L 6.5 -5.921875 L 3.84375 0 L 1.25 0 Z M 17.703125 -8.1875 L 12.609375 -19.609375 L 7.484375 -8.1875 Z M 17.703125 -8.1875 "/></g></g></g><g fill="#000000" fill-opacity="1"><g transform="translate(233.631151, 270.828513)"><g><path d="M 13.40625 0.390625 C 11.78125 0.390625 10.285156 0.09375 8.921875 -0.5 C 7.554688 -1.101562 6.375 -1.921875 5.375 -2.953125 C 4.375 -3.992188 3.585938 -5.21875 3.015625 -6.625 C 2.453125 -8.03125 2.171875 -9.535156 2.171875 -11.140625 L 2.171875 -11.203125 C 2.171875 -12.773438 2.453125 -14.265625 3.015625 -15.671875 C 3.585938 -17.085938 4.375 -18.320312 5.375 -19.375 C 6.375 -20.425781 7.566406 -21.253906 8.953125 -21.859375 C 10.347656 -22.472656 11.863281 -22.78125 13.5 -22.78125 C 14.53125 -22.78125 15.453125 -22.691406 16.265625 -22.515625 C 17.085938 -22.347656 17.847656 -22.109375 18.546875 -21.796875 C 19.253906 -21.492188 19.90625 -21.125 20.5 -20.6875 C 21.101562 -20.25 21.679688 -19.765625 22.234375 -19.234375 L 20.515625 -17.375 C 19.554688 -18.269531 18.523438 -19.003906 17.421875 -19.578125 C 16.328125 -20.160156 15.007812 -20.453125 13.46875 -20.453125 C 12.226562 -20.453125 11.082031 -20.21875 10.03125 -19.75 C 8.976562 -19.28125 8.0625 -18.628906 7.28125 -17.796875 C 6.5 -16.960938 5.890625 -15.984375 5.453125 -14.859375 C 5.015625 -13.742188 4.796875 -12.546875 4.796875 -11.265625 L 4.796875 -11.203125 C 4.796875 -9.898438 5.015625 -8.6875 5.453125 -7.5625 C 5.890625 -6.445312 6.5 -5.472656 7.28125 -4.640625 C 8.0625 -3.804688 8.976562 -3.148438 10.03125 -2.671875 C 11.082031 -2.191406 12.226562 -1.953125 13.46875 -1.953125 C 15.007812 -1.953125 16.332031 -2.234375 17.4375 -2.796875 C 18.550781 -3.359375 19.640625 -4.15625 20.703125 -5.1875 L 22.375 -3.546875 C 21.789062 -2.953125 21.179688 -2.414062 20.546875 -1.9375 C 19.921875 -1.457031 19.242188 -1.046875 18.515625 -0.703125 C 17.796875 -0.359375 17.019531 -0.09375 16.1875 0.09375 C 15.351562 0.289062 14.425781 0.390625 13.40625 0.390625 Z M 13.40625 0.390625 "/></g></g></g><g fill="#000000" fill-opacity="1"><g transform="translate(263.129326, 270.828513)"><g><path d="M 3.171875 -22.40625 L 5.703125 -22.40625 L 5.703125 -12.453125 L 18.625 -12.453125 L 18.625 -22.40625 L 21.15625 -22.40625 L 21.15625 0 L 18.625 0 L 18.625 -10.078125 L 5.703125 -10.078125 L 5.703125 0 L 3.171875 0 Z M 3.171875 -22.40625 "/></g></g></g><g fill="#000000" fill-opacity="1"><g transform="translate(57.008909, 306.07851)"><g><path d="M 10.84375 0.3125 C 9.050781 0.3125 7.414062 0.0195312 5.9375 -0.5625 C 4.457031 -1.144531 3.046875 -2.046875 1.703125 -3.265625 L 3.265625 -5.125 C 4.441406 -4.050781 5.625 -3.253906 6.8125 -2.734375 C 8.007812 -2.210938 9.382812 -1.953125 10.9375 -1.953125 C 12.457031 -1.953125 13.671875 -2.304688 14.578125 -3.015625 C 15.484375 -3.734375 15.9375 -4.648438 15.9375 -5.765625 L 15.9375 -5.828125 C 15.9375 -6.335938 15.847656 -6.800781 15.671875 -7.21875 C 15.503906 -7.632812 15.207031 -8.007812 14.78125 -8.34375 C 14.351562 -8.6875 13.757812 -9 13 -9.28125 C 12.25 -9.5625 11.285156 -9.828125 10.109375 -10.078125 C 8.828125 -10.359375 7.710938 -10.675781 6.765625 -11.03125 C 5.816406 -11.394531 5.03125 -11.832031 4.40625 -12.34375 C 3.789062 -12.863281 3.332031 -13.460938 3.03125 -14.140625 C 2.738281 -14.828125 2.59375 -15.628906 2.59375 -16.546875 L 2.59375 -16.609375 C 2.59375 -17.484375 2.773438 -18.289062 3.140625 -19.03125 C 3.503906 -19.78125 4.015625 -20.425781 4.671875 -20.96875 C 5.328125 -21.519531 6.101562 -21.945312 7 -22.25 C 7.90625 -22.5625 8.890625 -22.71875 9.953125 -22.71875 C 11.597656 -22.71875 13.03125 -22.488281 14.25 -22.03125 C 15.476562 -21.570312 16.671875 -20.882812 17.828125 -19.96875 L 16.359375 -18.015625 C 15.304688 -18.867188 14.25 -19.488281 13.1875 -19.875 C 12.132812 -20.257812 11.035156 -20.453125 9.890625 -20.453125 C 8.421875 -20.453125 7.257812 -20.101562 6.40625 -19.40625 C 5.550781 -18.71875 5.125 -17.859375 5.125 -16.828125 L 5.125 -16.765625 C 5.125 -16.234375 5.207031 -15.757812 5.375 -15.34375 C 5.539062 -14.925781 5.847656 -14.539062 6.296875 -14.1875 C 6.742188 -13.832031 7.363281 -13.507812 8.15625 -13.21875 C 8.945312 -12.9375 9.960938 -12.671875 11.203125 -12.421875 C 13.691406 -11.859375 15.53125 -11.085938 16.71875 -10.109375 C 17.90625 -9.128906 18.5 -7.785156 18.5 -6.078125 L 18.5 -6.015625 C 18.5 -5.054688 18.304688 -4.1875 17.921875 -3.40625 C 17.535156 -2.625 17.003906 -1.957031 16.328125 -1.40625 C 15.660156 -0.851562 14.859375 -0.425781 13.921875 -0.125 C 12.984375 0.164062 11.957031 0.3125 10.84375 0.3125 Z M 10.84375 0.3125 "/></g></g></g><g fill="#000000" fill-opacity="1"><g transform="translate(83.243878, 306.07851)"><g><path d="M 13.5625 0.390625 C 11.863281 0.390625 10.3125 0.0820312 8.90625 -0.53125 C 7.507812 -1.15625 6.3125 -1.992188 5.3125 -3.046875 C 4.3125 -4.109375 3.535156 -5.335938 2.984375 -6.734375 C 2.441406 -8.128906 2.171875 -9.597656 2.171875 -11.140625 L 2.171875 -11.203125 C 2.171875 -12.734375 2.445312 -14.203125 3 -15.609375 C 3.5625 -17.023438 4.34375 -18.257812 5.34375 -19.3125 C 6.34375 -20.363281 7.546875 -21.203125 8.953125 -21.828125 C 10.367188 -22.460938 11.925781 -22.78125 13.625 -22.78125 C 15.332031 -22.78125 16.882812 -22.46875 18.28125 -21.84375 C 19.6875 -21.226562 20.890625 -20.394531 21.890625 -19.34375 C 22.890625 -18.289062 23.660156 -17.0625 24.203125 -15.65625 C 24.753906 -14.257812 25.03125 -12.796875 25.03125 -11.265625 L 25.03125 -11.203125 C 25.03125 -9.660156 24.75 -8.1875 24.1875 -6.78125 C 23.632812 -5.375 22.859375 -4.140625 21.859375 -3.078125 C 20.859375 -2.023438 19.648438 -1.179688 18.234375 -0.546875 C 16.828125 0.078125 15.269531 0.390625 13.5625 0.390625 Z M 13.625 -1.953125 C 14.90625 -1.953125 16.082031 -2.191406 17.15625 -2.671875 C 18.238281 -3.148438 19.164062 -3.804688 19.9375 -4.640625 C 20.707031 -5.472656 21.3125 -6.441406 21.75 -7.546875 C 22.1875 -8.660156 22.40625 -9.859375 22.40625 -11.140625 L 22.40625 -11.203125 C 22.40625 -12.484375 22.1875 -13.679688 21.75 -14.796875 C 21.3125 -15.921875 20.695312 -16.894531 19.90625 -17.71875 C 19.113281 -18.550781 18.175781 -19.210938 17.09375 -19.703125 C 16.019531 -20.203125 14.84375 -20.453125 13.5625 -20.453125 C 12.28125 -20.453125 11.101562 -20.210938 10.03125 -19.734375 C 8.957031 -19.253906 8.035156 -18.597656 7.265625 -17.765625 C 6.492188 -16.929688 5.890625 -15.957031 5.453125 -14.84375 C 5.015625 -13.738281 4.796875 -12.546875 4.796875 -11.265625 L 4.796875 -11.203125 C 4.796875 -9.921875 5.015625 -8.71875 5.453125 -7.59375 C 5.890625 -6.476562 6.503906 -5.503906 7.296875 -4.671875 C 8.085938 -3.835938 9.019531 -3.175781 10.09375 -2.6875 C 11.175781 -2.195312 12.351562 -1.953125 13.625 -1.953125 Z M 13.625 -1.953125 "/></g></g></g><g fill="#000000" fill-opacity="1"><g transform="translate(116.197193, 306.07851)"><g><path d="M 3.171875 -22.40625 L 19.265625 -22.40625 L 19.265625 -20.0625 L 5.703125 -20.0625 L 5.703125 -12.0625 L 17.828125 -12.0625 L 17.828125 -9.765625 L 5.703125 -9.765625 L 5.703125 0 L 3.171875 0 Z M 3.171875 -22.40625 "/></g></g></g><g fill="#000000" fill-opacity="1"><g transform="translate(142.944031, 306.07851)"><g><path d="M 8.984375 -20.0625 L 1.4375 -20.0625 L 1.4375 -22.40625 L 19.078125 -22.40625 L 19.078125 -20.0625 L 11.515625 -20.0625 L 11.515625 0 L 8.984375 0 Z M 8.984375 -20.0625 "/></g></g></g><g fill="#000000" fill-opacity="1"><g transform="translate(169.211001, 306.07851)"><g><path d="M 1.4375 -22.40625 L 4.1875 -22.40625 L 10.59375 -3.75 L 16.734375 -22.46875 L 18.8125 -22.46875 L 24.953125 -3.75 L 31.359375 -22.40625 L 34.015625 -22.40625 L 26.015625 0.15625 L 23.875 0.15625 L 17.734375 -18.015625 L 11.546875 0.15625 L 9.4375 0.15625 Z M 1.4375 -22.40625 "/></g></g></g><g fill="#000000" fill-opacity="1"><g transform="translate(210.386303, 306.07851)"><g><path d="M 11.453125 -22.5625 L 13.828125 -22.5625 L 24.03125 0 L 21.3125 0 L 18.6875 -5.921875 L 6.5 -5.921875 L 3.84375 0 L 1.25 0 Z M 17.703125 -8.1875 L 12.609375 -19.609375 L 7.484375 -8.1875 Z M 17.703125 -8.1875 "/></g></g></g><g fill="#000000" fill-opacity="1"><g transform="translate(241.420091, 306.07851)"><g><path d="M 3.171875 -22.40625 L 12.796875 -22.40625 C 14.179688 -22.40625 15.410156 -22.207031 16.484375 -21.8125 C 17.566406 -21.414062 18.460938 -20.863281 19.171875 -20.15625 C 19.722656 -19.601562 20.144531 -18.953125 20.4375 -18.203125 C 20.738281 -17.460938 20.890625 -16.644531 20.890625 -15.75 L 20.890625 -15.6875 C 20.890625 -14.738281 20.738281 -13.894531 20.4375 -13.15625 C 20.144531 -12.425781 19.726562 -11.789062 19.1875 -11.25 C 18.644531 -10.707031 18 -10.257812 17.25 -9.90625 C 16.5 -9.550781 15.6875 -9.300781 14.8125 -9.15625 L 21.703125 0 L 18.59375 0 L 12.09375 -8.703125 L 5.703125 -8.703125 L 5.703125 0 L 3.171875 0 Z M 12.578125 -10.96875 C 13.410156 -10.96875 14.175781 -11.070312 14.875 -11.28125 C 15.582031 -11.5 16.191406 -11.804688 16.703125 -12.203125 C 17.210938 -12.597656 17.613281 -13.078125 17.90625 -13.640625 C 18.195312 -14.210938 18.34375 -14.859375 18.34375 -15.578125 L 18.34375 -15.640625 C 18.34375 -17.035156 17.835938 -18.117188 16.828125 -18.890625 C 15.828125 -19.671875 14.421875 -20.0625 12.609375 -20.0625 L 5.703125 -20.0625 L 5.703125 -10.96875 Z M 12.578125 -10.96875 "/></g></g></g><g fill="#000000" fill-opacity="1"><g transform="translate(270.310401, 306.07851)"><g><path d="M 3.171875 -22.40625 L 19.359375 -22.40625 L 19.359375 -20.09375 L 5.703125 -20.09375 L 5.703125 -12.453125 L 17.921875 -12.453125 L 17.921875 -10.140625 L 5.703125 -10.140625 L 5.703125 -2.296875 L 19.515625 -2.296875 L 19.515625 0 L 3.171875 0 Z M 3.171875 -22.40625 "/></g></g></g><g fill="#000000" fill-opacity="1"><g transform="translate(297.505132, 306.07851)"><g><path d="M 10.84375 0.3125 C 9.050781 0.3125 7.414062 0.0195312 5.9375 -0.5625 C 4.457031 -1.144531 3.046875 -2.046875 1.703125 -3.265625 L 3.265625 -5.125 C 4.441406 -4.050781 5.625 -3.253906 6.8125 -2.734375 C 8.007812 -2.210938 9.382812 -1.953125 10.9375 -1.953125 C 12.457031 -1.953125 13.671875 -2.304688 14.578125 -3.015625 C 15.484375 -3.734375 15.9375 -4.648438 15.9375 -5.765625 L 15.9375 -5.828125 C 15.9375 -6.335938 15.847656 -6.800781 15.671875 -7.21875 C 15.503906 -7.632812 15.207031 -8.007812 14.78125 -8.34375 C 14.351562 -8.6875 13.757812 -9 13 -9.28125 C 12.25 -9.5625 11.285156 -9.828125 10.109375 -10.078125 C 8.828125 -10.359375 7.710938 -10.675781 6.765625 -11.03125 C 5.816406 -11.394531 5.03125 -11.832031 4.40625 -12.34375 C 3.789062 -12.863281 3.332031 -13.460938 3.03125 -14.140625 C 2.738281 -14.828125 2.59375 -15.628906 2.59375 -16.546875 L 2.59375 -16.609375 C 2.59375 -17.484375 2.773438 -18.289062 3.140625 -19.03125 C 3.503906 -19.78125 4.015625 -20.425781 4.671875 -20.96875 C 5.328125 -21.519531 6.101562 -21.945312 7 -22.25 C 7.90625 -22.5625 8.890625 -22.71875 9.953125 -22.71875 C 11.597656 -22.71875 13.03125 -22.488281 14.25 -22.03125 C 15.476562 -21.570312 16.671875 -20.882812 17.828125 -19.96875 L 16.359375 -18.015625 C 15.304688 -18.867188 14.25 -19.488281 13.1875 -19.875 C 12.132812 -20.257812 11.035156 -20.453125 9.890625 -20.453125 C 8.421875 -20.453125 7.257812 -20.101562 6.40625 -19.40625 C 5.550781 -18.71875 5.125 -17.859375 5.125 -16.828125 L 5.125 -16.765625 C 5.125 -16.234375 5.207031 -15.757812 5.375 -15.34375 C 5.539062 -14.925781 5.847656 -14.539062 6.296875 -14.1875 C 6.742188 -13.832031 7.363281 -13.507812 8.15625 -13.21875 C 8.945312 -12.9375 9.960938 -12.671875 11.203125 -12.421875 C 13.691406 -11.859375 15.53125 -11.085938 16.71875 -10.109375 C 17.90625 -9.128906 18.5 -7.785156 18.5 -6.078125 L 18.5 -6.015625 C 18.5 -5.054688 18.304688 -4.1875 17.921875 -3.40625 C 17.535156 -2.625 17.003906 -1.957031 16.328125 -1.40625 C 15.660156 -0.851562 14.859375 -0.425781 13.921875 -0.125 C 12.984375 0.164062 11.957031 0.3125 10.84375 0.3125 Z M 10.84375 0.3125 "/></g></g></g><g fill="#000000" fill-opacity="1"><g transform="translate(60.917125, 333.441218)"><g><path d="M 3.71875 -8.3125 L 0.59375 -8.3125 L 0.59375 -9.28125 L 7.890625 -9.28125 L 7.890625 -8.3125 L 4.765625 -8.3125 L 4.765625 0 L 3.71875 0 Z M 3.71875 -8.3125 "/></g></g></g><g fill="#000000" fill-opacity="1"><g transform="translate(73.115409, 333.441218)"><g><path d="M 1.3125 -9.28125 L 8.015625 -9.28125 L 8.015625 -8.328125 L 2.359375 -8.328125 L 2.359375 -5.15625 L 7.421875 -5.15625 L 7.421875 -4.203125 L 2.359375 -4.203125 L 2.359375 -0.953125 L 8.078125 -0.953125 L 8.078125 0 L 1.3125 0 Z M 1.3125 -9.28125 "/></g></g></g><g fill="#000000" fill-opacity="1"><g transform="translate(85.697722, 333.441218)"><g><path d="M 5.546875 0.15625 C 4.878906 0.15625 4.257812 0.0351562 3.6875 -0.203125 C 3.125 -0.453125 2.632812 -0.789062 2.21875 -1.21875 C 1.8125 -1.65625 1.488281 -2.164062 1.25 -2.75 C 1.019531 -3.332031 0.90625 -3.953125 0.90625 -4.609375 L 0.90625 -4.640625 C 0.90625 -5.296875 1.019531 -5.910156 1.25 -6.484375 C 1.488281 -7.066406 1.8125 -7.578125 2.21875 -8.015625 C 2.632812 -8.453125 3.128906 -8.796875 3.703125 -9.046875 C 4.285156 -9.304688 4.914062 -9.4375 5.59375 -9.4375 C 6.019531 -9.4375 6.398438 -9.398438 6.734375 -9.328125 C 7.078125 -9.253906 7.394531 -9.15625 7.6875 -9.03125 C 7.976562 -8.90625 8.242188 -8.75 8.484375 -8.5625 C 8.734375 -8.382812 8.972656 -8.1875 9.203125 -7.96875 L 8.5 -7.1875 C 8.09375 -7.5625 7.660156 -7.867188 7.203125 -8.109375 C 6.753906 -8.347656 6.210938 -8.46875 5.578125 -8.46875 C 5.066406 -8.46875 4.59375 -8.367188 4.15625 -8.171875 C 3.71875 -7.984375 3.335938 -7.710938 3.015625 -7.359375 C 2.691406 -7.015625 2.4375 -6.609375 2.25 -6.140625 C 2.070312 -5.679688 1.984375 -5.1875 1.984375 -4.65625 L 1.984375 -4.640625 C 1.984375 -4.097656 2.070312 -3.59375 2.25 -3.125 C 2.4375 -2.664062 2.691406 -2.265625 3.015625 -1.921875 C 3.335938 -1.578125 3.71875 -1.304688 4.15625 -1.109375 C 4.59375 -0.910156 5.066406 -0.8125 5.578125 -0.8125 C 6.210938 -0.8125 6.757812 -0.925781 7.21875 -1.15625 C 7.675781 -1.394531 8.128906 -1.722656 8.578125 -2.140625 L 9.265625 -1.46875 C 9.023438 -1.21875 8.773438 -0.992188 8.515625 -0.796875 C 8.253906 -0.597656 7.972656 -0.425781 7.671875 -0.28125 C 7.367188 -0.144531 7.046875 -0.0390625 6.703125 0.03125 C 6.359375 0.113281 5.972656 0.15625 5.546875 0.15625 Z M 5.546875 0.15625 "/></g></g></g><g fill="#000000" fill-opacity="1"><g transform="translate(99.233475, 333.441218)"><g><path d="M 1.3125 -9.28125 L 2.359375 -9.28125 L 2.359375 -5.15625 L 7.71875 -5.15625 L 7.71875 -9.28125 L 8.765625 -9.28125 L 8.765625 0 L 7.71875 0 L 7.71875 -4.171875 L 2.359375 -4.171875 L 2.359375 0 L 1.3125 0 Z M 1.3125 -9.28125 "/></g></g></g><g fill="#000000" fill-opacity="1"><g transform="translate(113.007589, 333.441218)"><g><path d="M 1.3125 -9.28125 L 2.296875 -9.28125 L 8.140625 -1.84375 L 8.140625 -9.28125 L 9.15625 -9.28125 L 9.15625 0 L 8.328125 0 L 2.328125 -7.609375 L 2.328125 0 L 1.3125 0 Z M 1.3125 -9.28125 "/></g></g></g><g fill="#000000" fill-opacity="1"><g transform="translate(127.178973, 333.441218)"><g><path d="M 5.625 0.15625 C 4.914062 0.15625 4.269531 0.03125 3.6875 -0.21875 C 3.113281 -0.476562 2.617188 -0.828125 2.203125 -1.265625 C 1.785156 -1.703125 1.460938 -2.207031 1.234375 -2.78125 C 1.015625 -3.363281 0.90625 -3.972656 0.90625 -4.609375 L 0.90625 -4.640625 C 0.90625 -5.273438 1.019531 -5.882812 1.25 -6.46875 C 1.476562 -7.050781 1.796875 -7.5625 2.203125 -8 C 2.617188 -8.4375 3.117188 -8.785156 3.703125 -9.046875 C 4.285156 -9.304688 4.929688 -9.4375 5.640625 -9.4375 C 6.347656 -9.4375 6.988281 -9.304688 7.5625 -9.046875 C 8.144531 -8.796875 8.644531 -8.453125 9.0625 -8.015625 C 9.476562 -7.578125 9.796875 -7.066406 10.015625 -6.484375 C 10.242188 -5.910156 10.359375 -5.300781 10.359375 -4.65625 L 10.359375 -4.640625 C 10.359375 -4.003906 10.242188 -3.394531 10.015625 -2.8125 C 9.785156 -2.226562 9.460938 -1.71875 9.046875 -1.28125 C 8.628906 -0.84375 8.128906 -0.492188 7.546875 -0.234375 C 6.960938 0.0234375 6.320312 0.15625 5.625 0.15625 Z M 5.640625 -0.8125 C 6.171875 -0.8125 6.660156 -0.910156 7.109375 -1.109375 C 7.554688 -1.304688 7.9375 -1.578125 8.25 -1.921875 C 8.570312 -2.265625 8.820312 -2.664062 9 -3.125 C 9.1875 -3.582031 9.28125 -4.078125 9.28125 -4.609375 L 9.28125 -4.640625 C 9.28125 -5.171875 9.1875 -5.664062 9 -6.125 C 8.820312 -6.59375 8.566406 -7 8.234375 -7.34375 C 7.910156 -7.6875 7.523438 -7.957031 7.078125 -8.15625 C 6.628906 -8.363281 6.144531 -8.46875 5.625 -8.46875 C 5.09375 -8.46875 4.601562 -8.367188 4.15625 -8.171875 C 3.707031 -7.972656 3.320312 -7.703125 3 -7.359375 C 2.6875 -7.015625 2.4375 -6.609375 2.25 -6.140625 C 2.070312 -5.679688 1.984375 -5.1875 1.984375 -4.65625 L 1.984375 -4.640625 C 1.984375 -4.109375 2.070312 -3.609375 2.25 -3.140625 C 2.4375 -2.679688 2.691406 -2.28125 3.015625 -1.9375 C 3.347656 -1.59375 3.734375 -1.316406 4.171875 -1.109375 C 4.617188 -0.910156 5.109375 -0.8125 5.640625 -0.8125 Z M 5.640625 -0.8125 "/></g></g></g><g fill="#000000" fill-opacity="1"><g transform="translate(142.144886, 333.441218)"><g><path d="M 1.3125 -9.28125 L 2.359375 -9.28125 L 2.359375 -0.96875 L 7.578125 -0.96875 L 7.578125 0 L 1.3125 0 Z M 1.3125 -9.28125 "/></g></g></g><g fill="#000000" fill-opacity="1"><g transform="translate(153.998876, 333.441218)"><g><path d="M 5.625 0.15625 C 4.914062 0.15625 4.269531 0.03125 3.6875 -0.21875 C 3.113281 -0.476562 2.617188 -0.828125 2.203125 -1.265625 C 1.785156 -1.703125 1.460938 -2.207031 1.234375 -2.78125 C 1.015625 -3.363281 0.90625 -3.972656 0.90625 -4.609375 L 0.90625 -4.640625 C 0.90625 -5.273438 1.019531 -5.882812 1.25 -6.46875 C 1.476562 -7.050781 1.796875 -7.5625 2.203125 -8 C 2.617188 -8.4375 3.117188 -8.785156 3.703125 -9.046875 C 4.285156 -9.304688 4.929688 -9.4375 5.640625 -9.4375 C 6.347656 -9.4375 6.988281 -9.304688 7.5625 -9.046875 C 8.144531 -8.796875 8.644531 -8.453125 9.0625 -8.015625 C 9.476562 -7.578125 9.796875 -7.066406 10.015625 -6.484375 C 10.242188 -5.910156 10.359375 -5.300781 10.359375 -4.65625 L 10.359375 -4.640625 C 10.359375 -4.003906 10.242188 -3.394531 10.015625 -2.8125 C 9.785156 -2.226562 9.460938 -1.71875 9.046875 -1.28125 C 8.628906 -0.84375 8.128906 -0.492188 7.546875 -0.234375 C 6.960938 0.0234375 6.320312 0.15625 5.625 0.15625 Z M 5.640625 -0.8125 C 6.171875 -0.8125 6.660156 -0.910156 7.109375 -1.109375 C 7.554688 -1.304688 7.9375 -1.578125 8.25 -1.921875 C 8.570312 -2.265625 8.820312 -2.664062 9 -3.125 C 9.1875 -3.582031 9.28125 -4.078125 9.28125 -4.609375 L 9.28125 -4.640625 C 9.28125 -5.171875 9.1875 -5.664062 9 -6.125 C 8.820312 -6.59375 8.566406 -7 8.234375 -7.34375 C 7.910156 -7.6875 7.523438 -7.957031 7.078125 -8.15625 C 6.628906 -8.363281 6.144531 -8.46875 5.625 -8.46875 C 5.09375 -8.46875 4.601562 -8.367188 4.15625 -8.171875 C 3.707031 -7.972656 3.320312 -7.703125 3 -7.359375 C 2.6875 -7.015625 2.4375 -6.609375 2.25 -6.140625 C 2.070312 -5.679688 1.984375 -5.1875 1.984375 -4.65625 L 1.984375 -4.640625 C 1.984375 -4.109375 2.070312 -3.609375 2.25 -3.140625 C 2.4375 -2.679688 2.691406 -2.28125 3.015625 -1.9375 C 3.347656 -1.59375 3.734375 -1.316406 4.171875 -1.109375 C 4.617188 -0.910156 5.109375 -0.8125 5.640625 -0.8125 Z M 5.640625 -0.8125 "/></g></g></g><g fill="#000000" fill-opacity="1"><g transform="translate(168.964783, 333.441218)"><g><path d="M 5.625 0.15625 C 4.882812 0.15625 4.222656 0.0351562 3.640625 -0.203125 C 3.066406 -0.453125 2.570312 -0.789062 2.15625 -1.21875 C 1.75 -1.65625 1.4375 -2.164062 1.21875 -2.75 C 1.007812 -3.332031 0.90625 -3.953125 0.90625 -4.609375 L 0.90625 -4.640625 C 0.90625 -5.273438 1.015625 -5.878906 1.234375 -6.453125 C 1.460938 -7.035156 1.78125 -7.546875 2.1875 -7.984375 C 2.59375 -8.429688 3.078125 -8.785156 3.640625 -9.046875 C 4.210938 -9.304688 4.847656 -9.4375 5.546875 -9.4375 C 5.941406 -9.4375 6.300781 -9.410156 6.625 -9.359375 C 6.945312 -9.304688 7.242188 -9.222656 7.515625 -9.109375 C 7.796875 -9.003906 8.054688 -8.875 8.296875 -8.71875 C 8.546875 -8.570312 8.785156 -8.398438 9.015625 -8.203125 L 8.328125 -7.40625 C 8.148438 -7.5625 7.960938 -7.703125 7.765625 -7.828125 C 7.578125 -7.960938 7.367188 -8.078125 7.140625 -8.171875 C 6.921875 -8.265625 6.675781 -8.335938 6.40625 -8.390625 C 6.132812 -8.441406 5.835938 -8.46875 5.515625 -8.46875 C 5.003906 -8.46875 4.53125 -8.363281 4.09375 -8.15625 C 3.65625 -7.957031 3.28125 -7.6875 2.96875 -7.34375 C 2.664062 -7 2.425781 -6.59375 2.25 -6.125 C 2.070312 -5.664062 1.984375 -5.175781 1.984375 -4.65625 L 1.984375 -4.640625 C 1.984375 -4.078125 2.066406 -3.5625 2.234375 -3.09375 C 2.410156 -2.625 2.65625 -2.21875 2.96875 -1.875 C 3.289062 -1.53125 3.675781 -1.257812 4.125 -1.0625 C 4.582031 -0.875 5.09375 -0.78125 5.65625 -0.78125 C 6.1875 -0.78125 6.6875 -0.867188 7.15625 -1.046875 C 7.625 -1.234375 8.015625 -1.453125 8.328125 -1.703125 L 8.328125 -4.015625 L 5.515625 -4.015625 L 5.515625 -4.953125 L 9.34375 -4.953125 L 9.34375 -1.265625 C 8.90625 -0.867188 8.367188 -0.53125 7.734375 -0.25 C 7.109375 0.0195312 6.40625 0.15625 5.625 0.15625 Z M 5.625 0.15625 "/></g></g></g><g fill="#000000" fill-opacity="1"><g transform="translate(183.056704, 333.441218)"><g><path d="M 4.21875 -3.671875 L 0.359375 -9.28125 L 1.625 -9.28125 L 4.75 -4.640625 L 7.90625 -9.28125 L 9.125 -9.28125 L 5.28125 -3.6875 L 5.28125 0 L 4.21875 0 Z M 4.21875 -3.671875 "/></g></g></g><g fill="#000000" fill-opacity="1"><g transform="translate(196.24816, 333.441218)"><g/></g></g><g fill="#000000" fill-opacity="1"><g transform="translate(203.930841, 333.441218)"><g><path d="M 4.484375 0.125 C 3.742188 0.125 3.066406 0.00390625 2.453125 -0.234375 C 1.835938 -0.472656 1.253906 -0.84375 0.703125 -1.34375 L 1.34375 -2.125 C 1.832031 -1.675781 2.320312 -1.34375 2.8125 -1.125 C 3.3125 -0.914062 3.882812 -0.8125 4.53125 -0.8125 C 5.15625 -0.8125 5.65625 -0.957031 6.03125 -1.25 C 6.40625 -1.550781 6.59375 -1.929688 6.59375 -2.390625 L 6.59375 -2.40625 C 6.59375 -2.625 6.554688 -2.816406 6.484375 -2.984375 C 6.421875 -3.160156 6.300781 -3.316406 6.125 -3.453125 C 5.945312 -3.597656 5.703125 -3.726562 5.390625 -3.84375 C 5.078125 -3.957031 4.675781 -4.066406 4.1875 -4.171875 C 3.65625 -4.285156 3.191406 -4.414062 2.796875 -4.5625 C 2.410156 -4.71875 2.085938 -4.898438 1.828125 -5.109375 C 1.566406 -5.328125 1.375 -5.578125 1.25 -5.859375 C 1.132812 -6.140625 1.078125 -6.46875 1.078125 -6.84375 L 1.078125 -6.875 C 1.078125 -7.238281 1.148438 -7.570312 1.296875 -7.875 C 1.453125 -8.1875 1.664062 -8.453125 1.9375 -8.671875 C 2.207031 -8.898438 2.523438 -9.078125 2.890625 -9.203125 C 3.265625 -9.335938 3.675781 -9.40625 4.125 -9.40625 C 4.800781 -9.40625 5.394531 -9.3125 5.90625 -9.125 C 6.414062 -8.9375 6.90625 -8.648438 7.375 -8.265625 L 6.765625 -7.453125 C 6.335938 -7.804688 5.90625 -8.0625 5.46875 -8.21875 C 5.03125 -8.382812 4.570312 -8.46875 4.09375 -8.46875 C 3.488281 -8.46875 3.007812 -8.320312 2.65625 -8.03125 C 2.300781 -7.75 2.125 -7.394531 2.125 -6.96875 L 2.125 -6.9375 C 2.125 -6.71875 2.15625 -6.519531 2.21875 -6.34375 C 2.289062 -6.175781 2.421875 -6.019531 2.609375 -5.875 C 2.796875 -5.726562 3.050781 -5.59375 3.375 -5.46875 C 3.707031 -5.351562 4.128906 -5.242188 4.640625 -5.140625 C 5.671875 -4.910156 6.429688 -4.59375 6.921875 -4.1875 C 7.410156 -3.78125 7.65625 -3.222656 7.65625 -2.515625 L 7.65625 -2.484375 C 7.65625 -2.085938 7.578125 -1.726562 7.421875 -1.40625 C 7.265625 -1.082031 7.046875 -0.804688 6.765625 -0.578125 C 6.484375 -0.347656 6.148438 -0.171875 5.765625 -0.046875 C 5.378906 0.0664062 4.953125 0.125 4.484375 0.125 Z M 4.484375 0.125 "/></g></g></g><g fill="#000000" fill-opacity="1"><g transform="translate(216.11588, 333.441218)"><g><path d="M 5.625 0.15625 C 4.914062 0.15625 4.269531 0.03125 3.6875 -0.21875 C 3.113281 -0.476562 2.617188 -0.828125 2.203125 -1.265625 C 1.785156 -1.703125 1.460938 -2.207031 1.234375 -2.78125 C 1.015625 -3.363281 0.90625 -3.972656 0.90625 -4.609375 L 0.90625 -4.640625 C 0.90625 -5.273438 1.019531 -5.882812 1.25 -6.46875 C 1.476562 -7.050781 1.796875 -7.5625 2.203125 -8 C 2.617188 -8.4375 3.117188 -8.785156 3.703125 -9.046875 C 4.285156 -9.304688 4.929688 -9.4375 5.640625 -9.4375 C 6.347656 -9.4375 6.988281 -9.304688 7.5625 -9.046875 C 8.144531 -8.796875 8.644531 -8.453125 9.0625 -8.015625 C 9.476562 -7.578125 9.796875 -7.066406 10.015625 -6.484375 C 10.242188 -5.910156 10.359375 -5.300781 10.359375 -4.65625 L 10.359375 -4.640625 C 10.359375 -4.003906 10.242188 -3.394531 10.015625 -2.8125 C 9.785156 -2.226562 9.460938 -1.71875 9.046875 -1.28125 C 8.628906 -0.84375 8.128906 -0.492188 7.546875 -0.234375 C 6.960938 0.0234375 6.320312 0.15625 5.625 0.15625 Z M 5.640625 -0.8125 C 6.171875 -0.8125 6.660156 -0.910156 7.109375 -1.109375 C 7.554688 -1.304688 7.9375 -1.578125 8.25 -1.921875 C 8.570312 -2.265625 8.820312 -2.664062 9 -3.125 C 9.1875 -3.582031 9.28125 -4.078125 9.28125 -4.609375 L 9.28125 -4.640625 C 9.28125 -5.171875 9.1875 -5.664062 9 -6.125 C 8.820312 -6.59375 8.566406 -7 8.234375 -7.34375 C 7.910156 -7.6875 7.523438 -7.957031 7.078125 -8.15625 C 6.628906 -8.363281 6.144531 -8.46875 5.625 -8.46875 C 5.09375 -8.46875 4.601562 -8.367188 4.15625 -8.171875 C 3.707031 -7.972656 3.320312 -7.703125 3 -7.359375 C 2.6875 -7.015625 2.4375 -6.609375 2.25 -6.140625 C 2.070312 -5.679688 1.984375 -5.1875 1.984375 -4.65625 L 1.984375 -4.640625 C 1.984375 -4.109375 2.070312 -3.609375 2.25 -3.140625 C 2.4375 -2.679688 2.691406 -2.28125 3.015625 -1.9375 C 3.347656 -1.59375 3.734375 -1.316406 4.171875 -1.109375 C 4.617188 -0.910156 5.109375 -0.8125 5.640625 -0.8125 Z M 5.640625 -0.8125 "/></g></g></g><g fill="#000000" fill-opacity="1"><g transform="translate(231.081787, 333.441218)"><g><path d="M 1.3125 -9.28125 L 2.359375 -9.28125 L 2.359375 -0.96875 L 7.578125 -0.96875 L 7.578125 0 L 1.3125 0 Z M 1.3125 -9.28125 "/></g></g></g><g fill="#000000" fill-opacity="1"><g transform="translate(242.935771, 333.441218)"><g><path d="M 5.015625 0.140625 C 4.441406 0.140625 3.921875 0.0546875 3.453125 -0.109375 C 2.984375 -0.285156 2.578125 -0.539062 2.234375 -0.875 C 1.890625 -1.21875 1.625 -1.640625 1.4375 -2.140625 C 1.257812 -2.648438 1.171875 -3.226562 1.171875 -3.875 L 1.171875 -9.28125 L 2.21875 -9.28125 L 2.21875 -3.953125 C 2.21875 -2.941406 2.460938 -2.164062 2.953125 -1.625 C 3.453125 -1.09375 4.148438 -0.828125 5.046875 -0.828125 C 5.898438 -0.828125 6.578125 -1.082031 7.078125 -1.59375 C 7.585938 -2.101562 7.84375 -2.863281 7.84375 -3.875 L 7.84375 -9.28125 L 8.890625 -9.28125 L 8.890625 -3.96875 C 8.890625 -3.28125 8.796875 -2.679688 8.609375 -2.171875 C 8.421875 -1.660156 8.15625 -1.234375 7.8125 -0.890625 C 7.476562 -0.546875 7.070312 -0.285156 6.59375 -0.109375 C 6.125 0.0546875 5.597656 0.140625 5.015625 0.140625 Z M 5.015625 0.140625 "/></g></g></g><g fill="#000000" fill-opacity="1"><g transform="translate(256.696638, 333.441218)"><g><path d="M 3.71875 -8.3125 L 0.59375 -8.3125 L 0.59375 -9.28125 L 7.890625 -9.28125 L 7.890625 -8.3125 L 4.765625 -8.3125 L 4.765625 0 L 3.71875 0 Z M 3.71875 -8.3125 "/></g></g></g><g fill="#000000" fill-opacity="1"><g transform="translate(268.894917, 333.441218)"><g><path d="M 1.40625 -9.28125 L 2.453125 -9.28125 L 2.453125 0 L 1.40625 0 Z M 1.40625 -9.28125 "/></g></g></g><g fill="#000000" fill-opacity="1"><g transform="translate(276.458409, 333.441218)"><g><path d="M 5.625 0.15625 C 4.914062 0.15625 4.269531 0.03125 3.6875 -0.21875 C 3.113281 -0.476562 2.617188 -0.828125 2.203125 -1.265625 C 1.785156 -1.703125 1.460938 -2.207031 1.234375 -2.78125 C 1.015625 -3.363281 0.90625 -3.972656 0.90625 -4.609375 L 0.90625 -4.640625 C 0.90625 -5.273438 1.019531 -5.882812 1.25 -6.46875 C 1.476562 -7.050781 1.796875 -7.5625 2.203125 -8 C 2.617188 -8.4375 3.117188 -8.785156 3.703125 -9.046875 C 4.285156 -9.304688 4.929688 -9.4375 5.640625 -9.4375 C 6.347656 -9.4375 6.988281 -9.304688 7.5625 -9.046875 C 8.144531 -8.796875 8.644531 -8.453125 9.0625 -8.015625 C 9.476562 -7.578125 9.796875 -7.066406 10.015625 -6.484375 C 10.242188 -5.910156 10.359375 -5.300781 10.359375 -4.65625 L 10.359375 -4.640625 C 10.359375 -4.003906 10.242188 -3.394531 10.015625 -2.8125 C 9.785156 -2.226562 9.460938 -1.71875 9.046875 -1.28125 C 8.628906 -0.84375 8.128906 -0.492188 7.546875 -0.234375 C 6.960938 0.0234375 6.320312 0.15625 5.625 0.15625 Z M 5.640625 -0.8125 C 6.171875 -0.8125 6.660156 -0.910156 7.109375 -1.109375 C 7.554688 -1.304688 7.9375 -1.578125 8.25 -1.921875 C 8.570312 -2.265625 8.820312 -2.664062 9 -3.125 C 9.1875 -3.582031 9.28125 -4.078125 9.28125 -4.609375 L 9.28125 -4.640625 C 9.28125 -5.171875 9.1875 -5.664062 9 -6.125 C 8.820312 -6.59375 8.566406 -7 8.234375 -7.34375 C 7.910156 -7.6875 7.523438 -7.957031 7.078125 -8.15625 C 6.628906 -8.363281 6.144531 -8.46875 5.625 -8.46875 C 5.09375 -8.46875 4.601562 -8.367188 4.15625 -8.171875 C 3.707031 -7.972656 3.320312 -7.703125 3 -7.359375 C 2.6875 -7.015625 2.4375 -6.609375 2.25 -6.140625 C 2.070312 -5.679688 1.984375 -5.1875 1.984375 -4.65625 L 1.984375 -4.640625 C 1.984375 -4.109375 2.070312 -3.609375 2.25 -3.140625 C 2.4375 -2.679688 2.691406 -2.28125 3.015625 -1.9375 C 3.347656 -1.59375 3.734375 -1.316406 4.171875 -1.109375 C 4.617188 -0.910156 5.109375 -0.8125 5.640625 -0.8125 Z M 5.640625 -0.8125 "/></g></g></g><g fill="#000000" fill-opacity="1"><g transform="translate(291.424327, 333.441218)"><g><path d="M 1.3125 -9.28125 L 2.296875 -9.28125 L 8.140625 -1.84375 L 8.140625 -9.28125 L 9.15625 -9.28125 L 9.15625 0 L 8.328125 0 L 2.328125 -7.609375 L 2.328125 0 L 1.3125 0 Z M 1.3125 -9.28125 "/></g></g></g><g fill="#000000" fill-opacity="1"><g transform="translate(305.595705, 333.441218)"><g><path d="M 4.484375 0.125 C 3.742188 0.125 3.066406 0.00390625 2.453125 -0.234375 C 1.835938 -0.472656 1.253906 -0.84375 0.703125 -1.34375 L 1.34375 -2.125 C 1.832031 -1.675781 2.320312 -1.34375 2.8125 -1.125 C 3.3125 -0.914062 3.882812 -0.8125 4.53125 -0.8125 C 5.15625 -0.8125 5.65625 -0.957031 6.03125 -1.25 C 6.40625 -1.550781 6.59375 -1.929688 6.59375 -2.390625 L 6.59375 -2.40625 C 6.59375 -2.625 6.554688 -2.816406 6.484375 -2.984375 C 6.421875 -3.160156 6.300781 -3.316406 6.125 -3.453125 C 5.945312 -3.597656 5.703125 -3.726562 5.390625 -3.84375 C 5.078125 -3.957031 4.675781 -4.066406 4.1875 -4.171875 C 3.65625 -4.285156 3.191406 -4.414062 2.796875 -4.5625 C 2.410156 -4.71875 2.085938 -4.898438 1.828125 -5.109375 C 1.566406 -5.328125 1.375 -5.578125 1.25 -5.859375 C 1.132812 -6.140625 1.078125 -6.46875 1.078125 -6.84375 L 1.078125 -6.875 C 1.078125 -7.238281 1.148438 -7.570312 1.296875 -7.875 C 1.453125 -8.1875 1.664062 -8.453125 1.9375 -8.671875 C 2.207031 -8.898438 2.523438 -9.078125 2.890625 -9.203125 C 3.265625 -9.335938 3.675781 -9.40625 4.125 -9.40625 C 4.800781 -9.40625 5.394531 -9.3125 5.90625 -9.125 C 6.414062 -8.9375 6.90625 -8.648438 7.375 -8.265625 L 6.765625 -7.453125 C 6.335938 -7.804688 5.90625 -8.0625 5.46875 -8.21875 C 5.03125 -8.382812 4.570312 -8.46875 4.09375 -8.46875 C 3.488281 -8.46875 3.007812 -8.320312 2.65625 -8.03125 C 2.300781 -7.75 2.125 -7.394531 2.125 -6.96875 L 2.125 -6.9375 C 2.125 -6.71875 2.15625 -6.519531 2.21875 -6.34375 C 2.289062 -6.175781 2.421875 -6.019531 2.609375 -5.875 C 2.796875 -5.726562 3.050781 -5.59375 3.375 -5.46875 C 3.707031 -5.351562 4.128906 -5.242188 4.640625 -5.140625 C 5.671875 -4.910156 6.429688 -4.59375 6.921875 -4.1875 C 7.410156 -3.78125 7.65625 -3.222656 7.65625 -2.515625 L 7.65625 -2.484375 C 7.65625 -2.085938 7.578125 -1.726562 7.421875 -1.40625 C 7.265625 -1.082031 7.046875 -0.804688 6.765625 -0.578125 C 6.484375 -0.347656 6.148438 -0.171875 5.765625 -0.046875 C 5.378906 0.0664062 4.953125 0.125 4.484375 0.125 Z M 4.484375 0.125 "/></g></g></g></svg>