<svg xmlns="http://www.w3.org/2000/svg" xmlns:xlink="http://www.w3.org/1999/xlink" width="500" zoomAndPan="magnify" viewBox="0 0 375 374.999991" height="500" preserveAspectRatio="xMidYMid meet" version="1.0"><defs><g/><clipPath id="d721fab0fa"><path d="M 78.917969 152 L 296.078125 152 L 296.078125 187.441406 L 78.917969 187.441406 Z M 78.917969 152 " clip-rule="nonzero"/></clipPath><clipPath id="f51ba400dc"><path d="M 107 42.542969 L 268 42.542969 L 268 144 L 107 144 Z M 107 42.542969 " clip-rule="nonzero"/></clipPath><clipPath id="26b9f936f4"><path d="M 159.867188 54.609375 L 215.054688 54.609375 L 215.054688 128.195312 L 159.867188 128.195312 Z M 159.867188 54.609375 " clip-rule="nonzero"/></clipPath></defs><g clip-path="url(#d721fab0fa)"><path fill="#2c3e50" d="M 218.828125 178.324219 L 156.167969 178.324219 C 155.738281 178.324219 155.460938 177.867188 155.660156 177.484375 L 160.484375 168.199219 C 160.582031 168.011719 160.777344 167.890625 160.992188 167.890625 L 214.007812 167.890625 C 214.21875 167.890625 214.417969 168.011719 214.515625 168.199219 L 219.339844 177.484375 C 219.535156 177.867188 219.261719 178.324219 218.828125 178.324219 Z M 294.695312 179.375 L 268.746094 153.429688 C 267.859375 152.542969 266.660156 152.042969 265.40625 152.042969 L 109.59375 152.042969 C 108.339844 152.042969 107.136719 152.542969 106.25 153.429688 L 80.304688 179.375 C 79.417969 180.261719 78.917969 181.464844 78.917969 182.71875 C 78.917969 185.328125 81.035156 187.441406 83.644531 187.441406 L 291.355469 187.441406 C 293.964844 187.441406 296.078125 185.328125 296.078125 182.71875 C 296.078125 181.464844 295.582031 180.261719 294.695312 179.375 " fill-opacity="1" fill-rule="nonzero"/></g><g clip-path="url(#f51ba400dc)"><path fill="#2c3e50" d="M 259.597656 42.59375 L 115.402344 42.59375 C 111.230469 42.59375 107.816406 46.007812 107.816406 50.179688 L 107.816406 135.789062 C 107.816406 139.960938 111.230469 143.375 115.402344 143.375 L 259.597656 143.375 C 263.769531 143.375 267.179688 139.960938 267.179688 135.789062 L 267.179688 50.179688 C 267.179688 46.007812 263.769531 42.59375 259.597656 42.59375 Z M 258.402344 51.375 L 258.402344 134.59375 L 116.597656 134.59375 L 116.597656 51.375 L 258.402344 51.375 " fill-opacity="1" fill-rule="nonzero"/></g><g fill="#2c3e50" fill-opacity="1"><g transform="translate(122.14987, 110.452884)"><g><path d="M 6.03125 -17.15625 C 8.96875 -15.6875 10.4375 -12.984375 10.4375 -9.046875 L 10.4375 -0.75 C 10.4375 1.425781 10.882812 2.921875 11.78125 3.734375 C 12.6875 4.554688 14.394531 4.96875 16.90625 4.96875 L 16.90625 8.359375 C 15.394531 8.359375 14 8.285156 12.71875 8.140625 C 11.445312 7.992188 10.328125 7.628906 9.359375 7.046875 C 7.304688 5.742188 6.28125 3.164062 6.28125 -0.6875 L 6.28125 -9.75 C 6.28125 -11.675781 5.695312 -13.203125 4.53125 -14.328125 C 3.5625 -15.253906 2.488281 -15.71875 1.3125 -15.71875 L 1.3125 -18.609375 C 2.488281 -18.609375 3.4375 -18.960938 4.15625 -19.671875 C 5.570312 -21.015625 6.28125 -22.648438 6.28125 -24.578125 L 6.28125 -33.625 C 6.28125 -39.03125 8.421875 -41.988281 12.703125 -42.5 C 13.992188 -42.625 15.394531 -42.6875 16.90625 -42.6875 L 16.90625 -39.28125 C 14.394531 -39.28125 12.6875 -38.867188 11.78125 -38.046875 C 10.882812 -37.234375 10.4375 -35.738281 10.4375 -33.5625 L 10.4375 -25.265625 C 10.4375 -22.921875 9.992188 -21.117188 9.109375 -19.859375 C 8.234375 -18.609375 7.207031 -17.707031 6.03125 -17.15625 Z M 6.03125 -17.15625 "/></g></g></g><g fill="#2c3e50" fill-opacity="1"><g transform="translate(140.632883, 110.452884)"><g/></g></g><g fill="#2c3e50" fill-opacity="1"><g transform="translate(154.022226, 110.452884)"><g/></g></g><g fill="#2c3e50" fill-opacity="1"><g transform="translate(167.411569, 110.452884)"><g/></g></g><g fill="#2c3e50" fill-opacity="1"><g transform="translate(180.800912, 110.452884)"><g/></g></g><g fill="#2c3e50" fill-opacity="1"><g transform="translate(194.190255, 110.452884)"><g/></g></g><g fill="#2c3e50" fill-opacity="1"><g transform="translate(207.579598, 110.452884)"><g/></g></g><g fill="#2c3e50" fill-opacity="1"><g transform="translate(220.968941, 110.452884)"><g/></g></g><g fill="#2c3e50" fill-opacity="1"><g transform="translate(234.361906, 110.452884)"><g><path d="M 8.046875 -9.046875 C 8.046875 -12.984375 9.515625 -15.6875 12.453125 -17.15625 C 11.273438 -17.707031 10.242188 -18.609375 9.359375 -19.859375 C 8.484375 -21.117188 8.046875 -22.921875 8.046875 -25.265625 L 8.046875 -33.5625 C 8.046875 -35.738281 7.59375 -37.234375 6.6875 -38.046875 C 5.789062 -38.867188 4.085938 -39.28125 1.578125 -39.28125 L 1.578125 -42.6875 C 3.078125 -42.6875 4.46875 -42.609375 5.75 -42.453125 C 7.03125 -42.304688 8.148438 -41.941406 9.109375 -41.359375 C 11.160156 -40.054688 12.1875 -37.476562 12.1875 -33.625 L 12.1875 -24.578125 C 12.1875 -22.648438 12.773438 -21.117188 13.953125 -19.984375 C 14.921875 -19.066406 15.988281 -18.609375 17.15625 -18.609375 L 17.15625 -15.71875 C 15.988281 -15.71875 15.046875 -15.359375 14.328125 -14.640625 C 12.898438 -13.304688 12.1875 -11.675781 12.1875 -9.75 L 12.1875 -0.6875 C 12.1875 4.71875 10.050781 7.671875 5.78125 8.171875 C 4.476562 8.296875 3.078125 8.359375 1.578125 8.359375 L 1.578125 4.96875 C 4.085938 4.96875 5.789062 4.554688 6.6875 3.734375 C 7.59375 2.921875 8.046875 1.425781 8.046875 -0.75 Z M 8.046875 -9.046875 "/></g></g></g><g clip-path="url(#26b9f936f4)"><path fill="#2c3e50" d="M 182.144531 91.527344 L 182.144531 96.699219 L 178.378906 95.054688 C 177.972656 94.871094 177.566406 94.6875 177.160156 94.496094 C 175.777344 93.851562 174.398438 93.160156 173.019531 92.421875 C 171.230469 91.464844 169.613281 90.359375 168.167969 89.09375 C 166.71875 87.832031 165.546875 86.355469 164.65625 84.660156 C 163.761719 82.964844 163.316406 81.007812 163.316406 78.792969 C 163.316406 76.265625 163.898438 73.96875 165.070312 71.90625 C 166.242188 69.84375 167.84375 68.085938 169.875 66.636719 C 171.910156 65.191406 174.328125 64.082031 177.132812 63.3125 C 179.933594 62.542969 182.96875 62.15625 186.234375 62.15625 C 189.6875 62.15625 192.75 62.558594 195.429688 63.359375 C 198.109375 64.160156 200.40625 65.113281 202.316406 66.222656 C 204.226562 67.332031 205.796875 68.457031 207.03125 69.597656 C 208.261719 70.738281 209.1875 71.675781 209.800781 72.414062 L 205.921875 84.058594 C 205.675781 77.160156 203.722656 71.9375 200.066406 68.394531 C 196.410156 64.851562 191.628906 63.082031 185.730469 63.082031 C 183.269531 63.082031 180.964844 63.390625 178.816406 64.003906 C 176.664062 64.621094 174.804688 65.53125 173.238281 66.730469 C 171.671875 67.933594 170.425781 69.378906 169.503906 71.074219 C 168.582031 72.769531 168.121094 74.722656 168.121094 76.941406 C 168.121094 80.332031 169.121094 83.027344 171.117188 85.027344 C 172.8125 86.726562 174.828125 88.144531 177.164062 89.289062 C 177.582031 89.496094 178.011719 89.691406 178.449219 89.878906 Z M 208.601562 105.726562 C 207.25 103.96875 205.574219 102.476562 203.574219 101.242188 C 201.578125 100.011719 199.441406 98.933594 197.167969 98.011719 C 195.480469 97.324219 193.894531 96.675781 192.410156 96.054688 L 192.410156 101.191406 C 193.5 101.675781 194.644531 102.183594 195.84375 102.722656 C 197.632812 103.523438 199.277344 104.460938 200.789062 105.539062 C 202.296875 106.617188 203.546875 107.882812 204.53125 109.328125 C 205.519531 110.777344 206.011719 112.457031 206.011719 114.363281 C 206.011719 116.027344 205.59375 117.648438 204.765625 119.214844 C 203.933594 120.789062 202.765625 122.175781 201.257812 123.375 C 199.75 124.578125 197.9375 125.53125 195.8125 126.242188 C 193.691406 126.949219 191.308594 127.300781 188.664062 127.300781 C 185.894531 127.300781 183.144531 126.871094 180.40625 126.007812 C 177.667969 125.144531 175.242188 123.851562 173.117188 122.125 C 170.996094 120.402344 169.320312 118.214844 168.089844 115.566406 C 166.859375 112.914062 166.394531 109.835938 166.703125 106.324219 L 159.867188 112.707031 C 160.851562 115.292969 162.359375 117.558594 164.394531 119.5 C 166.429688 121.4375 168.75 123.054688 171.367188 124.351562 C 173.980469 125.644531 176.765625 126.613281 179.714844 127.261719 C 182.667969 127.910156 185.53125 128.230469 188.300781 128.230469 C 191.621094 128.230469 194.667969 127.785156 197.4375 126.890625 C 200.203125 126 202.558594 124.8125 204.496094 123.335938 C 206.433594 121.855469 207.941406 120.148438 209.019531 118.203125 C 210.09375 116.265625 210.632812 114.214844 210.632812 112.058594 C 210.628906 109.59375 209.953125 107.484375 208.601562 105.726562 Z M 191.378906 116.539062 C 190.394531 115.15625 189.902344 113.324219 189.902344 111.042969 L 189.902344 64.441406 C 188.582031 64.210938 187.191406 64.097656 185.726562 64.097656 C 185.515625 64.097656 185.304688 64.101562 185.097656 64.105469 L 185.097656 111.042969 C 185.097656 113.324219 184.589844 115.152344 183.574219 116.539062 C 182.558594 117.925781 180.9375 118.898438 178.722656 119.453125 L 178.722656 119.542969 L 196.1875 119.542969 L 196.1875 119.453125 C 193.96875 118.898438 192.367188 117.925781 191.378906 116.539062 Z M 213.097656 54.667969 C 212.789062 54.914062 212.375 55.082031 211.851562 55.175781 C 211.328125 55.265625 210.910156 55.3125 210.601562 55.3125 L 164.394531 55.3125 C 164.085938 55.3125 163.65625 55.265625 163.101562 55.175781 C 162.546875 55.082031 162.117188 54.914062 161.808594 54.667969 L 159.867188 72.964844 L 160.421875 72.964844 C 160.667969 69.453125 161.265625 66.667969 162.222656 64.601562 C 163.175781 62.539062 164.300781 60.96875 165.597656 59.890625 C 166.890625 58.8125 168.277344 58.101562 169.753906 57.761719 C 171.230469 57.425781 172.648438 57.253906 174.007812 57.253906 L 185.09375 57.253906 L 185.09375 59.984375 C 185.472656 59.972656 185.851562 59.964844 186.230469 59.964844 C 187.5 59.964844 188.722656 60.019531 189.902344 60.128906 L 189.902344 57.253906 L 200.898438 57.253906 C 202.253906 57.253906 203.667969 57.425781 205.148438 57.761719 C 206.628906 58.101562 208.015625 58.8125 209.308594 59.890625 C 210.601562 60.96875 211.726562 62.539062 212.683594 64.601562 C 213.636719 66.667969 214.269531 69.453125 214.578125 72.964844 L 215.128906 72.964844 Z M 213.097656 54.667969 " fill-opacity="1" fill-rule="nonzero"/></g><g fill="#000000" fill-opacity="1"><g transform="translate(123.231564, 227.939985)"><g><path d="M 10.34375 -25.59375 C 10.695312 -25.59375 11.046875 -25.609375 11.390625 -25.640625 C 11.734375 -25.679688 11.988281 -25.710938 12.15625 -25.734375 L 12.15625 -24.09375 C 12.15625 -23.769531 12.15625 -23.457031 12.15625 -23.15625 C 12.15625 -22.863281 12.15625 -22.632812 12.15625 -22.46875 C 11.988281 -22.507812 11.734375 -22.539062 11.390625 -22.5625 C 11.046875 -22.582031 10.695312 -22.601562 10.34375 -22.625 C 10.019531 -22.644531 9.6875 -22.660156 9.34375 -22.671875 C 9 -22.679688 8.488281 -22.664062 7.8125 -22.625 C 7.789062 -21.9375 7.769531 -20.851562 7.75 -19.375 C 7.726562 -17.894531 7.71875 -15.851562 7.71875 -13.25 C 7.71875 -11.863281 7.722656 -10.5 7.734375 -9.15625 C 7.742188 -7.8125 7.757812 -6.585938 7.78125 -5.484375 C 7.800781 -4.390625 7.816406 -3.507812 7.828125 -2.84375 C 7.835938 -2.1875 7.84375 -1.835938 7.84375 -1.796875 C 7.84375 -1.492188 7.851562 -1.15625 7.875 -0.78125 C 7.894531 -0.40625 7.9375 -0.132812 8 0.03125 L 6.375 0.03125 C 6.03125 0.03125 5.707031 0.03125 5.40625 0.03125 C 5.101562 0.03125 4.867188 0.03125 4.703125 0.03125 C 4.765625 -0.132812 4.804688 -0.40625 4.828125 -0.78125 C 4.847656 -1.15625 4.859375 -1.492188 4.859375 -1.796875 C 4.859375 -1.859375 4.867188 -2.035156 4.890625 -2.328125 C 4.910156 -2.628906 4.925781 -3.171875 4.9375 -3.953125 C 4.945312 -4.734375 4.960938 -5.863281 4.984375 -7.34375 C 5.015625 -8.820312 5.03125 -10.789062 5.03125 -13.25 C 5.03125 -15.894531 5.015625 -17.953125 4.984375 -19.421875 C 4.960938 -20.890625 4.941406 -21.957031 4.921875 -22.625 C 4.222656 -22.664062 3.648438 -22.675781 3.203125 -22.65625 C 2.753906 -22.632812 2.46875 -22.625 2.34375 -22.625 C 2.019531 -22.601562 1.679688 -22.585938 1.328125 -22.578125 C 0.972656 -22.566406 0.710938 -22.53125 0.546875 -22.46875 L 0.546875 -24.09375 C 0.546875 -24.4375 0.546875 -24.757812 0.546875 -25.0625 C 0.546875 -25.375 0.546875 -25.609375 0.546875 -25.765625 C 0.710938 -25.691406 0.972656 -25.644531 1.328125 -25.625 C 1.679688 -25.601562 2.019531 -25.59375 2.34375 -25.59375 L 8.09375 -25.59375 C 8.5625 -25.59375 9 -25.59375 9.40625 -25.59375 C 9.8125 -25.59375 10.125 -25.59375 10.34375 -25.59375 Z M 10.34375 -25.59375 "/></g></g></g><g fill="#000000" fill-opacity="1"><g transform="translate(141.724435, 227.939985)"><g><path d="M 14.5625 0 L 10.84375 0 C 10.90625 -0.0625 10.945312 -0.128906 10.96875 -0.203125 C 11 -0.273438 11.015625 -0.328125 11.015625 -0.359375 C 11.015625 -1.679688 10.722656 -3.148438 10.140625 -4.765625 C 9.566406 -6.390625 8.78125 -7.894531 7.78125 -9.28125 L 7.515625 -9.28125 C 6.859375 -9.28125 6.222656 -9.328125 5.609375 -9.421875 C 5.003906 -9.515625 4.5625 -9.609375 4.28125 -9.703125 C 4.257812 -9.523438 4.242188 -9.109375 4.234375 -8.453125 C 4.222656 -7.804688 4.21875 -7.0625 4.21875 -6.21875 C 4.21875 -5.375 4.222656 -4.550781 4.234375 -3.75 C 4.242188 -2.957031 4.257812 -2.316406 4.28125 -1.828125 C 4.300781 -1.460938 4.335938 -1.109375 4.390625 -0.765625 C 4.453125 -0.421875 4.503906 -0.164062 4.546875 0 L 1.125 0 C 1.1875 -0.164062 1.226562 -0.425781 1.25 -0.78125 C 1.269531 -1.132812 1.289062 -1.472656 1.3125 -1.796875 C 1.3125 -1.898438 1.332031 -2.28125 1.375 -2.9375 C 1.414062 -3.601562 1.453125 -4.6875 1.484375 -6.1875 C 1.515625 -7.695312 1.53125 -9.765625 1.53125 -12.390625 C 1.53125 -15.566406 1.503906 -18.203125 1.453125 -20.296875 C 1.398438 -22.398438 1.351562 -23.828125 1.3125 -24.578125 C 1.3125 -24.703125 1.300781 -24.832031 1.28125 -24.96875 C 1.257812 -25.113281 1.21875 -25.257812 1.15625 -25.40625 C 1.382812 -25.507812 1.816406 -25.59375 2.453125 -25.65625 C 3.097656 -25.726562 3.8125 -25.78125 4.59375 -25.8125 C 5.375 -25.84375 6.082031 -25.859375 6.71875 -25.859375 C 7.144531 -25.859375 7.660156 -25.8125 8.265625 -25.71875 C 8.878906 -25.632812 9.503906 -25.445312 10.140625 -25.15625 C 10.785156 -24.875 11.382812 -24.445312 11.9375 -23.875 C 12.488281 -23.300781 12.9375 -22.53125 13.28125 -21.5625 C 13.625 -20.601562 13.796875 -19.398438 13.796875 -17.953125 C 13.796875 -15.835938 13.472656 -14.179688 12.828125 -12.984375 C 12.191406 -11.796875 11.46875 -10.925781 10.65625 -10.375 C 11.269531 -9.425781 11.78125 -8.515625 12.1875 -7.640625 C 12.59375 -6.773438 12.957031 -5.78125 13.28125 -4.65625 C 13.601562 -3.53125 13.921875 -2.117188 14.234375 -0.421875 C 14.234375 -0.265625 14.34375 -0.125 14.5625 0 Z M 4.1875 -17.5625 C 4.1875 -16.113281 4.195312 -14.984375 4.21875 -14.171875 C 4.238281 -13.359375 4.257812 -12.859375 4.28125 -12.671875 C 4.625 -12.503906 5.0625 -12.375 5.59375 -12.28125 C 6.132812 -12.195312 6.671875 -12.15625 7.203125 -12.15625 C 7.523438 -12.15625 7.882812 -12.222656 8.28125 -12.359375 C 8.6875 -12.503906 9.070312 -12.773438 9.4375 -13.171875 C 9.800781 -13.566406 10.101562 -14.140625 10.34375 -14.890625 C 10.59375 -15.648438 10.71875 -16.660156 10.71875 -17.921875 C 10.71875 -19.179688 10.5625 -20.148438 10.25 -20.828125 C 9.945312 -21.515625 9.570312 -21.992188 9.125 -22.265625 C 8.675781 -22.546875 8.222656 -22.710938 7.765625 -22.765625 C 7.304688 -22.816406 6.925781 -22.84375 6.625 -22.84375 C 6.28125 -22.84375 5.847656 -22.820312 5.328125 -22.78125 C 4.804688 -22.738281 4.457031 -22.65625 4.28125 -22.53125 C 4.257812 -22.375 4.238281 -21.890625 4.21875 -21.078125 C 4.195312 -20.273438 4.1875 -19.101562 4.1875 -17.5625 Z M 4.1875 -17.5625 "/></g></g></g><g fill="#000000" fill-opacity="1"><g transform="translate(162.616721, 227.939985)"><g><path d="M 12.515625 0 L 9.46875 0 C 9.507812 -0.101562 9.519531 -0.238281 9.5 -0.40625 C 9.476562 -0.582031 9.457031 -0.710938 9.4375 -0.796875 C 9.289062 -1.910156 9.09375 -3.226562 8.84375 -4.75 C 8.601562 -6.28125 8.332031 -7.953125 8.03125 -9.765625 C 7.5 -9.722656 6.976562 -9.707031 6.46875 -9.71875 C 5.957031 -9.726562 5.476562 -9.742188 5.03125 -9.765625 C 4.726562 -7.953125 4.453125 -6.28125 4.203125 -4.75 C 3.960938 -3.226562 3.753906 -1.910156 3.578125 -0.796875 C 3.554688 -0.710938 3.539062 -0.582031 3.53125 -0.40625 C 3.519531 -0.238281 3.535156 -0.101562 3.578125 0 L 0.546875 0 C 0.609375 -0.0625 0.648438 -0.140625 0.671875 -0.234375 C 0.691406 -0.335938 0.710938 -0.421875 0.734375 -0.484375 C 1.304688 -3.035156 1.851562 -5.675781 2.375 -8.40625 C 2.90625 -11.144531 3.394531 -13.894531 3.84375 -16.65625 C 4.289062 -19.414062 4.6875 -22.097656 5.03125 -24.703125 C 5.050781 -24.847656 5.070312 -25.007812 5.09375 -25.1875 C 5.113281 -25.375 5.078125 -25.507812 4.984375 -25.59375 L 5.0625 -25.59375 C 5.1875 -25.59375 5.421875 -25.59375 5.765625 -25.59375 C 6.117188 -25.59375 6.503906 -25.59375 6.921875 -25.59375 C 7.335938 -25.59375 7.695312 -25.59375 8 -25.59375 L 8.0625 -25.59375 C 7.976562 -25.507812 7.945312 -25.375 7.96875 -25.1875 C 7.988281 -25.007812 8.007812 -24.847656 8.03125 -24.703125 C 8.375 -22.097656 8.769531 -19.414062 9.21875 -16.65625 C 9.664062 -13.894531 10.148438 -11.144531 10.671875 -8.40625 C 11.191406 -5.675781 11.738281 -3.035156 12.3125 -0.484375 C 12.3125 -0.285156 12.378906 -0.125 12.515625 0 Z M 5.46875 -12.421875 C 5.832031 -12.398438 6.1875 -12.390625 6.53125 -12.390625 C 6.875 -12.390625 7.210938 -12.410156 7.546875 -12.453125 C 7.398438 -13.367188 7.238281 -14.3125 7.0625 -15.28125 C 6.894531 -16.25 6.71875 -17.222656 6.53125 -18.203125 C 6.332031 -17.203125 6.148438 -16.222656 5.984375 -15.265625 C 5.816406 -14.304688 5.644531 -13.359375 5.46875 -12.421875 Z M 5.46875 -12.421875 "/></g></g></g><g fill="#000000" fill-opacity="1"><g transform="translate(181.461508, 227.939985)"><g><path d="M 9.46875 -14.46875 C 10.070312 -14.25 10.65625 -13.878906 11.21875 -13.359375 C 11.78125 -12.835938 12.25 -12.097656 12.625 -11.140625 C 13 -10.179688 13.1875 -8.910156 13.1875 -7.328125 C 13.1875 -5.796875 12.957031 -4.546875 12.5 -3.578125 C 12.039062 -2.617188 11.46875 -1.882812 10.78125 -1.375 C 10.101562 -0.863281 9.414062 -0.507812 8.71875 -0.3125 C 8.03125 -0.125 7.4375 -0.03125 6.9375 -0.03125 C 6.300781 -0.03125 5.570312 -0.0351562 4.75 -0.046875 C 3.925781 -0.0546875 3.171875 -0.0859375 2.484375 -0.140625 C 1.804688 -0.191406 1.351562 -0.265625 1.125 -0.359375 C 1.1875 -0.503906 1.226562 -0.664062 1.25 -0.84375 C 1.269531 -1.03125 1.28125 -1.144531 1.28125 -1.1875 C 1.28125 -1.226562 1.300781 -1.578125 1.34375 -2.234375 C 1.382812 -2.898438 1.421875 -4.023438 1.453125 -5.609375 C 1.484375 -7.203125 1.5 -9.40625 1.5 -12.21875 L 1.5 -13.953125 C 1.5 -14.015625 1.5 -14.078125 1.5 -14.140625 C 1.5 -14.203125 1.5 -14.269531 1.5 -14.34375 L 1.5 -15.265625 C 1.5 -17.648438 1.488281 -19.59375 1.46875 -21.09375 C 1.445312 -22.601562 1.425781 -23.601562 1.40625 -24.09375 C 1.40625 -24.195312 1.394531 -24.300781 1.375 -24.40625 C 1.351562 -24.519531 1.3125 -24.628906 1.25 -24.734375 C 1.59375 -24.859375 2.171875 -25.03125 2.984375 -25.25 C 3.804688 -25.476562 4.695312 -25.59375 5.65625 -25.59375 C 6.15625 -25.59375 6.734375 -25.515625 7.390625 -25.359375 C 8.054688 -25.203125 8.710938 -24.90625 9.359375 -24.46875 C 10.015625 -24.03125 10.550781 -23.40625 10.96875 -22.59375 C 11.394531 -21.78125 11.609375 -20.734375 11.609375 -19.453125 C 11.609375 -18.253906 11.398438 -17.242188 10.984375 -16.421875 C 10.578125 -15.609375 10.070312 -14.957031 9.46875 -14.46875 Z M 4.25 -23.015625 C 4.226562 -22.859375 4.210938 -22.460938 4.203125 -21.828125 C 4.191406 -21.203125 4.1875 -20.316406 4.1875 -19.171875 L 4.1875 -15.078125 C 4.488281 -15.054688 4.785156 -15.039062 5.078125 -15.03125 C 5.378906 -15.019531 5.640625 -15.015625 5.859375 -15.015625 C 6.671875 -15.015625 7.378906 -15.390625 7.984375 -16.140625 C 8.585938 -16.898438 8.890625 -18.003906 8.890625 -19.453125 C 8.910156 -20.410156 8.742188 -21.15625 8.390625 -21.6875 C 8.046875 -22.226562 7.640625 -22.613281 7.171875 -22.84375 C 6.703125 -23.082031 6.296875 -23.210938 5.953125 -23.234375 C 5.546875 -23.273438 5.207031 -23.273438 4.9375 -23.234375 C 4.675781 -23.191406 4.445312 -23.117188 4.25 -23.015625 Z M 7.078125 -2.8125 C 7.242188 -2.8125 7.515625 -2.851562 7.890625 -2.9375 C 8.265625 -3.03125 8.644531 -3.21875 9.03125 -3.5 C 9.425781 -3.789062 9.765625 -4.238281 10.046875 -4.84375 C 10.328125 -5.457031 10.46875 -6.285156 10.46875 -7.328125 C 10.46875 -8.460938 10.359375 -9.375 10.140625 -10.0625 C 9.929688 -10.757812 9.648438 -11.285156 9.296875 -11.640625 C 8.941406 -12.003906 8.578125 -12.25 8.203125 -12.375 C 7.828125 -12.507812 7.484375 -12.578125 7.171875 -12.578125 C 6.640625 -12.578125 6.101562 -12.5625 5.5625 -12.53125 C 5.03125 -12.5 4.59375 -12.453125 4.25 -12.390625 C 4.226562 -12.109375 4.210938 -11.519531 4.203125 -10.625 C 4.191406 -9.726562 4.1875 -8.578125 4.1875 -7.171875 C 4.1875 -6.546875 4.191406 -5.828125 4.203125 -5.015625 C 4.210938 -4.210938 4.226562 -3.546875 4.25 -3.015625 C 4.40625 -2.960938 4.65625 -2.921875 5 -2.890625 C 5.351562 -2.859375 5.726562 -2.835938 6.125 -2.828125 C 6.519531 -2.816406 6.835938 -2.8125 7.078125 -2.8125 Z M 7.078125 -2.8125 "/></g></g></g><g fill="#000000" fill-opacity="1"><g transform="translate(201.042119, 227.939985)"><g><path d="M 12.515625 0 L 9.46875 0 C 9.507812 -0.101562 9.519531 -0.238281 9.5 -0.40625 C 9.476562 -0.582031 9.457031 -0.710938 9.4375 -0.796875 C 9.289062 -1.910156 9.09375 -3.226562 8.84375 -4.75 C 8.601562 -6.28125 8.332031 -7.953125 8.03125 -9.765625 C 7.5 -9.722656 6.976562 -9.707031 6.46875 -9.71875 C 5.957031 -9.726562 5.476562 -9.742188 5.03125 -9.765625 C 4.726562 -7.953125 4.453125 -6.28125 4.203125 -4.75 C 3.960938 -3.226562 3.753906 -1.910156 3.578125 -0.796875 C 3.554688 -0.710938 3.539062 -0.582031 3.53125 -0.40625 C 3.519531 -0.238281 3.535156 -0.101562 3.578125 0 L 0.546875 0 C 0.609375 -0.0625 0.648438 -0.140625 0.671875 -0.234375 C 0.691406 -0.335938 0.710938 -0.421875 0.734375 -0.484375 C 1.304688 -3.035156 1.851562 -5.675781 2.375 -8.40625 C 2.90625 -11.144531 3.394531 -13.894531 3.84375 -16.65625 C 4.289062 -19.414062 4.6875 -22.097656 5.03125 -24.703125 C 5.050781 -24.847656 5.070312 -25.007812 5.09375 -25.1875 C 5.113281 -25.375 5.078125 -25.507812 4.984375 -25.59375 L 5.0625 -25.59375 C 5.1875 -25.59375 5.421875 -25.59375 5.765625 -25.59375 C 6.117188 -25.59375 6.503906 -25.59375 6.921875 -25.59375 C 7.335938 -25.59375 7.695312 -25.59375 8 -25.59375 L 8.0625 -25.59375 C 7.976562 -25.507812 7.945312 -25.375 7.96875 -25.1875 C 7.988281 -25.007812 8.007812 -24.847656 8.03125 -24.703125 C 8.375 -22.097656 8.769531 -19.414062 9.21875 -16.65625 C 9.664062 -13.894531 10.148438 -11.144531 10.671875 -8.40625 C 11.191406 -5.675781 11.738281 -3.035156 12.3125 -0.484375 C 12.3125 -0.285156 12.378906 -0.125 12.515625 0 Z M 5.46875 -12.421875 C 5.832031 -12.398438 6.1875 -12.390625 6.53125 -12.390625 C 6.875 -12.390625 7.210938 -12.410156 7.546875 -12.453125 C 7.398438 -13.367188 7.238281 -14.3125 7.0625 -15.28125 C 6.894531 -16.25 6.71875 -17.222656 6.53125 -18.203125 C 6.332031 -17.203125 6.148438 -16.222656 5.984375 -15.265625 C 5.816406 -14.304688 5.644531 -13.359375 5.46875 -12.421875 Z M 5.46875 -12.421875 "/></g></g></g><g fill="#000000" fill-opacity="1"><g transform="translate(219.886904, 227.939985)"><g><path d="M 9.09375 -6.140625 L 11.640625 -6.140625 C 11.304688 -3.921875 10.71875 -2.34375 9.875 -1.40625 C 9.03125 -0.46875 7.835938 0 6.296875 0 C 4.867188 0 3.734375 -0.410156 2.890625 -1.234375 C 2.046875 -2.054688 1.441406 -3.410156 1.078125 -5.296875 C 0.722656 -7.179688 0.546875 -9.722656 0.546875 -12.921875 C 0.546875 -16.128906 0.722656 -18.65625 1.078125 -20.5 C 1.441406 -22.34375 2.046875 -23.648438 2.890625 -24.421875 C 3.734375 -25.203125 4.867188 -25.59375 6.296875 -25.59375 C 7.859375 -25.59375 9.0625 -25.132812 9.90625 -24.21875 C 10.75 -23.300781 11.34375 -21.710938 11.6875 -19.453125 L 9.09375 -19.453125 C 8.914062 -20.609375 8.613281 -21.484375 8.1875 -22.078125 C 7.757812 -22.671875 7.128906 -22.96875 6.296875 -22.96875 C 5.335938 -22.96875 4.640625 -22.578125 4.203125 -21.796875 C 3.765625 -21.023438 3.484375 -19.890625 3.359375 -18.390625 C 3.234375 -16.898438 3.171875 -15.078125 3.171875 -12.921875 C 3.171875 -10.773438 3.234375 -8.929688 3.359375 -7.390625 C 3.484375 -5.859375 3.765625 -4.679688 4.203125 -3.859375 C 4.640625 -3.035156 5.335938 -2.625 6.296875 -2.625 C 7.109375 -2.625 7.726562 -2.925781 8.15625 -3.53125 C 8.582031 -4.144531 8.894531 -5.015625 9.09375 -6.140625 Z M 9.09375 -6.140625 "/></g></g></g><g fill="#000000" fill-opacity="1"><g transform="translate(237.899892, 227.939985)"><g><path d="M 12.3125 -13.25 C 12.3125 -11.863281 12.316406 -10.5 12.328125 -9.15625 C 12.347656 -7.8125 12.367188 -6.585938 12.390625 -5.484375 C 12.410156 -4.390625 12.425781 -3.507812 12.4375 -2.84375 C 12.445312 -2.1875 12.453125 -1.835938 12.453125 -1.796875 C 12.453125 -1.472656 12.460938 -1.132812 12.484375 -0.78125 C 12.503906 -0.425781 12.546875 -0.164062 12.609375 0 L 10.96875 0 C 10.632812 0 10.316406 0 10.015625 0 C 9.710938 0 9.476562 0 9.3125 0 C 9.375 -0.164062 9.414062 -0.425781 9.4375 -0.78125 C 9.457031 -1.132812 9.46875 -1.472656 9.46875 -1.796875 C 9.46875 -1.859375 9.472656 -2 9.484375 -2.21875 C 9.492188 -2.445312 9.507812 -2.835938 9.53125 -3.390625 C 9.550781 -3.941406 9.570312 -4.742188 9.59375 -5.796875 C 9.613281 -6.859375 9.625 -8.253906 9.625 -9.984375 C 9.332031 -9.984375 8.972656 -9.988281 8.546875 -10 C 8.117188 -10.007812 7.628906 -10.015625 7.078125 -10.015625 C 6.585938 -10.015625 6.097656 -10.007812 5.609375 -10 C 5.128906 -9.988281 4.675781 -9.972656 4.25 -9.953125 C 4.269531 -8.523438 4.285156 -7.191406 4.296875 -5.953125 C 4.304688 -4.710938 4.320312 -3.71875 4.34375 -2.96875 C 4.375 -2.226562 4.390625 -1.835938 4.390625 -1.796875 C 4.390625 -1.472656 4.398438 -1.132812 4.421875 -0.78125 C 4.441406 -0.425781 4.484375 -0.164062 4.546875 0 L 2.875 0 C 2.539062 0 2.222656 0 1.921875 0 C 1.617188 0 1.382812 0 1.21875 0 C 1.28125 -0.164062 1.328125 -0.425781 1.359375 -0.78125 C 1.390625 -1.132812 1.40625 -1.472656 1.40625 -1.796875 C 1.40625 -1.859375 1.414062 -2.035156 1.4375 -2.328125 C 1.457031 -2.628906 1.472656 -3.171875 1.484375 -3.953125 C 1.492188 -4.734375 1.507812 -5.863281 1.53125 -7.34375 C 1.550781 -8.820312 1.5625 -10.789062 1.5625 -13.25 C 1.5625 -16.425781 1.546875 -18.875 1.515625 -20.59375 C 1.484375 -22.3125 1.445312 -23.375 1.40625 -23.78125 C 1.40625 -24.132812 1.375 -24.484375 1.3125 -24.828125 C 1.25 -25.171875 1.1875 -25.425781 1.125 -25.59375 L 2.875 -25.59375 C 3.195312 -25.59375 3.523438 -25.59375 3.859375 -25.59375 C 4.191406 -25.59375 4.453125 -25.59375 4.640625 -25.59375 C 4.597656 -25.425781 4.546875 -25.171875 4.484375 -24.828125 C 4.421875 -24.484375 4.390625 -24.132812 4.390625 -23.78125 C 4.367188 -23.3125 4.332031 -22.203125 4.28125 -20.453125 C 4.238281 -18.703125 4.21875 -16.300781 4.21875 -13.25 L 4.21875 -12.703125 C 4.5625 -12.703125 4.96875 -12.695312 5.4375 -12.6875 C 5.90625 -12.675781 6.453125 -12.671875 7.078125 -12.671875 C 7.628906 -12.671875 8.117188 -12.675781 8.546875 -12.6875 C 8.972656 -12.695312 9.332031 -12.703125 9.625 -12.703125 L 9.625 -13.25 C 9.625 -16.425781 9.609375 -18.875 9.578125 -20.59375 C 9.546875 -22.3125 9.507812 -23.375 9.46875 -23.78125 C 9.46875 -24.132812 9.4375 -24.484375 9.375 -24.828125 C 9.3125 -25.171875 9.257812 -25.425781 9.21875 -25.59375 L 10.96875 -25.59375 C 11.289062 -25.59375 11.617188 -25.59375 11.953125 -25.59375 C 12.285156 -25.59375 12.546875 -25.59375 12.734375 -25.59375 C 12.671875 -25.425781 12.609375 -25.171875 12.546875 -24.828125 C 12.484375 -24.484375 12.453125 -24.132812 12.453125 -23.78125 C 12.429688 -23.3125 12.398438 -22.203125 12.359375 -20.453125 C 12.328125 -18.703125 12.3125 -16.300781 12.3125 -13.25 Z M 12.3125 -13.25 "/></g></g></g><g fill="#000000" fill-opacity="1"><g transform="translate(104.130002, 263.189983)"><g><path d="M 6.375 0.25 C 4.445312 0.25 2.929688 -0.523438 1.828125 -2.078125 C 1.316406 -2.804688 0.976562 -3.507812 0.8125 -4.1875 C 0.65625 -4.875 0.566406 -5.320312 0.546875 -5.53125 L 3.296875 -5.828125 C 3.296875 -5.804688 3.332031 -5.625 3.40625 -5.28125 C 3.476562 -4.9375 3.617188 -4.550781 3.828125 -4.125 C 4.046875 -3.695312 4.359375 -3.320312 4.765625 -3 C 5.171875 -2.6875 5.707031 -2.53125 6.375 -2.53125 C 6.601562 -2.53125 6.921875 -2.554688 7.328125 -2.609375 C 7.734375 -2.660156 8.144531 -2.820312 8.5625 -3.09375 C 8.976562 -3.375 9.332031 -3.835938 9.625 -4.484375 C 9.925781 -5.140625 10.078125 -6.054688 10.078125 -7.234375 C 10.078125 -8.234375 9.796875 -9.128906 9.234375 -9.921875 C 8.671875 -10.710938 7.929688 -11.453125 7.015625 -12.140625 C 6.109375 -12.835938 5.132812 -13.503906 4.09375 -14.140625 C 1.8125 -15.566406 0.671875 -17.59375 0.671875 -20.21875 C 0.671875 -21.3125 0.921875 -22.28125 1.421875 -23.125 C 1.921875 -23.96875 2.613281 -24.632812 3.5 -25.125 C 4.382812 -25.613281 5.382812 -25.859375 6.5 -25.859375 C 8.3125 -25.859375 9.726562 -25.394531 10.75 -24.46875 C 11.769531 -23.539062 12.335938 -22.210938 12.453125 -20.484375 L 9.65625 -20.28125 C 9.59375 -21.289062 9.316406 -22.007812 8.828125 -22.4375 C 8.335938 -22.863281 7.5625 -23.078125 6.5 -23.078125 C 5.582031 -23.078125 4.84375 -22.8125 4.28125 -22.28125 C 3.726562 -21.757812 3.453125 -21.070312 3.453125 -20.21875 C 3.453125 -19.5 3.582031 -18.835938 3.84375 -18.234375 C 4.113281 -17.640625 4.6875 -17.066406 5.5625 -16.515625 C 6.289062 -16.066406 7.078125 -15.550781 7.921875 -14.96875 C 8.765625 -14.394531 9.554688 -13.734375 10.296875 -12.984375 C 11.046875 -12.242188 11.65625 -11.398438 12.125 -10.453125 C 12.59375 -9.503906 12.828125 -8.429688 12.828125 -7.234375 C 12.828125 -4.890625 12.253906 -3.054688 11.109375 -1.734375 C 9.972656 -0.410156 8.394531 0.25 6.375 0.25 Z M 6.375 0.25 "/></g></g></g><g fill="#000000" fill-opacity="1"><g transform="translate(123.294711, 263.189983)"><g><path d="M 7.015625 0.125 C 5.578125 0.125 4.378906 -0.285156 3.421875 -1.109375 C 2.460938 -1.929688 1.742188 -3.285156 1.265625 -5.171875 C 0.785156 -7.054688 0.546875 -9.597656 0.546875 -12.796875 C 0.546875 -15.992188 0.785156 -18.535156 1.265625 -20.421875 C 1.742188 -22.316406 2.460938 -23.675781 3.421875 -24.5 C 4.378906 -25.320312 5.578125 -25.734375 7.015625 -25.734375 C 8.460938 -25.734375 9.660156 -25.320312 10.609375 -24.5 C 11.554688 -23.675781 12.269531 -22.316406 12.75 -20.421875 C 13.226562 -18.535156 13.46875 -15.992188 13.46875 -12.796875 C 13.46875 -9.597656 13.226562 -7.054688 12.75 -5.171875 C 12.269531 -3.285156 11.554688 -1.929688 10.609375 -1.109375 C 9.660156 -0.285156 8.460938 0.125 7.015625 0.125 Z M 7.015625 -2.5 C 8.460938 -2.5 9.460938 -3.410156 10.015625 -5.234375 C 10.566406 -7.054688 10.84375 -9.578125 10.84375 -12.796875 C 10.84375 -16.035156 10.566406 -18.5625 10.015625 -20.375 C 9.460938 -22.195312 8.460938 -23.109375 7.015625 -23.109375 C 5.578125 -23.109375 4.578125 -22.195312 4.015625 -20.375 C 3.453125 -18.5625 3.171875 -16.035156 3.171875 -12.796875 C 3.171875 -9.578125 3.453125 -7.054688 4.015625 -5.234375 C 4.578125 -3.410156 5.578125 -2.5 7.015625 -2.5 Z M 7.015625 -2.5 "/></g></g></g><g fill="#000000" fill-opacity="1"><g transform="translate(143.099258, 263.189983)"><g><path d="M 4.390625 0 L 1.21875 0 C 1.28125 -0.164062 1.328125 -0.425781 1.359375 -0.78125 C 1.390625 -1.132812 1.40625 -1.472656 1.40625 -1.796875 C 1.40625 -1.878906 1.410156 -2.328125 1.421875 -3.140625 C 1.429688 -3.953125 1.4375 -5.265625 1.4375 -7.078125 C 1.4375 -8.890625 1.4375 -11.34375 1.4375 -14.4375 C 1.4375 -17.757812 1.429688 -20.132812 1.421875 -21.5625 C 1.410156 -23 1.40625 -23.738281 1.40625 -23.78125 C 1.40625 -24.132812 1.375 -24.484375 1.3125 -24.828125 C 1.25 -25.171875 1.1875 -25.425781 1.125 -25.59375 L 2.875 -25.59375 C 3.195312 -25.59375 3.523438 -25.59375 3.859375 -25.59375 C 4.191406 -25.59375 4.453125 -25.59375 4.640625 -25.59375 L 10.296875 -25.59375 C 10.660156 -25.59375 11.015625 -25.625 11.359375 -25.6875 C 11.703125 -25.757812 11.96875 -25.816406 12.15625 -25.859375 L 12.15625 -24.09375 C 12.15625 -23.769531 12.15625 -23.441406 12.15625 -23.109375 C 12.15625 -22.785156 12.15625 -22.53125 12.15625 -22.34375 C 11.96875 -22.40625 11.703125 -22.46875 11.359375 -22.53125 C 11.015625 -22.59375 10.660156 -22.625 10.296875 -22.625 L 4.390625 -22.625 C 4.367188 -22.300781 4.347656 -21.742188 4.328125 -20.953125 C 4.316406 -20.171875 4.3125 -19.210938 4.3125 -18.078125 C 4.3125 -17.035156 4.316406 -16.269531 4.328125 -15.78125 C 4.347656 -15.289062 4.363281 -14.9375 4.375 -14.71875 C 4.382812 -14.507812 4.390625 -14.273438 4.390625 -14.015625 L 6.5 -14.015625 C 6.863281 -14.015625 7.207031 -14.046875 7.53125 -14.109375 C 7.863281 -14.171875 8.125 -14.234375 8.3125 -14.296875 L 8.3125 -12.546875 C 8.3125 -12.222656 8.3125 -11.894531 8.3125 -11.5625 C 8.3125 -11.238281 8.3125 -10.976562 8.3125 -10.78125 C 8.125 -10.820312 7.863281 -10.875 7.53125 -10.9375 C 7.207031 -11.007812 6.863281 -11.046875 6.5 -11.046875 L 4.390625 -11.046875 C 4.367188 -10.335938 4.34375 -9.457031 4.3125 -8.40625 C 4.289062 -7.363281 4.28125 -6.285156 4.28125 -5.171875 C 4.28125 -4.066406 4.289062 -3.050781 4.3125 -2.125 C 4.34375 -1.195312 4.367188 -0.488281 4.390625 0 Z M 4.390625 0 "/></g></g></g><g fill="#000000" fill-opacity="1"><g transform="translate(161.592128, 263.189983)"><g><path d="M 10.34375 -25.59375 C 10.695312 -25.59375 11.046875 -25.609375 11.390625 -25.640625 C 11.734375 -25.679688 11.988281 -25.710938 12.15625 -25.734375 L 12.15625 -24.09375 C 12.15625 -23.769531 12.15625 -23.457031 12.15625 -23.15625 C 12.15625 -22.863281 12.15625 -22.632812 12.15625 -22.46875 C 11.988281 -22.507812 11.734375 -22.539062 11.390625 -22.5625 C 11.046875 -22.582031 10.695312 -22.601562 10.34375 -22.625 C 10.019531 -22.644531 9.6875 -22.660156 9.34375 -22.671875 C 9 -22.679688 8.488281 -22.664062 7.8125 -22.625 C 7.789062 -21.9375 7.769531 -20.851562 7.75 -19.375 C 7.726562 -17.894531 7.71875 -15.851562 7.71875 -13.25 C 7.71875 -11.863281 7.722656 -10.5 7.734375 -9.15625 C 7.742188 -7.8125 7.757812 -6.585938 7.78125 -5.484375 C 7.800781 -4.390625 7.816406 -3.507812 7.828125 -2.84375 C 7.835938 -2.1875 7.84375 -1.835938 7.84375 -1.796875 C 7.84375 -1.492188 7.851562 -1.15625 7.875 -0.78125 C 7.894531 -0.40625 7.9375 -0.132812 8 0.03125 L 6.375 0.03125 C 6.03125 0.03125 5.707031 0.03125 5.40625 0.03125 C 5.101562 0.03125 4.867188 0.03125 4.703125 0.03125 C 4.765625 -0.132812 4.804688 -0.40625 4.828125 -0.78125 C 4.847656 -1.15625 4.859375 -1.492188 4.859375 -1.796875 C 4.859375 -1.859375 4.867188 -2.035156 4.890625 -2.328125 C 4.910156 -2.628906 4.925781 -3.171875 4.9375 -3.953125 C 4.945312 -4.734375 4.960938 -5.863281 4.984375 -7.34375 C 5.015625 -8.820312 5.03125 -10.789062 5.03125 -13.25 C 5.03125 -15.894531 5.015625 -17.953125 4.984375 -19.421875 C 4.960938 -20.890625 4.941406 -21.957031 4.921875 -22.625 C 4.222656 -22.664062 3.648438 -22.675781 3.203125 -22.65625 C 2.753906 -22.632812 2.46875 -22.625 2.34375 -22.625 C 2.019531 -22.601562 1.679688 -22.585938 1.328125 -22.578125 C 0.972656 -22.566406 0.710938 -22.53125 0.546875 -22.46875 L 0.546875 -24.09375 C 0.546875 -24.4375 0.546875 -24.757812 0.546875 -25.0625 C 0.546875 -25.375 0.546875 -25.609375 0.546875 -25.765625 C 0.710938 -25.691406 0.972656 -25.644531 1.328125 -25.625 C 1.679688 -25.601562 2.019531 -25.59375 2.34375 -25.59375 L 8.09375 -25.59375 C 8.5625 -25.59375 9 -25.59375 9.40625 -25.59375 C 9.8125 -25.59375 10.125 -25.59375 10.34375 -25.59375 Z M 10.34375 -25.59375 "/></g></g></g><g fill="#000000" fill-opacity="1"><g transform="translate(180.085002, 263.189983)"><g><path d="M 0.546875 -25.59375 L 3.609375 -25.59375 C 3.546875 -25.507812 3.507812 -25.375 3.5 -25.1875 C 3.488281 -25.007812 3.492188 -24.847656 3.515625 -24.703125 C 3.628906 -23.097656 3.738281 -21.644531 3.84375 -20.34375 C 3.945312 -19.050781 4.070312 -17.753906 4.21875 -16.453125 C 4.375 -15.148438 4.535156 -13.664062 4.703125 -12 C 5.210938 -13.957031 5.597656 -15.597656 5.859375 -16.921875 C 6.128906 -18.242188 6.351562 -19.398438 6.53125 -20.390625 L 7.578125 -20.390625 C 7.710938 -19.617188 7.894531 -18.710938 8.125 -17.671875 C 8.363281 -16.640625 8.613281 -15.617188 8.875 -14.609375 C 9.144531 -13.597656 9.382812 -12.738281 9.59375 -12.03125 C 9.789062 -13.675781 9.953125 -15.15625 10.078125 -16.46875 C 10.203125 -17.78125 10.320312 -19.078125 10.4375 -20.359375 C 10.5625 -21.648438 10.675781 -23.097656 10.78125 -24.703125 C 10.78125 -24.847656 10.78125 -25.007812 10.78125 -25.1875 C 10.78125 -25.375 10.75 -25.507812 10.6875 -25.59375 L 13.765625 -25.59375 C 13.378906 -23.125 13.03125 -20.6875 12.71875 -18.28125 C 12.40625 -15.882812 12.117188 -13.597656 11.859375 -11.421875 C 11.609375 -9.242188 11.390625 -7.253906 11.203125 -5.453125 C 11.023438 -3.648438 10.882812 -2.097656 10.78125 -0.796875 C 10.757812 -0.710938 10.75 -0.582031 10.75 -0.40625 C 10.75 -0.238281 10.757812 -0.101562 10.78125 0 C 10.71875 0 10.539062 0 10.25 0 C 9.96875 0 9.648438 0 9.296875 0 C 8.941406 0 8.617188 0 8.328125 0 C 8.046875 0 7.882812 0 7.84375 0 C 7.882812 -0.101562 7.910156 -0.238281 7.921875 -0.40625 C 7.929688 -0.582031 7.9375 -0.710938 7.9375 -0.796875 C 7.914062 -1.140625 7.882812 -1.707031 7.84375 -2.5 C 7.800781 -3.289062 7.742188 -4.179688 7.671875 -5.171875 C 7.609375 -6.160156 7.546875 -7.140625 7.484375 -8.109375 C 7.421875 -9.078125 7.359375 -9.941406 7.296875 -10.703125 C 7.234375 -11.460938 7.179688 -11.976562 7.140625 -12.25 C 7.097656 -11.976562 7.039062 -11.460938 6.96875 -10.703125 C 6.90625 -9.941406 6.84375 -9.070312 6.78125 -8.09375 C 6.71875 -7.113281 6.660156 -6.125 6.609375 -5.125 C 6.554688 -4.132812 6.507812 -3.25 6.46875 -2.46875 C 6.425781 -1.695312 6.394531 -1.140625 6.375 -0.796875 C 6.375 -0.710938 6.375 -0.582031 6.375 -0.40625 C 6.375 -0.238281 6.382812 -0.101562 6.40625 0 C 6.363281 0 6.207031 0 5.9375 0 C 5.664062 0 5.351562 0 5 0 C 4.65625 0 4.335938 0 4.046875 0 C 3.753906 0 3.578125 0 3.515625 0 C 3.554688 -0.101562 3.570312 -0.238281 3.5625 -0.40625 C 3.550781 -0.582031 3.535156 -0.710938 3.515625 -0.796875 C 3.410156 -2.097656 3.265625 -3.648438 3.078125 -5.453125 C 2.898438 -7.253906 2.679688 -9.242188 2.421875 -11.421875 C 2.171875 -13.597656 1.882812 -15.882812 1.5625 -18.28125 C 1.25 -20.6875 0.910156 -23.125 0.546875 -25.59375 Z M 0.546875 -25.59375 "/></g></g></g><g fill="#000000" fill-opacity="1"><g transform="translate(200.177478, 263.189983)"><g><path d="M 12.515625 0 L 9.46875 0 C 9.507812 -0.101562 9.519531 -0.238281 9.5 -0.40625 C 9.476562 -0.582031 9.457031 -0.710938 9.4375 -0.796875 C 9.289062 -1.910156 9.09375 -3.226562 8.84375 -4.75 C 8.601562 -6.28125 8.332031 -7.953125 8.03125 -9.765625 C 7.5 -9.722656 6.976562 -9.707031 6.46875 -9.71875 C 5.957031 -9.726562 5.476562 -9.742188 5.03125 -9.765625 C 4.726562 -7.953125 4.453125 -6.28125 4.203125 -4.75 C 3.960938 -3.226562 3.753906 -1.910156 3.578125 -0.796875 C 3.554688 -0.710938 3.539062 -0.582031 3.53125 -0.40625 C 3.519531 -0.238281 3.535156 -0.101562 3.578125 0 L 0.546875 0 C 0.609375 -0.0625 0.648438 -0.140625 0.671875 -0.234375 C 0.691406 -0.335938 0.710938 -0.421875 0.734375 -0.484375 C 1.304688 -3.035156 1.851562 -5.675781 2.375 -8.40625 C 2.90625 -11.144531 3.394531 -13.894531 3.84375 -16.65625 C 4.289062 -19.414062 4.6875 -22.097656 5.03125 -24.703125 C 5.050781 -24.847656 5.070312 -25.007812 5.09375 -25.1875 C 5.113281 -25.375 5.078125 -25.507812 4.984375 -25.59375 L 5.0625 -25.59375 C 5.1875 -25.59375 5.421875 -25.59375 5.765625 -25.59375 C 6.117188 -25.59375 6.503906 -25.59375 6.921875 -25.59375 C 7.335938 -25.59375 7.695312 -25.59375 8 -25.59375 L 8.0625 -25.59375 C 7.976562 -25.507812 7.945312 -25.375 7.96875 -25.1875 C 7.988281 -25.007812 8.007812 -24.847656 8.03125 -24.703125 C 8.375 -22.097656 8.769531 -19.414062 9.21875 -16.65625 C 9.664062 -13.894531 10.148438 -11.144531 10.671875 -8.40625 C 11.191406 -5.675781 11.738281 -3.035156 12.3125 -0.484375 C 12.3125 -0.285156 12.378906 -0.125 12.515625 0 Z M 5.46875 -12.421875 C 5.832031 -12.398438 6.1875 -12.390625 6.53125 -12.390625 C 6.875 -12.390625 7.210938 -12.410156 7.546875 -12.453125 C 7.398438 -13.367188 7.238281 -14.3125 7.0625 -15.28125 C 6.894531 -16.25 6.71875 -17.222656 6.53125 -18.203125 C 6.332031 -17.203125 6.148438 -16.222656 5.984375 -15.265625 C 5.816406 -14.304688 5.644531 -13.359375 5.46875 -12.421875 Z M 5.46875 -12.421875 "/></g></g></g><g fill="#000000" fill-opacity="1"><g transform="translate(219.022268, 263.189983)"><g><path d="M 14.5625 0 L 10.84375 0 C 10.90625 -0.0625 10.945312 -0.128906 10.96875 -0.203125 C 11 -0.273438 11.015625 -0.328125 11.015625 -0.359375 C 11.015625 -1.679688 10.722656 -3.148438 10.140625 -4.765625 C 9.566406 -6.390625 8.78125 -7.894531 7.78125 -9.28125 L 7.515625 -9.28125 C 6.859375 -9.28125 6.222656 -9.328125 5.609375 -9.421875 C 5.003906 -9.515625 4.5625 -9.609375 4.28125 -9.703125 C 4.257812 -9.523438 4.242188 -9.109375 4.234375 -8.453125 C 4.222656 -7.804688 4.21875 -7.0625 4.21875 -6.21875 C 4.21875 -5.375 4.222656 -4.550781 4.234375 -3.75 C 4.242188 -2.957031 4.257812 -2.316406 4.28125 -1.828125 C 4.300781 -1.460938 4.335938 -1.109375 4.390625 -0.765625 C 4.453125 -0.421875 4.503906 -0.164062 4.546875 0 L 1.125 0 C 1.1875 -0.164062 1.226562 -0.425781 1.25 -0.78125 C 1.269531 -1.132812 1.289062 -1.472656 1.3125 -1.796875 C 1.3125 -1.898438 1.332031 -2.28125 1.375 -2.9375 C 1.414062 -3.601562 1.453125 -4.6875 1.484375 -6.1875 C 1.515625 -7.695312 1.53125 -9.765625 1.53125 -12.390625 C 1.53125 -15.566406 1.503906 -18.203125 1.453125 -20.296875 C 1.398438 -22.398438 1.351562 -23.828125 1.3125 -24.578125 C 1.3125 -24.703125 1.300781 -24.832031 1.28125 -24.96875 C 1.257812 -25.113281 1.21875 -25.257812 1.15625 -25.40625 C 1.382812 -25.507812 1.816406 -25.59375 2.453125 -25.65625 C 3.097656 -25.726562 3.8125 -25.78125 4.59375 -25.8125 C 5.375 -25.84375 6.082031 -25.859375 6.71875 -25.859375 C 7.144531 -25.859375 7.660156 -25.8125 8.265625 -25.71875 C 8.878906 -25.632812 9.503906 -25.445312 10.140625 -25.15625 C 10.785156 -24.875 11.382812 -24.445312 11.9375 -23.875 C 12.488281 -23.300781 12.9375 -22.53125 13.28125 -21.5625 C 13.625 -20.601562 13.796875 -19.398438 13.796875 -17.953125 C 13.796875 -15.835938 13.472656 -14.179688 12.828125 -12.984375 C 12.191406 -11.796875 11.46875 -10.925781 10.65625 -10.375 C 11.269531 -9.425781 11.78125 -8.515625 12.1875 -7.640625 C 12.59375 -6.773438 12.957031 -5.78125 13.28125 -4.65625 C 13.601562 -3.53125 13.921875 -2.117188 14.234375 -0.421875 C 14.234375 -0.265625 14.34375 -0.125 14.5625 0 Z M 4.1875 -17.5625 C 4.1875 -16.113281 4.195312 -14.984375 4.21875 -14.171875 C 4.238281 -13.359375 4.257812 -12.859375 4.28125 -12.671875 C 4.625 -12.503906 5.0625 -12.375 5.59375 -12.28125 C 6.132812 -12.195312 6.671875 -12.15625 7.203125 -12.15625 C 7.523438 -12.15625 7.882812 -12.222656 8.28125 -12.359375 C 8.6875 -12.503906 9.070312 -12.773438 9.4375 -13.171875 C 9.800781 -13.566406 10.101562 -14.140625 10.34375 -14.890625 C 10.59375 -15.648438 10.71875 -16.660156 10.71875 -17.921875 C 10.71875 -19.179688 10.5625 -20.148438 10.25 -20.828125 C 9.945312 -21.515625 9.570312 -21.992188 9.125 -22.265625 C 8.675781 -22.546875 8.222656 -22.710938 7.765625 -22.765625 C 7.304688 -22.816406 6.925781 -22.84375 6.625 -22.84375 C 6.28125 -22.84375 5.847656 -22.820312 5.328125 -22.78125 C 4.804688 -22.738281 4.457031 -22.65625 4.28125 -22.53125 C 4.257812 -22.375 4.238281 -21.890625 4.21875 -21.078125 C 4.195312 -20.273438 4.1875 -19.101562 4.1875 -17.5625 Z M 4.1875 -17.5625 "/></g></g></g><g fill="#000000" fill-opacity="1"><g transform="translate(239.914555, 263.189983)"><g><path d="M 9.34375 -3.015625 C 9.707031 -3.015625 10.054688 -3.046875 10.390625 -3.109375 C 10.734375 -3.171875 11.003906 -3.222656 11.203125 -3.265625 L 11.203125 -1.5 C 11.203125 -1.1875 11.203125 -0.863281 11.203125 -0.53125 C 11.203125 -0.195312 11.203125 0.0625 11.203125 0.25 C 11.003906 0.207031 10.734375 0.15625 10.390625 0.09375 C 10.054688 0.03125 9.707031 0 9.34375 0 L 1.796875 0 C 1.679688 0 1.582031 0 1.5 0 C 1.414062 0 1.351562 0 1.3125 0 L 1.21875 0 C 1.28125 -0.164062 1.328125 -0.429688 1.359375 -0.796875 C 1.390625 -1.160156 1.40625 -1.492188 1.40625 -1.796875 C 1.40625 -1.898438 1.410156 -2.367188 1.421875 -3.203125 C 1.429688 -4.035156 1.4375 -5.375 1.4375 -7.21875 C 1.4375 -9.0625 1.4375 -11.53125 1.4375 -14.625 C 1.4375 -17.050781 1.429688 -19.046875 1.421875 -20.609375 C 1.410156 -22.179688 1.40625 -23.238281 1.40625 -23.78125 C 1.40625 -24.132812 1.375 -24.484375 1.3125 -24.828125 C 1.25 -25.171875 1.1875 -25.425781 1.125 -25.59375 L 2.875 -25.59375 C 3.195312 -25.59375 3.523438 -25.59375 3.859375 -25.59375 C 4.191406 -25.59375 4.453125 -25.59375 4.640625 -25.59375 L 9.3125 -25.59375 C 9.675781 -25.59375 10.023438 -25.625 10.359375 -25.6875 C 10.703125 -25.757812 10.960938 -25.816406 11.140625 -25.859375 L 11.140625 -24.09375 C 11.140625 -23.769531 11.140625 -23.441406 11.140625 -23.109375 C 11.140625 -22.785156 11.140625 -22.53125 11.140625 -22.34375 C 10.960938 -22.40625 10.703125 -22.46875 10.359375 -22.53125 C 10.023438 -22.59375 9.675781 -22.625 9.3125 -22.625 L 4.390625 -22.625 C 4.367188 -22.300781 4.347656 -21.742188 4.328125 -20.953125 C 4.316406 -20.171875 4.3125 -19.222656 4.3125 -18.109375 C 4.3125 -17.066406 4.316406 -16.316406 4.328125 -15.859375 C 4.347656 -15.398438 4.363281 -15.070312 4.375 -14.875 C 4.382812 -14.6875 4.390625 -14.460938 4.390625 -14.203125 L 6.5 -14.203125 C 6.863281 -14.203125 7.207031 -14.234375 7.53125 -14.296875 C 7.863281 -14.367188 8.125 -14.4375 8.3125 -14.5 L 8.3125 -12.734375 C 8.3125 -12.410156 8.3125 -12.082031 8.3125 -11.75 C 8.3125 -11.425781 8.3125 -11.164062 8.3125 -10.96875 C 8.125 -11.019531 7.863281 -11.078125 7.53125 -11.140625 C 7.207031 -11.203125 6.863281 -11.234375 6.5 -11.234375 L 4.390625 -11.234375 C 4.335938 -10.296875 4.304688 -9.304688 4.296875 -8.265625 C 4.285156 -7.234375 4.289062 -6.257812 4.3125 -5.34375 C 4.34375 -4.425781 4.367188 -3.648438 4.390625 -3.015625 Z M 9.34375 -3.015625 "/></g></g></g><g fill="#000000" fill-opacity="1"><g transform="translate(257.447669, 263.189983)"><g><path d="M 6.375 0.25 C 4.445312 0.25 2.929688 -0.523438 1.828125 -2.078125 C 1.316406 -2.804688 0.976562 -3.507812 0.8125 -4.1875 C 0.65625 -4.875 0.566406 -5.320312 0.546875 -5.53125 L 3.296875 -5.828125 C 3.296875 -5.804688 3.332031 -5.625 3.40625 -5.28125 C 3.476562 -4.9375 3.617188 -4.550781 3.828125 -4.125 C 4.046875 -3.695312 4.359375 -3.320312 4.765625 -3 C 5.171875 -2.6875 5.707031 -2.53125 6.375 -2.53125 C 6.601562 -2.53125 6.921875 -2.554688 7.328125 -2.609375 C 7.734375 -2.660156 8.144531 -2.820312 8.5625 -3.09375 C 8.976562 -3.375 9.332031 -3.835938 9.625 -4.484375 C 9.925781 -5.140625 10.078125 -6.054688 10.078125 -7.234375 C 10.078125 -8.234375 9.796875 -9.128906 9.234375 -9.921875 C 8.671875 -10.710938 7.929688 -11.453125 7.015625 -12.140625 C 6.109375 -12.835938 5.132812 -13.503906 4.09375 -14.140625 C 1.8125 -15.566406 0.671875 -17.59375 0.671875 -20.21875 C 0.671875 -21.3125 0.921875 -22.28125 1.421875 -23.125 C 1.921875 -23.96875 2.613281 -24.632812 3.5 -25.125 C 4.382812 -25.613281 5.382812 -25.859375 6.5 -25.859375 C 8.3125 -25.859375 9.726562 -25.394531 10.75 -24.46875 C 11.769531 -23.539062 12.335938 -22.210938 12.453125 -20.484375 L 9.65625 -20.28125 C 9.59375 -21.289062 9.316406 -22.007812 8.828125 -22.4375 C 8.335938 -22.863281 7.5625 -23.078125 6.5 -23.078125 C 5.582031 -23.078125 4.84375 -22.8125 4.28125 -22.28125 C 3.726562 -21.757812 3.453125 -21.070312 3.453125 -20.21875 C 3.453125 -19.5 3.582031 -18.835938 3.84375 -18.234375 C 4.113281 -17.640625 4.6875 -17.066406 5.5625 -16.515625 C 6.289062 -16.066406 7.078125 -15.550781 7.921875 -14.96875 C 8.765625 -14.394531 9.554688 -13.734375 10.296875 -12.984375 C 11.046875 -12.242188 11.65625 -11.398438 12.125 -10.453125 C 12.59375 -9.503906 12.828125 -8.429688 12.828125 -7.234375 C 12.828125 -4.890625 12.253906 -3.054688 11.109375 -1.734375 C 9.972656 -0.410156 8.394531 0.25 6.375 0.25 Z M 6.375 0.25 "/></g></g></g><g fill="#000000" fill-opacity="1"><g transform="translate(93.847739, 291.302676)"><g><path d="M 2.640625 0.109375 C 1.835938 0.109375 1.207031 -0.210938 0.75 -0.859375 C 0.539062 -1.160156 0.398438 -1.453125 0.328125 -1.734375 C 0.265625 -2.015625 0.226562 -2.203125 0.21875 -2.296875 L 1.359375 -2.40625 C 1.359375 -2.394531 1.375 -2.316406 1.40625 -2.171875 C 1.4375 -2.035156 1.492188 -1.878906 1.578125 -1.703125 C 1.671875 -1.523438 1.800781 -1.367188 1.96875 -1.234375 C 2.132812 -1.109375 2.359375 -1.046875 2.640625 -1.046875 C 2.734375 -1.046875 2.863281 -1.054688 3.03125 -1.078125 C 3.195312 -1.097656 3.363281 -1.164062 3.53125 -1.28125 C 3.707031 -1.394531 3.859375 -1.585938 3.984375 -1.859375 C 4.109375 -2.128906 4.171875 -2.507812 4.171875 -3 C 4.171875 -3.414062 4.050781 -3.785156 3.8125 -4.109375 C 3.582031 -4.429688 3.28125 -4.734375 2.90625 -5.015625 C 2.53125 -5.304688 2.128906 -5.585938 1.703125 -5.859375 C 0.753906 -6.453125 0.28125 -7.289062 0.28125 -8.375 C 0.28125 -8.820312 0.382812 -9.21875 0.59375 -9.5625 C 0.800781 -9.914062 1.085938 -10.191406 1.453125 -10.390625 C 1.816406 -10.597656 2.226562 -10.703125 2.6875 -10.703125 C 3.4375 -10.703125 4.023438 -10.507812 4.453125 -10.125 C 4.878906 -9.738281 5.113281 -9.191406 5.15625 -8.484375 L 4 -8.40625 C 3.976562 -8.8125 3.863281 -9.101562 3.65625 -9.28125 C 3.457031 -9.457031 3.132812 -9.546875 2.6875 -9.546875 C 2.3125 -9.546875 2.007812 -9.4375 1.78125 -9.21875 C 1.550781 -9.007812 1.4375 -8.726562 1.4375 -8.375 C 1.4375 -8.070312 1.488281 -7.796875 1.59375 -7.546875 C 1.707031 -7.304688 1.945312 -7.070312 2.3125 -6.84375 C 2.601562 -6.65625 2.921875 -6.441406 3.265625 -6.203125 C 3.617188 -5.960938 3.953125 -5.6875 4.265625 -5.375 C 4.578125 -5.070312 4.828125 -4.722656 5.015625 -4.328125 C 5.210938 -3.929688 5.3125 -3.488281 5.3125 -3 C 5.3125 -2.019531 5.070312 -1.253906 4.59375 -0.703125 C 4.125 -0.160156 3.472656 0.109375 2.640625 0.109375 Z M 2.640625 0.109375 "/></g></g></g><g fill="#000000" fill-opacity="1"><g transform="translate(103.106242, 291.302676)"><g><path d="M 2.90625 0.046875 C 2.3125 0.046875 1.816406 -0.117188 1.421875 -0.453125 C 1.023438 -0.796875 0.722656 -1.359375 0.515625 -2.140625 C 0.316406 -2.921875 0.21875 -3.972656 0.21875 -5.296875 C 0.21875 -6.617188 0.316406 -7.671875 0.515625 -8.453125 C 0.722656 -9.242188 1.023438 -9.804688 1.421875 -10.140625 C 1.816406 -10.484375 2.3125 -10.65625 2.90625 -10.65625 C 3.5 -10.65625 3.992188 -10.484375 4.390625 -10.140625 C 4.785156 -9.804688 5.082031 -9.242188 5.28125 -8.453125 C 5.476562 -7.671875 5.578125 -6.617188 5.578125 -5.296875 C 5.578125 -3.972656 5.476562 -2.921875 5.28125 -2.140625 C 5.082031 -1.359375 4.785156 -0.796875 4.390625 -0.453125 C 3.992188 -0.117188 3.5 0.046875 2.90625 0.046875 Z M 2.90625 -1.03125 C 3.5 -1.03125 3.910156 -1.40625 4.140625 -2.15625 C 4.367188 -2.914062 4.484375 -3.960938 4.484375 -5.296875 C 4.484375 -6.640625 4.367188 -7.6875 4.140625 -8.4375 C 3.910156 -9.1875 3.5 -9.5625 2.90625 -9.5625 C 2.3125 -9.5625 1.894531 -9.1875 1.65625 -8.4375 C 1.425781 -7.6875 1.3125 -6.640625 1.3125 -5.296875 C 1.3125 -3.960938 1.425781 -2.914062 1.65625 -2.15625 C 1.894531 -1.40625 2.3125 -1.03125 2.90625 -1.03125 Z M 2.90625 -1.03125 "/></g></g></g><g fill="#000000" fill-opacity="1"><g transform="translate(112.629595, 291.302676)"><g><path d="M 3.6875 -1.109375 C 3.832031 -1.109375 3.960938 -1.117188 4.078125 -1.140625 C 4.203125 -1.160156 4.289062 -1.179688 4.34375 -1.203125 L 4.34375 -0.5625 C 4.34375 -0.4375 4.34375 -0.320312 4.34375 -0.21875 C 4.34375 -0.113281 4.34375 -0.0390625 4.34375 0 L 1.1875 0 C 1.050781 0 0.921875 0 0.796875 0 C 0.671875 0 0.570312 0 0.5 0 C 0.53125 -0.0703125 0.550781 -0.179688 0.5625 -0.328125 C 0.570312 -0.472656 0.578125 -0.609375 0.578125 -0.734375 C 0.578125 -0.765625 0.582031 -0.84375 0.59375 -0.96875 C 0.601562 -1.09375 0.609375 -1.316406 0.609375 -1.640625 C 0.617188 -1.960938 0.628906 -2.429688 0.640625 -3.046875 C 0.648438 -3.660156 0.65625 -4.472656 0.65625 -5.484375 C 0.65625 -6.796875 0.644531 -7.804688 0.625 -8.515625 C 0.613281 -9.234375 0.597656 -9.675781 0.578125 -9.84375 C 0.578125 -9.988281 0.5625 -10.132812 0.53125 -10.28125 C 0.507812 -10.425781 0.488281 -10.53125 0.46875 -10.59375 L 1.1875 -10.59375 C 1.320312 -10.59375 1.457031 -10.59375 1.59375 -10.59375 C 1.726562 -10.59375 1.835938 -10.59375 1.921875 -10.59375 C 1.898438 -10.53125 1.875 -10.425781 1.84375 -10.28125 C 1.820312 -10.132812 1.8125 -9.988281 1.8125 -9.84375 C 1.800781 -9.644531 1.785156 -9.179688 1.765625 -8.453125 C 1.753906 -7.734375 1.75 -6.742188 1.75 -5.484375 C 1.75 -4.890625 1.753906 -4.300781 1.765625 -3.71875 C 1.773438 -3.132812 1.78125 -2.613281 1.78125 -2.15625 C 1.789062 -1.695312 1.796875 -1.34375 1.796875 -1.09375 C 2.367188 -1.082031 2.8125 -1.078125 3.125 -1.078125 C 3.4375 -1.085938 3.625 -1.097656 3.6875 -1.109375 Z M 3.6875 -1.109375 "/></g></g></g><g fill="#000000" fill-opacity="1"><g transform="translate(120.921414, 291.302676)"><g><path d="M 5.109375 -9.84375 L 5.125 -2.140625 C 5.125 -1.941406 5.085938 -1.703125 5.015625 -1.421875 C 4.941406 -1.140625 4.800781 -0.867188 4.59375 -0.609375 C 4.394531 -0.359375 4.09375 -0.171875 3.6875 -0.046875 C 3.632812 -0.0234375 3.601562 -0.015625 3.59375 -0.015625 C 3.582031 -0.015625 3.570312 -0.0078125 3.5625 0 C 3.34375 0.0625 3.070312 0.09375 2.75 0.09375 L 2.71875 0.09375 C 2.394531 0.09375 2.128906 0.0625 1.921875 0 C 1.910156 0 1.90625 0 1.90625 0 C 1.90625 -0.0078125 1.898438 -0.015625 1.890625 -0.015625 C 1.867188 -0.015625 1.835938 -0.0234375 1.796875 -0.046875 C 1.390625 -0.171875 1.082031 -0.359375 0.875 -0.609375 C 0.664062 -0.867188 0.523438 -1.140625 0.453125 -1.421875 C 0.390625 -1.703125 0.359375 -1.941406 0.359375 -2.140625 L 0.359375 -9.84375 C 0.359375 -9.988281 0.34375 -10.132812 0.3125 -10.28125 C 0.28125 -10.425781 0.25 -10.53125 0.21875 -10.59375 L 0.953125 -10.59375 C 1.085938 -10.59375 1.222656 -10.59375 1.359375 -10.59375 C 1.503906 -10.59375 1.617188 -10.59375 1.703125 -10.59375 C 1.671875 -10.519531 1.640625 -10.410156 1.609375 -10.265625 C 1.585938 -10.128906 1.578125 -9.988281 1.578125 -9.84375 C 1.566406 -9.195312 1.554688 -8.523438 1.546875 -7.828125 C 1.546875 -7.128906 1.539062 -6.445312 1.53125 -5.78125 C 1.53125 -5.125 1.53125 -4.523438 1.53125 -3.984375 C 1.53125 -3.453125 1.53125 -3.019531 1.53125 -2.6875 C 1.53125 -2.351562 1.53125 -2.171875 1.53125 -2.140625 C 1.53125 -2.046875 1.554688 -1.910156 1.609375 -1.734375 C 1.671875 -1.566406 1.789062 -1.410156 1.96875 -1.265625 C 2.144531 -1.128906 2.40625 -1.050781 2.75 -1.03125 C 3.082031 -1.050781 3.335938 -1.128906 3.515625 -1.265625 C 3.691406 -1.410156 3.8125 -1.566406 3.875 -1.734375 C 3.9375 -1.910156 3.96875 -2.046875 3.96875 -2.140625 C 3.96875 -2.171875 3.96875 -2.351562 3.96875 -2.6875 C 3.96875 -3.019531 3.960938 -3.453125 3.953125 -3.984375 C 3.953125 -4.523438 3.945312 -5.125 3.9375 -5.78125 C 3.9375 -6.445312 3.929688 -7.128906 3.921875 -7.828125 C 3.921875 -8.523438 3.914062 -9.195312 3.90625 -9.84375 C 3.90625 -9.988281 3.890625 -10.132812 3.859375 -10.28125 C 3.828125 -10.425781 3.800781 -10.53125 3.78125 -10.59375 L 4.53125 -10.59375 C 4.664062 -10.59375 4.800781 -10.59375 4.9375 -10.59375 C 5.070312 -10.59375 5.179688 -10.59375 5.265625 -10.59375 C 5.222656 -10.519531 5.1875 -10.410156 5.15625 -10.265625 C 5.125 -10.128906 5.109375 -9.988281 5.109375 -9.84375 Z M 5.109375 -9.84375 "/></g></g></g><g fill="#000000" fill-opacity="1"><g transform="translate(130.126955, 291.302676)"><g><path d="M 2.609375 -1.09375 C 2.941406 -1.09375 3.195312 -1.21875 3.375 -1.46875 C 3.550781 -1.71875 3.679688 -2.078125 3.765625 -2.546875 L 4.828125 -2.546875 C 4.679688 -1.628906 4.429688 -0.972656 4.078125 -0.578125 C 3.734375 -0.191406 3.242188 0 2.609375 0 L 2.453125 0 L 2.4375 0.171875 C 3.007812 0.222656 3.296875 0.441406 3.296875 0.828125 C 3.296875 1.035156 3.191406 1.203125 2.984375 1.328125 C 2.828125 1.410156 2.644531 1.453125 2.4375 1.453125 C 2.195312 1.453125 1.976562 1.394531 1.78125 1.28125 L 2.046875 0.828125 C 2.148438 0.890625 2.257812 0.921875 2.375 0.921875 C 2.488281 0.929688 2.582031 0.925781 2.65625 0.90625 C 2.707031 0.882812 2.738281 0.863281 2.75 0.84375 C 2.757812 0.832031 2.769531 0.828125 2.78125 0.828125 C 2.78125 0.785156 2.722656 0.75 2.609375 0.71875 C 2.503906 0.695312 2.363281 0.6875 2.1875 0.6875 L 1.921875 0.6875 L 1.9375 -0.015625 L 2.3125 -0.015625 C 1.789062 -0.0664062 1.378906 -0.269531 1.078125 -0.625 C 0.773438 -0.988281 0.554688 -1.554688 0.421875 -2.328125 C 0.285156 -3.097656 0.21875 -4.109375 0.21875 -5.359375 C 0.21875 -6.679688 0.289062 -7.722656 0.4375 -8.484375 C 0.59375 -9.253906 0.84375 -9.796875 1.1875 -10.109375 C 1.539062 -10.429688 2.015625 -10.59375 2.609375 -10.59375 C 3.253906 -10.59375 3.75 -10.398438 4.09375 -10.015625 C 4.445312 -9.640625 4.695312 -8.988281 4.84375 -8.0625 L 3.765625 -8.0625 C 3.691406 -8.53125 3.566406 -8.890625 3.390625 -9.140625 C 3.210938 -9.390625 2.953125 -9.515625 2.609375 -9.515625 C 2.210938 -9.515625 1.921875 -9.351562 1.734375 -9.03125 C 1.554688 -8.707031 1.441406 -8.234375 1.390625 -7.609375 C 1.335938 -6.992188 1.3125 -6.242188 1.3125 -5.359375 C 1.3125 -4.460938 1.335938 -3.695312 1.390625 -3.0625 C 1.441406 -2.425781 1.554688 -1.9375 1.734375 -1.59375 C 1.921875 -1.257812 2.210938 -1.09375 2.609375 -1.09375 Z M 2.609375 -1.09375 "/></g></g></g><g fill="#000000" fill-opacity="1"><g transform="translate(138.908745, 291.302676)"><g><path d="M 3.359375 -11.1875 C 3.210938 -11.1875 3.09375 -11.210938 3 -11.265625 C 2.90625 -11.316406 2.832031 -11.359375 2.78125 -11.390625 C 2.738281 -11.441406 2.703125 -11.472656 2.671875 -11.484375 C 2.640625 -11.503906 2.585938 -11.507812 2.515625 -11.5 C 2.472656 -11.488281 2.429688 -11.453125 2.390625 -11.390625 C 2.347656 -11.335938 2.328125 -11.273438 2.328125 -11.203125 L 1.65625 -11.203125 C 1.65625 -11.441406 1.734375 -11.660156 1.890625 -11.859375 C 2.054688 -12.066406 2.265625 -12.171875 2.515625 -12.171875 C 2.617188 -12.171875 2.71875 -12.15625 2.8125 -12.125 C 2.90625 -12.09375 2.976562 -12.054688 3.03125 -12.015625 C 3.070312 -11.992188 3.117188 -11.960938 3.171875 -11.921875 C 3.234375 -11.890625 3.285156 -11.878906 3.328125 -11.890625 C 3.398438 -11.898438 3.441406 -11.941406 3.453125 -12.015625 C 3.472656 -12.085938 3.484375 -12.140625 3.484375 -12.171875 L 4.15625 -12.171875 C 4.15625 -12.148438 4.144531 -12.050781 4.125 -11.875 C 4.101562 -11.707031 4.023438 -11.550781 3.890625 -11.40625 C 3.742188 -11.257812 3.566406 -11.1875 3.359375 -11.1875 Z M 2.90625 0.046875 C 2.3125 0.046875 1.816406 -0.117188 1.421875 -0.453125 C 1.023438 -0.796875 0.722656 -1.359375 0.515625 -2.140625 C 0.316406 -2.921875 0.21875 -3.972656 0.21875 -5.296875 C 0.21875 -6.617188 0.316406 -7.671875 0.515625 -8.453125 C 0.722656 -9.242188 1.023438 -9.804688 1.421875 -10.140625 C 1.816406 -10.484375 2.3125 -10.65625 2.90625 -10.65625 C 3.5 -10.65625 3.992188 -10.484375 4.390625 -10.140625 C 4.785156 -9.804688 5.082031 -9.242188 5.28125 -8.453125 C 5.476562 -7.671875 5.578125 -6.617188 5.578125 -5.296875 C 5.578125 -3.972656 5.476562 -2.921875 5.28125 -2.140625 C 5.082031 -1.359375 4.785156 -0.796875 4.390625 -0.453125 C 3.992188 -0.117188 3.5 0.046875 2.90625 0.046875 Z M 2.90625 -1.03125 C 3.5 -1.03125 3.910156 -1.40625 4.140625 -2.15625 C 4.367188 -2.914062 4.484375 -3.960938 4.484375 -5.296875 C 4.484375 -6.640625 4.367188 -7.6875 4.140625 -8.4375 C 3.910156 -9.1875 3.5 -9.5625 2.90625 -9.5625 C 2.3125 -9.5625 1.894531 -9.1875 1.65625 -8.4375 C 1.425781 -7.6875 1.3125 -6.640625 1.3125 -5.296875 C 1.3125 -3.960938 1.425781 -2.914062 1.65625 -2.15625 C 1.894531 -1.40625 2.3125 -1.03125 2.90625 -1.03125 Z M 2.90625 -1.03125 "/></g></g></g><g fill="#000000" fill-opacity="1"><g transform="translate(148.4321, 291.302676)"><g><path d="M 3.875 -1.25 C 4.019531 -1.25 4.160156 -1.257812 4.296875 -1.28125 C 4.441406 -1.3125 4.554688 -1.332031 4.640625 -1.34375 L 4.640625 -0.625 C 4.640625 -0.488281 4.640625 -0.351562 4.640625 -0.21875 C 4.640625 -0.0820312 4.640625 0.0234375 4.640625 0.109375 C 4.554688 0.0859375 4.441406 0.0625 4.296875 0.03125 C 4.160156 0.0078125 4.019531 0 3.875 0 L 0.734375 0 C 0.691406 0 0.648438 0 0.609375 0 C 0.578125 0 0.554688 0 0.546875 0 L 0.5 0 C 0.53125 -0.0703125 0.550781 -0.179688 0.5625 -0.328125 C 0.570312 -0.484375 0.578125 -0.617188 0.578125 -0.734375 C 0.578125 -0.785156 0.578125 -0.984375 0.578125 -1.328125 C 0.585938 -1.671875 0.59375 -2.222656 0.59375 -2.984375 C 0.59375 -3.753906 0.59375 -4.78125 0.59375 -6.0625 C 0.59375 -7.0625 0.585938 -7.882812 0.578125 -8.53125 C 0.578125 -9.1875 0.578125 -9.625 0.578125 -9.84375 C 0.578125 -9.988281 0.5625 -10.132812 0.53125 -10.28125 C 0.507812 -10.425781 0.488281 -10.53125 0.46875 -10.59375 L 1.1875 -10.59375 C 1.320312 -10.59375 1.457031 -10.59375 1.59375 -10.59375 C 1.726562 -10.59375 1.835938 -10.59375 1.921875 -10.59375 L 3.859375 -10.59375 C 4.003906 -10.59375 4.144531 -10.601562 4.28125 -10.625 C 4.425781 -10.65625 4.535156 -10.679688 4.609375 -10.703125 L 4.609375 -9.984375 C 4.609375 -9.847656 4.609375 -9.710938 4.609375 -9.578125 C 4.609375 -9.441406 4.609375 -9.332031 4.609375 -9.25 C 4.535156 -9.269531 4.425781 -9.296875 4.28125 -9.328125 C 4.144531 -9.359375 4.003906 -9.375 3.859375 -9.375 L 1.8125 -9.375 C 1.800781 -9.238281 1.789062 -9.003906 1.78125 -8.671875 C 1.78125 -8.347656 1.78125 -7.957031 1.78125 -7.5 C 1.78125 -7.0625 1.78125 -6.75 1.78125 -6.5625 C 1.789062 -6.375 1.796875 -6.238281 1.796875 -6.15625 C 1.804688 -6.082031 1.8125 -5.992188 1.8125 -5.890625 L 2.6875 -5.890625 C 2.84375 -5.890625 2.988281 -5.898438 3.125 -5.921875 C 3.257812 -5.953125 3.363281 -5.976562 3.4375 -6 L 3.4375 -5.28125 C 3.4375 -5.144531 3.4375 -5.003906 3.4375 -4.859375 C 3.4375 -4.722656 3.4375 -4.617188 3.4375 -4.546875 C 3.363281 -4.566406 3.257812 -4.585938 3.125 -4.609375 C 2.988281 -4.640625 2.84375 -4.65625 2.6875 -4.65625 L 1.8125 -4.65625 C 1.789062 -4.257812 1.78125 -3.847656 1.78125 -3.421875 C 1.78125 -2.992188 1.78125 -2.585938 1.78125 -2.203125 C 1.789062 -1.828125 1.800781 -1.507812 1.8125 -1.25 Z M 3.875 -1.25 "/></g></g></g><g fill="#000000" fill-opacity="1"><g transform="translate(157.015254, 291.302676)"><g><path d="M 2.640625 0.109375 C 1.835938 0.109375 1.207031 -0.210938 0.75 -0.859375 C 0.539062 -1.160156 0.398438 -1.453125 0.328125 -1.734375 C 0.265625 -2.015625 0.226562 -2.203125 0.21875 -2.296875 L 1.359375 -2.40625 C 1.359375 -2.394531 1.375 -2.316406 1.40625 -2.171875 C 1.4375 -2.035156 1.492188 -1.878906 1.578125 -1.703125 C 1.671875 -1.523438 1.800781 -1.367188 1.96875 -1.234375 C 2.132812 -1.109375 2.359375 -1.046875 2.640625 -1.046875 C 2.734375 -1.046875 2.863281 -1.054688 3.03125 -1.078125 C 3.195312 -1.097656 3.363281 -1.164062 3.53125 -1.28125 C 3.707031 -1.394531 3.859375 -1.585938 3.984375 -1.859375 C 4.109375 -2.128906 4.171875 -2.507812 4.171875 -3 C 4.171875 -3.414062 4.050781 -3.785156 3.8125 -4.109375 C 3.582031 -4.429688 3.28125 -4.734375 2.90625 -5.015625 C 2.53125 -5.304688 2.128906 -5.585938 1.703125 -5.859375 C 0.753906 -6.453125 0.28125 -7.289062 0.28125 -8.375 C 0.28125 -8.820312 0.382812 -9.21875 0.59375 -9.5625 C 0.800781 -9.914062 1.085938 -10.191406 1.453125 -10.390625 C 1.816406 -10.597656 2.226562 -10.703125 2.6875 -10.703125 C 3.4375 -10.703125 4.023438 -10.507812 4.453125 -10.125 C 4.878906 -9.738281 5.113281 -9.191406 5.15625 -8.484375 L 4 -8.40625 C 3.976562 -8.8125 3.863281 -9.101562 3.65625 -9.28125 C 3.457031 -9.457031 3.132812 -9.546875 2.6875 -9.546875 C 2.3125 -9.546875 2.007812 -9.4375 1.78125 -9.21875 C 1.550781 -9.007812 1.4375 -8.726562 1.4375 -8.375 C 1.4375 -8.070312 1.488281 -7.796875 1.59375 -7.546875 C 1.707031 -7.304688 1.945312 -7.070312 2.3125 -6.84375 C 2.601562 -6.65625 2.921875 -6.441406 3.265625 -6.203125 C 3.617188 -5.960938 3.953125 -5.6875 4.265625 -5.375 C 4.578125 -5.070312 4.828125 -4.722656 5.015625 -4.328125 C 5.210938 -3.929688 5.3125 -3.488281 5.3125 -3 C 5.3125 -2.019531 5.070312 -1.253906 4.59375 -0.703125 C 4.125 -0.160156 3.472656 0.109375 2.640625 0.109375 Z M 2.640625 0.109375 "/></g></g></g><g fill="#000000" fill-opacity="1"><g transform="translate(166.273758, 291.302676)"><g/></g></g><g fill="#000000" fill-opacity="1"><g transform="translate(172.791128, 291.302676)"><g><path d="M 2.984375 -10.59375 C 3.578125 -10.59375 4.046875 -10.429688 4.390625 -10.109375 C 4.742188 -9.796875 4.992188 -9.253906 5.140625 -8.484375 C 5.285156 -7.722656 5.359375 -6.679688 5.359375 -5.359375 C 5.359375 -4.023438 5.285156 -2.96875 5.140625 -2.1875 C 4.992188 -1.40625 4.742188 -0.84375 4.390625 -0.5 C 4.046875 -0.164062 3.578125 0 2.984375 0 L 1.609375 0 C 1.554688 0 1.488281 0 1.40625 0 C 1.320312 0 1.238281 0 1.15625 0 L 0.46875 0 C 0.488281 -0.0703125 0.503906 -0.179688 0.515625 -0.328125 C 0.523438 -0.472656 0.53125 -0.609375 0.53125 -0.734375 C 0.53125 -0.765625 0.535156 -0.84375 0.546875 -0.96875 C 0.554688 -1.09375 0.5625 -1.316406 0.5625 -1.640625 C 0.5625 -1.960938 0.566406 -2.429688 0.578125 -3.046875 C 0.585938 -3.660156 0.59375 -4.472656 0.59375 -5.484375 C 0.59375 -6.796875 0.585938 -7.859375 0.578125 -8.671875 C 0.566406 -9.484375 0.550781 -10.019531 0.53125 -10.28125 C 0.53125 -10.34375 0.519531 -10.398438 0.5 -10.453125 C 0.488281 -10.515625 0.476562 -10.5625 0.46875 -10.59375 L 1.15625 -10.59375 C 1.269531 -10.59375 1.363281 -10.59375 1.4375 -10.59375 C 1.519531 -10.59375 1.578125 -10.59375 1.609375 -10.59375 Z M 2.984375 -1.09375 C 3.378906 -1.09375 3.664062 -1.257812 3.84375 -1.59375 C 4.03125 -1.9375 4.144531 -2.425781 4.1875 -3.0625 C 4.238281 -3.695312 4.265625 -4.460938 4.265625 -5.359375 C 4.265625 -6.242188 4.238281 -6.992188 4.1875 -7.609375 C 4.144531 -8.234375 4.03125 -8.707031 3.84375 -9.03125 C 3.664062 -9.351562 3.378906 -9.515625 2.984375 -9.515625 L 1.734375 -9.515625 C 1.753906 -9.097656 1.769531 -8.550781 1.78125 -7.875 C 1.800781 -7.207031 1.8125 -6.410156 1.8125 -5.484375 C 1.8125 -4.992188 1.804688 -4.476562 1.796875 -3.9375 C 1.785156 -3.40625 1.78125 -2.894531 1.78125 -2.40625 C 1.78125 -1.914062 1.773438 -1.476562 1.765625 -1.09375 Z M 2.984375 -1.09375 "/></g></g></g><g fill="#000000" fill-opacity="1"><g transform="translate(182.102607, 291.302676)"><g><path d="M 3.875 -1.25 C 4.019531 -1.25 4.160156 -1.257812 4.296875 -1.28125 C 4.441406 -1.3125 4.554688 -1.332031 4.640625 -1.34375 L 4.640625 -0.625 C 4.640625 -0.488281 4.640625 -0.351562 4.640625 -0.21875 C 4.640625 -0.0820312 4.640625 0.0234375 4.640625 0.109375 C 4.554688 0.0859375 4.441406 0.0625 4.296875 0.03125 C 4.160156 0.0078125 4.019531 0 3.875 0 L 0.734375 0 C 0.691406 0 0.648438 0 0.609375 0 C 0.578125 0 0.554688 0 0.546875 0 L 0.5 0 C 0.53125 -0.0703125 0.550781 -0.179688 0.5625 -0.328125 C 0.570312 -0.484375 0.578125 -0.617188 0.578125 -0.734375 C 0.578125 -0.785156 0.578125 -0.984375 0.578125 -1.328125 C 0.585938 -1.671875 0.59375 -2.222656 0.59375 -2.984375 C 0.59375 -3.753906 0.59375 -4.78125 0.59375 -6.0625 C 0.59375 -7.0625 0.585938 -7.882812 0.578125 -8.53125 C 0.578125 -9.1875 0.578125 -9.625 0.578125 -9.84375 C 0.578125 -9.988281 0.5625 -10.132812 0.53125 -10.28125 C 0.507812 -10.425781 0.488281 -10.53125 0.46875 -10.59375 L 1.1875 -10.59375 C 1.320312 -10.59375 1.457031 -10.59375 1.59375 -10.59375 C 1.726562 -10.59375 1.835938 -10.59375 1.921875 -10.59375 L 3.859375 -10.59375 C 4.003906 -10.59375 4.144531 -10.601562 4.28125 -10.625 C 4.425781 -10.65625 4.535156 -10.679688 4.609375 -10.703125 L 4.609375 -9.984375 C 4.609375 -9.847656 4.609375 -9.710938 4.609375 -9.578125 C 4.609375 -9.441406 4.609375 -9.332031 4.609375 -9.25 C 4.535156 -9.269531 4.425781 -9.296875 4.28125 -9.328125 C 4.144531 -9.359375 4.003906 -9.375 3.859375 -9.375 L 1.8125 -9.375 C 1.800781 -9.238281 1.789062 -9.003906 1.78125 -8.671875 C 1.78125 -8.347656 1.78125 -7.957031 1.78125 -7.5 C 1.78125 -7.0625 1.78125 -6.75 1.78125 -6.5625 C 1.789062 -6.375 1.796875 -6.238281 1.796875 -6.15625 C 1.804688 -6.082031 1.8125 -5.992188 1.8125 -5.890625 L 2.6875 -5.890625 C 2.84375 -5.890625 2.988281 -5.898438 3.125 -5.921875 C 3.257812 -5.953125 3.363281 -5.976562 3.4375 -6 L 3.4375 -5.28125 C 3.4375 -5.144531 3.4375 -5.003906 3.4375 -4.859375 C 3.4375 -4.722656 3.4375 -4.617188 3.4375 -4.546875 C 3.363281 -4.566406 3.257812 -4.585938 3.125 -4.609375 C 2.988281 -4.640625 2.84375 -4.65625 2.6875 -4.65625 L 1.8125 -4.65625 C 1.789062 -4.257812 1.78125 -3.847656 1.78125 -3.421875 C 1.78125 -2.992188 1.78125 -2.585938 1.78125 -2.203125 C 1.789062 -1.828125 1.800781 -1.507812 1.8125 -1.25 Z M 3.875 -1.25 "/></g></g></g><g fill="#000000" fill-opacity="1"><g transform="translate(190.685761, 291.302676)"><g/></g></g><g fill="#000000" fill-opacity="1"><g transform="translate(197.203125, 291.302676)"><g><path d="M 4.28125 -10.59375 C 4.425781 -10.59375 4.566406 -10.597656 4.703125 -10.609375 C 4.847656 -10.628906 4.957031 -10.644531 5.03125 -10.65625 L 5.03125 -9.984375 C 5.03125 -9.847656 5.03125 -9.71875 5.03125 -9.59375 C 5.03125 -9.46875 5.03125 -9.367188 5.03125 -9.296875 C 4.957031 -9.316406 4.847656 -9.332031 4.703125 -9.34375 C 4.566406 -9.351562 4.425781 -9.363281 4.28125 -9.375 C 4.144531 -9.375 4.003906 -9.375 3.859375 -9.375 C 3.722656 -9.382812 3.515625 -9.382812 3.234375 -9.375 C 3.222656 -9.082031 3.210938 -8.628906 3.203125 -8.015625 C 3.191406 -7.410156 3.1875 -6.566406 3.1875 -5.484375 C 3.1875 -4.910156 3.1875 -4.34375 3.1875 -3.78125 C 3.195312 -3.226562 3.207031 -2.722656 3.21875 -2.265625 C 3.226562 -1.816406 3.234375 -1.453125 3.234375 -1.171875 C 3.242188 -0.898438 3.25 -0.753906 3.25 -0.734375 C 3.25 -0.617188 3.25 -0.484375 3.25 -0.328125 C 3.257812 -0.171875 3.28125 -0.0546875 3.3125 0.015625 L 2.640625 0.015625 C 2.492188 0.015625 2.359375 0.015625 2.234375 0.015625 C 2.109375 0.015625 2.015625 0.015625 1.953125 0.015625 C 1.972656 -0.0546875 1.988281 -0.171875 2 -0.328125 C 2.007812 -0.484375 2.015625 -0.617188 2.015625 -0.734375 C 2.015625 -0.765625 2.019531 -0.84375 2.03125 -0.96875 C 2.039062 -1.09375 2.046875 -1.316406 2.046875 -1.640625 C 2.046875 -1.960938 2.050781 -2.429688 2.0625 -3.046875 C 2.070312 -3.660156 2.078125 -4.472656 2.078125 -5.484375 C 2.078125 -6.578125 2.070312 -7.425781 2.0625 -8.03125 C 2.050781 -8.644531 2.046875 -9.09375 2.046875 -9.375 C 1.753906 -9.382812 1.515625 -9.382812 1.328125 -9.375 C 1.140625 -9.375 1.019531 -9.375 0.96875 -9.375 C 0.832031 -9.363281 0.691406 -9.351562 0.546875 -9.34375 C 0.398438 -9.34375 0.289062 -9.328125 0.21875 -9.296875 L 0.21875 -9.984375 C 0.21875 -10.117188 0.21875 -10.25 0.21875 -10.375 C 0.21875 -10.507812 0.21875 -10.609375 0.21875 -10.671875 C 0.289062 -10.640625 0.398438 -10.617188 0.546875 -10.609375 C 0.691406 -10.597656 0.832031 -10.59375 0.96875 -10.59375 L 3.359375 -10.59375 C 3.546875 -10.59375 3.722656 -10.59375 3.890625 -10.59375 C 4.054688 -10.59375 4.1875 -10.59375 4.28125 -10.59375 Z M 4.28125 -10.59375 "/></g></g></g><g fill="#000000" fill-opacity="1"><g transform="translate(206.183543, 291.302676)"><g><path d="M 3.875 -1.25 C 4.019531 -1.25 4.160156 -1.257812 4.296875 -1.28125 C 4.441406 -1.3125 4.554688 -1.332031 4.640625 -1.34375 L 4.640625 -0.625 C 4.640625 -0.488281 4.640625 -0.351562 4.640625 -0.21875 C 4.640625 -0.0820312 4.640625 0.0234375 4.640625 0.109375 C 4.554688 0.0859375 4.441406 0.0625 4.296875 0.03125 C 4.160156 0.0078125 4.019531 0 3.875 0 L 0.734375 0 C 0.691406 0 0.648438 0 0.609375 0 C 0.578125 0 0.554688 0 0.546875 0 L 0.5 0 C 0.53125 -0.0703125 0.550781 -0.179688 0.5625 -0.328125 C 0.570312 -0.484375 0.578125 -0.617188 0.578125 -0.734375 C 0.578125 -0.785156 0.578125 -0.984375 0.578125 -1.328125 C 0.585938 -1.671875 0.59375 -2.222656 0.59375 -2.984375 C 0.59375 -3.753906 0.59375 -4.78125 0.59375 -6.0625 C 0.59375 -7.0625 0.585938 -7.882812 0.578125 -8.53125 C 0.578125 -9.1875 0.578125 -9.625 0.578125 -9.84375 C 0.578125 -9.988281 0.5625 -10.132812 0.53125 -10.28125 C 0.507812 -10.425781 0.488281 -10.53125 0.46875 -10.59375 L 1.1875 -10.59375 C 1.320312 -10.59375 1.457031 -10.59375 1.59375 -10.59375 C 1.726562 -10.59375 1.835938 -10.59375 1.921875 -10.59375 L 3.859375 -10.59375 C 4.003906 -10.59375 4.144531 -10.601562 4.28125 -10.625 C 4.425781 -10.65625 4.535156 -10.679688 4.609375 -10.703125 L 4.609375 -9.984375 C 4.609375 -9.847656 4.609375 -9.710938 4.609375 -9.578125 C 4.609375 -9.441406 4.609375 -9.332031 4.609375 -9.25 C 4.535156 -9.269531 4.425781 -9.296875 4.28125 -9.328125 C 4.144531 -9.359375 4.003906 -9.375 3.859375 -9.375 L 1.8125 -9.375 C 1.800781 -9.238281 1.789062 -9.003906 1.78125 -8.671875 C 1.78125 -8.347656 1.78125 -7.957031 1.78125 -7.5 C 1.78125 -7.0625 1.78125 -6.75 1.78125 -6.5625 C 1.789062 -6.375 1.796875 -6.238281 1.796875 -6.15625 C 1.804688 -6.082031 1.8125 -5.992188 1.8125 -5.890625 L 2.6875 -5.890625 C 2.84375 -5.890625 2.988281 -5.898438 3.125 -5.921875 C 3.257812 -5.953125 3.363281 -5.976562 3.4375 -6 L 3.4375 -5.28125 C 3.4375 -5.144531 3.4375 -5.003906 3.4375 -4.859375 C 3.4375 -4.722656 3.4375 -4.617188 3.4375 -4.546875 C 3.363281 -4.566406 3.257812 -4.585938 3.125 -4.609375 C 2.988281 -4.640625 2.84375 -4.65625 2.6875 -4.65625 L 1.8125 -4.65625 C 1.789062 -4.257812 1.78125 -3.847656 1.78125 -3.421875 C 1.78125 -2.992188 1.78125 -2.585938 1.78125 -2.203125 C 1.789062 -1.828125 1.800781 -1.507812 1.8125 -1.25 Z M 3.875 -1.25 "/></g></g></g><g fill="#000000" fill-opacity="1"><g transform="translate(214.766692, 291.302676)"><g><path d="M 3.765625 -2.546875 L 4.828125 -2.546875 C 4.679688 -1.628906 4.429688 -0.972656 4.078125 -0.578125 C 3.734375 -0.191406 3.242188 0 2.609375 0 C 2.015625 0 1.539062 -0.164062 1.1875 -0.5 C 0.84375 -0.84375 0.59375 -1.40625 0.4375 -2.1875 C 0.289062 -2.96875 0.21875 -4.023438 0.21875 -5.359375 C 0.21875 -6.679688 0.289062 -7.722656 0.4375 -8.484375 C 0.59375 -9.253906 0.84375 -9.796875 1.1875 -10.109375 C 1.539062 -10.429688 2.015625 -10.59375 2.609375 -10.59375 C 3.253906 -10.59375 3.75 -10.398438 4.09375 -10.015625 C 4.445312 -9.640625 4.695312 -8.988281 4.84375 -8.0625 L 3.765625 -8.0625 C 3.691406 -8.53125 3.566406 -8.890625 3.390625 -9.140625 C 3.210938 -9.390625 2.953125 -9.515625 2.609375 -9.515625 C 2.210938 -9.515625 1.921875 -9.351562 1.734375 -9.03125 C 1.554688 -8.707031 1.441406 -8.234375 1.390625 -7.609375 C 1.335938 -6.992188 1.3125 -6.242188 1.3125 -5.359375 C 1.3125 -4.460938 1.335938 -3.695312 1.390625 -3.0625 C 1.441406 -2.425781 1.554688 -1.9375 1.734375 -1.59375 C 1.921875 -1.257812 2.210938 -1.09375 2.609375 -1.09375 C 2.941406 -1.09375 3.195312 -1.21875 3.375 -1.46875 C 3.550781 -1.71875 3.679688 -2.078125 3.765625 -2.546875 Z M 3.765625 -2.546875 "/></g></g></g><g fill="#000000" fill-opacity="1"><g transform="translate(223.548475, 291.302676)"><g><path d="M 5.46875 -5.484375 C 5.46875 -4.910156 5.46875 -4.34375 5.46875 -3.78125 C 5.476562 -3.226562 5.488281 -2.722656 5.5 -2.265625 C 5.507812 -1.816406 5.515625 -1.453125 5.515625 -1.171875 C 5.523438 -0.898438 5.53125 -0.753906 5.53125 -0.734375 C 5.53125 -0.609375 5.53125 -0.472656 5.53125 -0.328125 C 5.539062 -0.179688 5.5625 -0.0703125 5.59375 0 L 4.171875 0 L 1.765625 -7.609375 C 1.765625 -7.328125 1.757812 -7.007812 1.75 -6.65625 C 1.75 -6.300781 1.75 -5.910156 1.75 -5.484375 C 1.75 -4.910156 1.753906 -4.34375 1.765625 -3.78125 C 1.773438 -3.226562 1.78125 -2.722656 1.78125 -2.265625 C 1.78125 -1.816406 1.785156 -1.453125 1.796875 -1.171875 C 1.804688 -0.898438 1.8125 -0.753906 1.8125 -0.734375 C 1.8125 -0.609375 1.816406 -0.472656 1.828125 -0.328125 C 1.835938 -0.179688 1.851562 -0.0703125 1.875 0 L 1.1875 0 C 1.050781 0 0.921875 0 0.796875 0 C 0.671875 0 0.570312 0 0.5 0 C 0.53125 -0.0703125 0.550781 -0.179688 0.5625 -0.328125 C 0.570312 -0.472656 0.578125 -0.609375 0.578125 -0.734375 C 0.578125 -0.765625 0.582031 -0.84375 0.59375 -0.96875 C 0.601562 -1.09375 0.609375 -1.316406 0.609375 -1.640625 C 0.617188 -1.960938 0.628906 -2.429688 0.640625 -3.046875 C 0.648438 -3.660156 0.65625 -4.472656 0.65625 -5.484375 C 0.65625 -6.796875 0.644531 -7.804688 0.625 -8.515625 C 0.613281 -9.234375 0.597656 -9.675781 0.578125 -9.84375 C 0.578125 -9.988281 0.5625 -10.132812 0.53125 -10.28125 C 0.507812 -10.425781 0.488281 -10.53125 0.46875 -10.59375 L 0.8125 -10.59375 C 0.875 -10.59375 0.9375 -10.59375 1 -10.59375 C 1.0625 -10.59375 1.125 -10.59375 1.1875 -10.59375 L 1.921875 -10.59375 L 4.34375 -2.9375 C 4.351562 -3.28125 4.359375 -3.660156 4.359375 -4.078125 C 4.359375 -4.503906 4.359375 -4.972656 4.359375 -5.484375 C 4.359375 -6.796875 4.347656 -7.804688 4.328125 -8.515625 C 4.316406 -9.234375 4.304688 -9.675781 4.296875 -9.84375 C 4.296875 -9.988281 4.28125 -10.132812 4.25 -10.28125 C 4.226562 -10.425781 4.203125 -10.53125 4.171875 -10.59375 L 4.90625 -10.59375 C 5.03125 -10.59375 5.160156 -10.59375 5.296875 -10.59375 C 5.441406 -10.59375 5.550781 -10.59375 5.625 -10.59375 C 5.613281 -10.519531 5.59375 -10.410156 5.5625 -10.265625 C 5.539062 -10.128906 5.53125 -9.988281 5.53125 -9.84375 C 5.519531 -9.644531 5.503906 -9.179688 5.484375 -8.453125 C 5.472656 -7.734375 5.46875 -6.742188 5.46875 -5.484375 Z M 5.46875 -5.484375 "/></g></g></g><g fill="#000000" fill-opacity="1"><g transform="translate(233.349916, 291.302676)"><g><path d="M 2.90625 0.046875 C 2.3125 0.046875 1.816406 -0.117188 1.421875 -0.453125 C 1.023438 -0.796875 0.722656 -1.359375 0.515625 -2.140625 C 0.316406 -2.921875 0.21875 -3.972656 0.21875 -5.296875 C 0.21875 -6.617188 0.316406 -7.671875 0.515625 -8.453125 C 0.722656 -9.242188 1.023438 -9.804688 1.421875 -10.140625 C 1.816406 -10.484375 2.3125 -10.65625 2.90625 -10.65625 C 3.5 -10.65625 3.992188 -10.484375 4.390625 -10.140625 C 4.785156 -9.804688 5.082031 -9.242188 5.28125 -8.453125 C 5.476562 -7.671875 5.578125 -6.617188 5.578125 -5.296875 C 5.578125 -3.972656 5.476562 -2.921875 5.28125 -2.140625 C 5.082031 -1.359375 4.785156 -0.796875 4.390625 -0.453125 C 3.992188 -0.117188 3.5 0.046875 2.90625 0.046875 Z M 2.90625 -1.03125 C 3.5 -1.03125 3.910156 -1.40625 4.140625 -2.15625 C 4.367188 -2.914062 4.484375 -3.960938 4.484375 -5.296875 C 4.484375 -6.640625 4.367188 -7.6875 4.140625 -8.4375 C 3.910156 -9.1875 3.5 -9.5625 2.90625 -9.5625 C 2.3125 -9.5625 1.894531 -9.1875 1.65625 -8.4375 C 1.425781 -7.6875 1.3125 -6.640625 1.3125 -5.296875 C 1.3125 -3.960938 1.425781 -2.914062 1.65625 -2.15625 C 1.894531 -1.40625 2.3125 -1.03125 2.90625 -1.03125 Z M 2.90625 -1.03125 "/></g></g></g><g fill="#000000" fill-opacity="1"><g transform="translate(242.873265, 291.302676)"><g><path d="M 3.6875 -1.109375 C 3.832031 -1.109375 3.960938 -1.117188 4.078125 -1.140625 C 4.203125 -1.160156 4.289062 -1.179688 4.34375 -1.203125 L 4.34375 -0.5625 C 4.34375 -0.4375 4.34375 -0.320312 4.34375 -0.21875 C 4.34375 -0.113281 4.34375 -0.0390625 4.34375 0 L 1.1875 0 C 1.050781 0 0.921875 0 0.796875 0 C 0.671875 0 0.570312 0 0.5 0 C 0.53125 -0.0703125 0.550781 -0.179688 0.5625 -0.328125 C 0.570312 -0.472656 0.578125 -0.609375 0.578125 -0.734375 C 0.578125 -0.765625 0.582031 -0.84375 0.59375 -0.96875 C 0.601562 -1.09375 0.609375 -1.316406 0.609375 -1.640625 C 0.617188 -1.960938 0.628906 -2.429688 0.640625 -3.046875 C 0.648438 -3.660156 0.65625 -4.472656 0.65625 -5.484375 C 0.65625 -6.796875 0.644531 -7.804688 0.625 -8.515625 C 0.613281 -9.234375 0.597656 -9.675781 0.578125 -9.84375 C 0.578125 -9.988281 0.5625 -10.132812 0.53125 -10.28125 C 0.507812 -10.425781 0.488281 -10.53125 0.46875 -10.59375 L 1.1875 -10.59375 C 1.320312 -10.59375 1.457031 -10.59375 1.59375 -10.59375 C 1.726562 -10.59375 1.835938 -10.59375 1.921875 -10.59375 C 1.898438 -10.53125 1.875 -10.425781 1.84375 -10.28125 C 1.820312 -10.132812 1.8125 -9.988281 1.8125 -9.84375 C 1.800781 -9.644531 1.785156 -9.179688 1.765625 -8.453125 C 1.753906 -7.734375 1.75 -6.742188 1.75 -5.484375 C 1.75 -4.890625 1.753906 -4.300781 1.765625 -3.71875 C 1.773438 -3.132812 1.78125 -2.613281 1.78125 -2.15625 C 1.789062 -1.695312 1.796875 -1.34375 1.796875 -1.09375 C 2.367188 -1.082031 2.8125 -1.078125 3.125 -1.078125 C 3.4375 -1.085938 3.625 -1.097656 3.6875 -1.109375 Z M 3.6875 -1.109375 "/></g></g></g><g fill="#000000" fill-opacity="1"><g transform="translate(251.165081, 291.302676)"><g><path d="M 2.90625 0.046875 C 2.3125 0.046875 1.816406 -0.117188 1.421875 -0.453125 C 1.023438 -0.796875 0.722656 -1.359375 0.515625 -2.140625 C 0.316406 -2.921875 0.21875 -3.972656 0.21875 -5.296875 C 0.21875 -6.617188 0.316406 -7.671875 0.515625 -8.453125 C 0.722656 -9.242188 1.023438 -9.804688 1.421875 -10.140625 C 1.816406 -10.484375 2.3125 -10.65625 2.90625 -10.65625 C 3.5 -10.65625 3.992188 -10.484375 4.390625 -10.140625 C 4.785156 -9.804688 5.082031 -9.242188 5.28125 -8.453125 C 5.476562 -7.671875 5.578125 -6.617188 5.578125 -5.296875 C 5.578125 -3.972656 5.476562 -2.921875 5.28125 -2.140625 C 5.082031 -1.359375 4.785156 -0.796875 4.390625 -0.453125 C 3.992188 -0.117188 3.5 0.046875 2.90625 0.046875 Z M 2.90625 -1.03125 C 3.5 -1.03125 3.910156 -1.40625 4.140625 -2.15625 C 4.367188 -2.914062 4.484375 -3.960938 4.484375 -5.296875 C 4.484375 -6.640625 4.367188 -7.6875 4.140625 -8.4375 C 3.910156 -9.1875 3.5 -9.5625 2.90625 -9.5625 C 2.3125 -9.5625 1.894531 -9.1875 1.65625 -8.4375 C 1.425781 -7.6875 1.3125 -6.640625 1.3125 -5.296875 C 1.3125 -3.960938 1.425781 -2.914062 1.65625 -2.15625 C 1.894531 -1.40625 2.3125 -1.03125 2.90625 -1.03125 Z M 2.90625 -1.03125 "/></g></g></g><g fill="#000000" fill-opacity="1"><g transform="translate(260.68843, 291.302676)"><g><path d="M 4.5 -4.890625 L 4.984375 -4.890625 C 4.972656 -3.660156 4.882812 -2.675781 4.71875 -1.9375 C 4.5625 -1.207031 4.3125 -0.679688 3.96875 -0.359375 C 3.632812 -0.046875 3.179688 0.109375 2.609375 0.109375 C 2.015625 0.109375 1.539062 -0.0664062 1.1875 -0.421875 C 0.84375 -0.785156 0.59375 -1.363281 0.4375 -2.15625 C 0.289062 -2.957031 0.21875 -4.019531 0.21875 -5.34375 C 0.21875 -6.664062 0.289062 -7.71875 0.4375 -8.5 C 0.59375 -9.28125 0.84375 -9.835938 1.1875 -10.171875 C 1.539062 -10.515625 2.015625 -10.6875 2.609375 -10.6875 C 3.097656 -10.6875 3.5 -10.582031 3.8125 -10.375 C 4.125 -10.164062 4.367188 -9.820312 4.546875 -9.34375 C 4.734375 -8.863281 4.859375 -8.210938 4.921875 -7.390625 L 3.84375 -7.390625 C 3.800781 -8.117188 3.691406 -8.671875 3.515625 -9.046875 C 3.335938 -9.421875 3.035156 -9.609375 2.609375 -9.609375 C 2.210938 -9.609375 1.921875 -9.4375 1.734375 -9.09375 C 1.554688 -8.757812 1.441406 -8.269531 1.390625 -7.625 C 1.335938 -6.988281 1.3125 -6.226562 1.3125 -5.34375 C 1.3125 -4.445312 1.335938 -3.671875 1.390625 -3.015625 C 1.441406 -2.367188 1.554688 -1.867188 1.734375 -1.515625 C 1.921875 -1.160156 2.210938 -0.984375 2.609375 -0.984375 C 3.078125 -0.984375 3.394531 -1.210938 3.5625 -1.671875 C 3.726562 -2.140625 3.832031 -2.800781 3.875 -3.65625 L 3.53125 -3.65625 C 3.289062 -3.65625 3.109375 -3.632812 2.984375 -3.59375 L 2.984375 -4.265625 C 2.984375 -4.410156 2.984375 -4.546875 2.984375 -4.671875 C 2.984375 -4.796875 2.984375 -4.890625 2.984375 -4.953125 C 3.109375 -4.910156 3.289062 -4.890625 3.53125 -4.890625 Z M 4.5 -4.890625 "/></g></g></g><g fill="#000000" fill-opacity="1"><g transform="translate(269.615874, 291.302676)"><g><path d="M 1.8125 -9.84375 C 1.800781 -9.644531 1.785156 -9.179688 1.765625 -8.453125 C 1.753906 -7.734375 1.75 -6.742188 1.75 -5.484375 C 1.75 -4.910156 1.753906 -4.34375 1.765625 -3.78125 C 1.773438 -3.226562 1.78125 -2.722656 1.78125 -2.265625 C 1.78125 -1.816406 1.785156 -1.453125 1.796875 -1.171875 C 1.804688 -0.898438 1.8125 -0.753906 1.8125 -0.734375 C 1.8125 -0.609375 1.816406 -0.472656 1.828125 -0.328125 C 1.835938 -0.179688 1.851562 -0.0703125 1.875 0 L 1.1875 0 C 1.050781 0 0.921875 0 0.796875 0 C 0.671875 0 0.570312 0 0.5 0 C 0.53125 -0.0703125 0.550781 -0.179688 0.5625 -0.328125 C 0.570312 -0.472656 0.578125 -0.609375 0.578125 -0.734375 C 0.578125 -0.765625 0.582031 -0.84375 0.59375 -0.96875 C 0.601562 -1.09375 0.609375 -1.316406 0.609375 -1.640625 C 0.617188 -1.960938 0.628906 -2.429688 0.640625 -3.046875 C 0.648438 -3.660156 0.65625 -4.472656 0.65625 -5.484375 C 0.65625 -6.796875 0.644531 -7.804688 0.625 -8.515625 C 0.613281 -9.234375 0.597656 -9.675781 0.578125 -9.84375 C 0.578125 -9.988281 0.5625 -10.132812 0.53125 -10.28125 C 0.507812 -10.425781 0.488281 -10.53125 0.46875 -10.59375 L 1.1875 -10.59375 C 1.320312 -10.59375 1.457031 -10.59375 1.59375 -10.59375 C 1.726562 -10.59375 1.835938 -10.59375 1.921875 -10.59375 C 1.898438 -10.53125 1.875 -10.425781 1.84375 -10.28125 C 1.820312 -10.132812 1.8125 -9.988281 1.8125 -9.84375 Z M 1.8125 -9.84375 "/></g></g></g><g fill="#000000" fill-opacity="1"><g transform="translate(275.709486, 291.302676)"><g><path d="M 5.1875 0 L 3.921875 0 C 3.941406 -0.0390625 3.945312 -0.0976562 3.9375 -0.171875 C 3.925781 -0.242188 3.914062 -0.296875 3.90625 -0.328125 C 3.84375 -0.785156 3.757812 -1.332031 3.65625 -1.96875 C 3.5625 -2.601562 3.453125 -3.296875 3.328125 -4.046875 C 3.109375 -4.023438 2.890625 -4.015625 2.671875 -4.015625 C 2.460938 -4.023438 2.265625 -4.035156 2.078125 -4.046875 C 1.953125 -3.296875 1.835938 -2.601562 1.734375 -1.96875 C 1.640625 -1.332031 1.554688 -0.785156 1.484375 -0.328125 C 1.472656 -0.296875 1.460938 -0.242188 1.453125 -0.171875 C 1.453125 -0.0976562 1.460938 -0.0390625 1.484375 0 L 0.21875 0 C 0.25 -0.03125 0.269531 -0.0625 0.28125 -0.09375 C 0.289062 -0.132812 0.300781 -0.171875 0.3125 -0.203125 C 0.539062 -1.253906 0.765625 -2.347656 0.984375 -3.484375 C 1.203125 -4.617188 1.40625 -5.753906 1.59375 -6.890625 C 1.78125 -8.035156 1.941406 -9.148438 2.078125 -10.234375 C 2.085938 -10.296875 2.097656 -10.363281 2.109375 -10.4375 C 2.117188 -10.507812 2.101562 -10.5625 2.0625 -10.59375 L 2.09375 -10.59375 C 2.144531 -10.59375 2.242188 -10.59375 2.390625 -10.59375 C 2.535156 -10.59375 2.691406 -10.59375 2.859375 -10.59375 C 3.035156 -10.59375 3.1875 -10.59375 3.3125 -10.59375 L 3.34375 -10.59375 C 3.300781 -10.5625 3.285156 -10.507812 3.296875 -10.4375 C 3.304688 -10.363281 3.316406 -10.296875 3.328125 -10.234375 C 3.460938 -9.148438 3.625 -8.035156 3.8125 -6.890625 C 4 -5.753906 4.203125 -4.617188 4.421875 -3.484375 C 4.640625 -2.347656 4.863281 -1.253906 5.09375 -0.203125 C 5.09375 -0.117188 5.125 -0.0507812 5.1875 0 Z M 2.265625 -5.140625 C 2.410156 -5.128906 2.554688 -5.125 2.703125 -5.125 C 2.847656 -5.125 2.988281 -5.132812 3.125 -5.15625 C 3.0625 -5.53125 2.992188 -5.921875 2.921875 -6.328125 C 2.859375 -6.734375 2.785156 -7.140625 2.703125 -7.546875 C 2.617188 -7.128906 2.539062 -6.71875 2.46875 -6.3125 C 2.40625 -5.914062 2.335938 -5.523438 2.265625 -5.140625 Z M 2.265625 -5.140625 "/></g></g></g></svg>