<svg xmlns="http://www.w3.org/2000/svg" xmlns:xlink="http://www.w3.org/1999/xlink" width="500" zoomAndPan="magnify" viewBox="0 0 375 374.999991" height="500" preserveAspectRatio="xMidYMid meet" version="1.0"><defs><g/><clipPath id="685d64e84d"><path d="M 78.917969 152 L 296.078125 152 L 296.078125 187.441406 L 78.917969 187.441406 Z M 78.917969 152 " clip-rule="nonzero"/></clipPath><clipPath id="9e40b77368"><path d="M 107 42.542969 L 268 42.542969 L 268 144 L 107 144 Z M 107 42.542969 " clip-rule="nonzero"/></clipPath><clipPath id="f83b4e15c0"><path d="M 159.867188 54.609375 L 215.054688 54.609375 L 215.054688 128.195312 L 159.867188 128.195312 Z M 159.867188 54.609375 " clip-rule="nonzero"/></clipPath></defs><g clip-path="url(#685d64e84d)"><path fill="#2c3e50" d="M 218.828125 178.324219 L 156.167969 178.324219 C 155.738281 178.324219 155.460938 177.867188 155.660156 177.484375 L 160.484375 168.199219 C 160.582031 168.011719 160.777344 167.890625 160.992188 167.890625 L 214.007812 167.890625 C 214.21875 167.890625 214.417969 168.011719 214.515625 168.199219 L 219.339844 177.484375 C 219.535156 177.867188 219.261719 178.324219 218.828125 178.324219 Z M 294.695312 179.375 L 268.746094 153.429688 C 267.859375 152.542969 266.660156 152.042969 265.40625 152.042969 L 109.59375 152.042969 C 108.339844 152.042969 107.136719 152.542969 106.25 153.429688 L 80.304688 179.375 C 79.417969 180.261719 78.917969 181.464844 78.917969 182.71875 C 78.917969 185.328125 81.035156 187.441406 83.644531 187.441406 L 291.355469 187.441406 C 293.964844 187.441406 296.078125 185.328125 296.078125 182.71875 C 296.078125 181.464844 295.582031 180.261719 294.695312 179.375 " fill-opacity="1" fill-rule="nonzero"/></g><g clip-path="url(#9e40b77368)"><path fill="#2c3e50" d="M 259.597656 42.59375 L 115.402344 42.59375 C 111.230469 42.59375 107.816406 46.007812 107.816406 50.179688 L 107.816406 135.789062 C 107.816406 139.960938 111.230469 143.375 115.402344 143.375 L 259.597656 143.375 C 263.769531 143.375 267.179688 139.960938 267.179688 135.789062 L 267.179688 50.179688 C 267.179688 46.007812 263.769531 42.59375 259.597656 42.59375 Z M 258.402344 51.375 L 258.402344 134.59375 L 116.597656 134.59375 L 116.597656 51.375 L 258.402344 51.375 " fill-opacity="1" fill-rule="nonzero"/></g><g fill="#2c3e50" fill-opacity="1"><g transform="translate(122.14987, 110.453002)"><g><path d="M 6.03125 -17.15625 C 8.96875 -15.6875 10.4375 -12.984375 10.4375 -9.046875 L 10.4375 -0.75 C 10.4375 1.425781 10.882812 2.921875 11.78125 3.734375 C 12.6875 4.554688 14.394531 4.96875 16.90625 4.96875 L 16.90625 8.359375 C 15.394531 8.359375 14 8.285156 12.71875 8.140625 C 11.445312 7.992188 10.328125 7.628906 9.359375 7.046875 C 7.304688 5.742188 6.28125 3.164062 6.28125 -0.6875 L 6.28125 -9.75 C 6.28125 -11.675781 5.695312 -13.203125 4.53125 -14.328125 C 3.5625 -15.253906 2.488281 -15.71875 1.3125 -15.71875 L 1.3125 -18.609375 C 2.488281 -18.609375 3.4375 -18.960938 4.15625 -19.671875 C 5.570312 -21.015625 6.28125 -22.648438 6.28125 -24.578125 L 6.28125 -33.625 C 6.28125 -39.03125 8.421875 -41.988281 12.703125 -42.5 C 13.992188 -42.625 15.394531 -42.6875 16.90625 -42.6875 L 16.90625 -39.28125 C 14.394531 -39.28125 12.6875 -38.867188 11.78125 -38.046875 C 10.882812 -37.234375 10.4375 -35.738281 10.4375 -33.5625 L 10.4375 -25.265625 C 10.4375 -22.921875 9.992188 -21.117188 9.109375 -19.859375 C 8.234375 -18.609375 7.207031 -17.707031 6.03125 -17.15625 Z M 6.03125 -17.15625 "/></g></g></g><g fill="#2c3e50" fill-opacity="1"><g transform="translate(140.632883, 110.453002)"><g/></g></g><g fill="#2c3e50" fill-opacity="1"><g transform="translate(154.022226, 110.453002)"><g/></g></g><g fill="#2c3e50" fill-opacity="1"><g transform="translate(167.411569, 110.453002)"><g/></g></g><g fill="#2c3e50" fill-opacity="1"><g transform="translate(180.800912, 110.453002)"><g/></g></g><g fill="#2c3e50" fill-opacity="1"><g transform="translate(194.190255, 110.453002)"><g/></g></g><g fill="#2c3e50" fill-opacity="1"><g transform="translate(207.579598, 110.453002)"><g/></g></g><g fill="#2c3e50" fill-opacity="1"><g transform="translate(220.968941, 110.453002)"><g/></g></g><g fill="#2c3e50" fill-opacity="1"><g transform="translate(234.361906, 110.453002)"><g><path d="M 8.046875 -9.046875 C 8.046875 -12.984375 9.515625 -15.6875 12.453125 -17.15625 C 11.273438 -17.707031 10.242188 -18.609375 9.359375 -19.859375 C 8.484375 -21.117188 8.046875 -22.921875 8.046875 -25.265625 L 8.046875 -33.5625 C 8.046875 -35.738281 7.59375 -37.234375 6.6875 -38.046875 C 5.789062 -38.867188 4.085938 -39.28125 1.578125 -39.28125 L 1.578125 -42.6875 C 3.078125 -42.6875 4.46875 -42.609375 5.75 -42.453125 C 7.03125 -42.304688 8.148438 -41.941406 9.109375 -41.359375 C 11.160156 -40.054688 12.1875 -37.476562 12.1875 -33.625 L 12.1875 -24.578125 C 12.1875 -22.648438 12.773438 -21.117188 13.953125 -19.984375 C 14.921875 -19.066406 15.988281 -18.609375 17.15625 -18.609375 L 17.15625 -15.71875 C 15.988281 -15.71875 15.046875 -15.359375 14.328125 -14.640625 C 12.898438 -13.304688 12.1875 -11.675781 12.1875 -9.75 L 12.1875 -0.6875 C 12.1875 4.71875 10.050781 7.671875 5.78125 8.171875 C 4.476562 8.296875 3.078125 8.359375 1.578125 8.359375 L 1.578125 4.96875 C 4.085938 4.96875 5.789062 4.554688 6.6875 3.734375 C 7.59375 2.921875 8.046875 1.425781 8.046875 -0.75 Z M 8.046875 -9.046875 "/></g></g></g><g clip-path="url(#f83b4e15c0)"><path fill="#2c3e50" d="M 182.144531 91.527344 L 182.144531 96.699219 L 178.378906 95.054688 C 177.972656 94.871094 177.566406 94.6875 177.160156 94.496094 C 175.777344 93.851562 174.398438 93.160156 173.019531 92.421875 C 171.230469 91.464844 169.613281 90.359375 168.167969 89.09375 C 166.71875 87.832031 165.546875 86.355469 164.65625 84.660156 C 163.761719 82.964844 163.316406 81.007812 163.316406 78.792969 C 163.316406 76.265625 163.898438 73.96875 165.070312 71.90625 C 166.242188 69.84375 167.84375 68.085938 169.875 66.636719 C 171.910156 65.191406 174.328125 64.082031 177.132812 63.3125 C 179.933594 62.542969 182.96875 62.15625 186.234375 62.15625 C 189.6875 62.15625 192.75 62.558594 195.429688 63.359375 C 198.109375 64.160156 200.40625 65.113281 202.316406 66.222656 C 204.226562 67.332031 205.796875 68.457031 207.03125 69.597656 C 208.261719 70.738281 209.1875 71.675781 209.800781 72.414062 L 205.921875 84.058594 C 205.675781 77.160156 203.722656 71.9375 200.066406 68.394531 C 196.410156 64.851562 191.628906 63.082031 185.730469 63.082031 C 183.269531 63.082031 180.964844 63.390625 178.816406 64.003906 C 176.664062 64.621094 174.804688 65.53125 173.238281 66.730469 C 171.671875 67.933594 170.425781 69.378906 169.503906 71.074219 C 168.582031 72.769531 168.121094 74.722656 168.121094 76.941406 C 168.121094 80.332031 169.121094 83.027344 171.117188 85.027344 C 172.8125 86.726562 174.828125 88.144531 177.164062 89.289062 C 177.582031 89.496094 178.011719 89.691406 178.449219 89.878906 Z M 208.601562 105.726562 C 207.25 103.96875 205.574219 102.476562 203.574219 101.242188 C 201.578125 100.011719 199.441406 98.933594 197.167969 98.011719 C 195.480469 97.324219 193.894531 96.675781 192.410156 96.054688 L 192.410156 101.191406 C 193.5 101.675781 194.644531 102.183594 195.84375 102.722656 C 197.632812 103.523438 199.277344 104.460938 200.789062 105.539062 C 202.296875 106.617188 203.546875 107.882812 204.53125 109.328125 C 205.519531 110.777344 206.011719 112.457031 206.011719 114.363281 C 206.011719 116.027344 205.59375 117.648438 204.765625 119.214844 C 203.933594 120.789062 202.765625 122.175781 201.257812 123.375 C 199.75 124.578125 197.9375 125.53125 195.8125 126.242188 C 193.691406 126.949219 191.308594 127.300781 188.664062 127.300781 C 185.894531 127.300781 183.144531 126.871094 180.40625 126.007812 C 177.667969 125.144531 175.242188 123.851562 173.117188 122.125 C 170.996094 120.402344 169.320312 118.214844 168.089844 115.566406 C 166.859375 112.914062 166.394531 109.835938 166.703125 106.324219 L 159.867188 112.707031 C 160.851562 115.292969 162.359375 117.558594 164.394531 119.5 C 166.429688 121.4375 168.75 123.054688 171.367188 124.351562 C 173.980469 125.644531 176.765625 126.613281 179.714844 127.261719 C 182.667969 127.910156 185.53125 128.230469 188.300781 128.230469 C 191.621094 128.230469 194.667969 127.785156 197.4375 126.890625 C 200.203125 126 202.558594 124.8125 204.496094 123.335938 C 206.433594 121.855469 207.941406 120.148438 209.019531 118.203125 C 210.09375 116.265625 210.632812 114.214844 210.632812 112.058594 C 210.628906 109.59375 209.953125 107.484375 208.601562 105.726562 Z M 191.378906 116.539062 C 190.394531 115.15625 189.902344 113.324219 189.902344 111.042969 L 189.902344 64.441406 C 188.582031 64.210938 187.191406 64.097656 185.726562 64.097656 C 185.515625 64.097656 185.304688 64.101562 185.097656 64.105469 L 185.097656 111.042969 C 185.097656 113.324219 184.589844 115.152344 183.574219 116.539062 C 182.558594 117.925781 180.9375 118.898438 178.722656 119.453125 L 178.722656 119.542969 L 196.1875 119.542969 L 196.1875 119.453125 C 193.96875 118.898438 192.367188 117.925781 191.378906 116.539062 Z M 213.097656 54.667969 C 212.789062 54.914062 212.375 55.082031 211.851562 55.175781 C 211.328125 55.265625 210.910156 55.3125 210.601562 55.3125 L 164.394531 55.3125 C 164.085938 55.3125 163.65625 55.265625 163.101562 55.175781 C 162.546875 55.082031 162.117188 54.914062 161.808594 54.667969 L 159.867188 72.964844 L 160.421875 72.964844 C 160.667969 69.453125 161.265625 66.667969 162.222656 64.601562 C 163.175781 62.539062 164.300781 60.96875 165.597656 59.890625 C 166.890625 58.8125 168.277344 58.101562 169.753906 57.761719 C 171.230469 57.425781 172.648438 57.253906 174.007812 57.253906 L 185.09375 57.253906 L 185.09375 59.984375 C 185.472656 59.972656 185.851562 59.964844 186.230469 59.964844 C 187.5 59.964844 188.722656 60.019531 189.902344 60.128906 L 189.902344 57.253906 L 200.898438 57.253906 C 202.253906 57.253906 203.667969 57.425781 205.148438 57.761719 C 206.628906 58.101562 208.015625 58.8125 209.308594 59.890625 C 210.601562 60.96875 211.726562 62.539062 212.683594 64.601562 C 213.636719 66.667969 214.269531 69.453125 214.578125 72.964844 L 215.128906 72.964844 Z M 213.097656 54.667969 " fill-opacity="1" fill-rule="nonzero"/></g><g fill="#000000" fill-opacity="1"><g transform="translate(106.198562, 217.139986)"><g><path d="M 1.0625 -16.921875 L 13.53125 -16.921875 L 13.75 -13.84375 L 13.296875 -13.84375 L 13.203125 -14.625 C 13.171875 -15.144531 12.960938 -15.582031 12.578125 -15.9375 C 12.191406 -16.289062 11.738281 -16.46875 11.21875 -16.46875 L 8.421875 -16.46875 L 8.421875 -0.96875 C 8.421875 -0.65625 8.585938 -0.5 8.921875 -0.5 L 9.390625 -0.5 L 9.390625 0 L 5.15625 0 L 5.15625 -0.5 L 5.65625 -0.5 C 5.96875 -0.5 6.125 -0.65625 6.125 -0.96875 L 6.125 -16.46875 L 3.359375 -16.46875 C 2.835938 -16.46875 2.390625 -16.289062 2.015625 -15.9375 C 1.648438 -15.582031 1.4375 -15.144531 1.375 -14.625 L 1.28125 -13.84375 L 0.78125 -13.84375 Z M 1.0625 -16.921875 "/></g></g></g><g fill="#000000" fill-opacity="1"><g transform="translate(128.967282, 217.139986)"><g><path d="M 14.484375 -0.96875 C 14.671875 -0.65625 14.960938 -0.5 15.359375 -0.5 L 15.640625 -0.5 L 15.640625 0 L 11.171875 0 L 11.171875 -0.5 L 11.734375 -0.5 C 11.847656 -0.5 11.921875 -0.53125 11.953125 -0.59375 C 11.984375 -0.6875 11.984375 -0.765625 11.953125 -0.828125 L 7.8125 -8.234375 L 4.6875 -8.234375 L 4.6875 -0.96875 C 4.6875 -0.65625 4.859375 -0.5 5.203125 -0.5 L 5.65625 -0.5 L 5.65625 0 L 1.421875 0 L 1.421875 -0.5 L 1.9375 -0.5 C 2.238281 -0.5 2.390625 -0.65625 2.390625 -0.96875 L 2.390625 -15.96875 C 2.390625 -16.300781 2.238281 -16.46875 1.9375 -16.46875 L 1.421875 -16.46875 L 1.421875 -16.921875 L 8.828125 -16.921875 C 10.390625 -16.921875 11.59375 -16.46875 12.4375 -15.5625 C 13.28125 -14.664062 13.703125 -13.679688 13.703125 -12.609375 C 13.703125 -11.710938 13.410156 -10.863281 12.828125 -10.0625 C 12.242188 -9.269531 11.414062 -8.722656 10.34375 -8.421875 Z M 4.6875 -8.6875 L 7.640625 -8.6875 C 8.890625 -8.6875 9.828125 -9.078125 10.453125 -9.859375 C 11.085938 -10.648438 11.40625 -11.566406 11.40625 -12.609375 C 11.40625 -13.648438 11.082031 -14.550781 10.4375 -15.3125 C 9.789062 -16.082031 8.859375 -16.46875 7.640625 -16.46875 L 4.6875 -16.46875 Z M 4.6875 -8.6875 "/></g></g></g><g fill="#000000" fill-opacity="1"><g transform="translate(153.62184, 217.139986)"><g><path d="M 7.859375 -17.203125 L 8.375 -17.203125 L 14.171875 -1.15625 C 14.316406 -0.71875 14.609375 -0.5 15.046875 -0.5 L 15.359375 -0.5 L 15.359375 0 L 11.09375 0 L 11.09375 -0.5 L 11.59375 -0.5 C 11.65625 -0.5 11.71875 -0.53125 11.78125 -0.59375 C 11.84375 -0.65625 11.859375 -0.71875 11.828125 -0.78125 L 10.4375 -4.59375 L 3.8125 -4.59375 L 2.484375 -0.78125 C 2.453125 -0.6875 2.453125 -0.625 2.484375 -0.59375 C 2.546875 -0.53125 2.625 -0.5 2.71875 -0.5 L 3.21875 -0.5 L 3.21875 0 L 0.78125 0 L 0.78125 -0.5 L 1.15625 -0.5 C 1.613281 -0.5 1.914062 -0.71875 2.0625 -1.15625 Z M 4 -5.109375 L 10.265625 -5.109375 L 7.125 -13.9375 Z M 4 -5.109375 "/></g></g></g><g fill="#000000" fill-opacity="1"><g transform="translate(177.954432, 217.139986)"><g><path d="M 4.6875 -10.390625 L 4.6875 -0.5 L 7.546875 -0.5 C 8.222656 -0.5 8.878906 -0.648438 9.515625 -0.953125 C 10.160156 -1.265625 10.695312 -1.789062 11.125 -2.53125 C 11.5625 -3.269531 11.78125 -4.28125 11.78125 -5.5625 C 11.78125 -7.28125 11.332031 -8.515625 10.4375 -9.265625 C 9.550781 -10.015625 8.585938 -10.390625 7.546875 -10.390625 Z M 4.6875 -16.46875 L 4.6875 -10.90625 L 7.546875 -10.90625 C 8.492188 -10.90625 9.234375 -11.179688 9.765625 -11.734375 C 10.304688 -12.285156 10.578125 -12.988281 10.578125 -13.84375 C 10.578125 -14.707031 10.332031 -15.359375 9.84375 -15.796875 C 9.351562 -16.242188 8.769531 -16.46875 8.09375 -16.46875 Z M 1.421875 -16.921875 L 9.515625 -16.921875 C 10.316406 -16.921875 11.039062 -16.679688 11.6875 -16.203125 C 12.332031 -15.734375 12.65625 -14.960938 12.65625 -13.890625 C 12.65625 -13.097656 12.40625 -12.382812 11.90625 -11.75 C 11.414062 -11.125 10.835938 -10.734375 10.171875 -10.578125 C 11.328125 -10.179688 12.273438 -9.546875 13.015625 -8.671875 C 13.753906 -7.796875 14.125 -6.757812 14.125 -5.5625 C 14.125 -3.78125 13.609375 -2.40625 12.578125 -1.4375 C 11.554688 -0.476562 10.21875 0 8.5625 0 L 1.421875 0 L 1.421875 -0.5 L 1.9375 -0.5 C 2.238281 -0.5 2.390625 -0.65625 2.390625 -0.96875 L 2.390625 -16.09375 C 2.390625 -16.375 2.238281 -16.515625 1.9375 -16.515625 L 1.421875 -16.515625 Z M 1.421875 -16.921875 "/></g></g></g><g fill="#000000" fill-opacity="1"><g transform="translate(201.827058, 217.139986)"><g><path d="M 7.859375 -17.203125 L 8.375 -17.203125 L 14.171875 -1.15625 C 14.316406 -0.71875 14.609375 -0.5 15.046875 -0.5 L 15.359375 -0.5 L 15.359375 0 L 11.09375 0 L 11.09375 -0.5 L 11.59375 -0.5 C 11.65625 -0.5 11.71875 -0.53125 11.78125 -0.59375 C 11.84375 -0.65625 11.859375 -0.71875 11.828125 -0.78125 L 10.4375 -4.59375 L 3.8125 -4.59375 L 2.484375 -0.78125 C 2.453125 -0.6875 2.453125 -0.625 2.484375 -0.59375 C 2.546875 -0.53125 2.625 -0.5 2.71875 -0.5 L 3.21875 -0.5 L 3.21875 0 L 0.78125 0 L 0.78125 -0.5 L 1.15625 -0.5 C 1.613281 -0.5 1.914062 -0.71875 2.0625 -1.15625 Z M 4 -5.109375 L 10.265625 -5.109375 L 7.125 -13.9375 Z M 4 -5.109375 "/></g></g></g><g fill="#000000" fill-opacity="1"><g transform="translate(226.159645, 217.139986)"><g><path d="M 1.65625 -8.46875 C 1.65625 -11.132812 2.390625 -13.253906 3.859375 -14.828125 C 5.335938 -16.410156 7.253906 -17.203125 9.609375 -17.203125 C 10.960938 -17.203125 12.101562 -17.023438 13.03125 -16.671875 C 13.96875 -16.316406 14.679688 -15.957031 15.171875 -15.59375 C 15.671875 -15.226562 15.921875 -15.046875 15.921875 -15.046875 L 15.6875 -12.875 L 15.265625 -12.875 C 15.265625 -12.875 15.210938 -13.066406 15.109375 -13.453125 C 15.003906 -13.835938 14.773438 -14.28125 14.421875 -14.78125 C 14.066406 -15.289062 13.53125 -15.738281 12.8125 -16.125 C 12.09375 -16.507812 11.117188 -16.703125 9.890625 -16.703125 C 8.265625 -16.703125 6.867188 -16.039062 5.703125 -14.71875 C 4.535156 -13.394531 3.953125 -11.3125 3.953125 -8.46875 C 3.953125 -6.625 4.257812 -5.109375 4.875 -3.921875 C 5.488281 -2.742188 6.289062 -1.867188 7.28125 -1.296875 C 8.28125 -0.734375 9.378906 -0.453125 10.578125 -0.453125 C 11.554688 -0.453125 12.421875 -0.597656 13.171875 -0.890625 C 13.929688 -1.179688 14.523438 -1.472656 14.953125 -1.765625 C 15.378906 -2.054688 15.59375 -2.203125 15.59375 -2.203125 L 15.921875 -1.890625 C 15.921875 -1.890625 15.679688 -1.710938 15.203125 -1.359375 C 14.722656 -1.003906 14.015625 -0.648438 13.078125 -0.296875 C 12.148438 0.0546875 10.992188 0.234375 9.609375 0.234375 C 8.140625 0.234375 6.804688 -0.09375 5.609375 -0.75 C 4.410156 -1.414062 3.453125 -2.398438 2.734375 -3.703125 C 2.015625 -5.003906 1.65625 -6.59375 1.65625 -8.46875 Z M 1.65625 -8.46875 "/></g></g></g><g fill="#000000" fill-opacity="1"><g transform="translate(251.090185, 217.139986)"><g><path d="M 16.328125 -16.921875 L 16.328125 -16.46875 L 15.828125 -16.46875 C 15.515625 -16.46875 15.359375 -16.300781 15.359375 -15.96875 L 15.359375 -0.96875 C 15.359375 -0.65625 15.515625 -0.5 15.828125 -0.5 L 16.328125 -0.5 L 16.328125 0 L 12.09375 0 L 12.09375 -0.5 L 12.5625 -0.5 C 12.894531 -0.5 13.0625 -0.65625 13.0625 -0.96875 L 13.0625 -8.234375 L 4.6875 -8.234375 L 4.6875 -0.96875 C 4.6875 -0.65625 4.859375 -0.5 5.203125 -0.5 L 5.65625 -0.5 L 5.65625 0 L 1.421875 0 L 1.421875 -0.5 L 1.9375 -0.5 C 2.238281 -0.5 2.390625 -0.65625 2.390625 -0.96875 L 2.390625 -15.96875 C 2.390625 -16.300781 2.238281 -16.46875 1.9375 -16.46875 L 1.421875 -16.46875 L 1.421875 -16.921875 L 5.65625 -16.921875 L 5.65625 -16.46875 L 5.203125 -16.46875 C 4.859375 -16.46875 4.6875 -16.300781 4.6875 -15.96875 L 4.6875 -8.6875 L 13.0625 -8.6875 L 13.0625 -15.96875 C 13.0625 -16.300781 12.894531 -16.46875 12.5625 -16.46875 L 12.09375 -16.46875 L 12.09375 -16.921875 Z M 16.328125 -16.921875 "/></g></g></g><g fill="#000000" fill-opacity="1"><g transform="translate(79.925126, 268.139982)"><g><path d="M 7.59375 -16.703125 C 6.425781 -16.703125 5.523438 -16.414062 4.890625 -15.84375 C 4.265625 -15.28125 3.953125 -14.566406 3.953125 -13.703125 C 3.953125 -12.847656 4.265625 -12.144531 4.890625 -11.59375 C 5.523438 -11.039062 6.300781 -10.539062 7.21875 -10.09375 C 8.144531 -9.65625 9.066406 -9.1875 9.984375 -8.6875 C 10.898438 -8.195312 11.671875 -7.597656 12.296875 -6.890625 C 12.929688 -6.191406 13.25 -5.273438 13.25 -4.140625 C 13.25 -2.816406 12.664062 -1.753906 11.5 -0.953125 C 10.332031 -0.160156 8.84375 0.234375 7.03125 0.234375 C 5.90625 0.234375 4.929688 0.0507812 4.109375 -0.3125 C 3.296875 -0.6875 2.679688 -1.054688 2.265625 -1.421875 C 1.859375 -1.796875 1.65625 -1.984375 1.65625 -1.984375 L 1.890625 -3.765625 L 2.296875 -3.765625 C 2.296875 -3.765625 2.378906 -3.585938 2.546875 -3.234375 C 2.722656 -2.890625 2.992188 -2.476562 3.359375 -2 C 3.722656 -1.519531 4.210938 -1.101562 4.828125 -0.75 C 5.441406 -0.40625 6.175781 -0.234375 7.03125 -0.234375 C 8.195312 -0.234375 9.140625 -0.523438 9.859375 -1.109375 C 10.585938 -1.691406 10.953125 -2.457031 10.953125 -3.40625 C 10.953125 -4.382812 10.632812 -5.171875 10 -5.765625 C 9.375 -6.367188 8.597656 -6.882812 7.671875 -7.3125 C 6.753906 -7.738281 5.835938 -8.175781 4.921875 -8.625 C 4.003906 -9.070312 3.226562 -9.613281 2.59375 -10.25 C 1.96875 -10.894531 1.65625 -11.738281 1.65625 -12.78125 C 1.65625 -14.039062 2.175781 -15.09375 3.21875 -15.9375 C 4.257812 -16.78125 5.71875 -17.203125 7.59375 -17.203125 C 8.695312 -17.203125 9.628906 -17.015625 10.390625 -16.640625 C 11.160156 -16.273438 11.742188 -15.898438 12.140625 -15.515625 C 12.535156 -15.140625 12.734375 -14.953125 12.734375 -14.953125 L 12.5625 -13.203125 L 12.09375 -13.203125 C 12.09375 -13.203125 12.023438 -13.378906 11.890625 -13.734375 C 11.753906 -14.085938 11.507812 -14.492188 11.15625 -14.953125 C 10.800781 -15.410156 10.335938 -15.816406 9.765625 -16.171875 C 9.203125 -16.523438 8.476562 -16.703125 7.59375 -16.703125 Z M 7.59375 -16.703125 "/></g></g></g><g fill="#000000" fill-opacity="1"><g transform="translate(103.06182, 268.139982)"><g><path d="M 9.390625 -16.703125 C 8.398438 -16.703125 7.488281 -16.351562 6.65625 -15.65625 C 5.832031 -14.96875 5.175781 -14.007812 4.6875 -12.78125 C 4.195312 -11.5625 3.953125 -10.125 3.953125 -8.46875 C 3.953125 -6.84375 4.195312 -5.40625 4.6875 -4.15625 C 5.175781 -2.914062 5.832031 -1.953125 6.65625 -1.265625 C 7.488281 -0.578125 8.398438 -0.234375 9.390625 -0.234375 C 10.890625 -0.234375 12.160156 -0.984375 13.203125 -2.484375 C 14.242188 -3.984375 14.765625 -5.976562 14.765625 -8.46875 C 14.765625 -10.914062 14.242188 -12.898438 13.203125 -14.421875 C 12.160156 -15.941406 10.890625 -16.703125 9.390625 -16.703125 Z M 9.390625 -17.203125 C 10.828125 -17.203125 12.117188 -16.84375 13.265625 -16.125 C 14.421875 -15.40625 15.34375 -14.382812 16.03125 -13.0625 C 16.71875 -11.75 17.0625 -10.21875 17.0625 -8.46875 C 17.0625 -6.71875 16.71875 -5.191406 16.03125 -3.890625 C 15.34375 -2.585938 14.421875 -1.570312 13.265625 -0.84375 C 12.117188 -0.125 10.828125 0.234375 9.390625 0.234375 C 7.972656 0.234375 6.671875 -0.125 5.484375 -0.84375 C 4.304688 -1.570312 3.375 -2.585938 2.6875 -3.890625 C 2 -5.191406 1.65625 -6.71875 1.65625 -8.46875 C 1.65625 -10.21875 2 -11.75 2.6875 -13.0625 C 3.375 -14.382812 4.304688 -15.40625 5.484375 -16.125 C 6.671875 -16.84375 7.972656 -17.203125 9.390625 -17.203125 Z M 9.390625 -17.203125 "/></g></g></g><g fill="#000000" fill-opacity="1"><g transform="translate(129.924195, 268.139982)"><g><path d="M 1.46875 -16.921875 L 12.921875 -16.921875 L 12.921875 -13.84375 L 12.46875 -13.84375 L 12.46875 -14.765625 C 12.46875 -15.253906 12.304688 -15.660156 11.984375 -15.984375 C 11.660156 -16.304688 11.253906 -16.46875 10.765625 -16.46875 L 4.78125 -16.46875 L 4.78125 -8.6875 L 9.65625 -8.6875 C 10.0625 -8.6875 10.382812 -8.8125 10.625 -9.0625 C 10.875 -9.3125 11 -9.632812 11 -10.03125 L 11 -10.953125 L 11.453125 -10.953125 L 11.453125 -5.984375 L 11 -5.984375 L 11 -6.90625 C 11 -7.269531 10.875 -7.570312 10.625 -7.8125 C 10.351562 -8.09375 10.03125 -8.234375 9.65625 -8.234375 L 4.78125 -8.234375 L 4.78125 -0.96875 C 4.78125 -0.65625 4.9375 -0.5 5.25 -0.5 L 5.75 -0.5 L 5.75 0 L 1.46875 0 L 1.46875 -0.5 L 1.984375 -0.5 C 2.285156 -0.5 2.4375 -0.65625 2.4375 -0.96875 L 2.4375 -16.046875 C 2.4375 -16.328125 2.285156 -16.46875 1.984375 -16.46875 L 1.46875 -16.46875 Z M 1.46875 -16.921875 "/></g></g></g><g fill="#000000" fill-opacity="1"><g transform="translate(152.692917, 268.139982)"><g><path d="M 1.0625 -16.921875 L 13.53125 -16.921875 L 13.75 -13.84375 L 13.296875 -13.84375 L 13.203125 -14.625 C 13.171875 -15.144531 12.960938 -15.582031 12.578125 -15.9375 C 12.191406 -16.289062 11.738281 -16.46875 11.21875 -16.46875 L 8.421875 -16.46875 L 8.421875 -0.96875 C 8.421875 -0.65625 8.585938 -0.5 8.921875 -0.5 L 9.390625 -0.5 L 9.390625 0 L 5.15625 0 L 5.15625 -0.5 L 5.65625 -0.5 C 5.96875 -0.5 6.125 -0.65625 6.125 -0.96875 L 6.125 -16.46875 L 3.359375 -16.46875 C 2.835938 -16.46875 2.390625 -16.289062 2.015625 -15.9375 C 1.648438 -15.582031 1.4375 -15.144531 1.375 -14.625 L 1.28125 -13.84375 L 0.78125 -13.84375 Z M 1.0625 -16.921875 "/></g></g></g><g fill="#000000" fill-opacity="1"><g transform="translate(175.461635, 268.139982)"><g><path d="M 9.296875 -16.921875 L 13.5625 -16.921875 L 13.5625 -16.46875 L 13.0625 -16.46875 C 13 -16.46875 12.9375 -16.4375 12.875 -16.375 C 12.8125 -16.3125 12.796875 -16.234375 12.828125 -16.140625 L 17.484375 -2.984375 L 22.171875 -16.140625 C 22.234375 -16.234375 22.234375 -16.3125 22.171875 -16.375 C 22.109375 -16.4375 22.03125 -16.46875 21.9375 -16.46875 L 21.4375 -16.46875 L 21.4375 -16.921875 L 23.828125 -16.921875 L 23.828125 -16.46875 L 23.5 -16.46875 C 23.039062 -16.46875 22.738281 -16.253906 22.59375 -15.828125 L 16.796875 0.234375 L 16.28125 0.234375 L 12.328125 -10.765625 L 8.328125 0.234375 L 7.8125 0.234375 L 1.984375 -15.828125 C 1.828125 -16.253906 1.535156 -16.46875 1.109375 -16.46875 L 0.78125 -16.46875 L 0.78125 -16.921875 L 5.109375 -16.921875 L 5.109375 -16.46875 L 4.59375 -16.46875 C 4.507812 -16.46875 4.4375 -16.4375 4.375 -16.375 C 4.3125 -16.3125 4.3125 -16.234375 4.375 -16.140625 L 9.015625 -2.984375 L 12.046875 -11.453125 L 10.484375 -15.828125 C 10.335938 -16.253906 10.03125 -16.46875 9.5625 -16.46875 L 9.296875 -16.46875 Z M 9.296875 -16.921875 "/></g></g></g><g fill="#000000" fill-opacity="1"><g transform="translate(208.257505, 268.139982)"><g><path d="M 7.859375 -17.203125 L 8.375 -17.203125 L 14.171875 -1.15625 C 14.316406 -0.71875 14.609375 -0.5 15.046875 -0.5 L 15.359375 -0.5 L 15.359375 0 L 11.09375 0 L 11.09375 -0.5 L 11.59375 -0.5 C 11.65625 -0.5 11.71875 -0.53125 11.78125 -0.59375 C 11.84375 -0.65625 11.859375 -0.71875 11.828125 -0.78125 L 10.4375 -4.59375 L 3.8125 -4.59375 L 2.484375 -0.78125 C 2.453125 -0.6875 2.453125 -0.625 2.484375 -0.59375 C 2.546875 -0.53125 2.625 -0.5 2.71875 -0.5 L 3.21875 -0.5 L 3.21875 0 L 0.78125 0 L 0.78125 -0.5 L 1.15625 -0.5 C 1.613281 -0.5 1.914062 -0.71875 2.0625 -1.15625 Z M 4 -5.109375 L 10.265625 -5.109375 L 7.125 -13.9375 Z M 4 -5.109375 "/></g></g></g><g fill="#000000" fill-opacity="1"><g transform="translate(232.590091, 268.139982)"><g><path d="M 14.484375 -0.96875 C 14.671875 -0.65625 14.960938 -0.5 15.359375 -0.5 L 15.640625 -0.5 L 15.640625 0 L 11.171875 0 L 11.171875 -0.5 L 11.734375 -0.5 C 11.847656 -0.5 11.921875 -0.53125 11.953125 -0.59375 C 11.984375 -0.6875 11.984375 -0.765625 11.953125 -0.828125 L 7.8125 -8.234375 L 4.6875 -8.234375 L 4.6875 -0.96875 C 4.6875 -0.65625 4.859375 -0.5 5.203125 -0.5 L 5.65625 -0.5 L 5.65625 0 L 1.421875 0 L 1.421875 -0.5 L 1.9375 -0.5 C 2.238281 -0.5 2.390625 -0.65625 2.390625 -0.96875 L 2.390625 -15.96875 C 2.390625 -16.300781 2.238281 -16.46875 1.9375 -16.46875 L 1.421875 -16.46875 L 1.421875 -16.921875 L 8.828125 -16.921875 C 10.390625 -16.921875 11.59375 -16.46875 12.4375 -15.5625 C 13.28125 -14.664062 13.703125 -13.679688 13.703125 -12.609375 C 13.703125 -11.710938 13.410156 -10.863281 12.828125 -10.0625 C 12.242188 -9.269531 11.414062 -8.722656 10.34375 -8.421875 Z M 4.6875 -8.6875 L 7.640625 -8.6875 C 8.890625 -8.6875 9.828125 -9.078125 10.453125 -9.859375 C 11.085938 -10.648438 11.40625 -11.566406 11.40625 -12.609375 C 11.40625 -13.648438 11.082031 -14.550781 10.4375 -15.3125 C 9.789062 -16.082031 8.859375 -16.46875 7.640625 -16.46875 L 4.6875 -16.46875 Z M 4.6875 -8.6875 "/></g></g></g><g fill="#000000" fill-opacity="1"><g transform="translate(257.244646, 268.139982)"><g><path d="M 1.421875 -16.921875 L 12.875 -16.921875 L 12.875 -13.84375 L 12.421875 -13.84375 L 12.421875 -14.765625 C 12.421875 -15.253906 12.25 -15.660156 11.90625 -15.984375 C 11.570312 -16.304688 11.160156 -16.46875 10.671875 -16.46875 L 4.6875 -16.46875 L 4.6875 -8.6875 L 9.609375 -8.6875 C 10.015625 -8.6875 10.335938 -8.8125 10.578125 -9.0625 C 10.828125 -9.3125 10.953125 -9.632812 10.953125 -10.03125 L 10.953125 -10.953125 L 11.40625 -10.953125 L 11.40625 -5.984375 L 10.953125 -5.984375 L 10.953125 -6.90625 C 10.953125 -7.300781 10.828125 -7.617188 10.578125 -7.859375 C 10.335938 -8.109375 10.015625 -8.234375 9.609375 -8.234375 L 4.6875 -8.234375 L 4.6875 -0.5 L 10.578125 -0.5 C 11.097656 -0.5 11.550781 -0.664062 11.9375 -1 C 12.320312 -1.34375 12.53125 -1.773438 12.5625 -2.296875 L 12.65625 -3.125 L 13.109375 -3.125 L 12.875 0 L 1.421875 0 L 1.421875 -0.5 L 1.9375 -0.5 C 2.238281 -0.5 2.390625 -0.65625 2.390625 -0.96875 L 2.390625 -16.046875 C 2.390625 -16.328125 2.238281 -16.46875 1.9375 -16.46875 L 1.421875 -16.46875 Z M 1.421875 -16.921875 "/></g></g></g><g fill="#000000" fill-opacity="1"><g transform="translate(280.197361, 268.139982)"><g><path d="M 7.59375 -16.703125 C 6.425781 -16.703125 5.523438 -16.414062 4.890625 -15.84375 C 4.265625 -15.28125 3.953125 -14.566406 3.953125 -13.703125 C 3.953125 -12.847656 4.265625 -12.144531 4.890625 -11.59375 C 5.523438 -11.039062 6.300781 -10.539062 7.21875 -10.09375 C 8.144531 -9.65625 9.066406 -9.1875 9.984375 -8.6875 C 10.898438 -8.195312 11.671875 -7.597656 12.296875 -6.890625 C 12.929688 -6.191406 13.25 -5.273438 13.25 -4.140625 C 13.25 -2.816406 12.664062 -1.753906 11.5 -0.953125 C 10.332031 -0.160156 8.84375 0.234375 7.03125 0.234375 C 5.90625 0.234375 4.929688 0.0507812 4.109375 -0.3125 C 3.296875 -0.6875 2.679688 -1.054688 2.265625 -1.421875 C 1.859375 -1.796875 1.65625 -1.984375 1.65625 -1.984375 L 1.890625 -3.765625 L 2.296875 -3.765625 C 2.296875 -3.765625 2.378906 -3.585938 2.546875 -3.234375 C 2.722656 -2.890625 2.992188 -2.476562 3.359375 -2 C 3.722656 -1.519531 4.210938 -1.101562 4.828125 -0.75 C 5.441406 -0.40625 6.175781 -0.234375 7.03125 -0.234375 C 8.195312 -0.234375 9.140625 -0.523438 9.859375 -1.109375 C 10.585938 -1.691406 10.953125 -2.457031 10.953125 -3.40625 C 10.953125 -4.382812 10.632812 -5.171875 10 -5.765625 C 9.375 -6.367188 8.597656 -6.882812 7.671875 -7.3125 C 6.753906 -7.738281 5.835938 -8.175781 4.921875 -8.625 C 4.003906 -9.070312 3.226562 -9.613281 2.59375 -10.25 C 1.96875 -10.894531 1.65625 -11.738281 1.65625 -12.78125 C 1.65625 -14.039062 2.175781 -15.09375 3.21875 -15.9375 C 4.257812 -16.78125 5.71875 -17.203125 7.59375 -17.203125 C 8.695312 -17.203125 9.628906 -17.015625 10.390625 -16.640625 C 11.160156 -16.273438 11.742188 -15.898438 12.140625 -15.515625 C 12.535156 -15.140625 12.734375 -14.953125 12.734375 -14.953125 L 12.5625 -13.203125 L 12.09375 -13.203125 C 12.09375 -13.203125 12.023438 -13.378906 11.890625 -13.734375 C 11.753906 -14.085938 11.507812 -14.492188 11.15625 -14.953125 C 10.800781 -15.410156 10.335938 -15.816406 9.765625 -16.171875 C 9.203125 -16.523438 8.476562 -16.703125 7.59375 -16.703125 Z M 7.59375 -16.703125 "/></g></g></g><g fill="#000000" fill-opacity="1"><g transform="translate(112.016306, 313.332635)"><g><path d="M 3.84375 -8.4375 C 3.25 -8.4375 2.789062 -8.289062 2.46875 -8 C 2.15625 -7.71875 2 -7.359375 2 -6.921875 C 2 -6.492188 2.15625 -6.140625 2.46875 -5.859375 C 2.789062 -5.578125 3.179688 -5.320312 3.640625 -5.09375 C 4.109375 -4.875 4.578125 -4.640625 5.046875 -4.390625 C 5.515625 -4.140625 5.90625 -3.835938 6.21875 -3.484375 C 6.539062 -3.128906 6.703125 -2.664062 6.703125 -2.09375 C 6.703125 -1.425781 6.40625 -0.890625 5.8125 -0.484375 C 5.21875 -0.0859375 4.46875 0.109375 3.5625 0.109375 C 2.988281 0.109375 2.492188 0.0195312 2.078125 -0.15625 C 1.671875 -0.34375 1.363281 -0.53125 1.15625 -0.71875 C 0.945312 -0.90625 0.84375 -1 0.84375 -1 L 0.953125 -1.90625 L 1.15625 -1.90625 C 1.15625 -1.90625 1.195312 -1.816406 1.28125 -1.640625 C 1.375 -1.460938 1.507812 -1.253906 1.6875 -1.015625 C 1.875 -0.773438 2.125 -0.5625 2.4375 -0.375 C 2.75 -0.195312 3.125 -0.109375 3.5625 -0.109375 C 4.144531 -0.109375 4.617188 -0.253906 4.984375 -0.546875 C 5.347656 -0.847656 5.53125 -1.238281 5.53125 -1.71875 C 5.53125 -2.21875 5.367188 -2.617188 5.046875 -2.921875 C 4.734375 -3.222656 4.34375 -3.476562 3.875 -3.6875 C 3.414062 -3.90625 2.953125 -4.128906 2.484375 -4.359375 C 2.023438 -4.585938 1.632812 -4.863281 1.3125 -5.1875 C 1 -5.507812 0.84375 -5.9375 0.84375 -6.46875 C 0.84375 -7.101562 1.101562 -7.632812 1.625 -8.0625 C 2.15625 -8.488281 2.894531 -8.703125 3.84375 -8.703125 C 4.394531 -8.703125 4.863281 -8.609375 5.25 -8.421875 C 5.632812 -8.234375 5.925781 -8.039062 6.125 -7.84375 C 6.332031 -7.65625 6.4375 -7.5625 6.4375 -7.5625 L 6.34375 -6.671875 L 6.109375 -6.671875 C 6.109375 -6.671875 6.070312 -6.757812 6 -6.9375 C 5.9375 -7.113281 5.816406 -7.316406 5.640625 -7.546875 C 5.460938 -7.785156 5.226562 -7.992188 4.9375 -8.171875 C 4.65625 -8.347656 4.289062 -8.4375 3.84375 -8.4375 Z M 3.84375 -8.4375 "/></g></g></g><g fill="#000000" fill-opacity="1"><g transform="translate(126.032216, 313.332635)"><g><path d="M 4.75 -8.4375 C 4.25 -8.4375 3.789062 -8.257812 3.375 -7.90625 C 2.957031 -7.5625 2.625 -7.078125 2.375 -6.453125 C 2.125 -5.835938 2 -5.113281 2 -4.28125 C 2 -3.457031 2.125 -2.726562 2.375 -2.09375 C 2.625 -1.46875 2.957031 -0.976562 3.375 -0.625 C 3.789062 -0.28125 4.25 -0.109375 4.75 -0.109375 C 5.5 -0.109375 6.140625 -0.488281 6.671875 -1.25 C 7.203125 -2.007812 7.46875 -3.019531 7.46875 -4.28125 C 7.46875 -5.519531 7.203125 -6.519531 6.671875 -7.28125 C 6.140625 -8.050781 5.5 -8.4375 4.75 -8.4375 Z M 4.75 -8.703125 C 5.46875 -8.703125 6.117188 -8.519531 6.703125 -8.15625 C 7.285156 -7.789062 7.75 -7.273438 8.09375 -6.609375 C 8.445312 -5.941406 8.625 -5.164062 8.625 -4.28125 C 8.625 -3.394531 8.445312 -2.617188 8.09375 -1.953125 C 7.75 -1.296875 7.285156 -0.785156 6.703125 -0.421875 C 6.117188 -0.0664062 5.46875 0.109375 4.75 0.109375 C 4.03125 0.109375 3.375 -0.0664062 2.78125 -0.421875 C 2.1875 -0.785156 1.710938 -1.296875 1.359375 -1.953125 C 1.015625 -2.617188 0.84375 -3.394531 0.84375 -4.28125 C 0.84375 -5.164062 1.015625 -5.941406 1.359375 -6.609375 C 1.710938 -7.273438 2.1875 -7.789062 2.78125 -8.15625 C 3.375 -8.519531 4.03125 -8.703125 4.75 -8.703125 Z M 4.75 -8.703125 "/></g></g></g><g fill="#000000" fill-opacity="1"><g transform="translate(141.930428, 313.332635)"><g><path d="M 0.71875 -8.5625 L 2.859375 -8.5625 L 2.859375 -8.328125 L 2.625 -8.328125 C 2.457031 -8.328125 2.375 -8.238281 2.375 -8.0625 L 2.375 -0.25 L 5.34375 -0.25 C 5.613281 -0.25 5.84375 -0.332031 6.03125 -0.5 C 6.226562 -0.675781 6.332031 -0.894531 6.34375 -1.15625 L 6.390625 -1.578125 L 6.625 -1.578125 L 6.515625 0 L 0.71875 0 L 0.71875 -0.25 L 0.96875 -0.25 C 1.125 -0.25 1.203125 -0.328125 1.203125 -0.484375 L 1.203125 -8.0625 C 1.203125 -8.238281 1.125 -8.328125 0.96875 -8.328125 L 0.71875 -8.328125 Z M 0.71875 -8.5625 "/></g></g></g><g fill="#000000" fill-opacity="1"><g transform="translate(155.458328, 313.332635)"><g><path d="M 7.09375 -3.296875 L 7.09375 -8.09375 C 7.09375 -8.257812 7.003906 -8.34375 6.828125 -8.34375 L 6.609375 -8.34375 L 6.609375 -8.578125 L 7.8125 -8.578125 L 7.8125 -8.34375 L 7.578125 -8.34375 C 7.410156 -8.34375 7.328125 -8.257812 7.328125 -8.09375 L 7.328125 -3.296875 C 7.328125 -2.679688 7.203125 -2.113281 6.953125 -1.59375 C 6.703125 -1.070312 6.347656 -0.65625 5.890625 -0.34375 C 5.429688 -0.0390625 4.894531 0.109375 4.28125 0.109375 C 3.65625 0.109375 3.109375 -0.0390625 2.640625 -0.34375 C 2.179688 -0.65625 1.828125 -1.070312 1.578125 -1.59375 C 1.328125 -2.113281 1.203125 -2.679688 1.203125 -3.296875 L 1.203125 -8.09375 C 1.203125 -8.257812 1.125 -8.34375 0.96875 -8.34375 L 0.71875 -8.34375 L 0.71875 -8.578125 L 2.859375 -8.578125 L 2.859375 -8.34375 L 2.625 -8.34375 C 2.457031 -8.34375 2.375 -8.257812 2.375 -8.09375 L 2.375 -2.65625 C 2.375 -1.988281 2.539062 -1.414062 2.875 -0.9375 C 3.21875 -0.46875 3.71875 -0.234375 4.375 -0.234375 C 5.207031 -0.234375 5.867188 -0.523438 6.359375 -1.109375 C 6.847656 -1.703125 7.09375 -2.429688 7.09375 -3.296875 Z M 7.09375 -3.296875 "/></g></g></g><g fill="#000000" fill-opacity="1"><g transform="translate(170.519965, 313.332635)"><g><path d="M 4.90625 0.609375 L 4.5625 0.609375 L 4.75 0.109375 C 4.019531 0.0976562 3.359375 -0.078125 2.765625 -0.421875 C 2.179688 -0.765625 1.710938 -1.253906 1.359375 -1.890625 C 1.015625 -2.535156 0.84375 -3.332031 0.84375 -4.28125 C 0.84375 -5.625 1.210938 -6.695312 1.953125 -7.5 C 2.691406 -8.300781 3.660156 -8.703125 4.859375 -8.703125 C 5.535156 -8.703125 6.109375 -8.609375 6.578125 -8.421875 C 7.054688 -8.242188 7.421875 -8.0625 7.671875 -7.875 C 7.921875 -7.695312 8.046875 -7.609375 8.046875 -7.609375 L 7.921875 -6.515625 L 7.71875 -6.515625 C 7.71875 -6.515625 7.691406 -6.609375 7.640625 -6.796875 C 7.585938 -6.992188 7.46875 -7.21875 7.28125 -7.46875 C 7.101562 -7.726562 6.832031 -7.953125 6.46875 -8.140625 C 6.101562 -8.335938 5.613281 -8.4375 5 -8.4375 C 4.175781 -8.4375 3.46875 -8.101562 2.875 -7.4375 C 2.289062 -6.769531 2 -5.71875 2 -4.28125 C 2 -3.351562 2.148438 -2.585938 2.453125 -1.984375 C 2.765625 -1.390625 3.171875 -0.945312 3.671875 -0.65625 C 4.179688 -0.375 4.738281 -0.234375 5.34375 -0.234375 C 5.84375 -0.234375 6.28125 -0.304688 6.65625 -0.453125 C 7.039062 -0.597656 7.335938 -0.742188 7.546875 -0.890625 C 7.765625 -1.035156 7.875 -1.109375 7.875 -1.109375 L 8.046875 -0.953125 C 8.046875 -0.953125 7.925781 -0.863281 7.6875 -0.6875 C 7.457031 -0.519531 7.117188 -0.347656 6.671875 -0.171875 C 6.222656 0.00390625 5.664062 0.0976562 5 0.109375 L 4.90625 0.375 C 5.257812 0.375 5.535156 0.476562 5.734375 0.6875 C 5.941406 0.894531 6.046875 1.15625 6.046875 1.46875 C 6.046875 1.757812 5.941406 2.015625 5.734375 2.234375 C 5.535156 2.460938 5.257812 2.578125 4.90625 2.578125 C 4.550781 2.578125 4.296875 2.484375 4.140625 2.296875 C 3.992188 2.109375 3.921875 2.015625 3.921875 2.015625 L 4.09375 1.84375 C 4.09375 1.84375 4.160156 1.921875 4.296875 2.078125 C 4.441406 2.242188 4.628906 2.328125 4.859375 2.328125 C 5.085938 2.328125 5.269531 2.238281 5.40625 2.0625 C 5.550781 1.894531 5.625 1.695312 5.625 1.46875 C 5.625 1.226562 5.550781 1.023438 5.40625 0.859375 C 5.269531 0.691406 5.101562 0.609375 4.90625 0.609375 Z M 4.90625 0.609375 "/></g></g></g><g fill="#000000" fill-opacity="1"><g transform="translate(185.442167, 313.332635)"><g><path d="M 3.28125 -9.328125 C 3.28125 -9.328125 3.3125 -9.390625 3.375 -9.515625 C 3.4375 -9.648438 3.53125 -9.78125 3.65625 -9.90625 C 3.789062 -10.03125 3.96875 -10.09375 4.1875 -10.09375 C 4.5 -10.09375 4.710938 -10.015625 4.828125 -9.859375 C 4.953125 -9.703125 5.132812 -9.625 5.375 -9.625 C 5.632812 -9.625 5.816406 -9.703125 5.921875 -9.859375 C 6.035156 -10.015625 6.09375 -10.09375 6.09375 -10.09375 L 6.203125 -9.953125 C 6.203125 -9.953125 6.175781 -9.890625 6.125 -9.765625 C 6.070312 -9.640625 5.984375 -9.507812 5.859375 -9.375 C 5.734375 -9.25 5.554688 -9.1875 5.328125 -9.1875 C 5.140625 -9.1875 4.988281 -9.226562 4.875 -9.3125 C 4.769531 -9.394531 4.664062 -9.472656 4.5625 -9.546875 C 4.46875 -9.628906 4.328125 -9.671875 4.140625 -9.671875 C 3.890625 -9.671875 3.707031 -9.585938 3.59375 -9.421875 C 3.476562 -9.265625 3.421875 -9.1875 3.421875 -9.1875 Z M 4.75 -8.4375 C 4.25 -8.4375 3.789062 -8.257812 3.375 -7.90625 C 2.957031 -7.5625 2.625 -7.078125 2.375 -6.453125 C 2.125 -5.835938 2 -5.113281 2 -4.28125 C 2 -3.457031 2.125 -2.726562 2.375 -2.09375 C 2.625 -1.46875 2.957031 -0.976562 3.375 -0.625 C 3.789062 -0.28125 4.25 -0.109375 4.75 -0.109375 C 5.5 -0.109375 6.140625 -0.488281 6.671875 -1.25 C 7.203125 -2.007812 7.46875 -3.019531 7.46875 -4.28125 C 7.46875 -5.519531 7.203125 -6.519531 6.671875 -7.28125 C 6.140625 -8.050781 5.5 -8.4375 4.75 -8.4375 Z M 4.75 -8.703125 C 5.46875 -8.703125 6.117188 -8.519531 6.703125 -8.15625 C 7.285156 -7.789062 7.75 -7.273438 8.09375 -6.609375 C 8.445312 -5.941406 8.625 -5.164062 8.625 -4.28125 C 8.625 -3.394531 8.445312 -2.617188 8.09375 -1.953125 C 7.75 -1.296875 7.285156 -0.785156 6.703125 -0.421875 C 6.117188 -0.0664062 5.46875 0.109375 4.75 0.109375 C 4.03125 0.109375 3.375 -0.0664062 2.78125 -0.421875 C 2.1875 -0.785156 1.710938 -1.296875 1.359375 -1.953125 C 1.015625 -2.617188 0.84375 -3.394531 0.84375 -4.28125 C 0.84375 -5.164062 1.015625 -5.941406 1.359375 -6.609375 C 1.710938 -7.273438 2.1875 -7.789062 2.78125 -8.15625 C 3.375 -8.519531 4.03125 -8.703125 4.75 -8.703125 Z M 4.75 -8.703125 "/></g></g></g><g fill="#000000" fill-opacity="1"><g transform="translate(201.340379, 313.332635)"><g><path d="M 0.71875 -8.5625 L 6.515625 -8.5625 L 6.515625 -7 L 6.28125 -7 L 6.28125 -7.46875 C 6.28125 -7.707031 6.191406 -7.910156 6.015625 -8.078125 C 5.847656 -8.242188 5.640625 -8.328125 5.390625 -8.328125 L 2.375 -8.328125 L 2.375 -4.390625 L 4.859375 -4.390625 C 5.054688 -4.390625 5.21875 -4.453125 5.34375 -4.578125 C 5.46875 -4.703125 5.53125 -4.863281 5.53125 -5.0625 L 5.53125 -5.53125 L 5.765625 -5.53125 L 5.765625 -3.015625 L 5.53125 -3.015625 L 5.53125 -3.484375 C 5.53125 -3.691406 5.46875 -3.851562 5.34375 -3.96875 C 5.21875 -4.09375 5.054688 -4.15625 4.859375 -4.15625 L 2.375 -4.15625 L 2.375 -0.25 L 5.34375 -0.25 C 5.613281 -0.25 5.84375 -0.332031 6.03125 -0.5 C 6.226562 -0.675781 6.332031 -0.894531 6.34375 -1.15625 L 6.390625 -1.578125 L 6.625 -1.578125 L 6.515625 0 L 0.71875 0 L 0.71875 -0.25 L 0.96875 -0.25 C 1.125 -0.25 1.203125 -0.328125 1.203125 -0.484375 L 1.203125 -8.109375 C 1.203125 -8.253906 1.125 -8.328125 0.96875 -8.328125 L 0.71875 -8.328125 Z M 0.71875 -8.5625 "/></g></g></g><g fill="#000000" fill-opacity="1"><g transform="translate(215.263328, 313.332635)"><g><path d="M 3.84375 -8.4375 C 3.25 -8.4375 2.789062 -8.289062 2.46875 -8 C 2.15625 -7.71875 2 -7.359375 2 -6.921875 C 2 -6.492188 2.15625 -6.140625 2.46875 -5.859375 C 2.789062 -5.578125 3.179688 -5.320312 3.640625 -5.09375 C 4.109375 -4.875 4.578125 -4.640625 5.046875 -4.390625 C 5.515625 -4.140625 5.90625 -3.835938 6.21875 -3.484375 C 6.539062 -3.128906 6.703125 -2.664062 6.703125 -2.09375 C 6.703125 -1.425781 6.40625 -0.890625 5.8125 -0.484375 C 5.21875 -0.0859375 4.46875 0.109375 3.5625 0.109375 C 2.988281 0.109375 2.492188 0.0195312 2.078125 -0.15625 C 1.671875 -0.34375 1.363281 -0.53125 1.15625 -0.71875 C 0.945312 -0.90625 0.84375 -1 0.84375 -1 L 0.953125 -1.90625 L 1.15625 -1.90625 C 1.15625 -1.90625 1.195312 -1.816406 1.28125 -1.640625 C 1.375 -1.460938 1.507812 -1.253906 1.6875 -1.015625 C 1.875 -0.773438 2.125 -0.5625 2.4375 -0.375 C 2.75 -0.195312 3.125 -0.109375 3.5625 -0.109375 C 4.144531 -0.109375 4.617188 -0.253906 4.984375 -0.546875 C 5.347656 -0.847656 5.53125 -1.238281 5.53125 -1.71875 C 5.53125 -2.21875 5.367188 -2.617188 5.046875 -2.921875 C 4.734375 -3.222656 4.34375 -3.476562 3.875 -3.6875 C 3.414062 -3.90625 2.953125 -4.128906 2.484375 -4.359375 C 2.023438 -4.585938 1.632812 -4.863281 1.3125 -5.1875 C 1 -5.507812 0.84375 -5.9375 0.84375 -6.46875 C 0.84375 -7.101562 1.101562 -7.632812 1.625 -8.0625 C 2.15625 -8.488281 2.894531 -8.703125 3.84375 -8.703125 C 4.394531 -8.703125 4.863281 -8.609375 5.25 -8.421875 C 5.632812 -8.234375 5.925781 -8.039062 6.125 -7.84375 C 6.332031 -7.65625 6.4375 -7.5625 6.4375 -7.5625 L 6.34375 -6.671875 L 6.109375 -6.671875 C 6.109375 -6.671875 6.070312 -6.757812 6 -6.9375 C 5.9375 -7.113281 5.816406 -7.316406 5.640625 -7.546875 C 5.460938 -7.785156 5.226562 -7.992188 4.9375 -8.171875 C 4.65625 -8.347656 4.289062 -8.4375 3.84375 -8.4375 Z M 3.84375 -8.4375 "/></g></g></g><g fill="#000000" fill-opacity="1"><g transform="translate(229.279238, 313.332635)"><g/></g></g><g fill="#000000" fill-opacity="1"><g transform="translate(239.855878, 313.332635)"><g><path d="M 7.234375 -4.28125 C 7.234375 -5.644531 6.957031 -6.660156 6.40625 -7.328125 C 5.851562 -7.992188 5.070312 -8.328125 4.0625 -8.328125 L 2.375 -8.328125 L 2.375 -0.25 L 4.0625 -0.25 C 5.070312 -0.25 5.851562 -0.570312 6.40625 -1.21875 C 6.957031 -1.875 7.234375 -2.894531 7.234375 -4.28125 Z M 4.28125 -8.5625 C 5.53125 -8.5625 6.523438 -8.226562 7.265625 -7.5625 C 8.015625 -6.90625 8.390625 -5.8125 8.390625 -4.28125 C 8.390625 -2.738281 8.015625 -1.640625 7.265625 -0.984375 C 6.523438 -0.328125 5.53125 0 4.28125 0 L 0.71875 0 L 0.71875 -0.25 L 0.96875 -0.25 C 1.125 -0.25 1.203125 -0.328125 1.203125 -0.484375 L 1.203125 -8.140625 C 1.203125 -8.273438 1.125 -8.34375 0.96875 -8.34375 L 0.71875 -8.34375 L 0.71875 -8.5625 Z M 4.28125 -8.5625 "/></g></g></g><g fill="#000000" fill-opacity="1"><g transform="translate(255.568181, 313.332635)"><g><path d="M 0.71875 -8.5625 L 6.515625 -8.5625 L 6.515625 -7 L 6.28125 -7 L 6.28125 -7.46875 C 6.28125 -7.707031 6.191406 -7.910156 6.015625 -8.078125 C 5.847656 -8.242188 5.640625 -8.328125 5.390625 -8.328125 L 2.375 -8.328125 L 2.375 -4.390625 L 4.859375 -4.390625 C 5.054688 -4.390625 5.21875 -4.453125 5.34375 -4.578125 C 5.46875 -4.703125 5.53125 -4.863281 5.53125 -5.0625 L 5.53125 -5.53125 L 5.765625 -5.53125 L 5.765625 -3.015625 L 5.53125 -3.015625 L 5.53125 -3.484375 C 5.53125 -3.691406 5.46875 -3.851562 5.34375 -3.96875 C 5.21875 -4.09375 5.054688 -4.15625 4.859375 -4.15625 L 2.375 -4.15625 L 2.375 -0.25 L 5.34375 -0.25 C 5.613281 -0.25 5.84375 -0.332031 6.03125 -0.5 C 6.226562 -0.675781 6.332031 -0.894531 6.34375 -1.15625 L 6.390625 -1.578125 L 6.625 -1.578125 L 6.515625 0 L 0.71875 0 L 0.71875 -0.25 L 0.96875 -0.25 C 1.125 -0.25 1.203125 -0.328125 1.203125 -0.484375 L 1.203125 -8.109375 C 1.203125 -8.253906 1.125 -8.328125 0.96875 -8.328125 L 0.71875 -8.328125 Z M 0.71875 -8.5625 "/></g></g></g><g fill="#000000" fill-opacity="1"><g transform="translate(119.129587, 341.082633)"><g><path d="M 0.53125 -8.5625 L 6.828125 -8.5625 L 6.953125 -7 L 6.71875 -7 L 6.671875 -7.390625 C 6.660156 -7.648438 6.554688 -7.867188 6.359375 -8.046875 C 6.160156 -8.234375 5.929688 -8.328125 5.671875 -8.328125 L 4.25 -8.328125 L 4.25 -0.484375 C 4.25 -0.328125 4.335938 -0.25 4.515625 -0.25 L 4.75 -0.25 L 4.75 0 L 2.609375 0 L 2.609375 -0.25 L 2.859375 -0.25 C 3.015625 -0.25 3.09375 -0.328125 3.09375 -0.484375 L 3.09375 -8.328125 L 1.703125 -8.328125 C 1.429688 -8.328125 1.203125 -8.234375 1.015625 -8.046875 C 0.835938 -7.867188 0.734375 -7.648438 0.703125 -7.390625 L 0.65625 -7 L 0.390625 -7 Z M 0.53125 -8.5625 "/></g></g></g><g fill="#000000" fill-opacity="1"><g transform="translate(132.959588, 341.082633)"><g><path d="M 0.71875 -8.5625 L 6.515625 -8.5625 L 6.515625 -7 L 6.28125 -7 L 6.28125 -7.46875 C 6.28125 -7.707031 6.191406 -7.910156 6.015625 -8.078125 C 5.847656 -8.242188 5.640625 -8.328125 5.390625 -8.328125 L 2.375 -8.328125 L 2.375 -4.390625 L 4.859375 -4.390625 C 5.054688 -4.390625 5.21875 -4.453125 5.34375 -4.578125 C 5.46875 -4.703125 5.53125 -4.863281 5.53125 -5.0625 L 5.53125 -5.53125 L 5.765625 -5.53125 L 5.765625 -3.015625 L 5.53125 -3.015625 L 5.53125 -3.484375 C 5.53125 -3.691406 5.46875 -3.851562 5.34375 -3.96875 C 5.21875 -4.09375 5.054688 -4.15625 4.859375 -4.15625 L 2.375 -4.15625 L 2.375 -0.25 L 5.34375 -0.25 C 5.613281 -0.25 5.84375 -0.332031 6.03125 -0.5 C 6.226562 -0.675781 6.332031 -0.894531 6.34375 -1.15625 L 6.390625 -1.578125 L 6.625 -1.578125 L 6.515625 0 L 0.71875 0 L 0.71875 -0.25 L 0.96875 -0.25 C 1.125 -0.25 1.203125 -0.328125 1.203125 -0.484375 L 1.203125 -8.109375 C 1.203125 -8.253906 1.125 -8.328125 0.96875 -8.328125 L 0.71875 -8.328125 Z M 0.71875 -8.5625 "/></g></g></g><g fill="#000000" fill-opacity="1"><g transform="translate(146.882537, 341.082633)"><g><path d="M 0.84375 -4.28125 C 0.84375 -5.625 1.210938 -6.695312 1.953125 -7.5 C 2.691406 -8.300781 3.660156 -8.703125 4.859375 -8.703125 C 5.535156 -8.703125 6.109375 -8.609375 6.578125 -8.421875 C 7.054688 -8.242188 7.421875 -8.0625 7.671875 -7.875 C 7.921875 -7.695312 8.046875 -7.609375 8.046875 -7.609375 L 7.921875 -6.515625 L 7.71875 -6.515625 C 7.71875 -6.515625 7.691406 -6.609375 7.640625 -6.796875 C 7.585938 -6.992188 7.46875 -7.21875 7.28125 -7.46875 C 7.101562 -7.726562 6.832031 -7.953125 6.46875 -8.140625 C 6.101562 -8.335938 5.613281 -8.4375 5 -8.4375 C 4.175781 -8.4375 3.46875 -8.101562 2.875 -7.4375 C 2.289062 -6.769531 2 -5.71875 2 -4.28125 C 2 -3.351562 2.148438 -2.585938 2.453125 -1.984375 C 2.765625 -1.390625 3.171875 -0.945312 3.671875 -0.65625 C 4.179688 -0.375 4.738281 -0.234375 5.34375 -0.234375 C 5.84375 -0.234375 6.28125 -0.304688 6.65625 -0.453125 C 7.039062 -0.597656 7.335938 -0.742188 7.546875 -0.890625 C 7.765625 -1.035156 7.875 -1.109375 7.875 -1.109375 L 8.046875 -0.953125 C 8.046875 -0.953125 7.925781 -0.863281 7.6875 -0.6875 C 7.445312 -0.507812 7.085938 -0.332031 6.609375 -0.15625 C 6.140625 0.0195312 5.554688 0.109375 4.859375 0.109375 C 4.117188 0.109375 3.445312 -0.0546875 2.84375 -0.390625 C 2.238281 -0.722656 1.753906 -1.21875 1.390625 -1.875 C 1.023438 -2.53125 0.84375 -3.332031 0.84375 -4.28125 Z M 0.84375 -4.28125 "/></g></g></g><g fill="#000000" fill-opacity="1"><g transform="translate(161.804739, 341.082633)"><g><path d="M 0.71875 -8.5625 L 2.1875 -8.5625 L 7.015625 -1.671875 L 7.015625 -8.0625 C 7.015625 -8.238281 6.9375 -8.328125 6.78125 -8.328125 L 6.5625 -8.328125 L 6.5625 -8.5625 L 7.765625 -8.5625 L 7.765625 -8.328125 L 7.53125 -8.328125 C 7.363281 -8.328125 7.28125 -8.238281 7.28125 -8.0625 L 7.28125 0.109375 L 7.015625 0.109375 L 1.46875 -7.53125 L 1.46875 -0.484375 C 1.46875 -0.328125 1.546875 -0.25 1.703125 -0.25 L 1.953125 -0.25 L 1.953125 0 L 0.71875 0 L 0.71875 -0.25 L 0.96875 -0.25 C 1.125 -0.25 1.203125 -0.328125 1.203125 -0.484375 L 1.203125 -8.0625 C 1.203125 -8.238281 1.125 -8.328125 0.96875 -8.328125 L 0.71875 -8.328125 Z M 0.71875 -8.5625 "/></g></g></g><g fill="#000000" fill-opacity="1"><g transform="translate(176.726942, 341.082633)"><g><path d="M 4.75 -8.4375 C 4.25 -8.4375 3.789062 -8.257812 3.375 -7.90625 C 2.957031 -7.5625 2.625 -7.078125 2.375 -6.453125 C 2.125 -5.835938 2 -5.113281 2 -4.28125 C 2 -3.457031 2.125 -2.726562 2.375 -2.09375 C 2.625 -1.46875 2.957031 -0.976562 3.375 -0.625 C 3.789062 -0.28125 4.25 -0.109375 4.75 -0.109375 C 5.5 -0.109375 6.140625 -0.488281 6.671875 -1.25 C 7.203125 -2.007812 7.46875 -3.019531 7.46875 -4.28125 C 7.46875 -5.519531 7.203125 -6.519531 6.671875 -7.28125 C 6.140625 -8.050781 5.5 -8.4375 4.75 -8.4375 Z M 4.75 -8.703125 C 5.46875 -8.703125 6.117188 -8.519531 6.703125 -8.15625 C 7.285156 -7.789062 7.75 -7.273438 8.09375 -6.609375 C 8.445312 -5.941406 8.625 -5.164062 8.625 -4.28125 C 8.625 -3.394531 8.445312 -2.617188 8.09375 -1.953125 C 7.75 -1.296875 7.285156 -0.785156 6.703125 -0.421875 C 6.117188 -0.0664062 5.46875 0.109375 4.75 0.109375 C 4.03125 0.109375 3.375 -0.0664062 2.78125 -0.421875 C 2.1875 -0.785156 1.710938 -1.296875 1.359375 -1.953125 C 1.015625 -2.617188 0.84375 -3.394531 0.84375 -4.28125 C 0.84375 -5.164062 1.015625 -5.941406 1.359375 -6.609375 C 1.710938 -7.273438 2.1875 -7.789062 2.78125 -8.15625 C 3.375 -8.519531 4.03125 -8.703125 4.75 -8.703125 Z M 4.75 -8.703125 "/></g></g></g><g fill="#000000" fill-opacity="1"><g transform="translate(192.625153, 341.082633)"><g><path d="M 0.71875 -8.5625 L 2.859375 -8.5625 L 2.859375 -8.328125 L 2.625 -8.328125 C 2.457031 -8.328125 2.375 -8.238281 2.375 -8.0625 L 2.375 -0.25 L 5.34375 -0.25 C 5.613281 -0.25 5.84375 -0.332031 6.03125 -0.5 C 6.226562 -0.675781 6.332031 -0.894531 6.34375 -1.15625 L 6.390625 -1.578125 L 6.625 -1.578125 L 6.515625 0 L 0.71875 0 L 0.71875 -0.25 L 0.96875 -0.25 C 1.125 -0.25 1.203125 -0.328125 1.203125 -0.484375 L 1.203125 -8.0625 C 1.203125 -8.238281 1.125 -8.328125 0.96875 -8.328125 L 0.71875 -8.328125 Z M 0.71875 -8.5625 "/></g></g></g><g fill="#000000" fill-opacity="1"><g transform="translate(206.153053, 341.082633)"><g><path d="M 4.75 -8.4375 C 4.25 -8.4375 3.789062 -8.257812 3.375 -7.90625 C 2.957031 -7.5625 2.625 -7.078125 2.375 -6.453125 C 2.125 -5.835938 2 -5.113281 2 -4.28125 C 2 -3.457031 2.125 -2.726562 2.375 -2.09375 C 2.625 -1.46875 2.957031 -0.976562 3.375 -0.625 C 3.789062 -0.28125 4.25 -0.109375 4.75 -0.109375 C 5.5 -0.109375 6.140625 -0.488281 6.671875 -1.25 C 7.203125 -2.007812 7.46875 -3.019531 7.46875 -4.28125 C 7.46875 -5.519531 7.203125 -6.519531 6.671875 -7.28125 C 6.140625 -8.050781 5.5 -8.4375 4.75 -8.4375 Z M 4.75 -8.703125 C 5.46875 -8.703125 6.117188 -8.519531 6.703125 -8.15625 C 7.285156 -7.789062 7.75 -7.273438 8.09375 -6.609375 C 8.445312 -5.941406 8.625 -5.164062 8.625 -4.28125 C 8.625 -3.394531 8.445312 -2.617188 8.09375 -1.953125 C 7.75 -1.296875 7.285156 -0.785156 6.703125 -0.421875 C 6.117188 -0.0664062 5.46875 0.109375 4.75 0.109375 C 4.03125 0.109375 3.375 -0.0664062 2.78125 -0.421875 C 2.1875 -0.785156 1.710938 -1.296875 1.359375 -1.953125 C 1.015625 -2.617188 0.84375 -3.394531 0.84375 -4.28125 C 0.84375 -5.164062 1.015625 -5.941406 1.359375 -6.609375 C 1.710938 -7.273438 2.1875 -7.789062 2.78125 -8.15625 C 3.375 -8.519531 4.03125 -8.703125 4.75 -8.703125 Z M 4.75 -8.703125 "/></g></g></g><g fill="#000000" fill-opacity="1"><g transform="translate(222.051265, 341.082633)"><g><path d="M 4.8125 -8.703125 C 5.476562 -8.703125 6.039062 -8.609375 6.5 -8.421875 C 6.96875 -8.242188 7.328125 -8.0625 7.578125 -7.875 C 7.835938 -7.695312 7.96875 -7.609375 7.96875 -7.609375 L 7.859375 -6.515625 L 7.65625 -6.515625 C 7.65625 -6.515625 7.625 -6.609375 7.5625 -6.796875 C 7.507812 -6.992188 7.394531 -7.21875 7.21875 -7.46875 C 7.039062 -7.726562 6.769531 -7.953125 6.40625 -8.140625 C 6.050781 -8.335938 5.566406 -8.4375 4.953125 -8.4375 C 4.023438 -8.4375 3.289062 -8.078125 2.75 -7.359375 C 2.207031 -6.640625 1.9375 -5.648438 1.9375 -4.390625 C 1.9375 -3.109375 2.191406 -2.070312 2.703125 -1.28125 C 3.210938 -0.5 3.914062 -0.109375 4.8125 -0.109375 C 5.28125 -0.109375 5.65625 -0.171875 5.9375 -0.296875 C 6.226562 -0.421875 6.441406 -0.550781 6.578125 -0.6875 C 6.710938 -0.820312 6.78125 -0.890625 6.78125 -0.890625 L 6.78125 -3.796875 C 6.78125 -3.960938 6.707031 -4.046875 6.5625 -4.046875 L 5.53125 -4.046875 L 5.53125 -4.28125 L 7.953125 -4.28125 L 7.953125 -1.09375 C 7.953125 -1.09375 7.84375 -0.988281 7.625 -0.78125 C 7.40625 -0.582031 7.0625 -0.382812 6.59375 -0.1875 C 6.132812 0.0078125 5.539062 0.109375 4.8125 0.109375 C 3.550781 0.109375 2.5625 -0.28125 1.84375 -1.0625 C 1.125 -1.851562 0.765625 -2.925781 0.765625 -4.28125 C 0.765625 -5.59375 1.117188 -6.65625 1.828125 -7.46875 C 2.546875 -8.289062 3.539062 -8.703125 4.8125 -8.703125 Z M 4.8125 -8.703125 "/></g></g></g><g fill="#000000" fill-opacity="1"><g transform="translate(237.69385, 341.082633)"><g><path d="M 2.859375 -8.5625 L 2.859375 -8.328125 L 2.625 -8.328125 C 2.457031 -8.328125 2.375 -8.238281 2.375 -8.0625 L 2.375 -0.484375 C 2.375 -0.328125 2.457031 -0.25 2.625 -0.25 L 2.859375 -0.25 L 2.859375 0 L 0.71875 0 L 0.71875 -0.25 L 0.96875 -0.25 C 1.125 -0.25 1.203125 -0.328125 1.203125 -0.484375 L 1.203125 -8.0625 C 1.203125 -8.238281 1.125 -8.328125 0.96875 -8.328125 L 0.71875 -8.328125 L 0.71875 -8.5625 Z M 2.859375 -8.5625 "/></g></g></g><g fill="#000000" fill-opacity="1"><g transform="translate(247.759248, 341.082633)"><g><path d="M 3.96875 -8.703125 L 4.234375 -8.703125 L 7.15625 -0.578125 C 7.238281 -0.359375 7.390625 -0.25 7.609375 -0.25 L 7.765625 -0.25 L 7.765625 0 L 5.609375 0 L 5.609375 -0.25 L 5.859375 -0.25 C 5.890625 -0.25 5.921875 -0.265625 5.953125 -0.296875 C 5.984375 -0.328125 5.988281 -0.359375 5.96875 -0.390625 L 5.28125 -2.328125 L 1.9375 -2.328125 L 1.25 -0.390625 C 1.238281 -0.347656 1.238281 -0.316406 1.25 -0.296875 C 1.28125 -0.265625 1.320312 -0.25 1.375 -0.25 L 1.625 -0.25 L 1.625 0 L 0.390625 0 L 0.390625 -0.25 L 0.578125 -0.25 C 0.816406 -0.25 0.972656 -0.359375 1.046875 -0.578125 Z M 2.015625 -2.578125 L 5.1875 -2.578125 L 3.609375 -7.046875 Z M 2.015625 -2.578125 "/></g></g></g></svg>