<svg xmlns="http://www.w3.org/2000/svg" xmlns:xlink="http://www.w3.org/1999/xlink" width="500" zoomAndPan="magnify" viewBox="0 0 375 374.999991" height="500" preserveAspectRatio="xMidYMid meet" version="1.0"><defs><g/><clipPath id="ab0385397a"><path d="M 78.917969 152 L 296.1875 152 L 296.1875 187.398438 L 78.917969 187.398438 Z M 78.917969 152 " clip-rule="nonzero"/></clipPath><clipPath id="f9ad56f883"><path d="M 107 42.761719 L 268 42.761719 L 268 144 L 107 144 Z M 107 42.761719 " clip-rule="nonzero"/></clipPath><clipPath id="5b33c12010"><path d="M 159.867188 54.609375 L 215.054688 54.609375 L 215.054688 128.195312 L 159.867188 128.195312 Z M 159.867188 54.609375 " clip-rule="nonzero"/></clipPath></defs><g clip-path="url(#ab0385397a)"><path fill="#000000" d="M 218.898438 178.324219 L 156.207031 178.324219 C 155.777344 178.324219 155.5 177.867188 155.699219 177.484375 L 160.523438 168.199219 C 160.621094 168.011719 160.820312 167.890625 161.03125 167.890625 L 214.074219 167.890625 C 214.289062 167.890625 214.484375 168.011719 214.582031 168.199219 L 219.410156 177.484375 C 219.609375 177.867188 219.332031 178.324219 218.898438 178.324219 Z M 294.804688 179.375 L 268.839844 153.429688 C 267.957031 152.542969 266.753906 152.042969 265.5 152.042969 L 109.609375 152.042969 C 108.355469 152.042969 107.152344 152.542969 106.265625 153.429688 L 80.304688 179.375 C 79.417969 180.261719 78.917969 181.464844 78.917969 182.71875 C 78.917969 185.328125 81.035156 187.441406 83.644531 187.441406 L 291.460938 187.441406 C 294.070312 187.441406 296.1875 185.328125 296.1875 182.71875 C 296.1875 181.464844 295.691406 180.261719 294.804688 179.375 " fill-opacity="1" fill-rule="nonzero"/></g><g clip-path="url(#f9ad56f883)"><path fill="#000000" d="M 259.6875 42.59375 L 115.421875 42.59375 C 111.246094 42.59375 107.832031 46.007812 107.832031 50.179688 L 107.832031 135.789062 C 107.832031 139.960938 111.246094 143.375 115.421875 143.375 L 259.6875 143.375 C 263.859375 143.375 267.277344 139.960938 267.277344 135.789062 L 267.277344 50.179688 C 267.277344 46.007812 263.859375 42.59375 259.6875 42.59375 Z M 258.492188 51.375 L 258.492188 134.59375 L 116.613281 134.59375 L 116.613281 51.375 L 258.492188 51.375 " fill-opacity="1" fill-rule="nonzero"/></g><g fill="#000000" fill-opacity="1"><g transform="translate(122.154357, 110.204054)"><g><path d="M 6.03125 -17.15625 C 8.96875 -15.6875 10.4375 -12.984375 10.4375 -9.046875 L 10.4375 -0.75 C 10.4375 1.425781 10.882812 2.921875 11.78125 3.734375 C 12.6875 4.554688 14.394531 4.96875 16.90625 4.96875 L 16.90625 8.359375 C 15.394531 8.359375 14 8.285156 12.71875 8.140625 C 11.445312 7.992188 10.328125 7.628906 9.359375 7.046875 C 7.304688 5.742188 6.28125 3.164062 6.28125 -0.6875 L 6.28125 -9.75 C 6.28125 -11.675781 5.695312 -13.203125 4.53125 -14.328125 C 3.5625 -15.253906 2.488281 -15.71875 1.3125 -15.71875 L 1.3125 -18.609375 C 2.488281 -18.609375 3.4375 -18.960938 4.15625 -19.671875 C 5.570312 -21.015625 6.28125 -22.648438 6.28125 -24.578125 L 6.28125 -33.625 C 6.28125 -39.03125 8.421875 -41.988281 12.703125 -42.5 C 13.992188 -42.625 15.394531 -42.6875 16.90625 -42.6875 L 16.90625 -39.28125 C 14.394531 -39.28125 12.6875 -38.867188 11.78125 -38.046875 C 10.882812 -37.234375 10.4375 -35.738281 10.4375 -33.5625 L 10.4375 -25.265625 C 10.4375 -22.921875 9.992188 -21.117188 9.109375 -19.859375 C 8.234375 -18.609375 7.207031 -17.707031 6.03125 -17.15625 Z M 6.03125 -17.15625 "/></g></g></g><g fill="#000000" fill-opacity="1"><g transform="translate(140.634824, 110.204054)"><g/></g></g><g fill="#000000" fill-opacity="1"><g transform="translate(154.02139, 110.204054)"><g/></g></g><g fill="#000000" fill-opacity="1"><g transform="translate(167.407955, 110.204054)"><g/></g></g><g fill="#000000" fill-opacity="1"><g transform="translate(180.794521, 110.204054)"><g/></g></g><g fill="#000000" fill-opacity="1"><g transform="translate(194.181086, 110.204054)"><g/></g></g><g fill="#000000" fill-opacity="1"><g transform="translate(207.567651, 110.204054)"><g/></g></g><g fill="#000000" fill-opacity="1"><g transform="translate(220.954217, 110.204054)"><g/></g></g><g fill="#000000" fill-opacity="1"><g transform="translate(234.349662, 110.204054)"><g><path d="M 8.046875 -9.046875 C 8.046875 -12.984375 9.515625 -15.6875 12.453125 -17.15625 C 11.273438 -17.707031 10.242188 -18.609375 9.359375 -19.859375 C 8.484375 -21.117188 8.046875 -22.921875 8.046875 -25.265625 L 8.046875 -33.5625 C 8.046875 -35.738281 7.59375 -37.234375 6.6875 -38.046875 C 5.789062 -38.867188 4.085938 -39.28125 1.578125 -39.28125 L 1.578125 -42.6875 C 3.078125 -42.6875 4.46875 -42.609375 5.75 -42.453125 C 7.03125 -42.304688 8.148438 -41.941406 9.109375 -41.359375 C 11.160156 -40.054688 12.1875 -37.476562 12.1875 -33.625 L 12.1875 -24.578125 C 12.1875 -22.648438 12.773438 -21.117188 13.953125 -19.984375 C 14.921875 -19.066406 15.988281 -18.609375 17.15625 -18.609375 L 17.15625 -15.71875 C 15.988281 -15.71875 15.046875 -15.359375 14.328125 -14.640625 C 12.898438 -13.304688 12.1875 -11.675781 12.1875 -9.75 L 12.1875 -0.6875 C 12.1875 4.71875 10.050781 7.671875 5.78125 8.171875 C 4.476562 8.296875 3.078125 8.359375 1.578125 8.359375 L 1.578125 4.96875 C 4.085938 4.96875 5.789062 4.554688 6.6875 3.734375 C 7.59375 2.921875 8.046875 1.425781 8.046875 -0.75 Z M 8.046875 -9.046875 "/></g></g></g><g clip-path="url(#5b33c12010)"><path fill="#2c3e50" d="M 182.144531 91.523438 L 182.144531 96.699219 L 178.378906 95.054688 C 177.972656 94.871094 177.566406 94.6875 177.160156 94.496094 C 175.777344 93.851562 174.398438 93.160156 173.019531 92.421875 C 171.230469 91.464844 169.613281 90.359375 168.167969 89.09375 C 166.71875 87.832031 165.546875 86.355469 164.65625 84.660156 C 163.761719 82.964844 163.316406 81.007812 163.316406 78.792969 C 163.316406 76.265625 163.898438 73.96875 165.070312 71.90625 C 166.242188 69.84375 167.84375 68.085938 169.875 66.636719 C 171.910156 65.191406 174.328125 64.082031 177.132812 63.3125 C 179.933594 62.542969 182.96875 62.15625 186.234375 62.15625 C 189.6875 62.15625 192.75 62.558594 195.429688 63.359375 C 198.109375 64.160156 200.40625 65.113281 202.316406 66.222656 C 204.226562 67.332031 205.796875 68.457031 207.03125 69.597656 C 208.261719 70.738281 209.1875 71.675781 209.800781 72.414062 L 205.921875 84.058594 C 205.675781 77.160156 203.722656 71.9375 200.066406 68.394531 C 196.410156 64.851562 191.628906 63.082031 185.730469 63.082031 C 183.269531 63.082031 180.964844 63.390625 178.816406 64.003906 C 176.664062 64.621094 174.804688 65.53125 173.238281 66.730469 C 171.671875 67.933594 170.425781 69.378906 169.503906 71.074219 C 168.582031 72.769531 168.121094 74.722656 168.121094 76.941406 C 168.121094 80.332031 169.121094 83.027344 171.117188 85.027344 C 172.8125 86.726562 174.828125 88.144531 177.164062 89.289062 C 177.582031 89.496094 178.011719 89.691406 178.449219 89.878906 Z M 208.601562 105.726562 C 207.25 103.96875 205.574219 102.476562 203.574219 101.242188 C 201.578125 100.011719 199.441406 98.933594 197.167969 98.011719 C 195.480469 97.324219 193.894531 96.675781 192.410156 96.054688 L 192.410156 101.191406 C 193.5 101.675781 194.644531 102.183594 195.84375 102.722656 C 197.632812 103.523438 199.277344 104.460938 200.789062 105.539062 C 202.296875 106.617188 203.546875 107.882812 204.53125 109.328125 C 205.519531 110.777344 206.011719 112.457031 206.011719 114.363281 C 206.011719 116.027344 205.59375 117.648438 204.765625 119.214844 C 203.933594 120.789062 202.765625 122.175781 201.257812 123.375 C 199.75 124.578125 197.9375 125.53125 195.8125 126.238281 C 193.691406 126.949219 191.308594 127.300781 188.664062 127.300781 C 185.894531 127.300781 183.144531 126.871094 180.40625 126.007812 C 177.667969 125.144531 175.242188 123.851562 173.117188 122.125 C 170.996094 120.402344 169.320312 118.214844 168.089844 115.566406 C 166.859375 112.914062 166.394531 109.835938 166.703125 106.324219 L 159.867188 112.703125 C 160.851562 115.292969 162.359375 117.558594 164.394531 119.5 C 166.429688 121.4375 168.75 123.054688 171.367188 124.351562 C 173.980469 125.644531 176.765625 126.613281 179.714844 127.261719 C 182.667969 127.910156 185.53125 128.230469 188.300781 128.230469 C 191.621094 128.230469 194.667969 127.785156 197.4375 126.890625 C 200.203125 126 202.558594 124.8125 204.496094 123.335938 C 206.433594 121.855469 207.941406 120.144531 209.019531 118.203125 C 210.09375 116.265625 210.632812 114.214844 210.632812 112.058594 C 210.628906 109.59375 209.953125 107.484375 208.601562 105.726562 Z M 191.378906 116.539062 C 190.394531 115.15625 189.902344 113.324219 189.902344 111.042969 L 189.902344 64.441406 C 188.582031 64.210938 187.191406 64.097656 185.726562 64.097656 C 185.515625 64.097656 185.304688 64.101562 185.097656 64.105469 L 185.097656 111.042969 C 185.097656 113.324219 184.589844 115.152344 183.574219 116.539062 C 182.558594 117.925781 180.9375 118.898438 178.722656 119.453125 L 178.722656 119.542969 L 196.1875 119.542969 L 196.1875 119.453125 C 193.96875 118.898438 192.367188 117.925781 191.378906 116.539062 Z M 213.097656 54.667969 C 212.789062 54.914062 212.375 55.082031 211.851562 55.175781 C 211.328125 55.265625 210.910156 55.3125 210.601562 55.3125 L 164.394531 55.3125 C 164.085938 55.3125 163.65625 55.265625 163.101562 55.175781 C 162.546875 55.082031 162.117188 54.914062 161.808594 54.667969 L 159.867188 72.964844 L 160.421875 72.964844 C 160.667969 69.453125 161.265625 66.667969 162.222656 64.601562 C 163.175781 62.539062 164.300781 60.96875 165.597656 59.890625 C 166.890625 58.8125 168.277344 58.101562 169.753906 57.761719 C 171.230469 57.425781 172.648438 57.253906 174.007812 57.253906 L 185.09375 57.253906 L 185.09375 59.984375 C 185.472656 59.972656 185.851562 59.964844 186.230469 59.964844 C 187.5 59.964844 188.722656 60.019531 189.902344 60.128906 L 189.902344 57.253906 L 200.898438 57.253906 C 202.253906 57.253906 203.667969 57.425781 205.148438 57.761719 C 206.628906 58.101562 208.015625 58.8125 209.308594 59.890625 C 210.601562 60.96875 211.726562 62.539062 212.683594 64.601562 C 213.636719 66.667969 214.269531 69.453125 214.578125 72.964844 L 215.128906 72.964844 Z M 213.097656 54.667969 " fill-opacity="1" fill-rule="nonzero"/></g><g fill="#000000" fill-opacity="1"><g transform="translate(87.54797, 225.315043)"><g><path d="M 8.984375 -20.0625 L 1.4375 -20.0625 L 1.4375 -22.40625 L 19.078125 -22.40625 L 19.078125 -20.0625 L 11.515625 -20.0625 L 11.515625 0 L 8.984375 0 Z M 8.984375 -20.0625 "/></g></g></g><g fill="#000000" fill-opacity="1"><g transform="translate(113.814937, 225.315043)"><g><path d="M 3.171875 -22.40625 L 12.796875 -22.40625 C 14.179688 -22.40625 15.410156 -22.207031 16.484375 -21.8125 C 17.566406 -21.414062 18.460938 -20.863281 19.171875 -20.15625 C 19.722656 -19.601562 20.144531 -18.953125 20.4375 -18.203125 C 20.738281 -17.460938 20.890625 -16.644531 20.890625 -15.75 L 20.890625 -15.6875 C 20.890625 -14.738281 20.738281 -13.894531 20.4375 -13.15625 C 20.144531 -12.425781 19.726562 -11.789062 19.1875 -11.25 C 18.644531 -10.707031 18 -10.257812 17.25 -9.90625 C 16.5 -9.550781 15.6875 -9.300781 14.8125 -9.15625 L 21.703125 0 L 18.59375 0 L 12.09375 -8.703125 L 5.703125 -8.703125 L 5.703125 0 L 3.171875 0 Z M 12.578125 -10.96875 C 13.410156 -10.96875 14.175781 -11.070312 14.875 -11.28125 C 15.582031 -11.5 16.191406 -11.804688 16.703125 -12.203125 C 17.210938 -12.597656 17.613281 -13.078125 17.90625 -13.640625 C 18.195312 -14.210938 18.34375 -14.859375 18.34375 -15.578125 L 18.34375 -15.640625 C 18.34375 -17.035156 17.835938 -18.117188 16.828125 -18.890625 C 15.828125 -19.671875 14.421875 -20.0625 12.609375 -20.0625 L 5.703125 -20.0625 L 5.703125 -10.96875 Z M 12.578125 -10.96875 "/></g></g></g><g fill="#000000" fill-opacity="1"><g transform="translate(142.705256, 225.315043)"><g><path d="M 11.453125 -22.5625 L 13.828125 -22.5625 L 24.03125 0 L 21.3125 0 L 18.6875 -5.921875 L 6.5 -5.921875 L 3.84375 0 L 1.25 0 Z M 17.703125 -8.1875 L 12.609375 -19.609375 L 7.484375 -8.1875 Z M 17.703125 -8.1875 "/></g></g></g><g fill="#000000" fill-opacity="1"><g transform="translate(173.739039, 225.315043)"><g><path d="M 3.171875 -22.40625 L 12.703125 -22.40625 C 13.984375 -22.40625 15.117188 -22.226562 16.109375 -21.875 C 17.097656 -21.519531 17.914062 -21.035156 18.5625 -20.421875 C 19.519531 -19.410156 20 -18.210938 20 -16.828125 L 20 -16.765625 C 20 -16.046875 19.894531 -15.398438 19.6875 -14.828125 C 19.488281 -14.265625 19.21875 -13.773438 18.875 -13.359375 C 18.539062 -12.941406 18.164062 -12.585938 17.75 -12.296875 C 17.332031 -12.015625 16.898438 -11.773438 16.453125 -11.578125 C 17.109375 -11.390625 17.726562 -11.140625 18.3125 -10.828125 C 18.90625 -10.523438 19.414062 -10.160156 19.84375 -9.734375 C 20.269531 -9.304688 20.609375 -8.796875 20.859375 -8.203125 C 21.117188 -7.617188 21.25 -6.941406 21.25 -6.171875 L 21.25 -6.109375 C 21.25 -5.148438 21.054688 -4.289062 20.671875 -3.53125 C 20.285156 -2.78125 19.734375 -2.140625 19.015625 -1.609375 C 18.304688 -1.085938 17.445312 -0.6875 16.4375 -0.40625 C 15.4375 -0.132812 14.332031 0 13.125 0 L 3.171875 0 Z M 17.4375 -16.484375 C 17.4375 -17.585938 17.007812 -18.46875 16.15625 -19.125 C 15.300781 -19.789062 14.078125 -20.125 12.484375 -20.125 L 5.65625 -20.125 L 5.65625 -12.421875 L 12.28125 -12.421875 C 13.820312 -12.421875 15.066406 -12.753906 16.015625 -13.421875 C 16.960938 -14.097656 17.4375 -15.097656 17.4375 -16.421875 Z M 18.6875 -6.34375 C 18.6875 -7.550781 18.1875 -8.488281 17.1875 -9.15625 C 16.1875 -9.832031 14.703125 -10.171875 12.734375 -10.171875 L 5.65625 -10.171875 L 5.65625 -2.265625 L 13.1875 -2.265625 C 14.894531 -2.265625 16.238281 -2.617188 17.21875 -3.328125 C 18.195312 -4.035156 18.6875 -5.015625 18.6875 -6.265625 Z M 18.6875 -6.34375 "/></g></g></g><g fill="#000000" fill-opacity="1"><g transform="translate(202.597363, 225.315043)"><g><path d="M 11.453125 -22.5625 L 13.828125 -22.5625 L 24.03125 0 L 21.3125 0 L 18.6875 -5.921875 L 6.5 -5.921875 L 3.84375 0 L 1.25 0 Z M 17.703125 -8.1875 L 12.609375 -19.609375 L 7.484375 -8.1875 Z M 17.703125 -8.1875 "/></g></g></g><g fill="#000000" fill-opacity="1"><g transform="translate(233.631151, 225.315043)"><g><path d="M 13.40625 0.390625 C 11.78125 0.390625 10.285156 0.09375 8.921875 -0.5 C 7.554688 -1.101562 6.375 -1.921875 5.375 -2.953125 C 4.375 -3.992188 3.585938 -5.21875 3.015625 -6.625 C 2.453125 -8.03125 2.171875 -9.535156 2.171875 -11.140625 L 2.171875 -11.203125 C 2.171875 -12.773438 2.453125 -14.265625 3.015625 -15.671875 C 3.585938 -17.085938 4.375 -18.320312 5.375 -19.375 C 6.375 -20.425781 7.566406 -21.253906 8.953125 -21.859375 C 10.347656 -22.472656 11.863281 -22.78125 13.5 -22.78125 C 14.53125 -22.78125 15.453125 -22.691406 16.265625 -22.515625 C 17.085938 -22.347656 17.847656 -22.109375 18.546875 -21.796875 C 19.253906 -21.492188 19.90625 -21.125 20.5 -20.6875 C 21.101562 -20.25 21.679688 -19.765625 22.234375 -19.234375 L 20.515625 -17.375 C 19.554688 -18.269531 18.523438 -19.003906 17.421875 -19.578125 C 16.328125 -20.160156 15.007812 -20.453125 13.46875 -20.453125 C 12.226562 -20.453125 11.082031 -20.21875 10.03125 -19.75 C 8.976562 -19.28125 8.0625 -18.628906 7.28125 -17.796875 C 6.5 -16.960938 5.890625 -15.984375 5.453125 -14.859375 C 5.015625 -13.742188 4.796875 -12.546875 4.796875 -11.265625 L 4.796875 -11.203125 C 4.796875 -9.898438 5.015625 -8.6875 5.453125 -7.5625 C 5.890625 -6.445312 6.5 -5.472656 7.28125 -4.640625 C 8.0625 -3.804688 8.976562 -3.148438 10.03125 -2.671875 C 11.082031 -2.191406 12.226562 -1.953125 13.46875 -1.953125 C 15.007812 -1.953125 16.332031 -2.234375 17.4375 -2.796875 C 18.550781 -3.359375 19.640625 -4.15625 20.703125 -5.1875 L 22.375 -3.546875 C 21.789062 -2.953125 21.179688 -2.414062 20.546875 -1.9375 C 19.921875 -1.457031 19.242188 -1.046875 18.515625 -0.703125 C 17.796875 -0.359375 17.019531 -0.09375 16.1875 0.09375 C 15.351562 0.289062 14.425781 0.390625 13.40625 0.390625 Z M 13.40625 0.390625 "/></g></g></g><g fill="#000000" fill-opacity="1"><g transform="translate(263.129326, 225.315043)"><g><path d="M 3.171875 -22.40625 L 5.703125 -22.40625 L 5.703125 -12.453125 L 18.625 -12.453125 L 18.625 -22.40625 L 21.15625 -22.40625 L 21.15625 0 L 18.625 0 L 18.625 -10.078125 L 5.703125 -10.078125 L 5.703125 0 L 3.171875 0 Z M 3.171875 -22.40625 "/></g></g></g><g fill="#000000" fill-opacity="1"><g transform="translate(57.008909, 260.56504)"><g><path d="M 10.84375 0.3125 C 9.050781 0.3125 7.414062 0.0195312 5.9375 -0.5625 C 4.457031 -1.144531 3.046875 -2.046875 1.703125 -3.265625 L 3.265625 -5.125 C 4.441406 -4.050781 5.625 -3.253906 6.8125 -2.734375 C 8.007812 -2.210938 9.382812 -1.953125 10.9375 -1.953125 C 12.457031 -1.953125 13.671875 -2.304688 14.578125 -3.015625 C 15.484375 -3.734375 15.9375 -4.648438 15.9375 -5.765625 L 15.9375 -5.828125 C 15.9375 -6.335938 15.847656 -6.800781 15.671875 -7.21875 C 15.503906 -7.632812 15.207031 -8.007812 14.78125 -8.34375 C 14.351562 -8.6875 13.757812 -9 13 -9.28125 C 12.25 -9.5625 11.285156 -9.828125 10.109375 -10.078125 C 8.828125 -10.359375 7.710938 -10.675781 6.765625 -11.03125 C 5.816406 -11.394531 5.03125 -11.832031 4.40625 -12.34375 C 3.789062 -12.863281 3.332031 -13.460938 3.03125 -14.140625 C 2.738281 -14.828125 2.59375 -15.628906 2.59375 -16.546875 L 2.59375 -16.609375 C 2.59375 -17.484375 2.773438 -18.289062 3.140625 -19.03125 C 3.503906 -19.78125 4.015625 -20.425781 4.671875 -20.96875 C 5.328125 -21.519531 6.101562 -21.945312 7 -22.25 C 7.90625 -22.5625 8.890625 -22.71875 9.953125 -22.71875 C 11.597656 -22.71875 13.03125 -22.488281 14.25 -22.03125 C 15.476562 -21.570312 16.671875 -20.882812 17.828125 -19.96875 L 16.359375 -18.015625 C 15.304688 -18.867188 14.25 -19.488281 13.1875 -19.875 C 12.132812 -20.257812 11.035156 -20.453125 9.890625 -20.453125 C 8.421875 -20.453125 7.257812 -20.101562 6.40625 -19.40625 C 5.550781 -18.71875 5.125 -17.859375 5.125 -16.828125 L 5.125 -16.765625 C 5.125 -16.234375 5.207031 -15.757812 5.375 -15.34375 C 5.539062 -14.925781 5.847656 -14.539062 6.296875 -14.1875 C 6.742188 -13.832031 7.363281 -13.507812 8.15625 -13.21875 C 8.945312 -12.9375 9.960938 -12.671875 11.203125 -12.421875 C 13.691406 -11.859375 15.53125 -11.085938 16.71875 -10.109375 C 17.90625 -9.128906 18.5 -7.785156 18.5 -6.078125 L 18.5 -6.015625 C 18.5 -5.054688 18.304688 -4.1875 17.921875 -3.40625 C 17.535156 -2.625 17.003906 -1.957031 16.328125 -1.40625 C 15.660156 -0.851562 14.859375 -0.425781 13.921875 -0.125 C 12.984375 0.164062 11.957031 0.3125 10.84375 0.3125 Z M 10.84375 0.3125 "/></g></g></g><g fill="#000000" fill-opacity="1"><g transform="translate(83.243878, 260.56504)"><g><path d="M 13.5625 0.390625 C 11.863281 0.390625 10.3125 0.0820312 8.90625 -0.53125 C 7.507812 -1.15625 6.3125 -1.992188 5.3125 -3.046875 C 4.3125 -4.109375 3.535156 -5.335938 2.984375 -6.734375 C 2.441406 -8.128906 2.171875 -9.597656 2.171875 -11.140625 L 2.171875 -11.203125 C 2.171875 -12.734375 2.445312 -14.203125 3 -15.609375 C 3.5625 -17.023438 4.34375 -18.257812 5.34375 -19.3125 C 6.34375 -20.363281 7.546875 -21.203125 8.953125 -21.828125 C 10.367188 -22.460938 11.925781 -22.78125 13.625 -22.78125 C 15.332031 -22.78125 16.882812 -22.46875 18.28125 -21.84375 C 19.6875 -21.226562 20.890625 -20.394531 21.890625 -19.34375 C 22.890625 -18.289062 23.660156 -17.0625 24.203125 -15.65625 C 24.753906 -14.257812 25.03125 -12.796875 25.03125 -11.265625 L 25.03125 -11.203125 C 25.03125 -9.660156 24.75 -8.1875 24.1875 -6.78125 C 23.632812 -5.375 22.859375 -4.140625 21.859375 -3.078125 C 20.859375 -2.023438 19.648438 -1.179688 18.234375 -0.546875 C 16.828125 0.078125 15.269531 0.390625 13.5625 0.390625 Z M 13.625 -1.953125 C 14.90625 -1.953125 16.082031 -2.191406 17.15625 -2.671875 C 18.238281 -3.148438 19.164062 -3.804688 19.9375 -4.640625 C 20.707031 -5.472656 21.3125 -6.441406 21.75 -7.546875 C 22.1875 -8.660156 22.40625 -9.859375 22.40625 -11.140625 L 22.40625 -11.203125 C 22.40625 -12.484375 22.1875 -13.679688 21.75 -14.796875 C 21.3125 -15.921875 20.695312 -16.894531 19.90625 -17.71875 C 19.113281 -18.550781 18.175781 -19.210938 17.09375 -19.703125 C 16.019531 -20.203125 14.84375 -20.453125 13.5625 -20.453125 C 12.28125 -20.453125 11.101562 -20.210938 10.03125 -19.734375 C 8.957031 -19.253906 8.035156 -18.597656 7.265625 -17.765625 C 6.492188 -16.929688 5.890625 -15.957031 5.453125 -14.84375 C 5.015625 -13.738281 4.796875 -12.546875 4.796875 -11.265625 L 4.796875 -11.203125 C 4.796875 -9.921875 5.015625 -8.71875 5.453125 -7.59375 C 5.890625 -6.476562 6.503906 -5.503906 7.296875 -4.671875 C 8.085938 -3.835938 9.019531 -3.175781 10.09375 -2.6875 C 11.175781 -2.195312 12.351562 -1.953125 13.625 -1.953125 Z M 13.625 -1.953125 "/></g></g></g><g fill="#000000" fill-opacity="1"><g transform="translate(116.197193, 260.56504)"><g><path d="M 3.171875 -22.40625 L 19.265625 -22.40625 L 19.265625 -20.0625 L 5.703125 -20.0625 L 5.703125 -12.0625 L 17.828125 -12.0625 L 17.828125 -9.765625 L 5.703125 -9.765625 L 5.703125 0 L 3.171875 0 Z M 3.171875 -22.40625 "/></g></g></g><g fill="#000000" fill-opacity="1"><g transform="translate(142.944031, 260.56504)"><g><path d="M 8.984375 -20.0625 L 1.4375 -20.0625 L 1.4375 -22.40625 L 19.078125 -22.40625 L 19.078125 -20.0625 L 11.515625 -20.0625 L 11.515625 0 L 8.984375 0 Z M 8.984375 -20.0625 "/></g></g></g><g fill="#000000" fill-opacity="1"><g transform="translate(169.211001, 260.56504)"><g><path d="M 1.4375 -22.40625 L 4.1875 -22.40625 L 10.59375 -3.75 L 16.734375 -22.46875 L 18.8125 -22.46875 L 24.953125 -3.75 L 31.359375 -22.40625 L 34.015625 -22.40625 L 26.015625 0.15625 L 23.875 0.15625 L 17.734375 -18.015625 L 11.546875 0.15625 L 9.4375 0.15625 Z M 1.4375 -22.40625 "/></g></g></g><g fill="#000000" fill-opacity="1"><g transform="translate(210.386303, 260.56504)"><g><path d="M 11.453125 -22.5625 L 13.828125 -22.5625 L 24.03125 0 L 21.3125 0 L 18.6875 -5.921875 L 6.5 -5.921875 L 3.84375 0 L 1.25 0 Z M 17.703125 -8.1875 L 12.609375 -19.609375 L 7.484375 -8.1875 Z M 17.703125 -8.1875 "/></g></g></g><g fill="#000000" fill-opacity="1"><g transform="translate(241.420091, 260.56504)"><g><path d="M 3.171875 -22.40625 L 12.796875 -22.40625 C 14.179688 -22.40625 15.410156 -22.207031 16.484375 -21.8125 C 17.566406 -21.414062 18.460938 -20.863281 19.171875 -20.15625 C 19.722656 -19.601562 20.144531 -18.953125 20.4375 -18.203125 C 20.738281 -17.460938 20.890625 -16.644531 20.890625 -15.75 L 20.890625 -15.6875 C 20.890625 -14.738281 20.738281 -13.894531 20.4375 -13.15625 C 20.144531 -12.425781 19.726562 -11.789062 19.1875 -11.25 C 18.644531 -10.707031 18 -10.257812 17.25 -9.90625 C 16.5 -9.550781 15.6875 -9.300781 14.8125 -9.15625 L 21.703125 0 L 18.59375 0 L 12.09375 -8.703125 L 5.703125 -8.703125 L 5.703125 0 L 3.171875 0 Z M 12.578125 -10.96875 C 13.410156 -10.96875 14.175781 -11.070312 14.875 -11.28125 C 15.582031 -11.5 16.191406 -11.804688 16.703125 -12.203125 C 17.210938 -12.597656 17.613281 -13.078125 17.90625 -13.640625 C 18.195312 -14.210938 18.34375 -14.859375 18.34375 -15.578125 L 18.34375 -15.640625 C 18.34375 -17.035156 17.835938 -18.117188 16.828125 -18.890625 C 15.828125 -19.671875 14.421875 -20.0625 12.609375 -20.0625 L 5.703125 -20.0625 L 5.703125 -10.96875 Z M 12.578125 -10.96875 "/></g></g></g><g fill="#000000" fill-opacity="1"><g transform="translate(270.310401, 260.56504)"><g><path d="M 3.171875 -22.40625 L 19.359375 -22.40625 L 19.359375 -20.09375 L 5.703125 -20.09375 L 5.703125 -12.453125 L 17.921875 -12.453125 L 17.921875 -10.140625 L 5.703125 -10.140625 L 5.703125 -2.296875 L 19.515625 -2.296875 L 19.515625 0 L 3.171875 0 Z M 3.171875 -22.40625 "/></g></g></g><g fill="#000000" fill-opacity="1"><g transform="translate(297.505132, 260.56504)"><g><path d="M 10.84375 0.3125 C 9.050781 0.3125 7.414062 0.0195312 5.9375 -0.5625 C 4.457031 -1.144531 3.046875 -2.046875 1.703125 -3.265625 L 3.265625 -5.125 C 4.441406 -4.050781 5.625 -3.253906 6.8125 -2.734375 C 8.007812 -2.210938 9.382812 -1.953125 10.9375 -1.953125 C 12.457031 -1.953125 13.671875 -2.304688 14.578125 -3.015625 C 15.484375 -3.734375 15.9375 -4.648438 15.9375 -5.765625 L 15.9375 -5.828125 C 15.9375 -6.335938 15.847656 -6.800781 15.671875 -7.21875 C 15.503906 -7.632812 15.207031 -8.007812 14.78125 -8.34375 C 14.351562 -8.6875 13.757812 -9 13 -9.28125 C 12.25 -9.5625 11.285156 -9.828125 10.109375 -10.078125 C 8.828125 -10.359375 7.710938 -10.675781 6.765625 -11.03125 C 5.816406 -11.394531 5.03125 -11.832031 4.40625 -12.34375 C 3.789062 -12.863281 3.332031 -13.460938 3.03125 -14.140625 C 2.738281 -14.828125 2.59375 -15.628906 2.59375 -16.546875 L 2.59375 -16.609375 C 2.59375 -17.484375 2.773438 -18.289062 3.140625 -19.03125 C 3.503906 -19.78125 4.015625 -20.425781 4.671875 -20.96875 C 5.328125 -21.519531 6.101562 -21.945312 7 -22.25 C 7.90625 -22.5625 8.890625 -22.71875 9.953125 -22.71875 C 11.597656 -22.71875 13.03125 -22.488281 14.25 -22.03125 C 15.476562 -21.570312 16.671875 -20.882812 17.828125 -19.96875 L 16.359375 -18.015625 C 15.304688 -18.867188 14.25 -19.488281 13.1875 -19.875 C 12.132812 -20.257812 11.035156 -20.453125 9.890625 -20.453125 C 8.421875 -20.453125 7.257812 -20.101562 6.40625 -19.40625 C 5.550781 -18.71875 5.125 -17.859375 5.125 -16.828125 L 5.125 -16.765625 C 5.125 -16.234375 5.207031 -15.757812 5.375 -15.34375 C 5.539062 -14.925781 5.847656 -14.539062 6.296875 -14.1875 C 6.742188 -13.832031 7.363281 -13.507812 8.15625 -13.21875 C 8.945312 -12.9375 9.960938 -12.671875 11.203125 -12.421875 C 13.691406 -11.859375 15.53125 -11.085938 16.71875 -10.109375 C 17.90625 -9.128906 18.5 -7.785156 18.5 -6.078125 L 18.5 -6.015625 C 18.5 -5.054688 18.304688 -4.1875 17.921875 -3.40625 C 17.535156 -2.625 17.003906 -1.957031 16.328125 -1.40625 C 15.660156 -0.851562 14.859375 -0.425781 13.921875 -0.125 C 12.984375 0.164062 11.957031 0.3125 10.84375 0.3125 Z M 10.84375 0.3125 "/></g></g></g><g fill="#000000" fill-opacity="1"><g transform="translate(50.276501, 287.927676)"><g><path d="M 4.484375 0.125 C 3.742188 0.125 3.066406 0.00390625 2.453125 -0.234375 C 1.835938 -0.472656 1.253906 -0.84375 0.703125 -1.34375 L 1.34375 -2.125 C 1.832031 -1.675781 2.320312 -1.34375 2.8125 -1.125 C 3.3125 -0.914062 3.882812 -0.8125 4.53125 -0.8125 C 5.15625 -0.8125 5.65625 -0.957031 6.03125 -1.25 C 6.40625 -1.550781 6.59375 -1.929688 6.59375 -2.390625 L 6.59375 -2.40625 C 6.59375 -2.625 6.554688 -2.816406 6.484375 -2.984375 C 6.421875 -3.160156 6.300781 -3.316406 6.125 -3.453125 C 5.945312 -3.597656 5.703125 -3.726562 5.390625 -3.84375 C 5.078125 -3.957031 4.675781 -4.066406 4.1875 -4.171875 C 3.65625 -4.285156 3.191406 -4.414062 2.796875 -4.5625 C 2.410156 -4.71875 2.085938 -4.898438 1.828125 -5.109375 C 1.566406 -5.328125 1.375 -5.578125 1.25 -5.859375 C 1.132812 -6.140625 1.078125 -6.46875 1.078125 -6.84375 L 1.078125 -6.875 C 1.078125 -7.238281 1.148438 -7.570312 1.296875 -7.875 C 1.453125 -8.1875 1.664062 -8.453125 1.9375 -8.671875 C 2.207031 -8.898438 2.523438 -9.078125 2.890625 -9.203125 C 3.265625 -9.335938 3.675781 -9.40625 4.125 -9.40625 C 4.800781 -9.40625 5.394531 -9.3125 5.90625 -9.125 C 6.414062 -8.9375 6.90625 -8.648438 7.375 -8.265625 L 6.765625 -7.453125 C 6.335938 -7.804688 5.90625 -8.0625 5.46875 -8.21875 C 5.03125 -8.382812 4.570312 -8.46875 4.09375 -8.46875 C 3.488281 -8.46875 3.007812 -8.320312 2.65625 -8.03125 C 2.300781 -7.75 2.125 -7.394531 2.125 -6.96875 L 2.125 -6.9375 C 2.125 -6.71875 2.15625 -6.519531 2.21875 -6.34375 C 2.289062 -6.175781 2.421875 -6.019531 2.609375 -5.875 C 2.796875 -5.726562 3.050781 -5.59375 3.375 -5.46875 C 3.707031 -5.351562 4.128906 -5.242188 4.640625 -5.140625 C 5.671875 -4.910156 6.429688 -4.59375 6.921875 -4.1875 C 7.410156 -3.78125 7.65625 -3.222656 7.65625 -2.515625 L 7.65625 -2.484375 C 7.65625 -2.085938 7.578125 -1.726562 7.421875 -1.40625 C 7.265625 -1.082031 7.046875 -0.804688 6.765625 -0.578125 C 6.484375 -0.347656 6.148438 -0.171875 5.765625 -0.046875 C 5.378906 0.0664062 4.953125 0.125 4.484375 0.125 Z M 4.484375 0.125 "/></g></g></g><g fill="#000000" fill-opacity="1"><g transform="translate(62.461544, 287.927676)"><g><path d="M 5.625 0.15625 C 4.914062 0.15625 4.269531 0.03125 3.6875 -0.21875 C 3.113281 -0.476562 2.617188 -0.828125 2.203125 -1.265625 C 1.785156 -1.703125 1.460938 -2.207031 1.234375 -2.78125 C 1.015625 -3.363281 0.90625 -3.972656 0.90625 -4.609375 L 0.90625 -4.640625 C 0.90625 -5.273438 1.019531 -5.882812 1.25 -6.46875 C 1.476562 -7.050781 1.796875 -7.5625 2.203125 -8 C 2.617188 -8.4375 3.117188 -8.785156 3.703125 -9.046875 C 4.285156 -9.304688 4.929688 -9.4375 5.640625 -9.4375 C 6.347656 -9.4375 6.988281 -9.304688 7.5625 -9.046875 C 8.144531 -8.796875 8.644531 -8.453125 9.0625 -8.015625 C 9.476562 -7.578125 9.796875 -7.066406 10.015625 -6.484375 C 10.242188 -5.910156 10.359375 -5.300781 10.359375 -4.65625 L 10.359375 -4.640625 C 10.359375 -4.003906 10.242188 -3.394531 10.015625 -2.8125 C 9.785156 -2.226562 9.460938 -1.71875 9.046875 -1.28125 C 8.628906 -0.84375 8.128906 -0.492188 7.546875 -0.234375 C 6.960938 0.0234375 6.320312 0.15625 5.625 0.15625 Z M 5.640625 -0.8125 C 6.171875 -0.8125 6.660156 -0.910156 7.109375 -1.109375 C 7.554688 -1.304688 7.9375 -1.578125 8.25 -1.921875 C 8.570312 -2.265625 8.820312 -2.664062 9 -3.125 C 9.1875 -3.582031 9.28125 -4.078125 9.28125 -4.609375 L 9.28125 -4.640625 C 9.28125 -5.171875 9.1875 -5.664062 9 -6.125 C 8.820312 -6.59375 8.566406 -7 8.234375 -7.34375 C 7.910156 -7.6875 7.523438 -7.957031 7.078125 -8.15625 C 6.628906 -8.363281 6.144531 -8.46875 5.625 -8.46875 C 5.09375 -8.46875 4.601562 -8.367188 4.15625 -8.171875 C 3.707031 -7.972656 3.320312 -7.703125 3 -7.359375 C 2.6875 -7.015625 2.4375 -6.609375 2.25 -6.140625 C 2.070312 -5.679688 1.984375 -5.1875 1.984375 -4.65625 L 1.984375 -4.640625 C 1.984375 -4.109375 2.070312 -3.609375 2.25 -3.140625 C 2.4375 -2.679688 2.691406 -2.28125 3.015625 -1.9375 C 3.347656 -1.59375 3.734375 -1.316406 4.171875 -1.109375 C 4.617188 -0.910156 5.109375 -0.8125 5.640625 -0.8125 Z M 5.640625 -0.8125 "/></g></g></g><g fill="#000000" fill-opacity="1"><g transform="translate(77.427455, 287.927676)"><g><path d="M 1.3125 -9.28125 L 2.359375 -9.28125 L 2.359375 -0.96875 L 7.578125 -0.96875 L 7.578125 0 L 1.3125 0 Z M 1.3125 -9.28125 "/></g></g></g><g fill="#000000" fill-opacity="1"><g transform="translate(89.281442, 287.927676)"><g><path d="M 5.015625 0.140625 C 4.441406 0.140625 3.921875 0.0546875 3.453125 -0.109375 C 2.984375 -0.285156 2.578125 -0.539062 2.234375 -0.875 C 1.890625 -1.21875 1.625 -1.640625 1.4375 -2.140625 C 1.257812 -2.648438 1.171875 -3.226562 1.171875 -3.875 L 1.171875 -9.28125 L 2.21875 -9.28125 L 2.21875 -3.953125 C 2.21875 -2.941406 2.460938 -2.164062 2.953125 -1.625 C 3.453125 -1.09375 4.148438 -0.828125 5.046875 -0.828125 C 5.898438 -0.828125 6.578125 -1.082031 7.078125 -1.59375 C 7.585938 -2.101562 7.84375 -2.863281 7.84375 -3.875 L 7.84375 -9.28125 L 8.890625 -9.28125 L 8.890625 -3.96875 C 8.890625 -3.28125 8.796875 -2.679688 8.609375 -2.171875 C 8.421875 -1.660156 8.15625 -1.234375 7.8125 -0.890625 C 7.476562 -0.546875 7.070312 -0.285156 6.59375 -0.109375 C 6.125 0.0546875 5.597656 0.140625 5.015625 0.140625 Z M 5.015625 0.140625 "/></g></g></g><g fill="#000000" fill-opacity="1"><g transform="translate(103.042315, 287.927676)"><g><path d="M 3.890625 1.609375 L 4.921875 0.125 C 4.335938 0.0390625 3.796875 -0.132812 3.296875 -0.40625 C 2.804688 -0.675781 2.382812 -1.019531 2.03125 -1.4375 C 1.675781 -1.851562 1.398438 -2.332031 1.203125 -2.875 C 1.003906 -3.425781 0.90625 -4.003906 0.90625 -4.609375 L 0.90625 -4.640625 C 0.90625 -5.296875 1.019531 -5.910156 1.25 -6.484375 C 1.488281 -7.066406 1.8125 -7.578125 2.21875 -8.015625 C 2.632812 -8.453125 3.128906 -8.796875 3.703125 -9.046875 C 4.285156 -9.304688 4.914062 -9.4375 5.59375 -9.4375 C 6.019531 -9.4375 6.398438 -9.398438 6.734375 -9.328125 C 7.078125 -9.253906 7.394531 -9.15625 7.6875 -9.03125 C 7.976562 -8.90625 8.242188 -8.75 8.484375 -8.5625 C 8.734375 -8.382812 8.972656 -8.1875 9.203125 -7.96875 L 8.5 -7.1875 C 8.09375 -7.5625 7.660156 -7.867188 7.203125 -8.109375 C 6.753906 -8.347656 6.210938 -8.46875 5.578125 -8.46875 C 5.066406 -8.46875 4.59375 -8.367188 4.15625 -8.171875 C 3.71875 -7.984375 3.335938 -7.710938 3.015625 -7.359375 C 2.691406 -7.015625 2.4375 -6.609375 2.25 -6.140625 C 2.070312 -5.679688 1.984375 -5.1875 1.984375 -4.65625 L 1.984375 -4.640625 C 1.984375 -4.097656 2.070312 -3.59375 2.25 -3.125 C 2.4375 -2.664062 2.691406 -2.265625 3.015625 -1.921875 C 3.335938 -1.578125 3.71875 -1.304688 4.15625 -1.109375 C 4.59375 -0.910156 5.066406 -0.8125 5.578125 -0.8125 C 6.210938 -0.8125 6.757812 -0.925781 7.21875 -1.15625 C 7.675781 -1.394531 8.128906 -1.722656 8.578125 -2.140625 L 9.265625 -1.46875 C 9.035156 -1.226562 8.796875 -1.015625 8.546875 -0.828125 C 8.296875 -0.640625 8.03125 -0.472656 7.75 -0.328125 C 7.46875 -0.191406 7.160156 -0.0820312 6.828125 0 C 6.503906 0.0820312 6.148438 0.128906 5.765625 0.140625 L 4.890625 2.046875 Z M 3.890625 1.609375 "/></g></g></g><g fill="#000000" fill-opacity="1"><g transform="translate(116.578072, 287.927676)"><g><path d="M 6.59375 -10.21875 C 6.445312 -10.21875 6.285156 -10.25 6.109375 -10.3125 C 5.929688 -10.375 5.753906 -10.441406 5.578125 -10.515625 C 5.441406 -10.566406 5.304688 -10.613281 5.171875 -10.65625 C 5.046875 -10.707031 4.929688 -10.734375 4.828125 -10.734375 C 4.648438 -10.734375 4.515625 -10.6875 4.421875 -10.59375 C 4.328125 -10.5 4.234375 -10.335938 4.140625 -10.109375 L 3.484375 -10.28125 C 3.617188 -10.75 3.78125 -11.09375 3.96875 -11.3125 C 4.164062 -11.53125 4.421875 -11.640625 4.734375 -11.640625 C 4.890625 -11.640625 5.050781 -11.609375 5.21875 -11.546875 C 5.394531 -11.484375 5.570312 -11.414062 5.75 -11.34375 C 5.894531 -11.289062 6.03125 -11.238281 6.15625 -11.1875 C 6.289062 -11.144531 6.40625 -11.125 6.5 -11.125 C 6.675781 -11.125 6.8125 -11.171875 6.90625 -11.265625 C 7 -11.367188 7.097656 -11.53125 7.203125 -11.75 L 7.84375 -11.5625 C 7.707031 -11.101562 7.539062 -10.765625 7.34375 -10.546875 C 7.15625 -10.328125 6.90625 -10.21875 6.59375 -10.21875 Z M 5.625 0.15625 C 4.914062 0.15625 4.269531 0.03125 3.6875 -0.21875 C 3.113281 -0.476562 2.617188 -0.828125 2.203125 -1.265625 C 1.785156 -1.703125 1.460938 -2.207031 1.234375 -2.78125 C 1.015625 -3.363281 0.90625 -3.972656 0.90625 -4.609375 L 0.90625 -4.640625 C 0.90625 -5.273438 1.019531 -5.882812 1.25 -6.46875 C 1.476562 -7.050781 1.796875 -7.5625 2.203125 -8 C 2.617188 -8.4375 3.117188 -8.785156 3.703125 -9.046875 C 4.285156 -9.304688 4.929688 -9.4375 5.640625 -9.4375 C 6.347656 -9.4375 6.988281 -9.304688 7.5625 -9.046875 C 8.144531 -8.796875 8.644531 -8.453125 9.0625 -8.015625 C 9.476562 -7.578125 9.796875 -7.066406 10.015625 -6.484375 C 10.242188 -5.910156 10.359375 -5.300781 10.359375 -4.65625 L 10.359375 -4.640625 C 10.359375 -4.003906 10.242188 -3.394531 10.015625 -2.8125 C 9.785156 -2.226562 9.460938 -1.71875 9.046875 -1.28125 C 8.628906 -0.84375 8.128906 -0.492188 7.546875 -0.234375 C 6.960938 0.0234375 6.320312 0.15625 5.625 0.15625 Z M 5.640625 -0.8125 C 6.171875 -0.8125 6.660156 -0.910156 7.109375 -1.109375 C 7.554688 -1.304688 7.9375 -1.578125 8.25 -1.921875 C 8.570312 -2.265625 8.820312 -2.664062 9 -3.125 C 9.1875 -3.582031 9.28125 -4.078125 9.28125 -4.609375 L 9.28125 -4.640625 C 9.28125 -5.171875 9.1875 -5.664062 9 -6.125 C 8.820312 -6.59375 8.566406 -7 8.234375 -7.34375 C 7.910156 -7.6875 7.523438 -7.957031 7.078125 -8.15625 C 6.628906 -8.363281 6.144531 -8.46875 5.625 -8.46875 C 5.09375 -8.46875 4.601562 -8.367188 4.15625 -8.171875 C 3.707031 -7.972656 3.320312 -7.703125 3 -7.359375 C 2.6875 -7.015625 2.4375 -6.609375 2.25 -6.140625 C 2.070312 -5.679688 1.984375 -5.1875 1.984375 -4.65625 L 1.984375 -4.640625 C 1.984375 -4.109375 2.070312 -3.609375 2.25 -3.140625 C 2.4375 -2.679688 2.691406 -2.28125 3.015625 -1.9375 C 3.347656 -1.59375 3.734375 -1.316406 4.171875 -1.109375 C 4.617188 -0.910156 5.109375 -0.8125 5.640625 -0.8125 Z M 5.640625 -0.8125 "/></g></g></g><g fill="#000000" fill-opacity="1"><g transform="translate(131.543985, 287.927676)"><g><path d="M 1.3125 -9.28125 L 8.015625 -9.28125 L 8.015625 -8.328125 L 2.359375 -8.328125 L 2.359375 -5.15625 L 7.421875 -5.15625 L 7.421875 -4.203125 L 2.359375 -4.203125 L 2.359375 -0.953125 L 8.078125 -0.953125 L 8.078125 0 L 1.3125 0 Z M 1.3125 -9.28125 "/></g></g></g><g fill="#000000" fill-opacity="1"><g transform="translate(144.126299, 287.927676)"><g><path d="M 4.484375 0.125 C 3.742188 0.125 3.066406 0.00390625 2.453125 -0.234375 C 1.835938 -0.472656 1.253906 -0.84375 0.703125 -1.34375 L 1.34375 -2.125 C 1.832031 -1.675781 2.320312 -1.34375 2.8125 -1.125 C 3.3125 -0.914062 3.882812 -0.8125 4.53125 -0.8125 C 5.15625 -0.8125 5.65625 -0.957031 6.03125 -1.25 C 6.40625 -1.550781 6.59375 -1.929688 6.59375 -2.390625 L 6.59375 -2.40625 C 6.59375 -2.625 6.554688 -2.816406 6.484375 -2.984375 C 6.421875 -3.160156 6.300781 -3.316406 6.125 -3.453125 C 5.945312 -3.597656 5.703125 -3.726562 5.390625 -3.84375 C 5.078125 -3.957031 4.675781 -4.066406 4.1875 -4.171875 C 3.65625 -4.285156 3.191406 -4.414062 2.796875 -4.5625 C 2.410156 -4.71875 2.085938 -4.898438 1.828125 -5.109375 C 1.566406 -5.328125 1.375 -5.578125 1.25 -5.859375 C 1.132812 -6.140625 1.078125 -6.46875 1.078125 -6.84375 L 1.078125 -6.875 C 1.078125 -7.238281 1.148438 -7.570312 1.296875 -7.875 C 1.453125 -8.1875 1.664062 -8.453125 1.9375 -8.671875 C 2.207031 -8.898438 2.523438 -9.078125 2.890625 -9.203125 C 3.265625 -9.335938 3.675781 -9.40625 4.125 -9.40625 C 4.800781 -9.40625 5.394531 -9.3125 5.90625 -9.125 C 6.414062 -8.9375 6.90625 -8.648438 7.375 -8.265625 L 6.765625 -7.453125 C 6.335938 -7.804688 5.90625 -8.0625 5.46875 -8.21875 C 5.03125 -8.382812 4.570312 -8.46875 4.09375 -8.46875 C 3.488281 -8.46875 3.007812 -8.320312 2.65625 -8.03125 C 2.300781 -7.75 2.125 -7.394531 2.125 -6.96875 L 2.125 -6.9375 C 2.125 -6.71875 2.15625 -6.519531 2.21875 -6.34375 C 2.289062 -6.175781 2.421875 -6.019531 2.609375 -5.875 C 2.796875 -5.726562 3.050781 -5.59375 3.375 -5.46875 C 3.707031 -5.351562 4.128906 -5.242188 4.640625 -5.140625 C 5.671875 -4.910156 6.429688 -4.59375 6.921875 -4.1875 C 7.410156 -3.78125 7.65625 -3.222656 7.65625 -2.515625 L 7.65625 -2.484375 C 7.65625 -2.085938 7.578125 -1.726562 7.421875 -1.40625 C 7.265625 -1.082031 7.046875 -0.804688 6.765625 -0.578125 C 6.484375 -0.347656 6.148438 -0.171875 5.765625 -0.046875 C 5.378906 0.0664062 4.953125 0.125 4.484375 0.125 Z M 4.484375 0.125 "/></g></g></g><g fill="#000000" fill-opacity="1"><g transform="translate(156.311338, 287.927676)"><g/></g></g><g fill="#000000" fill-opacity="1"><g transform="translate(163.994019, 287.927676)"><g><path d="M 1.3125 -9.28125 L 4.53125 -9.28125 C 5.257812 -9.28125 5.925781 -9.160156 6.53125 -8.921875 C 7.132812 -8.691406 7.65625 -8.367188 8.09375 -7.953125 C 8.53125 -7.535156 8.863281 -7.046875 9.09375 -6.484375 C 9.332031 -5.921875 9.453125 -5.3125 9.453125 -4.65625 L 9.453125 -4.640625 C 9.453125 -3.984375 9.332031 -3.375 9.09375 -2.8125 C 8.863281 -2.25 8.53125 -1.757812 8.09375 -1.34375 C 7.65625 -0.925781 7.132812 -0.597656 6.53125 -0.359375 C 5.925781 -0.117188 5.257812 0 4.53125 0 L 1.3125 0 Z M 2.359375 -8.3125 L 2.359375 -0.96875 L 4.53125 -0.96875 C 5.113281 -0.96875 5.644531 -1.0625 6.125 -1.25 C 6.601562 -1.4375 7.003906 -1.691406 7.328125 -2.015625 C 7.660156 -2.335938 7.914062 -2.722656 8.09375 -3.171875 C 8.28125 -3.617188 8.375 -4.097656 8.375 -4.609375 L 8.375 -4.640625 C 8.375 -5.148438 8.28125 -5.628906 8.09375 -6.078125 C 7.914062 -6.523438 7.660156 -6.910156 7.328125 -7.234375 C 7.003906 -7.566406 6.601562 -7.828125 6.125 -8.015625 C 5.644531 -8.210938 5.113281 -8.3125 4.53125 -8.3125 Z M 2.359375 -8.3125 "/></g></g></g><g fill="#000000" fill-opacity="1"><g transform="translate(178.05946, 287.927676)"><g><path d="M 1.3125 -9.28125 L 8.015625 -9.28125 L 8.015625 -8.328125 L 2.359375 -8.328125 L 2.359375 -5.15625 L 7.421875 -5.15625 L 7.421875 -4.203125 L 2.359375 -4.203125 L 2.359375 -0.953125 L 8.078125 -0.953125 L 8.078125 0 L 1.3125 0 Z M 1.3125 -9.28125 "/></g></g></g><g fill="#000000" fill-opacity="1"><g transform="translate(190.641769, 287.927676)"><g/></g></g><g fill="#000000" fill-opacity="1"><g transform="translate(198.32445, 287.927676)"><g><path d="M 3.71875 -8.3125 L 0.59375 -8.3125 L 0.59375 -9.28125 L 7.890625 -9.28125 L 7.890625 -8.3125 L 4.765625 -8.3125 L 4.765625 0 L 3.71875 0 Z M 3.71875 -8.3125 "/></g></g></g><g fill="#000000" fill-opacity="1"><g transform="translate(210.52273, 287.927676)"><g><path d="M 1.3125 -9.28125 L 8.015625 -9.28125 L 8.015625 -8.328125 L 2.359375 -8.328125 L 2.359375 -5.15625 L 7.421875 -5.15625 L 7.421875 -4.203125 L 2.359375 -4.203125 L 2.359375 -0.953125 L 8.078125 -0.953125 L 8.078125 0 L 1.3125 0 Z M 1.3125 -9.28125 "/></g></g></g><g fill="#000000" fill-opacity="1"><g transform="translate(223.105039, 287.927676)"><g><path d="M 5.546875 0.15625 C 4.878906 0.15625 4.257812 0.0351562 3.6875 -0.203125 C 3.125 -0.453125 2.632812 -0.789062 2.21875 -1.21875 C 1.8125 -1.65625 1.488281 -2.164062 1.25 -2.75 C 1.019531 -3.332031 0.90625 -3.953125 0.90625 -4.609375 L 0.90625 -4.640625 C 0.90625 -5.296875 1.019531 -5.910156 1.25 -6.484375 C 1.488281 -7.066406 1.8125 -7.578125 2.21875 -8.015625 C 2.632812 -8.453125 3.128906 -8.796875 3.703125 -9.046875 C 4.285156 -9.304688 4.914062 -9.4375 5.59375 -9.4375 C 6.019531 -9.4375 6.398438 -9.398438 6.734375 -9.328125 C 7.078125 -9.253906 7.394531 -9.15625 7.6875 -9.03125 C 7.976562 -8.90625 8.242188 -8.75 8.484375 -8.5625 C 8.734375 -8.382812 8.972656 -8.1875 9.203125 -7.96875 L 8.5 -7.1875 C 8.09375 -7.5625 7.660156 -7.867188 7.203125 -8.109375 C 6.753906 -8.347656 6.210938 -8.46875 5.578125 -8.46875 C 5.066406 -8.46875 4.59375 -8.367188 4.15625 -8.171875 C 3.71875 -7.984375 3.335938 -7.710938 3.015625 -7.359375 C 2.691406 -7.015625 2.4375 -6.609375 2.25 -6.140625 C 2.070312 -5.679688 1.984375 -5.1875 1.984375 -4.65625 L 1.984375 -4.640625 C 1.984375 -4.097656 2.070312 -3.59375 2.25 -3.125 C 2.4375 -2.664062 2.691406 -2.265625 3.015625 -1.921875 C 3.335938 -1.578125 3.71875 -1.304688 4.15625 -1.109375 C 4.59375 -0.910156 5.066406 -0.8125 5.578125 -0.8125 C 6.210938 -0.8125 6.757812 -0.925781 7.21875 -1.15625 C 7.675781 -1.394531 8.128906 -1.722656 8.578125 -2.140625 L 9.265625 -1.46875 C 9.023438 -1.21875 8.773438 -0.992188 8.515625 -0.796875 C 8.253906 -0.597656 7.972656 -0.425781 7.671875 -0.28125 C 7.367188 -0.144531 7.046875 -0.0390625 6.703125 0.03125 C 6.359375 0.113281 5.972656 0.15625 5.546875 0.15625 Z M 5.546875 0.15625 "/></g></g></g><g fill="#000000" fill-opacity="1"><g transform="translate(236.640789, 287.927676)"><g><path d="M 1.3125 -9.28125 L 2.296875 -9.28125 L 8.140625 -1.84375 L 8.140625 -9.28125 L 9.15625 -9.28125 L 9.15625 0 L 8.328125 0 L 2.328125 -7.609375 L 2.328125 0 L 1.3125 0 Z M 1.3125 -9.28125 "/></g></g></g><g fill="#000000" fill-opacity="1"><g transform="translate(250.812178, 287.927676)"><g><path d="M 5.625 0.15625 C 4.914062 0.15625 4.269531 0.03125 3.6875 -0.21875 C 3.113281 -0.476562 2.617188 -0.828125 2.203125 -1.265625 C 1.785156 -1.703125 1.460938 -2.207031 1.234375 -2.78125 C 1.015625 -3.363281 0.90625 -3.972656 0.90625 -4.609375 L 0.90625 -4.640625 C 0.90625 -5.273438 1.019531 -5.882812 1.25 -6.46875 C 1.476562 -7.050781 1.796875 -7.5625 2.203125 -8 C 2.617188 -8.4375 3.117188 -8.785156 3.703125 -9.046875 C 4.285156 -9.304688 4.929688 -9.4375 5.640625 -9.4375 C 6.347656 -9.4375 6.988281 -9.304688 7.5625 -9.046875 C 8.144531 -8.796875 8.644531 -8.453125 9.0625 -8.015625 C 9.476562 -7.578125 9.796875 -7.066406 10.015625 -6.484375 C 10.242188 -5.910156 10.359375 -5.300781 10.359375 -4.65625 L 10.359375 -4.640625 C 10.359375 -4.003906 10.242188 -3.394531 10.015625 -2.8125 C 9.785156 -2.226562 9.460938 -1.71875 9.046875 -1.28125 C 8.628906 -0.84375 8.128906 -0.492188 7.546875 -0.234375 C 6.960938 0.0234375 6.320312 0.15625 5.625 0.15625 Z M 5.640625 -0.8125 C 6.171875 -0.8125 6.660156 -0.910156 7.109375 -1.109375 C 7.554688 -1.304688 7.9375 -1.578125 8.25 -1.921875 C 8.570312 -2.265625 8.820312 -2.664062 9 -3.125 C 9.1875 -3.582031 9.28125 -4.078125 9.28125 -4.609375 L 9.28125 -4.640625 C 9.28125 -5.171875 9.1875 -5.664062 9 -6.125 C 8.820312 -6.59375 8.566406 -7 8.234375 -7.34375 C 7.910156 -7.6875 7.523438 -7.957031 7.078125 -8.15625 C 6.628906 -8.363281 6.144531 -8.46875 5.625 -8.46875 C 5.09375 -8.46875 4.601562 -8.367188 4.15625 -8.171875 C 3.707031 -7.972656 3.320312 -7.703125 3 -7.359375 C 2.6875 -7.015625 2.4375 -6.609375 2.25 -6.140625 C 2.070312 -5.679688 1.984375 -5.1875 1.984375 -4.65625 L 1.984375 -4.640625 C 1.984375 -4.109375 2.070312 -3.609375 2.25 -3.140625 C 2.4375 -2.679688 2.691406 -2.28125 3.015625 -1.9375 C 3.347656 -1.59375 3.734375 -1.316406 4.171875 -1.109375 C 4.617188 -0.910156 5.109375 -0.8125 5.640625 -0.8125 Z M 5.640625 -0.8125 "/></g></g></g><g fill="#000000" fill-opacity="1"><g transform="translate(265.778097, 287.927676)"><g><path d="M 1.3125 -9.28125 L 2.359375 -9.28125 L 2.359375 -0.96875 L 7.578125 -0.96875 L 7.578125 0 L 1.3125 0 Z M 1.3125 -9.28125 "/></g></g></g><g fill="#000000" fill-opacity="1"><g transform="translate(277.632092, 287.927676)"><g><path d="M 5.625 0.15625 C 4.914062 0.15625 4.269531 0.03125 3.6875 -0.21875 C 3.113281 -0.476562 2.617188 -0.828125 2.203125 -1.265625 C 1.785156 -1.703125 1.460938 -2.207031 1.234375 -2.78125 C 1.015625 -3.363281 0.90625 -3.972656 0.90625 -4.609375 L 0.90625 -4.640625 C 0.90625 -5.273438 1.019531 -5.882812 1.25 -6.46875 C 1.476562 -7.050781 1.796875 -7.5625 2.203125 -8 C 2.617188 -8.4375 3.117188 -8.785156 3.703125 -9.046875 C 4.285156 -9.304688 4.929688 -9.4375 5.640625 -9.4375 C 6.347656 -9.4375 6.988281 -9.304688 7.5625 -9.046875 C 8.144531 -8.796875 8.644531 -8.453125 9.0625 -8.015625 C 9.476562 -7.578125 9.796875 -7.066406 10.015625 -6.484375 C 10.242188 -5.910156 10.359375 -5.300781 10.359375 -4.65625 L 10.359375 -4.640625 C 10.359375 -4.003906 10.242188 -3.394531 10.015625 -2.8125 C 9.785156 -2.226562 9.460938 -1.71875 9.046875 -1.28125 C 8.628906 -0.84375 8.128906 -0.492188 7.546875 -0.234375 C 6.960938 0.0234375 6.320312 0.15625 5.625 0.15625 Z M 5.640625 -0.8125 C 6.171875 -0.8125 6.660156 -0.910156 7.109375 -1.109375 C 7.554688 -1.304688 7.9375 -1.578125 8.25 -1.921875 C 8.570312 -2.265625 8.820312 -2.664062 9 -3.125 C 9.1875 -3.582031 9.28125 -4.078125 9.28125 -4.609375 L 9.28125 -4.640625 C 9.28125 -5.171875 9.1875 -5.664062 9 -6.125 C 8.820312 -6.59375 8.566406 -7 8.234375 -7.34375 C 7.910156 -7.6875 7.523438 -7.957031 7.078125 -8.15625 C 6.628906 -8.363281 6.144531 -8.46875 5.625 -8.46875 C 5.09375 -8.46875 4.601562 -8.367188 4.15625 -8.171875 C 3.707031 -7.972656 3.320312 -7.703125 3 -7.359375 C 2.6875 -7.015625 2.4375 -6.609375 2.25 -6.140625 C 2.070312 -5.679688 1.984375 -5.1875 1.984375 -4.65625 L 1.984375 -4.640625 C 1.984375 -4.109375 2.070312 -3.609375 2.25 -3.140625 C 2.4375 -2.679688 2.691406 -2.28125 3.015625 -1.9375 C 3.347656 -1.59375 3.734375 -1.316406 4.171875 -1.109375 C 4.617188 -0.910156 5.109375 -0.8125 5.640625 -0.8125 Z M 5.640625 -0.8125 "/></g></g></g><g fill="#000000" fill-opacity="1"><g transform="translate(292.59801, 287.927676)"><g><path d="M 5.625 0.15625 C 4.882812 0.15625 4.222656 0.0351562 3.640625 -0.203125 C 3.066406 -0.453125 2.570312 -0.789062 2.15625 -1.21875 C 1.75 -1.65625 1.4375 -2.164062 1.21875 -2.75 C 1.007812 -3.332031 0.90625 -3.953125 0.90625 -4.609375 L 0.90625 -4.640625 C 0.90625 -5.273438 1.015625 -5.878906 1.234375 -6.453125 C 1.460938 -7.035156 1.78125 -7.546875 2.1875 -7.984375 C 2.59375 -8.429688 3.078125 -8.785156 3.640625 -9.046875 C 4.210938 -9.304688 4.847656 -9.4375 5.546875 -9.4375 C 5.941406 -9.4375 6.300781 -9.410156 6.625 -9.359375 C 6.945312 -9.304688 7.242188 -9.222656 7.515625 -9.109375 C 7.796875 -9.003906 8.054688 -8.875 8.296875 -8.71875 C 8.546875 -8.570312 8.785156 -8.398438 9.015625 -8.203125 L 8.328125 -7.40625 C 8.148438 -7.5625 7.960938 -7.703125 7.765625 -7.828125 C 7.578125 -7.960938 7.367188 -8.078125 7.140625 -8.171875 C 6.921875 -8.265625 6.675781 -8.335938 6.40625 -8.390625 C 6.132812 -8.441406 5.835938 -8.46875 5.515625 -8.46875 C 5.003906 -8.46875 4.53125 -8.363281 4.09375 -8.15625 C 3.65625 -7.957031 3.28125 -7.6875 2.96875 -7.34375 C 2.664062 -7 2.425781 -6.59375 2.25 -6.125 C 2.070312 -5.664062 1.984375 -5.175781 1.984375 -4.65625 L 1.984375 -4.640625 C 1.984375 -4.078125 2.066406 -3.5625 2.234375 -3.09375 C 2.410156 -2.625 2.65625 -2.21875 2.96875 -1.875 C 3.289062 -1.53125 3.675781 -1.257812 4.125 -1.0625 C 4.582031 -0.875 5.09375 -0.78125 5.65625 -0.78125 C 6.1875 -0.78125 6.6875 -0.867188 7.15625 -1.046875 C 7.625 -1.234375 8.015625 -1.453125 8.328125 -1.703125 L 8.328125 -4.015625 L 5.515625 -4.015625 L 5.515625 -4.953125 L 9.34375 -4.953125 L 9.34375 -1.265625 C 8.90625 -0.867188 8.367188 -0.53125 7.734375 -0.25 C 7.109375 0.0195312 6.40625 0.15625 5.625 0.15625 Z M 5.625 0.15625 "/></g></g></g><g fill="#000000" fill-opacity="1"><g transform="translate(306.689944, 287.927676)"><g><path d="M 1.40625 -9.28125 L 2.453125 -9.28125 L 2.453125 0 L 1.40625 0 Z M 1.40625 -9.28125 "/></g></g></g><g fill="#000000" fill-opacity="1"><g transform="translate(314.253435, 287.927676)"><g><path d="M 4.75 -9.34375 L 5.71875 -9.34375 L 9.953125 0 L 8.828125 0 L 7.734375 -2.453125 L 2.6875 -2.453125 L 1.59375 0 L 0.515625 0 Z M 7.328125 -3.390625 L 5.21875 -8.125 L 3.09375 -3.390625 Z M 7.328125 -3.390625 "/></g></g></g></svg>