<svg xmlns="http://www.w3.org/2000/svg" xmlns:xlink="http://www.w3.org/1999/xlink" width="500" zoomAndPan="magnify" viewBox="0 0 375 374.999991" height="500" preserveAspectRatio="xMidYMid meet" version="1.0"><defs><g/><clipPath id="a7de4297e2"><path d="M 3 76.171875 L 372 76.171875 L 372 298.921875 L 3 298.921875 Z M 3 76.171875 " clip-rule="nonzero"/></clipPath></defs><g clip-path="url(#a7de4297e2)"><path fill="#000000" d="M 221.359375 280.550781 L 221.359375 286.292969 L 152.496094 286.292969 L 152.496094 280.550781 L 3.292969 280.550781 L 3.292969 282.847656 C 3.292969 286.292969 4.441406 290.882812 7.882812 294.328125 C 11.324219 297.773438 14.769531 298.921875 19.359375 298.921875 L 355.640625 298.921875 C 359.082031 298.921875 363.675781 297.773438 367.117188 294.328125 C 370.558594 290.882812 371.707031 287.441406 371.707031 282.847656 L 371.707031 280.550781 Z M 53.792969 290.882812 L 37.722656 290.882812 L 37.722656 288.589844 L 53.792969 288.589844 Z M 46.90625 274.808594 L 326.945312 274.808594 C 329.242188 274.808594 331.539062 273.660156 333.832031 271.363281 C 336.128906 269.070312 337.277344 266.773438 337.277344 264.476562 L 337.277344 86.503906 C 337.277344 84.210938 336.128906 81.914062 333.832031 79.617188 C 331.539062 77.320312 329.242188 76.171875 326.945312 76.171875 L 46.90625 76.171875 C 44.609375 76.171875 42.3125 77.320312 40.019531 79.617188 C 37.722656 80.765625 37.722656 83.0625 37.722656 86.503906 L 37.722656 265.625 C 37.722656 267.921875 38.871094 270.21875 41.167969 272.511719 C 42.3125 273.660156 44.609375 274.808594 46.90625 274.808594 Z M 186.925781 80.765625 C 189.222656 80.765625 190.371094 81.914062 190.371094 84.210938 C 190.371094 86.503906 189.222656 87.652344 186.925781 87.652344 C 184.628906 87.652344 183.484375 86.503906 183.484375 84.210938 C 183.484375 81.914062 184.628906 80.765625 186.925781 80.765625 Z M 52.644531 92.246094 L 321.207031 92.246094 L 321.207031 259.882812 L 52.644531 259.882812 Z M 52.644531 92.246094 " fill-opacity="1" fill-rule="nonzero"/></g><g fill="#000000" fill-opacity="1"><g transform="translate(103.937252, 202.27201)"><g><path d="M 7.71875 -21.9375 C 11.46875 -20.0625 13.34375 -16.609375 13.34375 -11.578125 L 13.34375 -0.96875 C 13.34375 1.820312 13.914062 3.738281 15.0625 4.78125 C 16.21875 5.820312 18.40625 6.34375 21.625 6.34375 L 21.625 10.6875 C 19.695312 10.6875 17.914062 10.59375 16.28125 10.40625 C 14.644531 10.21875 13.207031 9.75 11.96875 9 C 9.34375 7.34375 8.03125 4.046875 8.03125 -0.890625 L 8.03125 -12.453125 C 8.03125 -14.921875 7.28125 -16.878906 5.78125 -18.328125 C 4.550781 -19.503906 3.1875 -20.09375 1.6875 -20.09375 L 1.6875 -23.796875 C 3.1875 -23.796875 4.394531 -24.25 5.3125 -25.15625 C 7.125 -26.875 8.03125 -28.960938 8.03125 -31.421875 L 8.03125 -43 C 8.03125 -49.914062 10.765625 -53.691406 16.234375 -54.328125 C 17.898438 -54.492188 19.695312 -54.578125 21.625 -54.578125 L 21.625 -50.234375 C 18.40625 -50.234375 16.21875 -49.707031 15.0625 -48.65625 C 13.914062 -47.613281 13.34375 -45.703125 13.34375 -42.921875 L 13.34375 -32.3125 C 13.34375 -29.3125 12.78125 -27.003906 11.65625 -25.390625 C 10.53125 -23.785156 9.21875 -22.632812 7.71875 -21.9375 Z M 7.71875 -21.9375 "/></g></g></g><g fill="#000000" fill-opacity="1"><g transform="translate(127.575018, 202.27201)"><g/></g></g><g fill="#000000" fill-opacity="1"><g transform="translate(144.696196, 202.27201)"><g/></g></g><g fill="#000000" fill-opacity="1"><g transform="translate(161.817374, 202.27201)"><g/></g></g><g fill="#000000" fill-opacity="1"><g transform="translate(178.938553, 202.27201)"><g/></g></g><g fill="#000000" fill-opacity="1"><g transform="translate(196.059731, 202.27201)"><g/></g></g><g fill="#000000" fill-opacity="1"><g transform="translate(213.180909, 202.27201)"><g/></g></g><g fill="#000000" fill-opacity="1"><g transform="translate(230.302087, 202.27201)"><g/></g></g><g fill="#000000" fill-opacity="1"><g transform="translate(247.424193, 202.27201)"><g><path d="M 10.28125 -11.578125 C 10.28125 -16.609375 12.160156 -20.0625 15.921875 -21.9375 C 14.410156 -22.632812 13.09375 -23.785156 11.96875 -25.390625 C 10.84375 -27.003906 10.28125 -29.3125 10.28125 -32.3125 L 10.28125 -42.921875 C 10.28125 -45.703125 9.703125 -47.613281 8.546875 -48.65625 C 7.398438 -49.707031 5.222656 -50.234375 2.015625 -50.234375 L 2.015625 -54.578125 C 3.941406 -54.578125 5.722656 -54.484375 7.359375 -54.296875 C 8.992188 -54.109375 10.425781 -53.640625 11.65625 -52.890625 C 14.28125 -51.222656 15.59375 -47.925781 15.59375 -43 L 15.59375 -31.421875 C 15.59375 -28.960938 16.34375 -27.007812 17.84375 -25.5625 C 19.070312 -24.382812 20.4375 -23.796875 21.9375 -23.796875 L 21.9375 -20.09375 C 20.4375 -20.09375 19.234375 -19.640625 18.328125 -18.734375 C 16.503906 -17.015625 15.59375 -14.921875 15.59375 -12.453125 L 15.59375 -0.890625 C 15.59375 6.023438 12.859375 9.804688 7.390625 10.453125 C 5.734375 10.609375 3.941406 10.6875 2.015625 10.6875 L 2.015625 6.34375 C 5.222656 6.34375 7.398438 5.820312 8.546875 4.78125 C 9.703125 3.738281 10.28125 1.820312 10.28125 -0.96875 Z M 10.28125 -11.578125 "/></g></g></g><g fill="#000000" fill-opacity="1"><g transform="translate(139.54542, 206.601656)"><g><path d="M 14.9375 -0.515625 C 17.0625 -0.515625 18.734375 -1.066406 19.953125 -2.171875 C 21.171875 -3.273438 21.78125 -4.78125 21.78125 -6.6875 L 21.78125 -49.546875 L 21.203125 -49.546875 C 18.378906 -49.546875 15.976562 -49.242188 14 -48.640625 C 12.019531 -48.046875 10.378906 -47.273438 9.078125 -46.328125 C 7.785156 -45.378906 6.753906 -44.378906 5.984375 -43.328125 C 5.210938 -42.285156 4.640625 -41.28125 4.265625 -40.3125 C 3.898438 -39.34375 3.660156 -38.570312 3.546875 -38 L 3.375 -36.953125 L 2.90625 -37.1875 L 4.875 -50.078125 L 50.65625 -50.078125 L 52.640625 -37.1875 L 52.171875 -36.953125 L 52 -38 C 51.875 -38.570312 51.628906 -39.34375 51.265625 -40.3125 C 50.898438 -41.28125 50.328125 -42.285156 49.546875 -43.328125 C 48.773438 -44.378906 47.738281 -45.378906 46.4375 -46.328125 C 45.144531 -47.273438 43.507812 -48.046875 41.53125 -48.640625 C 39.5625 -49.242188 37.160156 -49.546875 34.328125 -49.546875 L 33.8125 -49.546875 L 33.8125 -6.6875 C 33.8125 -4.78125 34.421875 -3.273438 35.640625 -2.171875 C 36.859375 -1.066406 38.535156 -0.515625 40.671875 -0.515625 L 40.671875 0 L 14.9375 0 Z M 14.9375 -0.515625 "/></g></g></g><g fill="#000000" fill-opacity="1"><g transform="translate(195.077854, 206.601656)"><g><path d="M 11.796875 -1.390625 C 9.816406 -2.171875 8.265625 -2.65625 7.140625 -2.84375 C 6.015625 -3.039062 5.191406 -3.03125 4.671875 -2.8125 C 4.148438 -2.601562 3.820312 -2.253906 3.6875 -1.765625 C 3.550781 -1.285156 3.484375 -0.71875 3.484375 -0.0625 L 3.484375 0 L 2.96875 0 L 2.96875 -16.609375 L 3.484375 -16.609375 L 3.484375 -15.28125 C 3.484375 -13.414062 3.945312 -11.582031 4.875 -9.78125 C 5.8125 -7.988281 7.070312 -6.375 8.65625 -4.9375 C 10.238281 -3.5 12.023438 -2.351562 14.015625 -1.5 C 16.015625 -0.65625 18.082031 -0.234375 20.21875 -0.234375 C 23.039062 -0.234375 25.296875 -0.597656 26.984375 -1.328125 C 28.671875 -2.066406 29.910156 -3.054688 30.703125 -4.296875 C 31.492188 -5.535156 31.910156 -6.875 31.953125 -8.3125 C 31.992188 -9.625 31.601562 -10.832031 30.78125 -11.9375 C 29.96875 -13.039062 28.875 -14.085938 27.5 -15.078125 C 26.125 -16.066406 24.613281 -17.015625 22.96875 -17.921875 C 21.320312 -18.828125 19.695312 -19.734375 18.09375 -20.640625 C 16.488281 -21.554688 15.046875 -22.476562 13.765625 -23.40625 C 10.859375 -25.582031 8.609375 -27.5625 7.015625 -29.34375 C 5.429688 -31.125 4.492188 -32.90625 4.203125 -34.6875 C 3.921875 -36.46875 4.265625 -38.460938 5.234375 -40.671875 C 6.117188 -42.679688 7.40625 -44.421875 9.09375 -45.890625 C 10.78125 -47.367188 12.707031 -48.503906 14.875 -49.296875 C 17.039062 -50.085938 19.285156 -50.484375 21.609375 -50.484375 C 22.648438 -50.484375 23.675781 -50.394531 24.6875 -50.21875 C 25.695312 -50.039062 26.644531 -49.742188 27.53125 -49.328125 C 28.039062 -49.085938 28.660156 -48.8125 29.390625 -48.5 C 30.128906 -48.195312 30.863281 -47.957031 31.59375 -47.78125 C 32.332031 -47.601562 32.960938 -47.5625 33.484375 -47.65625 C 34.015625 -47.757812 34.296875 -48.082031 34.328125 -48.625 L 34.328125 -48.859375 L 34.859375 -48.859375 L 34.859375 -35.09375 L 34.328125 -35.09375 C 34.328125 -35.09375 34.296875 -35.429688 34.234375 -36.109375 C 34.179688 -36.785156 34.066406 -37.644531 33.890625 -38.6875 C 33.722656 -39.738281 33.4375 -40.863281 33.03125 -42.0625 C 32.625 -43.257812 32.082031 -44.398438 31.40625 -45.484375 C 30.726562 -46.566406 29.863281 -47.441406 28.8125 -48.109375 C 27.800781 -48.679688 26.6875 -49.128906 25.46875 -49.453125 C 24.25 -49.785156 22.960938 -49.953125 21.609375 -49.953125 C 19.359375 -49.953125 17.578125 -49.613281 16.265625 -48.9375 C 14.953125 -48.257812 14.023438 -47.335938 13.484375 -46.171875 C 12.941406 -45.015625 12.671875 -43.703125 12.671875 -42.234375 C 12.671875 -40.253906 13.347656 -38.5 14.703125 -36.96875 C 16.054688 -35.445312 18.125 -33.832031 20.90625 -32.125 C 23.3125 -30.65625 25.578125 -29.359375 27.703125 -28.234375 C 29.835938 -27.109375 31.71875 -25.945312 33.34375 -24.75 C 34.96875 -23.550781 36.253906 -22.117188 37.203125 -20.453125 C 38.148438 -18.785156 38.625 -16.671875 38.625 -14.109375 C 38.625 -12.453125 38.238281 -10.679688 37.46875 -8.796875 C 36.695312 -6.921875 35.726562 -5.398438 34.5625 -4.234375 C 33.320312 -2.992188 31.789062 -2.015625 29.96875 -1.296875 C 28.15625 -0.585938 26.191406 -0.128906 24.078125 0.078125 C 21.960938 0.296875 19.847656 0.28125 17.734375 0.03125 C 15.628906 -0.21875 13.648438 -0.691406 11.796875 -1.390625 Z M 11.796875 -1.390625 "/></g></g></g></svg>